<svg xmlns="http://www.w3.org/2000/svg" width="148.488" height="148.598" viewBox="0 0 148.488 148.598">
  <g id="about_us" data-name="about us" transform="translate(-650.54 -341.35)">
    <path id="Path_6118" data-name="Path 6118" d="M737.755,351.289l-1.407-2.37-3.567.42-.816,2.635-1.865.218,3.544-10.811,5.953,9.691Zm-3.723-6.629-.956,3.241,2.642-.311Z" transform="translate(-17.728 -0.007)"/>
    <path id="Path_6119" data-name="Path 6119" d="M750.074,348.422a2.666,2.666,0,0,1-.474,1.585,2.626,2.626,0,0,1-1.259.909,5.2,5.2,0,0,1-1.834.272l-3.116-.047.155-9.792,2.953.047a3.873,3.873,0,0,1,2.254.645,2.109,2.109,0,0,1,.839,1.865,1.914,1.914,0,0,1-.427,1.243,2.552,2.552,0,0,1-1.135.762,3.162,3.162,0,0,1,1.484.87A2.275,2.275,0,0,1,750.074,348.422Zm-5.021,1.376,1.368.023a2.262,2.262,0,0,0,1.391-.381,1.424,1.424,0,0,0,.567-1.2,1.355,1.355,0,0,0-.528-1.2,2.312,2.312,0,0,0-1.376-.412l-1.368-.023Zm1.306-7.033-1.189-.016-.039,2.557,1.189.016a1.748,1.748,0,0,0,1.127-.326,1.139,1.139,0,0,0,.451-.94,1.091,1.091,0,0,0-.42-.948A1.878,1.878,0,0,0,746.359,342.764Z" transform="translate(-20.689)"/>
    <path id="Path_6120" data-name="Path 6120" d="M754.057,346.6a5.211,5.211,0,0,1,.707-1.935,4.871,4.871,0,0,1,1.313-1.414,4.993,4.993,0,0,1,1.756-.785,5.178,5.178,0,0,1,2.052-.047,5.287,5.287,0,0,1,1.935.7,5.007,5.007,0,0,1,1.43,1.306,4.723,4.723,0,0,1,.793,1.764,5.6,5.6,0,0,1-.653,3.995,4.826,4.826,0,0,1-1.313,1.43,4.9,4.9,0,0,1-1.772.8,5.541,5.541,0,0,1-4.01-.653,4.845,4.845,0,0,1-2.2-3.093A5.414,5.414,0,0,1,754.057,346.6Zm1.741.288a3.734,3.734,0,0,0,.132,1.842,3.187,3.187,0,0,0,.956,1.414,3.538,3.538,0,0,0,3.4.552,3.113,3.113,0,0,0,1.36-1.034,3.97,3.97,0,0,0,.583-3.544,3.187,3.187,0,0,0-.956-1.414,3.531,3.531,0,0,0-3.4-.56,3.172,3.172,0,0,0-1.36,1.034A3.648,3.648,0,0,0,755.8,346.886Z" transform="translate(-23.048 -0.22)"/>
    <path id="Path_6121" data-name="Path 6121" d="M770.684,344.68l1.57.513-2.021,6.186a2.134,2.134,0,0,0,.016,1.539,2.113,2.113,0,0,0,2.72.886,2.173,2.173,0,0,0,.909-1.236l2.021-6.186,1.57.513-2.044,6.249a3.653,3.653,0,0,1-1.01,1.624,3.113,3.113,0,0,1-1.57.746,3.906,3.906,0,0,1-1.889-.179,3.961,3.961,0,0,1-1.632-.971,3.082,3.082,0,0,1-.824-1.531,3.7,3.7,0,0,1,.14-1.9Z" transform="translate(-26.269 -0.742)"/>
    <path id="Path_6122" data-name="Path 6122" d="M781.333,349.893l.645-1.383,6.186,2.891-.645,1.383-2.332-1.088-3.505,7.492-1.523-.715,3.505-7.492Z" transform="translate(-28.882 -1.595)"/>
    <path id="Path_6123" data-name="Path 6123" d="M796.587,356.56l1.344.964-3.785,5.285a2.119,2.119,0,0,0-.451,1.469,2.106,2.106,0,0,0,2.324,1.663,2.132,2.132,0,0,0,1.236-.9l3.785-5.285,1.344.964-3.832,5.347a3.678,3.678,0,0,1-1.445,1.243,3.093,3.093,0,0,1-1.718.241,3.981,3.981,0,0,1-1.749-.738,3.887,3.887,0,0,1-1.259-1.422,3.088,3.088,0,0,1-.326-1.7,3.647,3.647,0,0,1,.707-1.772Z" transform="translate(-31.53 -3.389)"/>
    <path id="Path_6124" data-name="Path 6124" d="M802.831,369.965a4.88,4.88,0,0,0-.249,1.8,2.057,2.057,0,0,0,.684,1.368,1.607,1.607,0,0,0,1.049.505,1.266,1.266,0,0,0,.94-.466,1.237,1.237,0,0,0,.373-.863,2.709,2.709,0,0,0-.194-.979q-.2-.513-.466-1.049c-.117-.233-.233-.5-.357-.793a4.147,4.147,0,0,1-.264-.933,2.4,2.4,0,0,1,.062-1.018,2.486,2.486,0,0,1,.622-1.034,2.43,2.43,0,0,1,1.22-.738,2.623,2.623,0,0,1,1.422.07,3.8,3.8,0,0,1,1.422.878,3.529,3.529,0,0,1,.886,1.236,3.4,3.4,0,0,1,.233,1.282,4.366,4.366,0,0,1-.2,1.228l-1.492-.3a3.419,3.419,0,0,0,.1-1.282,1.806,1.806,0,0,0-.591-1.127,1.359,1.359,0,0,0-.933-.435,1.116,1.116,0,0,0-.824.389.915.915,0,0,0-.256.738,3.1,3.1,0,0,0,.256.948c.148.342.319.707.505,1.08a6.359,6.359,0,0,1,.466,1.2,3.066,3.066,0,0,1,.062,1.329,2.626,2.626,0,0,1-.715,1.321,2.766,2.766,0,0,1-1.352.847,2.683,2.683,0,0,1-1.523-.047,3.957,3.957,0,0,1-1.484-.9,3.653,3.653,0,0,1-.917-1.321,4,4,0,0,1-.3-1.57,4.589,4.589,0,0,1,.319-1.6Z" transform="translate(-33.53 -5.424)"/>
    <path id="Path_6125" data-name="Path 6125" d="M821.51,394.757l1.2-.637,1.345,2.534-1.2.637Z" transform="translate(-38.096 -11.758)"/>
    <path id="Path_6126" data-name="Path 6126" d="M828.4,426.842l2.339-1.461-.505-3.56-2.65-.754-.264-1.857,10.888,3.3-9.552,6.179Zm6.544-3.878-3.264-.878.373,2.635Z" transform="translate(-39.391 -17.349)"/>
    <path id="Path_6127" data-name="Path 6127" d="M831.87,438.986a2.717,2.717,0,0,1-1.6-.42,2.607,2.607,0,0,1-.948-1.228,5.24,5.24,0,0,1-.334-1.826l-.047-3.116,9.792-.155.047,2.953a3.861,3.861,0,0,1-.575,2.277,2.1,2.1,0,0,1-1.842.894,1.948,1.948,0,0,1-1.259-.389,2.562,2.562,0,0,1-.793-1.1,3.08,3.08,0,0,1-.824,1.508A2.231,2.231,0,0,1,831.87,438.986Zm-1.539-4.966.023,1.368a2.217,2.217,0,0,0,.427,1.376,1.433,1.433,0,0,0,1.228.528,1.362,1.362,0,0,0,1.181-.567,2.312,2.312,0,0,0,.373-1.391l-.023-1.368Zm7.072,1.073-.016-1.189-2.557.039.016,1.189a1.731,1.731,0,0,0,.357,1.111,1.242,1.242,0,0,0,1.889-.031A1.8,1.8,0,0,0,837.4,435.092Z" transform="translate(-39.752 -20.252)"/>
    <path id="Path_6128" data-name="Path 6128" d="M833.672,442.993a5.228,5.228,0,0,1,1.951.661,4.992,4.992,0,0,1,1.446,1.282,4.8,4.8,0,0,1,.824,1.741,5.272,5.272,0,0,1,.093,2.044,5.359,5.359,0,0,1-.653,1.951,4.918,4.918,0,0,1-1.275,1.461,4.706,4.706,0,0,1-1.741.839,5.612,5.612,0,0,1-4-.56,4.919,4.919,0,0,1-1.461-1.275,4.8,4.8,0,0,1-.839-1.749,5.233,5.233,0,0,1-.1-2.067,5.309,5.309,0,0,1,.661-1.958,4.907,4.907,0,0,1,1.29-1.446,5.018,5.018,0,0,1,1.756-.832A5.166,5.166,0,0,1,833.672,442.993Zm-.249,1.749a3.721,3.721,0,0,0-1.842.171,3.151,3.151,0,0,0-1.391.995,3.519,3.519,0,0,0-.482,3.4,3.179,3.179,0,0,0,1.065,1.337,4.018,4.018,0,0,0,3.559.5,3.108,3.108,0,0,0,1.391-.995,3.345,3.345,0,0,0,.684-1.648,3.181,3.181,0,0,0-1.275-3.093A3.57,3.57,0,0,0,833.424,444.741Z" transform="translate(-39.51 -22.635)"/>
    <path id="Path_6129" data-name="Path 6129" d="M835.771,459.588l-.474,1.578-6.233-1.873a2.141,2.141,0,0,0-1.531.047,2.1,2.1,0,0,0-.824,2.736,2.162,2.162,0,0,0,1.251.878l6.233,1.873-.474,1.578-6.3-1.9a3.654,3.654,0,0,1-1.648-.971,3.1,3.1,0,0,1-.785-1.547,3.908,3.908,0,0,1,.132-1.9,4.011,4.011,0,0,1,.933-1.655,3.045,3.045,0,0,1,1.508-.863,3.581,3.581,0,0,1,1.9.1Z" transform="translate(-38.858 -25.879)"/>
    <path id="Path_6130" data-name="Path 6130" d="M830.857,470.371l1.4.614-2.751,6.249-1.4-.614,1.034-2.355-7.57-3.326.676-1.539,7.57,3.326Z" transform="translate(-38.109 -28.533)"/>
    <path id="Path_6131" data-name="Path 6131" d="M824.448,485.771l-.933,1.36-5.37-3.668a2.118,2.118,0,0,0-1.477-.412,1.812,1.812,0,0,0-1.267.863,1.768,1.768,0,0,0-.342,1.5,2.127,2.127,0,0,0,.933,1.22l5.37,3.668-.933,1.36L815,487.955a3.61,3.61,0,0,1-1.275-1.422,3.1,3.1,0,0,1-.28-1.718,3.867,3.867,0,0,1,.7-1.764,4,4,0,0,1,1.391-1.3,3.077,3.077,0,0,1,1.694-.365,3.577,3.577,0,0,1,1.788.668Z" transform="translate(-36.294 -31.202)"/>
    <path id="Path_6132" data-name="Path 6132" d="M811.6,492.317a4.811,4.811,0,0,0-1.8-.21,2.08,2.08,0,0,0-1.352.715,1.6,1.6,0,0,0-.482,1.065,1.27,1.27,0,0,0,.482.925,1.284,1.284,0,0,0,.87.358,2.687,2.687,0,0,0,.971-.218,11.236,11.236,0,0,0,1.034-.49c.233-.117.49-.241.777-.373a3.952,3.952,0,0,1,.933-.288,2.427,2.427,0,0,1,1.026.039,2.509,2.509,0,0,1,1.049.6,2.4,2.4,0,0,1,.762,1.2,2.611,2.611,0,0,1-.039,1.422,3.826,3.826,0,0,1-.839,1.438,3.294,3.294,0,0,1-1.212.909,3.258,3.258,0,0,1-1.275.264,4.345,4.345,0,0,1-1.228-.179l.272-1.5a3.408,3.408,0,0,0,1.282.078,1.741,1.741,0,0,0,1.111-.622,1.38,1.38,0,0,0,.42-.94,1.13,1.13,0,0,0-.412-.816.958.958,0,0,0-.746-.241,2.715,2.715,0,0,0-.94.28c-.342.155-.7.334-1.073.528a5.679,5.679,0,0,1-1.2.49,3.2,3.2,0,0,1-1.329.093,2.57,2.57,0,0,1-1.337-.684,2.815,2.815,0,0,1-.878-1.337,2.747,2.747,0,0,1,.016-1.523,3.875,3.875,0,0,1,.87-1.5,3.712,3.712,0,0,1,1.306-.948,4,4,0,0,1,1.57-.326,4.387,4.387,0,0,1,1.609.28Z" transform="translate(-34.718 -33.241)"/>
    <path id="Path_6133" data-name="Path 6133" d="M789.073,511.52l.661,1.181-2.5,1.4-.661-1.181Z" transform="translate(-30.311 -37.918)"/>
    <path id="Path_6134" data-name="Path 6134" d="M755.324,519.151l1.516,2.3,3.544-.583.7-2.666,1.85-.3-3.047,10.958-6.4-9.412Zm4.026,6.451.808-3.28-2.619.435Z" transform="translate(-22.94 -39.339)"/>
    <path id="Path_6135" data-name="Path 6135" d="M744,522.865a2.7,2.7,0,0,1,.4-1.609,2.623,2.623,0,0,1,1.22-.964,5.062,5.062,0,0,1,1.826-.35l3.116-.093.28,9.785-2.953.086a3.9,3.9,0,0,1-2.285-.544,2.1,2.1,0,0,1-.917-1.826,1.931,1.931,0,0,1,.373-1.267,2.565,2.565,0,0,1,1.1-.808,3.163,3.163,0,0,1-1.523-.8A2.175,2.175,0,0,1,744,522.865Zm4.951-1.6-1.368.039a2.273,2.273,0,0,0-1.376.443,1.418,1.418,0,0,0-.513,1.236,1.368,1.368,0,0,0,.583,1.174,2.347,2.347,0,0,0,1.4.35l1.368-.039Zm-.987,7.088,1.189-.031-.078-2.557-1.189.031a1.8,1.8,0,0,0-1.111.373,1.25,1.25,0,0,0,.054,1.888A1.86,1.86,0,0,0,747.963,528.352Z" transform="translate(-20.825 -39.774)"/>
    <path id="Path_6136" data-name="Path 6136" d="M739.121,524.814a5.3,5.3,0,0,1-.614,1.966,4.826,4.826,0,0,1-2.969,2.339,5.242,5.242,0,0,1-2.044.14,5.438,5.438,0,0,1-1.966-.606,5,5,0,0,1-1.492-1.236,4.659,4.659,0,0,1-.878-1.725,5.292,5.292,0,0,1-.14-2.052,5.439,5.439,0,0,1,.606-1.966,5.021,5.021,0,0,1,1.243-1.492,4.826,4.826,0,0,1,1.733-.886,5.585,5.585,0,0,1,4.041.466,4.915,4.915,0,0,1,1.477,1.259,4.858,4.858,0,0,1,.87,1.733A5.5,5.5,0,0,1,739.121,524.814Zm-1.749-.2a3.668,3.668,0,0,0-.218-1.834,3.208,3.208,0,0,0-1.026-1.368,3.263,3.263,0,0,0-1.648-.645,3.322,3.322,0,0,0-1.764.241,3.189,3.189,0,0,0-1.313,1.1,3.749,3.749,0,0,0-.63,1.733,3.668,3.668,0,0,0,.218,1.834,3.162,3.162,0,0,0,1.026,1.368,3.29,3.29,0,0,0,1.663.645,3.182,3.182,0,0,0,3.07-1.344A3.735,3.735,0,0,0,737.373,524.612Z" transform="translate(-17.478 -39.608)"/>
    <path id="Path_6137" data-name="Path 6137" d="M722.986,527.3l-1.593-.435,1.725-6.272a2.129,2.129,0,0,0-.085-1.531,2.116,2.116,0,0,0-2.759-.762,2.155,2.155,0,0,0-.855,1.275l-1.725,6.272-1.593-.435,1.749-6.342a3.617,3.617,0,0,1,.933-1.663,3.038,3.038,0,0,1,1.531-.816,4.313,4.313,0,0,1,3.575.979,3.089,3.089,0,0,1,.894,1.484,3.548,3.548,0,0,1-.054,1.9Z" transform="translate(-14.608 -39.03)"/>
    <path id="Path_6138" data-name="Path 6138" d="M712.384,522.6l-.583,1.407-6.311-2.6.583-1.407,2.378.979,3.155-7.64,1.554.637-3.155,7.647Z" transform="translate(-12.244 -38.323)"/>
    <path id="Path_6139" data-name="Path 6139" d="M696.134,516.564l-1.383-.9,3.544-5.456a2.116,2.116,0,0,0,.381-1.484,1.768,1.768,0,0,0-.894-1.243,1.792,1.792,0,0,0-1.508-.311,2.169,2.169,0,0,0-1.2.956l-3.544,5.456-1.383-.9,3.583-5.518a3.52,3.52,0,0,1,1.391-1.306,3.084,3.084,0,0,1,1.71-.319,3.91,3.91,0,0,1,1.78.661,4.026,4.026,0,0,1,1.329,1.36,3,3,0,0,1,.4,1.686,3.607,3.607,0,0,1-.63,1.8Z" transform="translate(-8.826 -36.581)"/>
    <path id="Path_6140" data-name="Path 6140" d="M689.632,503.9a4.707,4.707,0,0,0,.163-1.8,2.071,2.071,0,0,0-.746-1.337,1.542,1.542,0,0,0-1.073-.451,1.273,1.273,0,0,0-.917.505,1.252,1.252,0,0,0-.334.878,2.783,2.783,0,0,0,.241.971q.222.5.513,1.026c.124.225.256.482.389.769a4.315,4.315,0,0,1,.311.925,2.409,2.409,0,0,1-.016,1.026,2.488,2.488,0,0,1-.575,1.065,2.444,2.444,0,0,1-1.189.793,2.6,2.6,0,0,1-1.422-.008,3.765,3.765,0,0,1-1.461-.808,3.317,3.317,0,0,1-.94-1.2,3.417,3.417,0,0,1-.3-1.267,4.41,4.41,0,0,1,.148-1.236l1.508.233a3.405,3.405,0,0,0-.047,1.282,1.755,1.755,0,0,0,.645,1.1,1.373,1.373,0,0,0,.948.4,1.092,1.092,0,0,0,.8-.427.948.948,0,0,0,.225-.746,2.86,2.86,0,0,0-.3-.933c-.163-.334-.35-.692-.552-1.057a6.039,6.039,0,0,1-.521-1.181,3.062,3.062,0,0,1-.124-1.329,2.572,2.572,0,0,1,.653-1.352,2.771,2.771,0,0,1,1.313-.909,2.739,2.739,0,0,1,1.523-.023,4,4,0,0,1,1.523.832,3.72,3.72,0,0,1,.979,1.282,3.96,3.96,0,0,1,.365,1.554,4.451,4.451,0,0,1-.249,1.617Z" transform="translate(-7.072 -35.063)"/>
    <path id="Path_6141" data-name="Path 6141" d="M671.757,481.781l-1.166.692L669.13,480l1.166-.692Z" transform="translate(-4.142 -30.741)"/>
    <path id="Path_6142" data-name="Path 6142" d="M660.988,448.229l-2.269,1.57.668,3.536,2.681.637.35,1.842-11.028-2.79,9.264-6.614Zm-6.357,4.173,3.3.731-.49-2.611Z" transform="translate(-0.189 -23.41)"/>
    <path id="Path_6143" data-name="Path 6143" d="M657.309,437.009a2.675,2.675,0,0,1,1.617.365,2.617,2.617,0,0,1,.995,1.2,5.3,5.3,0,0,1,.4,1.811l.163,3.116L650.7,444l-.155-2.945a3.884,3.884,0,0,1,.49-2.293,2.119,2.119,0,0,1,1.8-.964,1.95,1.95,0,0,1,1.275.342,2.465,2.465,0,0,1,.832,1.08,3.079,3.079,0,0,1,.769-1.539A2.256,2.256,0,0,1,657.309,437.009Zm-5.394,4.088.062,1.189,2.557-.132-.062-1.189a1.733,1.733,0,0,0-.4-1.1,1.119,1.119,0,0,0-.964-.381,1.1,1.1,0,0,0-.917.482A1.781,1.781,0,0,0,651.916,441.1Zm7.1.824-.07-1.368a2.273,2.273,0,0,0-.474-1.36,1.412,1.412,0,0,0-1.243-.482,1.383,1.383,0,0,0-1.158.606,2.311,2.311,0,0,0-.319,1.407l.07,1.368Z" transform="translate(0 -21.314)"/>
    <path id="Path_6144" data-name="Path 6144" d="M655.164,432.211a5.293,5.293,0,0,1-1.974-.567,4.776,4.776,0,0,1-1.5-1.212,4.976,4.976,0,0,1-.9-1.7,5.218,5.218,0,0,1-.187-2.044,5.293,5.293,0,0,1,.567-1.974,4.9,4.9,0,0,1,1.2-1.516,4.629,4.629,0,0,1,1.7-.917,5.568,5.568,0,0,1,4.018.381,4.927,4.927,0,0,1,1.516,1.212,4.864,4.864,0,0,1,.925,1.71,5.571,5.571,0,0,1-.373,4.041,4.867,4.867,0,0,1-2.938,2.409A5.494,5.494,0,0,1,655.164,432.211Zm.163-1.756a3.714,3.714,0,0,0,1.826-.256,3.161,3.161,0,0,0,1.345-1.057,3.518,3.518,0,0,0,.319-3.427,3.086,3.086,0,0,0-1.127-1.282,4,4,0,0,0-3.575-.334,3.161,3.161,0,0,0-1.344,1.057,3.529,3.529,0,0,0-.319,3.427,3.041,3.041,0,0,0,1.127,1.282A3.69,3.69,0,0,0,655.327,430.454Z" transform="translate(-0.008 -17.985)"/>
    <path id="Path_6145" data-name="Path 6145" d="M652.16,416.117l.4-1.6,6.311,1.585a2.12,2.12,0,0,0,1.531-.117,1.809,1.809,0,0,0,.894-1.251,1.762,1.762,0,0,0-.194-1.523,2.207,2.207,0,0,0-1.29-.824L653.5,410.8l.4-1.6,6.381,1.6a3.556,3.556,0,0,1,1.687.894,3.081,3.081,0,0,1,.855,1.516,3.939,3.939,0,0,1-.047,1.9,4.018,4.018,0,0,1-.855,1.694,3.14,3.14,0,0,1-1.469.933,3.624,3.624,0,0,1-1.912-.008Z" transform="translate(-0.361 -15.119)"/>
    <path id="Path_6146" data-name="Path 6146" d="M656.612,405.435l-1.422-.552,2.456-6.373,1.422.552-.925,2.4,7.717,2.977-.606,1.57-7.717-2.977Z" transform="translate(-1.036 -12.737)"/>
    <path id="Path_6147" data-name="Path 6147" d="M662.18,389.018l.87-1.407,5.534,3.412a2.154,2.154,0,0,0,1.492.35,1.824,1.824,0,0,0,1.228-.917,1.79,1.79,0,0,0,.28-1.516,2.1,2.1,0,0,0-.987-1.174l-5.534-3.42.87-1.407,5.6,3.451a3.6,3.6,0,0,1,1.337,1.36,3.069,3.069,0,0,1,.357,1.7,3.967,3.967,0,0,1-.614,1.8,3.913,3.913,0,0,1-1.329,1.36,3.058,3.058,0,0,1-1.679.443,3.675,3.675,0,0,1-1.819-.583Z" transform="translate(-2.594 -9.267)"/>
    <path id="Path_6148" data-name="Path 6148" d="M675.086,382.22a4.81,4.81,0,0,0,1.811.124,2.027,2.027,0,0,0,1.313-.777,1.571,1.571,0,0,0,.427-1.08,1.458,1.458,0,0,0-1.414-1.22,2.6,2.6,0,0,0-.964.264c-.334.155-.668.334-1.01.536-.225.132-.482.264-.762.4a4.422,4.422,0,0,1-.917.326,2.4,2.4,0,0,1-1.026.008,2.513,2.513,0,0,1-1.08-.552,2.4,2.4,0,0,1-.816-1.166,2.593,2.593,0,0,1-.023-1.422,3.778,3.778,0,0,1,.777-1.477,3.45,3.45,0,0,1,1.173-.971,3.275,3.275,0,0,1,1.259-.319,4.7,4.7,0,0,1,1.236.117l-.2,1.516a3.393,3.393,0,0,0-1.282-.016,1.793,1.793,0,0,0-1.08.668,1.368,1.368,0,0,0-.373.956,1.124,1.124,0,0,0,.443.793.932.932,0,0,0,.754.2,2.915,2.915,0,0,0,.925-.319c.334-.171.684-.365,1.041-.575a6.024,6.024,0,0,1,1.174-.544,3.159,3.159,0,0,1,1.321-.155,2.638,2.638,0,0,1,1.368.622,2.784,2.784,0,0,1,.94,1.3,2.735,2.735,0,0,1,.054,1.523,3.861,3.861,0,0,1-.8,1.539,3.567,3.567,0,0,1-1.259,1,4.11,4.11,0,0,1-1.547.4,4.477,4.477,0,0,1-1.624-.21Z" transform="translate(-4.456 -7.475)"/>
    <path id="Path_6149" data-name="Path 6149" d="M698.625,363.806l-.715-1.15,2.433-1.516.715,1.15Z" transform="translate(-10.555 -4.41)"/>
  </g>
</svg>
