<svg xmlns="http://www.w3.org/2000/svg" xmlns:xlink="http://www.w3.org/1999/xlink" width="750" zoomAndPan="magnify" viewBox="0 0 562.5 337.499995" height="450" preserveAspectRatio="xMidYMid meet" version="1.0"><path fill="#ffffff" d="M 191.488281 192.554688 C 192.386719 193.195312 195.566406 192.664062 196.792969 192.644531 C 196.957031 192.640625 197.070312 192.695312 197.140625 192.804688 C 197.558594 193.460938 194.605469 194.523438 193.675781 194.898438 C 192.015625 195.570312 191.410156 196.167969 191.671875 197.992188 C 193.328125 209.480469 195.078125 219.632812 196.917969 228.449219 C 197.007812 228.855469 197.488281 230.019531 196.570312 229.699219 C 196.453125 229.660156 196.371094 229.5625 196.324219 229.414062 C 196.160156 228.847656 195.808594 228.507812 195.269531 228.398438 C 195.128906 228.371094 195.054688 228.292969 195.039062 228.160156 C 194.632812 224.671875 193.929688 221.25 192.929688 217.894531 C 190.980469 211.359375 189.445312 204.84375 188.425781 198.089844 C 188.289062 197.183594 187.773438 196.832031 186.878906 197.035156 C 181.453125 198.28125 176.007812 201.832031 171.992188 204.519531 C 170.917969 205.238281 169.628906 206.273438 168.117188 207.621094 C 165.636719 209.835938 162.816406 211.984375 160.65625 214.878906 C 158.03125 218.394531 155.375 221.90625 153.480469 225.472656 C 148.242188 235.339844 142.925781 246.300781 137.53125 258.355469 C 135.601562 262.660156 134.65625 265 131.1875 267.214844 C 130.359375 267.746094 130.085938 267.539062 130.371094 266.597656 C 132.597656 259.199219 135.136719 252.023438 138.410156 244.847656 C 157.136719 203.8125 169.648438 160.960938 177.429688 116.582031 C 178.640625 109.703125 179.484375 102.566406 180.429688 95.550781 C 181.535156 87.375 182.210938 79.183594 182.589844 71.011719 C 182.625 70.316406 182.988281 69.960938 183.683594 69.945312 C 184.804688 69.917969 185.898438 70.042969 186.972656 70.324219 C 187.113281 70.359375 187.199219 70.445312 187.234375 70.582031 C 187.390625 71.207031 187.429688 72.078125 187.347656 73.195312 C 186.902344 79.1875 186.304688 85.308594 186.09375 91.164062 C 185.257812 114.3125 185.136719 136.851562 187.488281 159.726562 C 188.582031 170.414062 189.164062 181.351562 191.085938 191.925781 C 191.136719 192.1875 191.269531 192.398438 191.488281 192.554688 Z M 180.988281 126.164062 C 180.714844 126.496094 180.539062 126.859375 180.460938 127.257812 C 179.597656 131.511719 178.863281 136.054688 177.984375 140.039062 C 174.527344 155.726562 171.320312 168.632812 168.359375 178.761719 C 166.601562 184.773438 163.421875 194.265625 158.820312 207.230469 C 158.492188 208.152344 158.273438 209.164062 158.007812 210.128906 C 157.898438 210.519531 158.011719 210.605469 158.351562 210.382812 C 159.460938 209.648438 160.542969 208.320312 161.203125 207.703125 C 167.910156 201.429688 177.261719 195.929688 186.117188 193.773438 C 187.351562 193.472656 187.898438 192.75 187.75 191.601562 C 186.367188 181 185.042969 170.390625 183.785156 159.777344 C 182.46875 148.730469 182.082031 137.429688 181.390625 126.296875 C 181.367188 125.910156 181.230469 125.867188 180.988281 126.164062 Z M 180.988281 126.164062 " fill-opacity="1" fill-rule="nonzero"/><path fill="#ffffff" d="M 236.078125 194.164062 C 235.300781 194.210938 234.605469 194.703125 233.980469 195.027344 C 230.476562 196.828125 227.03125 198.742188 223.644531 200.757812 C 223.03125 201.121094 222.835938 201.640625 223.058594 202.316406 C 224.554688 206.859375 225.542969 210.339844 221.699219 214.1875 C 217.925781 217.96875 208.144531 224.824219 203.34375 218.839844 C 201.371094 216.382812 203.128906 213.667969 204.953125 211.769531 C 208.460938 208.117188 212.28125 204.71875 216.414062 201.566406 C 217.09375 201.050781 217.207031 200.433594 216.75 199.71875 C 213.988281 195.398438 209.183594 188.121094 212.601562 182.988281 C 213.476562 181.679688 220.105469 180.195312 221.8125 180.523438 C 226.847656 181.484375 225.476562 190.113281 221.003906 190.144531 C 220.128906 190.152344 219.78125 189.65625 219.96875 188.652344 L 220.617188 185.132812 C 220.734375 184.5 220.464844 184.167969 219.8125 184.136719 C 215.679688 183.9375 215.460938 187.042969 216.265625 190.15625 C 216.953125 192.8125 218.210938 195.242188 220.039062 197.441406 C 220.152344 197.578125 220.300781 197.660156 220.476562 197.691406 C 220.65625 197.71875 220.820312 197.683594 220.972656 197.589844 C 226.292969 194.234375 230.976562 191.308594 237.214844 189.917969 C 238.953125 189.53125 240.011719 188.191406 240.972656 186.828125 C 242.175781 185.113281 244.835938 185.882812 243.789062 188.375 C 241.554688 193.722656 239.683594 197.253906 240.230469 203.105469 C 240.597656 206.980469 246.179688 204.792969 247.839844 203.679688 C 253.167969 200.125 256.121094 197.097656 259.980469 193.179688 C 262.511719 190.605469 263.707031 188.105469 264.523438 184.746094 C 265.554688 180.5 267.730469 176.253906 269.449219 172.238281 C 269.960938 171.046875 270.386719 169.566406 268.207031 170 C 263.574219 170.925781 258.941406 171.835938 254.300781 172.734375 C 253.238281 172.941406 252.359375 173.203125 251.664062 173.519531 C 249.34375 174.566406 246.417969 177.300781 243.753906 176.4375 C 242.679688 176.089844 242.101562 175.152344 242.460938 174.0625 C 242.765625 173.148438 244.335938 172.125 245.101562 171.492188 C 246.214844 170.566406 246.34375 169.175781 247.9375 168.675781 C 250.3125 167.921875 252.679688 167.128906 255.035156 166.292969 C 255.164062 166.246094 255.300781 166.238281 255.441406 166.265625 C 256.679688 166.503906 257.59375 166.570312 258.1875 166.457031 C 263.296875 165.480469 268.332031 164.574219 273.296875 163.734375 C 273.894531 163.636719 274.339844 163.320312 274.632812 162.792969 C 276.804688 158.894531 278.765625 155.09375 280.507812 151.382812 C 280.863281 150.625 281.460938 150.210938 282.289062 150.136719 C 284.933594 149.90625 285.066406 151.796875 284.273438 153.695312 C 283.210938 156.25 281.953125 158.710938 280.5 161.074219 C 279.902344 162.046875 280.183594 162.539062 281.347656 162.546875 C 282.085938 162.558594 282.816406 162.527344 283.539062 162.464844 C 291.472656 161.769531 299.402344 161.035156 307.332031 160.261719 C 309.191406 160.078125 311.886719 160.253906 313.398438 159.933594 C 316.9375 159.183594 320.273438 159.570312 323.707031 159.335938 C 327.4375 159.078125 331.152344 159.445312 334.8125 159.128906 C 338.585938 158.804688 340.957031 159.265625 344.121094 159.289062 C 345.695312 159.300781 347.617188 158.746094 349.183594 158.847656 C 353.078125 159.105469 356.972656 159.078125 360.863281 158.765625 C 362.535156 158.632812 364.15625 158.597656 365.726562 158.660156 C 371.492188 158.902344 377.777344 158.429688 382.984375 158.449219 C 388.21875 158.472656 393.449219 158.378906 398.679688 158.171875 C 399.574219 158.140625 400.636719 158.515625 401.863281 159.296875 C 401.984375 159.371094 402.097656 159.367188 402.207031 159.285156 C 404.832031 157.316406 407.390625 157.414062 409.886719 159.570312 C 409.972656 159.644531 410.074219 159.679688 410.183594 159.675781 C 410.296875 159.671875 410.390625 159.628906 410.464844 159.546875 L 411.414062 158.488281 C 411.515625 158.375 411.625 158.347656 411.738281 158.40625 L 413.617188 159.382812 C 413.773438 159.460938 413.925781 159.472656 414.085938 159.417969 C 414.242188 159.363281 414.347656 159.261719 414.398438 159.113281 C 414.511719 158.78125 414.714844 158.597656 415.015625 158.5625 C 415.148438 158.542969 415.246094 158.605469 415.308594 158.75 C 415.757812 159.824219 416.40625 159.929688 417.25 159.066406 C 417.351562 158.960938 417.464844 158.941406 417.582031 159.011719 C 418.050781 159.292969 418.269531 159.648438 418.230469 160.066406 C 418.222656 160.167969 418.179688 160.253906 418.109375 160.320312 C 418.035156 160.390625 417.953125 160.429688 417.851562 160.433594 C 413.28125 160.714844 408.722656 160.964844 404.160156 161.332031 C 401.179688 161.570312 398.199219 161.503906 395.226562 161.136719 C 394.003906 160.984375 393.011719 161 392.242188 161.179688 C 390.855469 161.503906 389.90625 162.226562 388.460938 162.257812 C 384.699219 162.34375 380.925781 162.464844 377.175781 162.355469 C 376.050781 162.324219 374.941406 162.433594 373.851562 162.6875 C 372.46875 163.011719 371.542969 162.359375 370.253906 162.507812 C 366.359375 162.945312 363.792969 163.171875 362.554688 163.1875 C 353.015625 163.332031 343.476562 163.542969 333.9375 163.820312 C 330.921875 163.910156 327.84375 164.101562 324.910156 164.167969 C 309.023438 164.53125 297.460938 165.914062 277.964844 167.792969 C 277.109375 167.871094 276.507812 168.234375 276.15625 168.878906 C 271.207031 177.910156 265.9375 189.769531 265.910156 200.421875 C 265.890625 208.980469 273.742188 205.351562 277.890625 202.894531 C 281.328125 200.859375 284.6875 198.699219 287.964844 196.417969 C 291.449219 193.992188 294.4375 189.980469 296.769531 186.46875 C 296.957031 186.183594 297.09375 186.214844 297.183594 186.5625 L 297.503906 187.84375 C 297.515625 187.898438 297.550781 187.933594 297.601562 187.953125 C 297.65625 187.972656 297.710938 187.964844 297.757812 187.9375 C 299.636719 186.824219 301.492188 185.683594 303.320312 184.515625 C 308.171875 181.417969 310.417969 184.859375 314.535156 186.324219 C 316.394531 186.984375 316.476562 188.15625 315.691406 189.730469 C 314.539062 192.042969 310.417969 201.917969 315.761719 201.578125 C 318.855469 201.382812 322.984375 196.914062 325.019531 194.679688 C 327.277344 192.199219 329.648438 189.832031 332.136719 187.578125 C 332.175781 187.542969 332.222656 187.527344 332.277344 187.539062 C 332.332031 187.546875 332.371094 187.578125 332.398438 187.625 C 333.109375 188.90625 331.441406 192.039062 330.578125 193.402344 C 328.078125 197.347656 322.648438 204.164062 318.1875 205.785156 C 315.351562 206.820312 312.007812 206.386719 309.925781 203.996094 C 309.59375 203.613281 308.84375 202.40625 307.683594 200.378906 C 307.613281 200.257812 307.519531 200.234375 307.40625 200.3125 C 302.523438 203.75 290.269531 213.808594 286.804688 202.4375 C 286.785156 202.371094 286.742188 202.320312 286.675781 202.292969 C 286.609375 202.261719 286.542969 202.265625 286.476562 202.296875 C 283.808594 203.566406 281.417969 205.847656 278.820312 207.378906 C 273.515625 210.496094 269.433594 212.207031 264.054688 208.359375 C 261.5625 206.578125 261.054688 202.140625 261.566406 199.191406 C 262.027344 196.527344 258.648438 200.773438 258.585938 200.839844 C 253.773438 205.9375 245.710938 212.6875 238.359375 208.175781 C 236.203125 206.847656 235.394531 203.859375 235.175781 201.515625 C 234.972656 199.292969 235.777344 196.765625 236.335938 194.476562 C 236.359375 194.394531 236.339844 194.320312 236.285156 194.253906 C 236.230469 194.1875 236.160156 194.160156 236.078125 194.164062 Z M 292.800781 203.691406 C 292.960938 203.792969 293.136719 203.832031 293.324219 203.800781 C 298.691406 202.949219 308.683594 195.054688 309.542969 189.464844 C 309.800781 187.78125 308.25 185.75 306.328125 186.644531 C 300.429688 189.375 293.230469 194.878906 292.105469 201.808594 C 291.972656 202.640625 292.101562 203.242188 292.800781 203.691406 Z M 207.84375 217.253906 C 210.824219 218.273438 214.613281 215.511719 217.027344 213.527344 C 219.660156 211.363281 220.628906 208.6875 219.933594 205.492188 C 219.902344 205.351562 219.835938 205.238281 219.730469 205.15625 C 218.789062 204.398438 218.308594 204.996094 217.585938 205.632812 C 214.824219 208.070312 212.1875 210.644531 209.429688 213.085938 C 208.480469 213.925781 207.777344 214.9375 207.316406 216.125 C 207.101562 216.683594 207.277344 217.058594 207.84375 217.253906 Z M 207.84375 217.253906 " fill-opacity="1" fill-rule="nonzero"/><path fill="#ffffff" d="M 426.988281 159.808594 C 426.585938 159.738281 426.464844 159.53125 426.628906 159.179688 C 426.691406 159.042969 426.792969 158.984375 426.9375 159.007812 L 429.542969 159.394531 C 430.046875 159.46875 430.457031 159.355469 430.765625 159.054688 C 431.214844 158.617188 431.785156 158.449219 432.480469 158.546875 C 432.625 158.566406 432.722656 158.644531 432.773438 158.773438 C 433.527344 160.835938 427.789062 159.941406 426.988281 159.808594 Z M 426.988281 159.808594 " fill-opacity="1" fill-rule="nonzero"/><path fill="#ffffff" d="M 277.058594 237.378906 C 276.523438 236.992188 276.113281 236.5 275.820312 235.90625 C 273.15625 230.460938 277.453125 225.109375 283.355469 227.011719 C 283.492188 227.054688 283.578125 227.148438 283.609375 227.285156 C 283.714844 227.738281 283.6875 228.179688 283.527344 228.609375 C 283.511719 228.664062 283.472656 228.699219 283.417969 228.71875 C 283.363281 228.738281 283.308594 228.738281 283.253906 228.710938 C 278.628906 226.59375 274.84375 231.945312 277.902344 235.613281 C 279.230469 237.203125 281.027344 237.570312 283.285156 236.710938 C 283.421875 236.660156 283.515625 236.703125 283.566406 236.835938 C 283.734375 237.257812 283.757812 237.6875 283.628906 238.128906 C 283.589844 238.261719 283.503906 238.351562 283.363281 238.398438 C 281.089844 239.117188 278.988281 238.777344 277.058594 237.378906 Z M 277.058594 237.378906 " fill-opacity="1" fill-rule="nonzero"/><path fill="#ffffff" d="M 322.378906 238.34375 C 317.421875 240.019531 312.886719 236.464844 314.109375 231.152344 C 314.980469 227.359375 318.691406 225.8125 322.21875 227.007812 C 322.359375 227.054688 322.449219 227.144531 322.484375 227.28125 C 322.609375 227.738281 322.585938 228.175781 322.417969 228.597656 C 322.367188 228.730469 322.273438 228.761719 322.140625 228.703125 C 314.132812 225.117188 313.289062 239.9375 322.242188 236.675781 C 322.296875 236.652344 322.347656 236.65625 322.398438 236.683594 C 322.445312 236.710938 322.472656 236.75 322.476562 236.804688 L 322.585938 238.054688 C 322.597656 238.195312 322.527344 238.292969 322.378906 238.34375 Z M 322.378906 238.34375 " fill-opacity="1" fill-rule="nonzero"/><path fill="#ffffff" d="M 287.492188 236.953125 L 291.664062 236.976562 C 291.808594 236.976562 291.902344 237.042969 291.9375 237.175781 C 292.050781 237.570312 292.050781 237.953125 291.9375 238.332031 C 291.898438 238.46875 291.804688 238.539062 291.664062 238.539062 L 285.816406 238.503906 C 285.671875 238.503906 285.601562 238.429688 285.601562 238.289062 L 285.59375 227.160156 C 285.59375 227.015625 285.664062 226.929688 285.804688 226.902344 C 286.246094 226.8125 286.664062 226.820312 287.050781 226.925781 C 287.1875 226.960938 287.253906 227.054688 287.253906 227.199219 L 287.277344 236.734375 C 287.277344 236.875 287.351562 236.949219 287.492188 236.953125 Z M 287.492188 236.953125 " fill-opacity="1" fill-rule="nonzero"/><path fill="#ffffff" d="M 293.929688 226.867188 L 295.21875 226.867188 C 295.289062 226.867188 295.347656 226.890625 295.398438 226.941406 C 295.449219 226.992188 295.472656 227.050781 295.472656 227.121094 L 295.472656 238.304688 C 295.472656 238.375 295.449219 238.433594 295.398438 238.484375 C 295.347656 238.53125 295.289062 238.558594 295.21875 238.558594 L 293.929688 238.558594 C 293.859375 238.558594 293.800781 238.53125 293.75 238.484375 C 293.703125 238.433594 293.675781 238.375 293.675781 238.304688 L 293.675781 227.121094 C 293.675781 227.050781 293.703125 226.992188 293.75 226.941406 C 293.800781 226.890625 293.859375 226.867188 293.929688 226.867188 Z M 293.929688 226.867188 " fill-opacity="1" fill-rule="nonzero"/><path fill="#ffffff" d="M 300.003906 229.390625 C 299.804688 229.417969 299.890625 237.375 299.878906 238.21875 C 299.878906 238.367188 299.8125 238.457031 299.679688 238.492188 C 299.257812 238.613281 298.835938 238.613281 298.421875 238.492188 C 298.285156 238.457031 298.214844 238.367188 298.214844 238.21875 L 298.226562 227.148438 C 298.226562 226.992188 298.296875 226.910156 298.441406 226.910156 L 300.363281 226.902344 C 300.488281 226.902344 300.59375 226.972656 300.671875 227.117188 L 305.097656 235.363281 C 305.363281 235.863281 305.5 235.828125 305.5 235.257812 L 305.480469 227.203125 C 305.480469 227.058594 305.546875 226.964844 305.683594 226.925781 C 306.109375 226.808594 306.53125 226.808594 306.949219 226.925781 C 307.085938 226.960938 307.152344 227.054688 307.152344 227.199219 L 307.152344 238.21875 C 307.15625 238.386719 307.085938 238.472656 306.949219 238.476562 L 305.226562 238.519531 C 305.09375 238.523438 304.992188 238.453125 304.914062 238.304688 L 300.257812 229.574219 C 300.183594 229.4375 300.101562 229.375 300.003906 229.390625 Z M 300.003906 229.390625 " fill-opacity="1" fill-rule="nonzero"/><path fill="#ffffff" d="M 310.253906 226.867188 L 311.433594 226.867188 C 311.503906 226.867188 311.5625 226.890625 311.613281 226.941406 C 311.664062 226.992188 311.6875 227.050781 311.6875 227.121094 L 311.6875 238.304688 C 311.6875 238.375 311.664062 238.433594 311.613281 238.484375 C 311.5625 238.53125 311.503906 238.558594 311.433594 238.558594 L 310.253906 238.558594 C 310.183594 238.558594 310.125 238.53125 310.074219 238.484375 C 310.027344 238.433594 310 238.375 310 238.304688 L 310 227.121094 C 310 227.050781 310.027344 226.992188 310.074219 226.941406 C 310.125 226.890625 310.183594 226.867188 310.253906 226.867188 Z M 310.253906 226.867188 " fill-opacity="1" fill-rule="nonzero"/><path fill="#ffffff" d="M 214.476562 228.332031 C 214.984375 228.679688 215.371094 229.128906 215.632812 229.683594 C 216.253906 231.019531 216.449219 232.492188 216.21875 234.105469 C 215.480469 239.214844 210.703125 238.96875 206.511719 238.710938 C 206.367188 238.703125 206.296875 238.632812 206.296875 238.492188 L 206.296875 227.566406 C 206.296875 227.425781 206.367188 227.351562 206.507812 227.335938 C 209.109375 227.046875 212.1875 226.785156 214.476562 228.332031 Z M 208.886719 236.605469 C 215.386719 238.628906 215.878906 227.503906 208.890625 229.320312 C 208.761719 229.355469 208.699219 229.441406 208.699219 229.574219 L 208.695312 236.320312 C 208.695312 236.46875 208.757812 236.566406 208.886719 236.605469 Z M 208.886719 236.605469 " fill-opacity="1" fill-rule="nonzero"/><path fill="#ffffff" d="M 236.480469 234 C 236.570312 232.75 236.609375 230.890625 236.589844 228.429688 C 236.582031 227.402344 237.136719 227.0625 238.257812 227.414062 C 238.394531 227.457031 238.460938 227.546875 238.460938 227.691406 L 238.480469 238.109375 C 238.484375 238.253906 238.417969 238.355469 238.292969 238.421875 C 237.191406 238.972656 236.316406 238.730469 235.671875 237.695312 C 235.261719 237.035156 231.835938 231.234375 231.496094 231.402344 C 231.386719 231.457031 231.332031 231.566406 231.332031 231.734375 L 231.324219 238.226562 C 231.324219 238.371094 231.261719 238.46875 231.132812 238.519531 C 230.570312 238.726562 230.003906 238.75 229.433594 238.59375 C 229.300781 238.558594 229.230469 238.46875 229.230469 238.324219 L 229.234375 227.847656 C 229.234375 227.707031 229.296875 227.601562 229.417969 227.53125 C 230.566406 226.894531 231.480469 227.132812 232.152344 228.25 C 233.519531 230.507812 235.304688 233.847656 236.261719 234.152344 C 236.3125 234.167969 236.363281 234.160156 236.40625 234.128906 C 236.453125 234.097656 236.476562 234.054688 236.480469 234 Z M 236.480469 234 " fill-opacity="1" fill-rule="nonzero"/><path fill="#ffffff" d="M 240.648438 228.835938 C 240.316406 228.386719 240.265625 227.902344 240.492188 227.375 C 240.546875 227.253906 240.648438 227.191406 240.796875 227.1875 C 243.304688 227.144531 245.796875 227.171875 248.28125 227.265625 C 249.074219 227.296875 250.226562 228.097656 249.25 228.804688 C 248.570312 229.292969 247.359375 229.1875 246.523438 229.234375 C 246.382812 229.242188 246.308594 229.316406 246.308594 229.453125 L 246.292969 238.113281 C 246.292969 238.261719 246.246094 238.386719 246.15625 238.488281 C 246.066406 238.589844 245.960938 238.640625 245.832031 238.640625 L 244.101562 238.617188 C 243.957031 238.617188 243.886719 238.535156 243.886719 238.378906 L 243.871094 229.730469 C 243.871094 229.589844 243.820312 229.46875 243.714844 229.363281 C 243.613281 229.261719 243.488281 229.203125 243.339844 229.191406 L 240.988281 229.027344 C 240.847656 229.015625 240.734375 228.953125 240.648438 228.835938 Z M 240.648438 228.835938 " fill-opacity="1" fill-rule="nonzero"/><path fill="#ffffff" d="M 257.3125 238.34375 C 256.574219 235.167969 251.816406 234.875 251.074219 238.347656 C 251.039062 238.507812 250.957031 238.589844 250.824219 238.597656 L 249.457031 238.683594 C 248.867188 238.71875 248.691406 238.414062 248.933594 237.765625 C 250.050781 234.773438 251.15625 231.851562 252.25 228.996094 C 253.015625 226.992188 255.03125 226.15625 255.953125 228.558594 C 257.203125 231.8125 258.425781 235.078125 259.625 238.351562 C 259.648438 238.410156 259.644531 238.464844 259.613281 238.515625 C 259.585938 238.566406 259.546875 238.589844 259.492188 238.589844 L 257.566406 238.59375 C 257.4375 238.59375 257.351562 238.511719 257.3125 238.34375 Z M 252.746094 233.855469 C 252.714844 233.953125 252.726562 234.039062 252.785156 234.121094 C 252.84375 234.203125 252.925781 234.242188 253.023438 234.242188 L 255.316406 234.234375 C 255.414062 234.234375 255.492188 234.195312 255.550781 234.113281 C 255.609375 234.035156 255.621094 233.945312 255.589844 233.851562 L 254.4375 230.449219 C 254.390625 230.320312 254.296875 230.257812 254.160156 230.257812 C 254.023438 230.261719 253.933594 230.324219 253.886719 230.453125 Z M 252.746094 233.855469 " fill-opacity="1" fill-rule="nonzero"/><path fill="#ffffff" d="M 264.863281 236.859375 C 265.796875 236.753906 270.199219 236.132812 268.902344 238.464844 C 268.832031 238.585938 268.722656 238.648438 268.578125 238.648438 L 261.488281 238.613281 C 261.347656 238.613281 261.277344 238.539062 261.277344 238.390625 L 261.265625 227.574219 C 261.265625 227.410156 261.335938 227.328125 261.476562 227.332031 L 263.242188 227.355469 C 263.375 227.359375 263.445312 227.449219 263.445312 227.621094 L 263.457031 235.605469 C 263.457031 236.546875 263.925781 236.964844 264.863281 236.859375 Z M 264.863281 236.859375 " fill-opacity="1" fill-rule="nonzero"/><path fill="#ffffff" d="M 220.878906 236.300781 C 221.007812 236.597656 221.234375 236.746094 221.554688 236.75 C 222.878906 236.765625 224.207031 236.769531 225.542969 236.761719 C 226.683594 236.757812 227.082031 237.285156 226.742188 238.347656 C 226.699219 238.476562 226.605469 238.542969 226.460938 238.542969 L 219.113281 238.546875 C 218.972656 238.546875 218.855469 238.5 218.753906 238.40625 C 218.652344 238.3125 218.597656 238.195312 218.585938 238.054688 C 218.304688 234.609375 218.277344 231.167969 218.507812 227.730469 C 218.515625 227.636719 218.550781 227.558594 218.617188 227.492188 C 218.6875 227.429688 218.765625 227.398438 218.859375 227.398438 L 226.46875 227.398438 C 226.609375 227.398438 226.703125 227.464844 226.746094 227.601562 C 226.875 228.035156 226.878906 228.457031 226.757812 228.871094 C 226.71875 229.003906 226.625 229.074219 226.476562 229.074219 L 221.34375 229.085938 C 221.199219 229.085938 221.105469 229.152344 221.054688 229.28125 C 220.777344 229.949219 220.679688 230.496094 220.757812 230.914062 C 220.882812 231.59375 221.289062 231.929688 221.976562 231.921875 C 222.820312 231.914062 226.414062 231.480469 226.363281 232.730469 C 226.339844 233.3125 225.855469 233.605469 224.910156 233.613281 L 221.691406 233.632812 C 221.160156 233.636719 220.84375 233.910156 220.742188 234.460938 C 220.609375 235.171875 220.65625 235.785156 220.878906 236.300781 Z M 220.878906 236.300781 " fill-opacity="1" fill-rule="nonzero"/></svg>