<?xml version="1.0" encoding="utf-8"?>
<!-- Generator: Adobe Illustrator 24.0.2, SVG Export Plug-In . SVG Version: 6.00 Build 0)  -->
<svg version="1.1" id="Layer_1" xmlns="http://www.w3.org/2000/svg" xmlns:xlink="http://www.w3.org/1999/xlink" x="0px" y="0px"
	 viewBox="0 0 1000 1000" style="enable-background:new 0 0 1000 1000;" xml:space="preserve">
<path d="M559.1,151.2c7.5,2,15.3,3.3,22.6,6c34.5,12.9,54.6,45.7,52,83.1c-1.6,23.4-10,43.4-29,59.8c2.9,0.3,4.7,0.6,6.5,0.6
	c16.3,0,32.7,0,49,0c9.7,0,13,3.3,13,12.9c0,17.4,0,34.9,0,53.5c2.8-1.2,4.9-2.1,7-3.1c39.7-19.5,79.4-39,119.2-58.6
	c11.9-5.8,17.8-2.1,17.8,11.1c0,69.8,0,139.7,0,209.5c0,13.2-5.9,16.8-17.9,11c-39.7-19.5-79.4-39-119.2-58.5c-2-1-4-1.8-6.8-3.1
	c0,11.3,0,21.7,0,32.2c0,7.6,0.1,15.2,0,22.8c-0.1,7.6-3.6,11-11.1,11.4c-2,0.1-4,0-6,0c-73.7,0-147.3,0-221,0c-2.6,0-5.3,0-8.8,0
	c0,3.2,0,5.8,0,8.4c-0.4,23.7,1,47.6-1.7,71.1c-5.2,45.8-42.8,79.9-88.9,83.4c-31,2.3-59.2-4.7-82.7-25.8
	c-20.1-18-30.3-41.2-30.8-67.7c-0.8-42.7-0.9-85.5,0-128.3c0.9-44.7,32.3-81.3,76.3-91.1c2.1-0.5,4.3-1,6.7-1.6c0-25.2,0-50,0-74.9
	c0-12,2.4-14.4,14.6-14.5c12.7,0,25.4,0,39.8,0c-18.7-18.9-24.5-40.6-21.3-64.9c2.3-17.3,9.9-31.8,23.2-43.3
	c23.6-20.4,73.6-28.2,106.7,9c6.6-8.9,12.5-18.7,20.2-26.8c12.1-12.7,27.8-19.2,44.9-22.2c1.5-0.3,2.9-0.9,4.4-1.3
	C544.8,151.2,552,151.2,559.1,151.2z M653.6,320.8c-110,0-219.5,0-329,0c0,22.9,0,45.2,0,67.8c2.6,0.2,4.8,0.3,6.9,0.4
	c44,2.1,81.3,30.7,90.9,72.5c3.8,16.5,2.8,34.2,3.9,51.3c0.2,3,0,6,0,9c76.4,0,151.7,0,227.3,0C653.6,454.5,653.6,387.7,653.6,320.8
	z M241.2,582c2.7,0,5.1,0,7.5,0c19.3,0,38.5-0.1,57.8,0c7.2,0,11.4,3.7,11.5,9.4c0.1,6-4.3,9.7-11.9,9.8c-19.3,0.1-38.5,0-57.8,0
	c-2.4,0-4.7,0-7,0c-3.1,34.9,17.3,66.5,50.5,79c47.3,17.8,113.6-5.1,115.1-73.5c0.9-39.8,0.4-79.7,0-119.5
	c-0.2-17.8-5.3-34.4-16.5-48.7c-27.2-34.6-84-40.7-119.9-12.9c-21.7,16.9-29.6,39.8-29.7,67.2c7.6,0,14.5,0,21.3,0
	c15,0,30-0.1,45,0.1c6.6,0.1,10.7,4.1,10.8,9.6c0,5.5-4.1,9.4-10.6,9.8c-1.6,0.1-3.1,0-4.7,0c-18.1,0-36.3,0-54.4,0
	c-2.4,0-4.7,0.2-7,0.4c0,8.5,0,16.2,0,24.7c2.8,0,5.2,0,7.6,0c17.7,0,35.4,0,53.1,0c1.8,0,3.6-0.1,5.4,0.1
	c6.6,0.4,10.7,4.1,10.7,9.6c0,5.6-4.1,9.6-10.7,9.6c-19.7,0.1-39.4,0-59.1,0.1c-2.4,0-4.7,0.2-7,0.3
	C241.2,565.6,241.2,573.4,241.2,582z M755.4,494c0-19.6,0-38.2,0-56.7c0-11.9-0.1-23.7,0-35.6c0.1-6.6,3.8-10.8,9.3-11
	c5.7-0.2,9.6,4.1,9.9,11.1c0.1,1.3,0,2.7,0,4c0,30.9,0,61.8,0,92.7c0,1.9,0.1,4.8,1.2,5.4c6.9,3.9,14.1,7.2,21.6,10.9
	c0-62.8,0-124.4,0-186c-1,0-1.5-0.2-1.8,0c-39.7,19.5-79.5,39-119.1,58.7c-1.6,0.8-3.2,3.7-3.2,5.6c-0.2,18.8-0.2,37.6,0,56.4
	c0,1.9,1.6,4.8,3.2,5.6C702.4,468,728.2,480.7,755.4,494z M614.4,234.9c-0.1-37.9-27.2-64.6-65.6-64.6c-38.4,0-65.5,26.7-65.7,64.6
	c-0.2,38,27.5,65.2,66,64.9C587.8,299.5,614.5,272.9,614.4,234.9z M410,194.8c-31.1,0-53.3,21.6-53.5,52.2
	c-0.2,30.8,22.2,53,53.5,53c31.1,0,53.3-21.7,53.5-52.3C463.8,216.9,441.5,194.8,410,194.8z M475.7,281.5
	c-4.7,6.4-9.2,12.5-13.8,18.6c10.2,0,20,0,29.9,0C486.3,293.6,481.1,287.6,475.7,281.5z"/>
<path d="M657.2,839c-41.8,0-83.7,0-125.5,0c-21.1,0-33-11.8-33-32.7c0-56.2,0-112.3,0-168.5c0-20.6,11.9-32.5,32.4-32.6
	c14.3,0,28.6,0,43,0c9.8,0,13.5-3.5,13.3-13.3c-0.1-8.5,0.9-16.5,6.4-23.4c6-7.4,13.8-11.4,23.3-11.4c27.3-0.1,54.6-0.3,81.9,0
	c17,0.2,29.2,13.1,29.5,30.2c0,2,0,4,0,6c0.2,8,4,11.8,12.1,11.9c15,0.1,30,0,45,0c19.3,0.1,31.6,12.2,31.6,31.3
	c0.1,57.1,0.1,114.1,0,171.2c0,19.1-12.4,31.2-31.7,31.3C742.7,839,699.9,839,657.2,839z M657.2,819.9c42.1,0,84.1,0,126.2,0
	c11.2,0,14.7-3.4,14.7-14.2c0-55.7,0-111.4,0-167.2c0-10.6-3.5-14.1-14.1-14.1c-14.8-0.1-29.5,0.1-44.3,0
	c-18.1-0.2-30.1-12.2-30.4-30.4c0-2.2,0.1-4.5-0.1-6.7c-0.5-6.7-4-10.6-10.6-10.7c-27.1-0.2-54.2-0.2-81.2,0
	c-6.7,0-10.1,3.8-10.7,10.5c-0.2,2.2-0.1,4.5-0.1,6.7c-0.4,18.6-12.3,30.5-30.9,30.6c-14.1,0.1-28.2,0-42.3,0
	c-12.5,0-15.6,3-15.6,15.3c0,55.1,0,110.1,0,165.2c0,11.9,3.2,15.1,15.2,15.1C574.4,819.9,615.8,819.9,657.2,819.9z"/>
<path d="M314.1,819.9c0-19,0-37.3,0-55.9c-8.3-1.4-16.7-2.5-24.9-4.3c-70.1-15.4-122.4-79.9-122.4-150.7c0-7.7,2.8-11.6,8.6-12.1
	c6.3-0.5,10.2,3.4,10.4,11c0.5,17.6,3.8,34.6,10.5,50.9c23.5,57.2,81.9,91.4,144.5,84.5c59.1-6.5,108.8-53.7,119-113
	c1.2-7,1.8-14.2,2.3-21.3c0.5-8.4,3.6-12.4,10-12.2c6.3,0.2,9.2,4.3,9.1,12.9c-0.6,70.5-52.5,134.3-121.9,149.7
	c-8.3,1.8-16.7,2.9-25.4,4.3c0,18.3,0,36.6,0,55.9c8,0,16,0,23.9,0c6.9,0,13.9-0.1,20.8,0c7.2,0.1,11.3,3.7,11.1,9.7
	c-0.1,5.8-4.4,9.4-11.5,9.4c-19,0.1-38,0-57.1,0c-17,0-34,0-51,0c-7.6,0-12-3.7-12-9.6c0-6,4.3-9.4,12.1-9.5
	C284.8,819.8,299.3,819.9,314.1,819.9z"/>
<path d="M478.1,421.2c0-15.9-0.1-31.7,0-47.6c0.1-11.9,6.8-15.9,16.9-10c27.5,15.8,54.9,31.7,82.4,47.6c10.5,6.1,10.6,14,0,20.1
	c-27.4,15.9-54.9,31.8-82.4,47.5c-10.2,5.9-16.9,1.9-16.9-10C478.1,453,478.1,437.1,478.1,421.2z M556.4,421.3
	c-20.3-11.7-39.3-22.7-58.5-33.7c0,23,0,44.9,0,67.5C517.5,443.7,536.3,432.8,556.4,421.3z"/>
<path d="M735.8,717.3c0.2,44.4-32.8,77.2-77.8,77.3c-44.7,0-77.5-32.2-77.8-76.5c-0.3-44.6,32.3-77.3,77.4-77.6
	C702.4,640.1,735.5,672.7,735.8,717.3z M658.1,659.9c-34.5-0.1-58.6,23.3-58.8,57c-0.2,34.3,23.6,58,58.3,58.2
	c34.3,0.2,58.5-23.3,58.7-57.1C716.6,683.7,692.9,660,658.1,659.9z"/>
</svg>
