<?xml version="1.0" encoding="utf-8"?>
<!-- Generator: Adobe Illustrator 24.0.2, SVG Export Plug-In . SVG Version: 6.00 Build 0)  -->
<svg version="1.1" id="Layer_1" xmlns="http://www.w3.org/2000/svg" xmlns:xlink="http://www.w3.org/1999/xlink" x="0px" y="0px"
	 viewBox="0 0 1000 1000" style="enable-background:new 0 0 1000 1000;" xml:space="preserve">
<g>
	<path d="M967.56,521.39c-1.09,3.13-2.2,6.25-3.26,9.4c-8.4,25.02-31.02,41.62-57.15,41.92c-26.84,0.31-50.21-15.52-58.63-40.88
		c-2.38-7.16-5.64-8.85-12.76-8.84c-147.58,0.22-295.16,0.16-442.74,0.16c-3.57,0-7.14,0-11.16,0c0-8.05,0-15.19,0-23.45
		c4.19,0,8.04,0,11.9,0c147.28,0,294.55-0.04,441.83,0.14c6.92,0.01,10.49-1.31,12.92-8.66c8.47-25.7,32.2-41.59,59.44-41.05
		c25.84,0.51,48.46,17.58,56.63,42.71c0.93,2.84,1.99,5.64,2.99,8.46C967.56,508,967.56,514.69,967.56,521.39z M943.98,511.07
		c-0.14-21.26-17.11-37.78-38.54-37.52c-20.82,0.25-37.42,17-37.49,37.8c-0.07,21.11,17.02,38.09,38.23,38.01
		C927.54,549.27,944.12,532.48,943.98,511.07z"/>
	<path d="M325.26,813.15c10.51,0,20.53-0.08,30.54,0.02c8.63,0.09,13.87,4.28,13.62,11.25c-0.3,8.3-5.46,11.58-13.29,11.72
		c-11.86,0.22-23.73,0.46-35.58,0.91c-7.74,0.3-12.64-2.99-15.22-10.3c-3.96-11.16-7.83-22.38-12.47-33.26
		c-1.29-3.03-4.79-5.91-7.96-7.22c-20.44-8.44-41.01-16.58-61.7-24.39c-3.13-1.18-7.59-1.22-10.61,0.09
		c-10.85,4.72-21.43,10.1-31.95,15.54c-6.97,3.6-12.59,2.43-18.09-2.99c-20.14-19.87-40.34-39.69-60.75-59.29
		c-5.92-5.69-7.04-11.49-3.59-18.81c5.05-10.71,10.03-21.48,14.4-32.49c1.12-2.82,0.73-6.98-0.5-9.88
		c-8.61-20.38-17.46-40.67-26.65-60.8c-1.42-3.11-4.44-6.47-7.52-7.67c-11.01-4.32-22.35-7.79-33.59-11.51
		c-6.91-2.29-10.17-6.75-10.25-14.25c-0.33-28.29-0.77-56.59-1.64-84.87c-0.28-9.12,3.53-14.01,11.89-16.84
		c11.79-3.99,26.13-5.81,34.23-13.79c7.89-7.78,9.01-22.25,13.64-33.56c4.36-10.67,8.88-21.35,14.37-31.46
		c3.17-5.85,3.1-10.32,0-15.95c-5.13-9.3-9.19-19.19-14.29-28.51c-4.23-7.71-2.64-13.54,3.3-19.53
		c19.72-19.87,39.26-39.91,58.66-60.09c5.63-5.86,11.35-7.25,18.76-3.67c10.39,5.01,20.88,9.91,31.65,14.01
		c3.35,1.28,8.17,0.88,11.58-0.53c19.88-8.24,39.63-16.81,59.18-25.79c3.57-1.64,7.3-5.19,8.76-8.76
		c4.36-10.66,7.73-21.74,11.29-32.72c2.27-7.02,6.88-10.35,14.22-10.39c15.52-0.08,31.03-0.26,46.55-0.51
		c7.54-0.12,12.38,3.12,13.24,10.78c0.77,6.88-4.28,11.77-12.77,12.18c-11.54,0.55-23.11,0.84-34.67,0.79
		c-4.69-0.02-7.04,1.38-8.45,6.04c-3.16,10.46-6.24,21.05-10.79,30.93c-2.1,4.56-6.95,9.52-11.6,10.97
		c-25.08,7.84-48.93,18.07-71.59,31.42c-3.96,2.33-10.67,2.45-15.17,0.9c-10.58-3.64-20.67-8.78-30.82-13.61
		c-4.13-1.96-6.84-1.62-10.18,1.9c-14.24,15.01-28.64,29.87-43.42,44.34c-4.18,4.09-4.01,7.21-1.56,11.82
		c4.99,9.38,10.34,18.72,13.9,28.66c1.79,5.01,1.92,12.39-0.55,16.84c-12.63,22.77-21.92,46.63-28.28,71.86
		c-1.18,4.66-6.1,9.7-10.6,11.94c-9.74,4.84-20.27,8.13-30.59,11.73c-4.18,1.46-6.42,3.24-6.28,8.27
		c0.59,20.98,0.49,41.99,1.3,62.96c0.11,2.83,3.33,6.89,6.09,8.03c10.09,4.15,20.87,6.69,30.81,11.12
		c4.41,1.97,9.51,6.4,10.79,10.75c7.49,25.55,18.15,49.54,31.52,72.53c2.31,3.98,2.44,10.65,0.89,15.16
		c-3.64,10.59-8.68,20.72-13.6,30.82c-2.1,4.31-1.41,6.96,1.99,10.2c14.98,14.27,29.82,28.69,44.42,43.35c3.6,3.61,6.4,4.41,11,1.89
		c9.33-5.09,19.09-9.37,28.49-14.35c6.23-3.31,11.95-3.43,18.06,0.26c21.77,13.13,45.08,22.54,69.98,27.71
		c7.71,1.6,12.05,5.77,14.52,13.22C316.2,790.03,320.9,801.54,325.26,813.15z"/>
	<path d="M382.01,435.79c22.39,0,44.24,0,66.08,0c12.17,0,24.34,0.07,36.51-0.02c24.65-0.19,39.7-14.35,41.5-38.95
		c2.32-31.69,20.07-54,48.76-60.52c6.15-1.4,12.67-1.53,19.02-1.57c27.99-0.16,55.98-0.21,83.97,0.04
		c5.93,0.05,8.84-1.15,10.91-7.57c9.78-30.38,40.47-47.66,71.36-41c29.04,6.25,50.33,34.35,48.16,63.54
		c-2.39,32.14-27.65,56.6-59.76,57.9c-26.23,1.06-51.42-16.34-59.69-42.29c-2.03-6.37-4.89-7.7-10.89-7.65
		c-28.9,0.27-57.81-0.01-86.71,0.16c-25.22,0.15-40.8,15.47-41.84,40.75c-1.32,31.87-24.79,58.52-56.48,59.98
		c-36.69,1.68-73.52,0.39-110.9,0.39C382.01,451.49,382.01,444.35,382.01,435.79z M784.94,346.95
		c0.34-21.13-16.41-38.56-37.47-38.96c-20.74-0.4-38.46,16.94-38.71,37.87c-0.24,20.46,16.6,37.88,37.16,38.44
		C766.89,384.87,784.6,367.92,784.94,346.95z"/>
	<path d="M381.87,587.07c0-8.03,0-15.17,0-22.91c2.92-0.19,5.56-0.51,8.21-0.51c31.34-0.03,62.68-0.1,94.02,0
		c37.75,0.11,63.47,24.88,65.36,62.75c1.09,21.87,16.52,38.14,38.41,38.6c31.02,0.66,62.07,0.03,93.11,0.34
		c6.25,0.06,6.26-4.07,7.74-7.99c9.51-25.17,27.57-39.92,54.55-41.58c25.75-1.58,45.5,9.76,57.79,32.41
		c16.88,31.12,3.18,70.07-29.09,84.57c-32.3,14.51-70.41-1.21-82.21-34.78c-2.91-8.29-6.86-10.1-14.87-9.96
		c-27.68,0.48-55.38,0.27-83.07,0.16c-37.77-0.14-62.85-23.68-65.66-61.45c-1.92-25.75-16.81-39.61-42.72-39.64
		c-30.43-0.04-60.86-0.01-91.29-0.01C388.86,587.07,385.58,587.07,381.87,587.07z M784.95,677.07
		c0.15-21.08-16.96-38.47-37.93-38.55c-20.81-0.08-38.44,17.52-38.36,38.3c0.08,20.52,17.12,37.73,37.65,38.05
		C767.3,715.19,784.8,698.08,784.95,677.07z"/>
	<path d="M381.77,654.85c0-7.98,0-14.89,0-21.78c45.43-6.39,86.45,3.18,104.22,52.35c9.9,27.41,20.21,54.67,30.43,81.97
		c9.5,25.38,30.71,38.65,57.57,36.89c5.79-0.38,5.76-3.67,6.66-7.63c6.26-27.57,29.59-46.83,58.05-48.15
		c26.58-1.23,52.11,16.87,60.35,42.79c9.78,30.8-5.76,63.63-35.78,75.61c-30.31,12.09-64.82-1.29-78.1-31.19
		c-3.09-6.95-6.69-8.44-13.52-8.45c-39.42-0.08-64.45-17.77-78.25-54.81c-9.96-26.74-19.78-53.54-29.76-80.27
		c-9.27-24.83-27.02-37.16-53.52-37.32C401,654.8,391.89,654.85,381.77,654.85z M602.44,809.17c-0.53,20.67,16.77,38.57,37.62,38.91
		c20.39,0.34,37.85-16.35,38.68-36.96c0.84-20.68-16.05-38.56-37.17-39.36C621.04,770.98,602.98,788.25,602.44,809.17z"/>
	<path d="M381.91,391.39c0-8.06,0-15.2,0-23.47c9.77,0,19.4,0.03,29.02-0.01c25.3-0.09,43.53-12.6,52.41-36.27
		c10.35-27.57,20.47-55.24,30.75-82.84c13.03-34.99,38.43-53.06,75.7-52.87c8.41,0.04,12.47-2.32,16.13-10.19
		c12.54-26.98,43.36-39.91,72.13-31.41c28.72,8.49,46.4,36.08,42.91,66.99c-3.21,28.44-27.48,50.64-57.68,52.75
		c-28.42,1.99-56-18.37-62.23-47.11c-1.57-7.23-4.45-8.45-10.82-8.37c-26.98,0.36-44.65,12.5-54.14,37.9
		c-10.2,27.31-20.31,54.65-30.49,81.96c-12.66,33.98-38.99,52.54-75.11,52.92C401.13,391.48,391.77,391.39,381.91,391.39z
		 M640.85,251.05c20.9-0.17,38.28-17.9,37.9-38.65c-0.38-20.51-17.74-37.69-38.05-37.65c-21.04,0.05-38.31,17.31-38.28,38.26
		C602.45,233.96,619.9,251.23,640.85,251.05z"/>
	<path d="M192.58,511.31c0.11-89.9,73.06-165.76,160.72-166.94c4.02-0.05,9.29,0.43,11.76,2.9c2.64,2.63,4.72,8.97,3.29,11.77
		c-1.93,3.77-7.12,7.22-11.48,8.17c-14.76,3.23-30.33,3.55-44.59,8.12c-65.73,21.06-105.72,86.26-96.97,156.26
		c8.28,66.29,65.9,119.54,133.62,123.49c3.34,0.2,6.7,0.29,10.01,0.71c6.73,0.87,10.67,4.94,10.45,11.6
		c-0.23,7.07-4.62,11.96-11.76,11.05c-16.81-2.13-34.12-3.25-50.1-8.33C238.57,648.21,192.49,583.68,192.58,511.31z"/>
</g>
</svg>
