<?xml version="1.0" encoding="UTF-8"?>
<svg id="Calque_1" data-name="Calque 1" xmlns="http://www.w3.org/2000/svg" xmlns:xlink="http://www.w3.org/1999/xlink" viewBox="0 0 51.55 29.83">
  <defs>
    <style>
      .cls-1 {
        fill: none;
      }

      .cls-1, .cls-2 {
        stroke-width: 0px;
      }

      .cls-3 {
        clip-path: url(#clippath-1);
      }

      .cls-2 {
        fill: #fff;
      }

      .cls-4 {
        clip-path: url(#clippath);
      }
    </style>
    <symbol id="Nouveau_symbole" data-name="Nouveau symbole" viewBox="0 0 412.9 44.4">
      <g>
        <path class="cls-2" d="M19.7,41.2c-2.7,1.7-6.2,2.5-10.6,2.5H0V.8h9.6c4.7,0,8.2,1,10.7,3s4.4,4.7,5.6,7.9,1.8,7,1.8,11.2-.7,7.6-2,10.9-3.4,5.7-6,7.4h0ZM18,10.7c-1.8-2.9-4.6-4.3-8.5-4.3h-2.8v31.5h2.8c7.5,0,11.2-5.3,11.2-15.8-.1-4.7-1-8.5-2.7-11.4Z"/>
        <path class="cls-2" d="M46.8,44.4c-4.8,0-8.4-1.9-10.9-5.6s-3.8-9.3-3.8-16.6,1.3-12.9,3.8-16.6S42,0,46.8,0s8.3,1.9,10.8,5.6c2.5,3.8,3.7,9.3,3.7,16.6s-1.2,12.9-3.8,16.6c-2.4,3.8-6,5.7-10.7,5.6h0ZM52.6,10.1c-1.1-2.9-3.1-4.3-5.8-4.3-2.9,0-4.9,1.5-6,4.5s-1.6,7-1.6,12,.6,9.1,1.7,12,3.1,4.4,5.9,4.4,4.8-1.5,5.9-4.4c1.1-2.9,1.7-6.9,1.7-12s-.7-9.3-1.8-12.2Z"/>
        <path class="cls-2" d="M86.8,17.1c0-3.7-.2-6.2-.6-7.4-.4-1.2-1.1-2.2-2-2.9-.9-.7-2.3-1-4-1-1.8,0-3.2.4-4.3,1.2s-1.7,2-2,3.4-.4,3.6-.4,6.6v26.6h-6.6v-26.6c0-5.3.5-9.1,1.5-11.1,1-2.1,2.5-3.6,4.5-4.5S77.2,0,79.9,0C83.3,0,86.1.7,88.2,2.2s3.4,3.4,3.9,5.6c.6,2.3.8,5.5.8,9.7v26.2h-6c-.1,0-.1-26.6-.1-26.6Z"/>
        <polygon class="cls-2" points="125.7 43.7 118.6 43.7 106.4 23.2 106.4 43.7 99.6 43.7 99.6 .7 106.4 .7 106.4 14.8 111.1 22.1 120.2 .7 127.5 .7 115.2 27.9 125.7 43.7"/>
        <polygon class="cls-2" points="156.2 43.7 149.1 43.7 136.8 23.2 136.8 43.7 130.1 43.7 130.1 .7 136.8 .7 136.8 14.8 141.6 22.1 150.7 .7 158 .7 145.7 27.9 156.2 43.7"/>
        <path class="cls-2" d="M171.6,43.7L159.8.8h6.4l2.5,10.8h11.9l2.6-10.8h6.8l-10.9,42.9h-7.5ZM170.1,17.1l4.6,19.6,4.7-19.6h-9.3Z"/>
        <polygon class="cls-2" points="200.3 43.7 193.6 43.7 193.6 .7 214.7 .7 214.7 6.7 200.3 6.7 200.3 43.7"/>
        <path class="cls-2" d="M228.2,43.7L216.5.7h6.4l2.5,10.8h11.9l2.6-10.8h6.8l-10.9,43h-7.6ZM226.7,17.1l4.6,19.6,4.7-19.6s-9.3,0-9.3,0Z"/>
        <polygon class="cls-2" points="281.5 12.7 273.4 43.7 263.4 43.7 263.4 .7 269 .7 269 37.4 278.5 .7 283.4 .7 293.1 37.4 293.1 .7 299.4 .7 299.4 43.7 289.8 43.7 281.5 12.7"/>
        <polygon class="cls-2" points="313.2 20 326.2 20 326.2 25.7 313.2 25.7 313.2 38 329.7 38 329.7 43.7 306.5 43.7 306.5 .7 330 .7 330 6.6 313.2 6.6 313.2 20"/>
        <polygon class="cls-2" points="356.7 43.7 331.9 43.7 331.9 37.6 340.9 37.6 340.9 .7 347.6 .7 347.6 37.6 356.7 37.6 356.7 43.7"/>
        <path class="cls-2" d="M368.1,43.7L356.3.8h6.4l2.5,10.8h11.9l2.5-10.8h6.8l-10.9,42.9h-7.4ZM366.6,17.1l4.6,19.6,4.7-19.6s-9.3,0-9.3,0Z"/>
        <polygon class="cls-2" points="398.5 6.7 398.5 43.7 391.8 43.7 391.8 .7 412.9 .7 412.9 6.7 398.5 6.7"/>
      </g>
    </symbol>
    <clipPath id="clippath">
      <rect class="cls-1" y="24.28" width="51.55" height="5.55"/>
    </clipPath>
    <clipPath id="clippath-1">
      <rect class="cls-1" x="0" y="24.28" width="51.55" height="5.55"/>
    </clipPath>
  </defs>
  <polygon class="cls-2" points="17.04 0 1.44 23 7.34 23 17.04 8.55 18.49 10.57 9.96 23 16.1 23 21.43 14.82 26.89 23 32.64 23 24.23 10.63 25.7 8.55 35.66 23 41.27 23 25.7 0 21.36 6.62 17.04 0"/>
  <polygon class="cls-2" points="28.68 .29 34.65 .29 50.04 23 44.21 23 28.68 .29"/>
  <g class="cls-4">
    <g class="cls-3">
      <use width="412.9" height="44.4" transform="translate(.01 29.82) scale(.12 -.12)" xlink:href="#Nouveau_symbole"/>
    </g>
  </g>
  <polygon class="cls-2" points="9.96 23 25.7 0 41.27 23 35.66 23 25.7 8.55 16.1 23 9.96 23"/>
</svg>