<?xml version="1.0" encoding="utf-8"?>
<!-- Generator: Adobe Illustrator 24.0.2, SVG Export Plug-In . SVG Version: 6.00 Build 0)  -->
<svg version="1.1" id="Layer_1" xmlns="http://www.w3.org/2000/svg" xmlns:xlink="http://www.w3.org/1999/xlink" x="0px" y="0px"
	 viewBox="0 0 1000 1000" style="enable-background:new 0 0 1000 1000;" xml:space="preserve">
<style type="text/css">
	.st0{stroke:#000000;stroke-miterlimit:10;}
	.st1{fill:none;stroke:#000000;stroke-miterlimit:10;}
</style>
<g>
	<path d="M838.3,494.8c-197,0-392.9,0-590,0c0,3.6,0,6.9,0,10.3c0,86.9,0,173.8,0,260.7c0,35.6,20.1,55.7,55.5,55.7
		c133.6,0,267.2,0,400.8,0c3.4,0,7-0.4,10.2,0.3c7.6,1.7,11.9,6.6,11.5,14.7c-0.4,7.5-4.6,12-12,13.2c-3,0.5-6.2,0.3-9.3,0.3
		c-133.9,0-267.8,0-401.8,0c-50.9,0-83.6-32.6-83.6-83.4c0-112.7,0-225.5,0-338.2c0-50.5,33-83.4,83.7-83.4c160.7,0,321.4,0,482.1,0
		c40.8,0,72.1,24.9,79.8,63.4c1.3,6.3,1.4,13,1.4,19.5c0.1,95.3,0.1,190.6,0,285.9c0,2.5,0.1,5-0.2,7.5c-1.1,7.9-5.7,12.4-13.7,12.6
		c-8,0.2-12.8-4.3-14.3-12c-0.6-3-0.3-6.2-0.3-9.3c0-68.5,0-137,0-205.5C838.3,503.2,838.3,499.5,838.3,494.8z M838.1,465.6
		c0-16.3,0.6-31.9-0.2-47.4c-0.7-12.5-6.5-23.3-15.9-31.8c-11.3-10.3-24.9-13.2-39.7-13.2c-159.1,0.1-318.3,0.1-477.4,0.1
		c-3.1,0-6.2,0-9.3,0.2c-22,1.9-41,15.5-44.7,36.1c-3.2,18.1-2.3,36.9-3.3,56C445.4,465.6,641.1,465.6,838.1,465.6z"/>
	<path d="M712.2,271.6c-195.8,0-391.3,0-588.2,0c0,3.7,0,7,0,10.3c0,87.2,0,174.4,0,261.6c0,32.2,16.3,50.5,48,54.3
		c10.4,1.2,16.6,7.6,15.6,16c-1,8.6-8.1,13.5-18.5,12.8c-43-2.8-73.9-36.8-74.1-81.9C94.9,465.9,95,387.1,95,308.3
		c0-34.9-0.1-69.8,0-104.6c0.2-48.8,33.5-82.3,82.3-82.3c161-0.1,322-0.1,483.1,0c48.8,0,81.9,33.5,82.1,82.4
		c0.2,30.8,0,61.7,0,92.5c0,0.6,0,1.3,0,1.9c-0.3,11.4-5.7,17.8-14.8,17.6c-8.8-0.2-13.9-6.4-14.1-17.3c-0.2-8.1-0.2-16.2-0.3-24.3
		C713.2,273.5,712.8,273,712.2,271.6z M124.5,241.7c196.8,0,392.5,0,588.5,0c0-17.1,1.3-33.6-0.3-49.9
		c-2.4-24.8-24.4-41.6-52.5-41.6c-161-0.1-322,0-483.1,0c-2.8,0-5.6,0-8.4,0.2c-21.9,1.5-42.2,19.7-44,41.4
		C123.3,208.2,124.5,224.7,124.5,241.7z"/>
	<path d="M756.7,732.3c2.4,2.5,4.5,4.3,6.2,6.5c7.4,9.8,15.3,14.1,28.8,9.7c14.4-4.7,28.5,1.1,39.4,11.7c20.6,19.9,41,40,60.8,60.8
		c18.3,19.1,17.3,48.2-1.1,66.5c-18.3,18.1-47.5,18.5-66.5,0c-20.2-19.5-39.9-39.3-59.5-59.5c-13.3-13.7-17.1-30.2-10.8-48.3
		c2-5.7,1-9-3.2-12.8c-4.8-4.3-8.9-9.5-13.8-14.8c-31.7,22.7-65.6,30.3-102.4,20.1c-26.7-7.5-48-23.1-63.7-46.1
		c-31.2-45.6-24.9-107.5,14.8-146.2c39.8-38.8,101.9-43.8,146.5-11.5c26.2,19,42.1,44.5,47,76.6C784,677.3,775.3,706.1,756.7,732.3z
		 M580,661.8c-0.1,47.5,38.6,86.3,85.9,86.3c47.2,0,86.3-39.3,86-86.4c-0.3-47.1-38.5-85.3-85.7-85.5
		C618.5,575.9,580,614.1,580,661.8z M878.6,855.6c-3.7-6.8-5.5-12.7-9.3-16.7c-18.4-19-37.2-37.7-56-56.2
		c-8.6-8.5-19.8-8.8-27.5-1.4c-8,7.6-7.7,19.2,1,28.2c9.1,9.4,18.4,18.5,27.7,27.8c9.9,9.9,19.7,19.9,29.8,29.6
		c5.9,5.7,13.6,7.7,20.6,3.4C870,867.1,873.6,861.2,878.6,855.6z"/>
	<path d="M450.6,731.7c-13,0-26.1,0.1-39.1,0c-10.6-0.1-17.2-5.6-17.5-14c-0.3-8.7,6.5-14.7,17.6-14.8c26.4-0.2,52.8-0.2,79.2,0
		c11.5,0.1,17.6,5.7,17.3,14.9c-0.3,8.7-6.5,13.8-17.4,14C477.3,731.8,464,731.7,450.6,731.7z"/>
	<path d="M451.5,591.7c-13.7,0-27.3,0.1-41,0c-9.9-0.1-16.3-5.6-16.6-13.9c-0.3-8.6,6.2-14.5,16.7-14.6c27-0.1,54-0.1,81,0
		c10.4,0.1,16.1,5.2,16.3,13.8c0.2,8.9-6,14.6-16.5,14.7C478.2,591.8,464.9,591.7,451.5,591.7z"/>
	<path d="M451.2,661.6c-13.4,0-26.7,0.2-40,0c-10.7-0.2-17.1-5.8-17.2-14.3c0-8.5,6.6-14.3,17.1-14.4c26.7-0.1,53.4-0.1,80.1,0
		c10.8,0,16.9,5.5,16.9,14.3c0,8.9-5.9,14.2-16.9,14.3C477.9,661.7,464.5,661.6,451.2,661.6z"/>
	<path d="M330.1,731.6c-5,0-9.9,0.3-14.9-0.1c-9-0.6-15.1-6.7-15-14.6c0.1-7.6,5.8-13.6,14.5-14c10.8-0.5,21.7-0.5,32.5,0.1
		c8.5,0.4,14.3,6.8,14.1,14.3c-0.1,7.5-6,13.5-14.5,14.1C341.2,731.9,335.6,731.6,330.1,731.6C330.1,731.6,330.1,731.6,330.1,731.6z
		"/>
	<path d="M331.3,563.2c5.3,0,10.5-0.3,15.8,0.1c8.5,0.5,14.3,6.5,14.2,14.2c-0.1,7.2-5.8,13.7-13.5,14c-11.5,0.5-22.9,0.5-34.4,0
		c-7.8-0.3-13.3-6.8-13.2-14.2c0-7.3,5.6-13.3,13.5-13.9C319.5,563,325.4,563.3,331.3,563.2C331.3,563.3,331.3,563.2,331.3,563.2z"
		/>
	<path d="M330.7,632.9c5.6,0,11.2-0.3,16.7,0.1c8.3,0.6,14.5,7.1,13.8,14.6c-0.7,8.1-5.2,13.4-13.6,13.7c-11.1,0.4-22.3,0.5-33.5,0
		c-8.5-0.4-14.1-6.8-13.9-14.4c0.2-7.7,6.1-13.4,14.6-13.9C320.1,632.6,325.4,632.8,330.7,632.9
		C330.7,632.9,330.7,632.9,330.7,632.9z"/>
	<path d="M653.3,434.7c-38.6,0-77.2,0-115.9,0c-11.1,0-17.7-6-16.8-15.3c0.6-7,4.6-11.4,11.5-12.8c2.1-0.4,4.3-0.3,6.5-0.3
		c76.3,0,152.6-0.1,228.9,0.2c5.1,0,11.6,1.9,14.8,5.4c2.7,3,3.6,10.6,1.7,14.2c-2.2,4-8.3,8-13,8.2c-18.6,0.9-37.4,0.4-56,0.4
		C694.4,434.7,673.9,434.7,653.3,434.7z"/>
	<path d="M358.6,406.3c7.9,0.2,14.3,6.7,14,14.4c-0.2,7.7-6.9,14-14.6,13.9c-7.8-0.1-14.1-6.6-13.9-14.5
		C344.2,412.2,350.5,406.2,358.6,406.3z"/>
	<path d="M403.9,406.3c8.1-0.2,14.3,5.7,14.5,13.7c0.2,8-5.9,14.4-13.7,14.6c-7.8,0.2-14.4-6.1-14.7-13.8
		C389.7,413.1,396.1,406.5,403.9,406.3z"/>
	<path d="M310.3,434.6c-7.8-0.1-14.1-6.6-14-14.4c0.1-7.9,6.4-14,14.4-13.9s14,6.3,13.9,14.3C324.5,428.5,318.1,434.8,310.3,434.6z"
		/>
	<path d="M528.7,182.5c37.7,0,75.4,0,113,0.1c3.4,0,6.9,0.1,10.1,1.2c6.7,2.2,9.8,7.4,9.3,14.5c-0.5,6.7-4.2,11-10.7,12.4
		c-3.6,0.8-7.4,0.8-11.1,0.8c-73.8,0-147.6,0-221.4,0c-14.8,0-21.9-4.7-22-14.3c-0.1-9.7,7.1-14.5,21.7-14.5
		C454.5,182.5,491.6,182.5,528.7,182.5z"/>
	<path d="M247.8,197.1c-0.1,7.9-6.4,14.1-14.3,14c-8-0.1-14.1-6.3-14-14.4c0.1-7.9,6.5-14.3,14.3-14.2
		C241.5,182.7,247.9,189.3,247.8,197.1z"/>
	<path d="M185.5,182.6c7.6-0.3,14.4,6.3,14.6,13.9c0.2,7.8-6,14.3-13.9,14.5c-7.8,0.2-14.5-6.1-14.7-13.8
		C171.3,189.8,177.9,182.9,185.5,182.6z"/>
	<path d="M280.1,211.1c-7.9,0.2-14.4-5.9-14.6-13.8c-0.2-7.7,6.1-14.4,13.8-14.7c7.5-0.3,14.5,6.4,14.7,13.9
		C294.3,204.1,287.8,210.9,280.1,211.1z"/>
</g>
</svg>
