<?xml version="1.0" encoding="UTF-8"?>
<svg id="Calque_1" data-name="Calque 1" xmlns="http://www.w3.org/2000/svg" viewBox="0 0 109.76 17.5">
  <defs>
    <style>
      .cls-1 {
        fill: #fff;
        stroke-width: 0px;
      }
    </style>
  </defs>
  <g>
    <path class="cls-1" d="M39.07,0h-9.68c-.14,0-.28.04-.41.1-.68.36-2.72,1.7-2.22,4.51,0,0,.69,2.43,2.32,2.26h3.8s.48.81-.13,1.34h-6.42l-1.86,2.75h9.8s1.97-.53,2.32-3.39c.29-2.37-1.27-3.16-1.81-3.36-.11-.04-.22-.06-.33-.06h-3.71s-1.04-.45-.06-1.3h6.19S38.36,1.3,39.07,0Z"/>
    <path class="cls-1" d="M40.87,0h9.49s-1.13,2.15-2.05,2.77h-2.45l-1.69,5.53h3.47s-1.13,2.11-2.02,2.67h-9.44s1.53-2.56,2.19-2.73l2.3.02,1.78-5.53h-3.6S39.84,1,40.87,0Z"/>
    <path class="cls-1" d="M74.95,0h-8.07c-.2,0-.39.04-.57.12-1,.45-4.11,2.23-3.8,6.66.36,5.27,7.09,4.12,7.63,4.2,0,0,.86-.6,2.15-2.79l-4.31-.02c-.34,0-.68-.12-.97-.33-.55-.42-1.28-1.28-1.11-2.82,0,0,.31-1.68,1.63-2.18.12-.04.24-.07.36-.07l4.86-.02S74.55.86,74.95,0h0Z"/>
    <path class="cls-1" d="M100.39,0h9.38s-1.11,2.03-2.16,2.84h-2.32l-2.66,8.1h-3.6l2.76-8.21-3.55.04s1.33-2.21,2.07-2.74c.03-.02.06-.03.09-.03h0Z"/>
    <path class="cls-1" d="M58.35,0h-4.45s-3.97.98-4.89,5.14c0,0-1.25,5.57,3.43,5.72h4.26s3.24-1.15,4.31-4.07c0,0,2.36-5.97-2.66-6.78h0ZM57.91,5.37s-.01.07-.02.11c-.07.4-.24.78-.48,1.09-.36.46-.96,1.13-1.62,1.48-.27.14-.56.21-.85.21h-.55c-1,0-1.85-.8-2.01-1.89-.03-.18-.04-.38-.04-.59,0-.36.07-.72.22-1.04.25-.55.76-1.37,1.69-1.81.24-.11.5-.16.76-.16h.89c1.3,0,2.23,1.18,2.01,2.6h0Z"/>
    <path class="cls-1" d="M82.45,0h-4.01c-2.05.21-3.49,2.15-3.49,2.15-3.43,4.59-1.72,8.83,1.76,8.88,3.49.05,4.27-.14,4.27-.14,2.11-.45,4.56-2.41,5.04-6.7C86.51-.08,82.45,0,82.45,0ZM82.32,5.44s-.01.07-.02.1c-.07.37-.22.72-.45,1-.36.46-.97,1.15-1.64,1.5-.27.14-.56.21-.85.21h-.55c-.99,0-1.85-.8-2.01-1.89-.03-.18-.04-.38-.04-.59,0-.36.07-.72.22-1.04.25-.55.76-1.37,1.69-1.81.24-.11.5-.16.76-.16h.89c1.27,0,2.23,1.28,2,2.68h0Z"/>
    <path class="cls-1" d="M96.67,5.38C96.33-.21,95.47,0,95.47,0h-3.14c-.24,0-.47.1-.65.28-1.66,1.73-7.58,10.66-7.58,10.66h7.97l1.74-2.37.4,2.37h3.12l-.67-5.57h0ZM90,8.27v-.3l3.11-4.78s.06-.02.06.02l.67,5.06h-3.83Z"/>
    <path class="cls-1" d="M23.16,0h3.7s-2.5,10.26-5.62,10.84c-2.75.51-6.11,0-6.11,0,0,0-2.63-.51-2.04-3.75C13.67,3.84,15.12,0,15.12,0h3.65l-1.92,6.26s-.28,1.51.89,1.82c1.18.31,2.63.11,3.45-1.81C22.03,4.35,23.16,0,23.16,0Z"/>
    <path class="cls-1" d="M3.52,0h10.68s-1.46,2.7-2.29,2.84h-5.68l-.98,3.11,1.71-1.86h4.32s-2.68,2.91-2.68,2.91h-3.79l-1.25,4.01H0L3.52,0Z"/>
  </g>
  <rect class="cls-1" x="9.62" y="14.93" width="27.59" height=".39"/>
  <rect class="cls-1" x="72.65" y="14.93" width="27.59" height=".39"/>
  <path class="cls-1" d="M40.89,17.43l-.97-3.58v3.58h-.77v-4.39h1.44l.69,2.63.73-2.63h1.44v4.39h-.93v-3.58l-.99,3.58h-.63Z"/>
  <path class="cls-1" d="M46.32,17.49c-.53,0-.94-.22-1.23-.67s-.44-.98-.44-1.61.15-1.18.44-1.6c.29-.43.71-.64,1.26-.64s.97.23,1.24.69c.28.46.42.98.42,1.57,0,.64-.14,1.17-.43,1.61-.29.44-.71.66-1.26.66h0ZM46.34,13.81c-.48,0-.73.47-.73,1.42s.24,1.42.73,1.42.7-.47.7-1.42-.23-1.42-.7-1.42Z"/>
  <path class="cls-1" d="M50.15,15.69v1.74h-.93v-4.39h1.73c.32,0,.58.04.77.12s.35.23.48.46.19.47.19.74c0,.53-.23.9-.68,1.13l.73,1.94h-1.02l-.61-1.74h-.66ZM50.15,13.82v1.12h.57c.18,0,.32-.01.4-.04s.16-.09.22-.19c.07-.1.1-.21.1-.34s-.03-.23-.1-.33c-.07-.1-.14-.16-.21-.18s-.22-.03-.43-.03h-.55Z"/>
  <path class="cls-1" d="M55.12,17.49c-.53,0-.94-.22-1.23-.67-.29-.44-.44-.98-.44-1.61s.15-1.18.44-1.6c.29-.43.71-.64,1.26-.64s.97.23,1.24.69c.28.46.42.98.42,1.57,0,.64-.14,1.17-.43,1.61-.29.44-.71.66-1.26.66h0ZM55.15,13.81c-.48,0-.73.47-.73,1.42s.24,1.42.73,1.42.7-.47.7-1.42-.23-1.42-.7-1.42Z"/>
  <path class="cls-1" d="M61.21,14.67l-.97.07c-.01-.62-.23-.93-.65-.93-.48,0-.72.48-.72,1.43,0,.55.07.92.2,1.12s.31.29.55.29c.38,0,.62-.28.7-.83l.9.06c-.06.53-.23.92-.53,1.2s-.65.41-1.08.41c-.52,0-.95-.2-1.27-.6-.33-.4-.49-.95-.49-1.66,0-.66.16-1.2.47-1.63.32-.42.75-.63,1.29-.63.95,0,1.48.57,1.6,1.7h0Z"/>
  <path class="cls-1" d="M65.54,14.67l-.97.07c-.01-.62-.23-.93-.65-.93-.48,0-.72.48-.72,1.43,0,.55.07.92.2,1.12s.31.29.55.29c.38,0,.62-.28.7-.83l.9.06c-.06.53-.23.92-.53,1.2s-.65.41-1.08.41c-.52,0-.95-.2-1.27-.6-.33-.4-.49-.95-.49-1.66,0-.66.16-1.2.47-1.63.32-.42.75-.63,1.29-.63.95,0,1.48.57,1.6,1.7h0Z"/>
  <path class="cls-1" d="M68.16,17.49c-.53,0-.94-.22-1.23-.67s-.44-.98-.44-1.61.15-1.18.44-1.6c.29-.43.71-.64,1.26-.64s.97.23,1.24.69c.28.46.42.98.42,1.57,0,.64-.14,1.17-.43,1.61-.29.44-.71.66-1.26.66h0ZM68.18,13.81c-.48,0-.73.47-.73,1.42s.24,1.42.73,1.42.7-.47.7-1.42-.23-1.42-.7-1.42Z"/>
</svg>