<?xml version="1.0" encoding="UTF-8"?>
<svg id="Layer_2" data-name="Layer 2" xmlns="http://www.w3.org/2000/svg" viewBox="0 0 218.42 218.42">
  <defs>
    <style>
      .cls-1 {
        stroke-linecap: square;
      }

      .cls-1, .cls-2 {
        fill: none;
        stroke: #000;
        stroke-linejoin: round;
        stroke-width: 7px;
      }

      .cls-2 {
        stroke-linecap: round;
      }
    </style>
  </defs>
  <g id="Layer_1-2" data-name="Layer 1">
    <g id="vector_illustration-digital_art-pen" data-name="vector illustration-digital art-pen">
      <g>
        <rect class="cls-2" x="98.78" y="1.5" width="20.85" height="20.85"/>
        <rect class="cls-2" x="1.5" y="112.68" width="20.85" height="20.85"/>
        <circle class="cls-2" cx="11.92" cy="11.92" r="10.42"/>
        <circle class="cls-2" cx="206.49" cy="11.92" r="10.42"/>
        <line class="cls-2" x1="22.35" y1="11.92" x2="98.78" y2="11.92"/>
        <line class="cls-2" x1="119.63" y1="11.92" x2="196.07" y2="11.92"/>
        <path class="cls-2" d="m119.63,11.92c48.83,5.2,86.86,47.08,86.86,97.28,0,29.06-12.74,55.14-32.94,72.96"/>
        <path class="cls-2" d="m11.98,112.68c-.04-1.15-.06-2.31-.06-3.47C11.92,59,49.96,17.12,98.78,11.92"/>
      </g>
      <g>
        <circle class="cls-2" cx="109.21" cy="123.11" r="10.42"/>
        <path class="cls-2" d="m137,182.17c0-21.35,12.95-36.22,21.17-43.5,3.7-3.28,4.6-8.68,2.15-12.97l-48.1-84.17c-1.33-2.33-4.7-2.33-6.03,0l-48.1,84.17c-2.45,4.29-1.56,9.69,2.15,12.97,5.76,5.11,13.86,13.95,18.18,26.13"/>
        <path class="cls-1" d="m112.68,206.49h24.32c3.84,0,6.95-3.11,6.95-6.95v-10.42c0-3.84-3.11-6.95-6.95-6.95h-55.59c-3.84,0-6.95,3.11-6.95,6.95v10.42c0,3.84,3.11,6.95,6.95,6.95h6.95"/>
        <line class="cls-1" x1="81.41" y1="216.92" x2="81.41" y2="206.49"/>
        <line class="cls-1" x1="137" y1="216.92" x2="137" y2="206.49"/>
        <line class="cls-2" x1="109.21" y1="39.72" x2="109.21" y2="112.68"/>
      </g>
    </g>
  </g>
</svg>