<?xml version="1.0" encoding="UTF-8"?>
<svg id="Layer_2" data-name="Layer 2" xmlns="http://www.w3.org/2000/svg" viewBox="0 0 679.79 343.24">
  <defs>
    <style>
      .cls-1 {
        fill: #fff;
      }
    </style>
  </defs>
  <g id="Layer_1-2" data-name="Layer 1">
    <path class="cls-1" d="m343.05,222.02c-.27-.68-.61-.72-1.02-.12-4.78,6.93-10.81,12.47-18.09,16.64-6.05,3.46-13.74,3.37-17.61-3.23-3.77-6.44-1.49-15.58.77-23.04,2.1-6.93,4.18-13.87,6.23-20.82,2.17-7.34,2.51-21.65-10.24-11.93-9.09,6.92-16.05,16.8-22.03,26.42-6.55,10.53-12.76,21.26-18.65,32.17-.15.28-.44.45-.75.45l-15.45.04c-1.47,0-1.98-.7-1.51-2.11,4.01-12.25,7.83-24.53,11.45-36.82,2.44-8.31,3.55-15.83,3.33-22.54-.42-12.34-17.05-7.87-24.67-5.43-14.03,4.48-27.53,10.23-40.52,17.25-20.41,11.04-40.8,22.13-61.17,33.27-35.63,19.49-93.72,47.81-129.31,10.59-4.62-4.84-6.02-14.34,1.47-17.38,8.6-3.49,13.6,4.8,19.46,9.09,23.56,17.26,52.6,10.24,77.21-.23,15.11-6.43,30.04-13.86,44.77-22.27.2-.11.3-.34.25-.57-1.49-6.29-1.1-11.32-.46-18.83,6.15-71.95,48.96-134.67,114.27-165.16,55.96-26.13,120.91-22.32,173.81,7.33,56.17,31.5,93.48,90.65,99.43,154.53.07.82.51,2.15,1.32,4,.1.22.36.33.59.23.02,0,.04-.02.05-.03,17.45-10.07,35.58-18.71,54.37-25.91,28.61-10.96,59.74-14.94,84.18,7.93,12.97,12.14-.62,27.62-13.02,15.39-32.34-31.91-80.26-8.88-113.03,8.75-27.81,14.97-54.17,30.66-84.34,43.48-13.39,5.69-36.76,13.24-49.96,9.86-10.92-2.8-13.59-9.34-14.11-19.92-.02-.39-.2-.7-.44-.76-.1-.02-.2-.02-.31.01-.15.04-.29.17-.39.36-11.89,23.03-45.39,25.94-55.88-.69Zm26.87,4.41c7.95,5.62,17.39,2.15,23.04-4.84,7.67-9.49,11.4-20.4,11.2-32.73-.1-6.12-1.54-13.55-7.07-16.72-6-3.45-14.59-.31-19.19,4.17-6.91,6.74-11.24,14.83-12.99,24.28-1.46,7.88-2.5,20.54,5.01,25.84Z"/>
    <path class="cls-1" d="m328.92,322.92l-20.4.3c-.35,0-.67.24-.8.59l-6.49,17.73c-.1.29-.36.5-.66.56-2.29.46-4.57.47-6.86.04-.22-.04-.37-.26-.32-.48,0-.03.01-.05.02-.08l22.42-56.07c.24-.59.79-1.01,1.45-1.13l9.96-1.76c.35-.06.7.13.81.45l21.02,58.33c.13.36-.06.75-.41.88-.07.03-.15.04-.22.04l-11.64-.04c-.29,0-.55-.2-.65-.49l-6.55-18.39c-.11-.29-.38-.48-.68-.48Zm-18.61-6.31c-.06.18.03.37.21.43.03.01.07.02.11.02l16.51.12c.19,0,.34-.15.34-.34,0-.04,0-.07-.02-.11l-8.09-23.25c-.06-.18-.26-.27-.43-.21-.1.03-.17.11-.21.21l-8.42,23.13Z"/>
    <path class="cls-1" d="m495.66,322.92l-20.32.31c-.31,0-.58.2-.69.48l-6.61,17.82c-.11.3-.36.52-.66.58-2.33.45-4.63.46-6.89.04-.22-.04-.37-.26-.32-.48,0-.03.01-.05.02-.08l22.53-56.34c.12-.31.37-.52.66-.58l10.82-1.94c.28-.05.56.12.66.4l21.14,58.73c.07.18-.03.38-.21.45-.04.01-.08.02-.12.02l-12.11-.05c-.28,0-.54-.2-.64-.5l-6.57-18.38c-.1-.29-.38-.48-.69-.48Zm-10.11-29.76l-8.33,23.01c-.13.36.06.76.41.89.07.03.15.04.22.04l15.91-.05c.2,0,.37-.16.37-.36,0-.04,0-.08-.02-.12l-8.13-23.41c-.13-.4-.28-.4-.43,0Z"/>
    <path class="cls-1" d="m83.71,341.93c-9.78-2.48-15.84-10.14-17.5-20.06-2.65-15.8.47-33.03,18.32-37.44,6.55-1.61,13.47-1.41,20.76.62,17.33,4.82,20.6,25.18,16.16,40.07-4.94,16.55-22.83,20.58-37.74,16.81Zm.07-9.33c6.39,5.38,16.47,4.19,23.16.24.29-.16.51-.41.64-.71,4.64-10.33,5.82-37.31-8.6-41.01-4.38-1.12-17.41-.95-19.25,5.05-2.71,8.86-2.88,24.29,1.06,32.56.71,1.51,1.71,2.8,2.99,3.87Z"/>
    <path class="cls-1" d="m604.31,293.83c-1.48,1.17-2.42,2.68-2.81,4.53-2.37,11.11-4.41,37.64,13.13,38.18,6.31.19,12.51-.63,18.59-2.48.25-.07.51.06.58.3,0,.01,0,.03.01.04.31,1.41.31,2.81.02,4.21-.06.3-.28.56-.59.68-11.28,4.47-29.91,6.89-38.69-2.81-6.13-6.77-7.63-17.88-6.89-26.93,1.06-12.73,8.28-21.17,20.09-24.72,8.01-2.41,17.29-1.39,25.3-.1.48.08.8.54.72,1.04,0,.03-.01.06-.02.09l-1.85,6.95c-.11.41-.52.66-.91.56-7.24-1.77-20.36-4.57-26.68.46Z"/>
    <path class="cls-1" d="m46.91,322.93l-.39-38.03c0-.29.22-.54.51-.59,2.04-.35,4.11-.35,6.2.01.28.05.49.31.49.6v56.89c0,.3-.21.56-.49.62-2.64.56-4.62.66-6.69-1.41-12.77-12.71-25.56-25.41-38.37-38.09-1.71-1.69-.75,4.27-.73,5.19.21,17.91.29,29.06.25,33.46,0,.3-.21.56-.5.6-2.07.35-4.14.35-6.2-.01-.29-.05-.5-.31-.5-.6v-57.15c0-.3.2-.55.49-.61,2.48-.54,4.46-.62,6.42,1.32,12.89,12.73,25.77,25.45,38.66,38.17.57.57.86.44.85-.37Z"/>
    <path class="cls-1" d="m199.16,318.35l-2.44.18c-.27.02-.48.3-.48.63l-.03,22.45c0,.3-.22.55-.49.55h0l-10.93.08c-.28,0-.5-.25-.5-.55v-56.89c0-.29.22-.53.5-.55,10.16-.9,33.37-3.66,36.81,9.87,2.53,9.91-.55,17.27-9.23,22.08-.35.19-.48.64-.29,1,0,0,0,0,0,.01,3.99,6.83,10.06,19.66,18.61,20.89.31.04.57.26.65.54.27,1,.27,1.99,0,2.97-.09.3-.33.53-.65.61-18.7,4.61-23.06-9.62-30.78-23.35-.19-.33-.49-.54-.76-.52Zm10.94-15.83c.66-8.91-3.85-14.39-13.3-12.38-.29.06-.49.31-.49.6l.02,20.96c0,.28.22.52.51.55,8.31.75,12.73-2.49,13.26-9.73Z"/>
    <path class="cls-1" d="m568.91,323.12l-.14-38.44c0-.29.22-.53.49-.53,0,0,0,0,0,0l6.17.1c.28,0,.51.25.51.55l.02,57.01c0,.3-.21.56-.5.63-2.66.58-4.57.63-6.67-1.42-13-12.74-25.92-25.56-38.76-38.47-.45-.46-.67-.37-.65.28.52,12.83.71,25.74.56,38.75,0,.29-.21.54-.49.59-2.09.36-4.16.36-6.22,0-.29-.05-.5-.31-.5-.6v-57.15c0-.3.2-.55.48-.61,2.54-.57,4.42-.62,6.41,1.36,12.76,12.61,25.65,25.35,38.67,38.21.41.41.61.32.61-.26Z"/>
    <path class="cls-1" d="m145.24,290.44l-15.6-.13c-.3,0-.54-.21-.54-.47,0-.01,0-.03,0-.04l.53-5.17c.03-.28.3-.49.64-.49l45.78.02c.29,0,.52.2.53.45,0,.01,0,.03,0,.04l-.5,4.9c-.03.28-.29.5-.62.51l-15.29.37c-.67.02-1.21.56-1.21,1.23l-.03,50.05c0,.29-.22.53-.5.53h-11.15c-.28,0-.5-.24-.5-.54l-.04-49.75c0-.83-.67-1.5-1.5-1.51Z"/>
    <path class="cls-1" d="m249.79,335.83l22.64.56c.28,0,.51.22.5.47,0,0,0,.02,0,.03l-.46,4.86c-.04.35-.35.62-.72.62h-34.21c-.17-.01-.31-.14-.31-.31v-57.44c0-.28.22-.5.5-.5l32.94.02c.27,0,.48.2.48.45,0,.01,0,.03,0,.04l-.42,4.8c-.05.57-.56,1.02-1.18,1.02l-19.78.16c-.28,0-.5.24-.5.53l.06,17.34c0,.28.23.51.51.52l18.96.44c.29.01.51.23.5.48,0,0,0,.02,0,.03l-.49,4.63c-.03.28-.28.49-.6.5l-18.37.41c-.28,0-.51.24-.51.52l-.05,19.3c0,.28.23.51.51.52Z"/>
    <path class="cls-1" d="m368.66,336.3l20.77-.13c.28,0,.51.22.51.49,0,0,0,.02,0,.03l-.3,5.11c-.02.32-.3.57-.64.57h-32.71c-.17-.01-.3-.14-.3-.31v-57.39c0-.28.21-.5.48-.5l10.96.08c.28,0,.51.24.51.53l.02,50.85c0,.37.31.67.69.67,0,0,0,0,.01,0Z"/>
    <path class="cls-1" d="m411.29,336.06l20.79.12c.28,0,.5.21.5.46,0,.01,0,.03,0,.04l-.43,5.11c-.03.28-.28.5-.59.5l-32.5-.04c-.28,0-.5-.23-.5-.52h0l-.02-56.93c0-.29.22-.53.5-.54l11.29-.08c.23,0,.41.18.42.42,0,0,0,0,0,.01l.04,50.95c0,.28.22.5.5.5Z"/>
    <rect class="cls-1" x="441.23" y="284.12" width="12" height="58.26" rx=".59" ry=".59"/>
    <path class="cls-1" d="m656.53,309.31l18.81.18c.3,0,.54.23.53.51,0,0,0,0,0,0l-.24,4.37c-.02.38-.38.68-.82.69l-18.23.42c-.28,0-.51.23-.51.51l-.07,18.42c0,.92.77,1.67,1.72,1.69l21.37.37c.28,0,.5.22.49.48,0,.01,0,.03,0,.04l-.48,5.04c-.02.19-.19.33-.39.33h-34.42c-.17-.01-.3-.14-.3-.31v-57.39c0-.29.23-.53.52-.53l32.81.03c.27,0,.49.2.49.45,0,.02,0,.03,0,.05l-.59,5.16c-.04.28-.3.48-.62.48l-18.92.09c-.93,0-1.69.76-1.69,1.68v16.71c.01.28.25.51.54.52Z"/>
  </g>
</svg>