<?xml version="1.0" encoding="UTF-8"?>
<svg id="Layer_2" data-name="Layer 2" xmlns="http://www.w3.org/2000/svg" viewBox="0 0 419.25 431.75">
  <defs>
    <style>
      .cls-1 {
        fill: #fff;
      }
    </style>
  </defs>
  <g id="Layer_1-2" data-name="Layer 1">
    <path class="cls-1" d="m117.06,51.07l-.04,117.36c0,.18-.14.32-.32.32H.31c-.17,0-.31-.14-.31-.31V.31C0,.14.14,0,.31,0,121.8,0,243.28,0,364.77.01c26.93,0,54.48,26.68,54.48,53.8v114.63c0,.17-.14.31-.31.31h-118.73c-.27,0-.48-.21-.48-.48h0s-.03-117.36-.03-117.36c0-.28-.22-.51-.49-.51h-32.39c-.28,0-.51.23-.51.51h0s-.04,117.35-.04,117.35c0,.27-.21.48-.48.48h0l-114.76-.02c-.28,0-.51-.23-.51-.51h0s-.06-117.29-.06-117.29c0-.28-.22-.5-.49-.51-10.92-.34-21.72-.3-32.4.13-.28.01-.51.24-.51.53Z"/>
    <path class="cls-1" d="m117.56,243.94c54.47.34,108.93.62,163.38.84,11.28.05,20.08-1.29,19.75-14.5-.26-10.6-.27-21.18-.04-31.73,0-.28.23-.5.5-.5l117.54-.03c.18,0,.32.14.32.32h0c-.03,15.83-.03,31.68.02,47.53.06,20.54-11.13,31.41-30.45,36.88-2.36.67-5.29.99-8.78.98-87.11-.34-174.58-.68-262.43-1.01-.47,0-.86.38-.87.85,0,0,0,0,0,.01v147.86c0,.17-.14.31-.31.31H.31c-.17,0-.31-.14-.31-.31v-233.13c0-.17.14-.31.31-.31h116.2c.28,0,.51.23.51.51l.04,44.93c0,.28.22.5.5.5Z"/>
  </g>
</svg>