<?xml version="1.0" encoding="UTF-8"?>
<svg id="Layer_2" data-name="Layer 2" xmlns="http://www.w3.org/2000/svg" viewBox="0 0 1128.2 266.77">
  <defs>
    <style>
      .cls-1 {
        fill: #fff;
      }
    </style>
  </defs>
  <g id="Layer_1-2" data-name="Layer 1">
    <path class="cls-1" d="m206.97,206.19c-.6.82-1.55,1.31-2.56,1.31H.31C.14,207.5,0,207.36,0,207.19V.31C0,.14.14,0,.31,0h206.44c.72,0,1.3.58,1.3,1.3-.14,67.21-.14,134.43,0,201.64,0,1.16-.36,2.24-1.09,3.25ZM166.73,21.96c-31.71-16.51-68.94,11.29-62,46.4,1.39,7,6.04,16.61,8.77,22.65,3.75,8.27,6.06,16.94,6.92,26.02.01.19.18.33.36.31.04,0,.09-.01.13-.03,7.27-3.59,14.6-7.04,21.99-10.35,7.86-3.53,16.91-4.75,24.1-8.43,31.57-16.2,30.51-60.55-.27-76.57Zm-122.41,52.34c-41.79,15.63-40.78,75.92,1.32,90.06,3.17,1.06,8.32,1.98,15.44,2.77,14.76,1.64,27.68,2.29,41.21,9.31.33.17.47.07.41-.3-2.44-14.69.85-27.71,4.22-41.86,1.39-5.83,2.11-10.42,2.16-13.76.53-34.06-32.56-58.26-64.76-46.22Z"/>
    <path class="cls-1" d="m826.08,81.94c-14.83-12.38-19.15-33.23-11.08-50.7,10.08-21.85,41.03-24.85,61.51-22.84,11.36,1.11,19.83,2.25,25.42,3.42,2.32.48,3.31,2.98,3.31,5.33.01,6.43.01,12.82,0,19.19,0,.28-.23.5-.5.5-.06,0-.13-.01-.19-.04-14.51-6.09-47.52-17.33-60.32-4.71-8.16,8.04-5.32,18.36,2.1,25.58,1.63,1.58,5.14,3.97,10.54,7.17,10.79,6.37,21.56,12.79,32.3,19.24,13.33,8.01,23.46,17.64,27.39,32.93,4.64,18.08-2.39,37.19-18.18,47.24-22.57,14.35-57.86,10.33-82.08,2.82-1.58-.49-2.37-1.53-2.38-3.14l-.12-25.13c0-.55.23-.67.7-.37,8.36,5.32,17.19,9.68,26.49,13.07,11.16,4.08,27.98,5.74,38.05-.94,16.49-10.93,5.49-28.93-5.79-37.67-1.2-.93-5.55-3.65-13.05-8.18-11.78-7.11-23.51-13.92-34.12-22.77Z"/>
    <path class="cls-1" d="m273.19,158.81c-12.11-10.83-17.41-25.49-20.76-41.79-4.58-22.25-3.33-44.39,3.75-66.42,8.25-25.71,25.85-39.83,52.8-42.38,15.2-1.43,32.04.91,45.24,9.55,23.27,15.24,27.41,40.81,29.81,65.97.49,5.15.61,9.83.36,14.03-2.02,33.31-14.58,68.11-51.89,74.72-20.18,3.57-43.47.5-59.31-13.68Zm12.73-31.66c3.09,15.09,13.3,30.77,29.9,31.32,16.45.56,26.73-11.91,30.89-26.24,7.12-24.45,6.67-51.93,1.72-76.96-2.05-10.39-7.21-21.68-16.46-27.64-9.9-6.37-23.01-5.79-32.1,1.73-22.68,18.75-18.97,73.26-13.95,97.79Z"/>
    <path class="cls-1" d="m710.01,79.74c-17.18-15.77-18.27-44.25-.5-59.57,10.31-8.89,26.47-12.46,40.11-11.67,13.29.77,25.69,1.83,37.2,3.18,2.58.31,3.9,1.84,3.97,4.59.16,6.54.22,13.04.19,19.5,0,.28-.23.5-.5.5-.05,0-.11,0-.16-.03-13.31-4.67-47.39-15.91-59.31-5.23-12.71,11.38-3.51,23.4,7.28,30.94,13.53,9.45,29.9,17.65,42.04,25.46,20.23,13.02,28.93,34.73,19.69,57.9-14.3,35.87-67.35,30.51-96.66,22.33-3.67-1.03-4.04-3.22-3.86-6.64.38-6.91.36-14.05-.06-21.42-.06-.99.34-1.23,1.19-.73,16.15,9.41,35.97,19.56,55.22,15.17,26.9-6.15,17.82-32.81.6-42.99-17.94-10.6-32.55-18.54-46.44-31.29Z"/>
    <path class="cls-1" d="m438.01,170.61c-.76-.36-1.25-1.13-1.25-1.97V13.31c0-1.84.91-2.77,2.74-2.79,17.15-.22,34.3-.05,51.44.51,27.14.89,48.96,14.56,56.09,41.71,5.49,20.91,6.3,41.83,2.41,62.78-4.92,26.54-15.61,46.71-43.79,53.23-4.55,1.05-11.17,1.7-19.86,1.94-14.13.4-28.24.48-42.33.24-1.81-.03-3.13.77-5.45-.32Zm31.72-18.96c.61.26,1.24.37,1.89.32,3.08-.22,6.46-.34,10.13-.35,15.97-.03,29.48-6.62,33.44-23.14,5.85-24.31,6.32-48.61,1.41-72.92-5.38-26.7-24.12-26.19-46.65-26.79-1.18-.03-1.94.51-2.29,1.64-1.08,3.48-.42,6.8-.42,9.67.01,32.96.01,65.92,0,98.87,0,3.58-1.8,10.88,2.49,12.7Z"/>
    <path class="cls-1" d="m565.66,171.04c-5.21-.04-10.08-.07-14.62-.08-1.41,0-1.89-.67-1.43-2,17.62-51.22,34.93-102.11,52.54-152.98,1.13-3.28,3.39-5.89,6.85-5.75,9.89.39,17.39.39,22.5.02,2.67-.2,4.76,2.33,5.64,4.89,17.37,50.4,34.77,100.79,52.2,151.17.48,1.39.93,2.73,1.35,4.02.08.25-.04.51-.28.6-.05.02-.1.02-.15.02h-27.94c-2.24,0-3.73-1.1-4.46-3.31-4.16-12.53-8.03-25.09-11.61-37.66-1.67-5.9-5.85-4.43-10.42-4.45-12.08-.04-24.16-.05-36.24-.03-5.15.01-8.79-1.55-10.78,4.8-3.81,12.15-7.6,24.29-11.37,36.42-1.86,5.96-7.07,4.36-11.78,4.32Zm30.51-64c-.12.37.09.77.47.89.07.02.14.03.21.03l41.76.08c.39,0,.71-.32.71-.71,0-.07-.01-.14-.03-.21l-20.76-67.86c-.11-.38-.5-.59-.88-.48-.23.07-.41.24-.48.47l-21,67.79Z"/>
    <rect class="cls-1" x="935" y="10.46" width="30.5" height="160.74" rx="3.21" ry="3.21"/>
    <path class="cls-1" d="m997.11,171.04c-5.73-.05-11.36-.07-16.87-.04-.36,0-.66-.3-.65-.67,0-.07.01-.14.03-.2,17.67-51.41,35.31-102.7,52.92-153.89,2.19-6.37,4.64-5.78,10.32-5.75,6.15.04,12.5.26,18.62-.13,3.2-.21,4.92,1.52,5.96,4.53,17.94,51.87,35.91,103.72,53.9,155.57.07.21-.04.44-.26.51-.04.01-.09.02-.13.02h-29.43c-.33,0-.64-.1-.87-.31-2.79-2.51-3-4.96-4.08-8.31-2.96-9.21-6.35-20.31-10.16-33.3-.75-2.58-2.64-3.65-5.38-3.64-16.11.07-32.05.1-47.83.08-1.6,0-2.65.76-3.14,2.29-3.95,12.33-7.83,24.68-11.64,37.05-2.37,7.69-4.63,6.26-11.31,6.19Zm29.47-64.08c-.12.39.1.81.49.93.07.02.14.03.21.03l41.67.15c.41,0,.74-.33.74-.74,0-.08-.01-.15-.03-.22l-20.6-67.81c-.12-.39-.54-.61-.93-.49-.23.07-.41.25-.48.48l-21.07,67.67Z"/>
    <path class="cls-1" d="m400.52,65.53c-3.08-.05-6.12-.06-9.12-.02-.31,0-.57-.25-.58-.56,0-.03,0-.06,0-.08l7.77-53.49c.04-.29.29-.51.57-.51l26.82-.08c.19,0,.34.16.34.35,0,.04,0,.08-.02.11-5.48,16.17-10.83,32.37-16.06,48.61-2.09,6.52-3.84,5.78-9.73,5.67Z"/>
    <path class="cls-1" d="m582.94,263.31c-12.37-9.57-10.51-41.1,11.12-38.36,5.97.75,9.42,3.93,10.35,9.52.05.3-.08.6-.33.76-6.46,3.97-6.38-4.08-9.35-6.09-5.08-3.42-9.26.05-11.07,4.97-4.04,10.95-.97,36.83,17.92,26.14.31-.17.65-.2.91-.07.31.15.55.36.74.61.18.22.18.57,0,.87-4.1,7.21-15.02,5.73-20.29,1.65Z"/>
    <path class="cls-1" d="m664.83,256.16c-3.52,12.97-22.88,14.17-27.59,1.33-4.17-11.36-3.57-32.72,13.28-32.67,11.62.03,15.38,8.24,15.88,18.52.19,3.97-.33,8.24-1.57,12.82Zm-14.05,6.63c5.32,0,9.65-7.73,9.67-17.29h0c.02-9.56-4.29-17.32-9.61-17.33h0c-5.32,0-9.65,7.73-9.67,17.29h0c-.02,9.56,4.29,17.32,9.61,17.33h0Z"/>
    <path class="cls-1" d="m763.48,266.02c-13.05-2.48-11.27-22.6-9.31-31.85,2.65-12.49,22.84-12.58,27.06-.94,4.88,13.47,2.78,36.71-17.75,32.79Zm-3.54-10.26c1.32,4.8,8.04,9.5,12.22,6.06,6.74-5.54,7.2-27.96-1.04-32.68-1.31-.75-2.65-.99-4-.72-6.18,1.24-7.7,7.61-8.67,13.23-.87,4.99.18,9.35,1.49,14.11Z"/>
    <path class="cls-1" d="m823.2,263.3c-8.46-5.81-8.13-22.1-5.16-30.23,4.11-11.24,26.61-11.96,26.71,1.86,0,.3-.19.57-.47.65-6.89,2.09-5.77-4.77-10.34-6.91-5.11-2.39-9.94,3.48-10.86,7.98-1.53,7.45-.96,14.4,1.69,20.85,1.98,4.8,9.14,8.12,13.2,3.44,2.61-3,2.07-9.31,1.32-12.96-.23-1.15-.94-1.76-2.12-1.83-.05,0-8.39-.43-5.5-2.2,2.23-1.36,8.86-1.12,11.42-.84,3.17.34,2.29,2.51,2.38,4.65.19,4.55.02,8.73-.52,12.56-.29,2.03-1.36,3.49-3.22,4.38-6.49,3.09-12.67,2.63-18.53-1.4Z"/>
    <path class="cls-1" d="m948.05,262.17c-.33.5-.18.69.43.57l6.45-1.22c1.25-.24,1.52.24.81,1.45-1.18,1.98-2.55,2.51-4.92,2.63-5.22.27-10.43.17-15.63-.32-16.16-1.51-16.8-29.53-7.04-37.45,5.27-4.27,14.49-4.23,19.66.56,1.71,1.59,3.09,4.03,4.12,7.34,2.89,9.25,1.6,18.07-3.88,26.44Zm-14.87-1.12c5.3,3.32,9.66.95,11.75-4.53,3.01-7.87,2.88-15.82-.39-23.84-2.74-6.75-11.96-6.32-14.2.4-2.83,8.53-2.51,15.41-.12,24.02.47,1.7,1.46,3.02,2.96,3.95Z"/>
    <path class="cls-1" d="m1107.47,243.77c-7.39-5.08-6.31-16.63,3.32-18.35,4-.71,8-.62,11.99.28.97.22,1.72,1.07,2.25,2.55.33.94.07,1.52-.78,1.75-.27.08-.61.03-.94-.12-5.11-2.38-9.77-1.79-13.96,1.77-.26.22-.43.51-.49.82-2.01,10.43,25.11,10.43,18.21,26.73-3.2,7.57-14.27,7.85-21.01,6.43-2.71-.57-3.58-2.23-2.6-4.98.12-.34.5-.52.84-.41,3.67,1.14,9.22,2.88,12.69,2.01,6.77-1.71,5.59-9.24.31-12.28-3.37-1.93-6.64-4-9.83-6.2Z"/>
    <path class="cls-1" d="m20.1,227.91c3.18,2.36,3.71,6.55,3.4,10.28-.57,7.01-7.49,9.5-13.5,9.33-2.73-.07-4.12,1.16-4.16,3.71-.06,4.01-.09,8.02-.08,12.01,0,.34-.1.66-.28.91-1.33,1.85-3.02,2.13-5.07.84C.15,264.83,0,264.54,0,264.22v-37.84c.01-.49.38-.88.83-.88.02,0,.03,0,.05,0l15.32.85c1.31.07,2.61.59,3.9,1.56Zm-11.68,15.99c10.35,1.54,13.29-14.67.82-15.15-4.62-.18-3.34,4.29-3.62,7.07-.33,3.26.08,5.28,1.99,7.61.21.25.49.42.81.47Z"/>
    <path class="cls-1" d="m292.52,264.9c-8.22,4.14-19.19,1.28-20.46-8.91-.74-5.97-.84-14.52-.29-25.64.29-5.81,5.66-5.47,5.69.03.04,7.49.09,14.98.16,22.47.06,6.7,2.46,12.14,10.22,10,3.44-.95,4.36-4.17,4.51-7.66.42-9.14.54-18.29.35-27.45,0-.36.08-.68.26-.93.97-1.35,2.36-1.7,4.19-1.04.87.32,1.46,1.13,1.49,2.06.27,9.03.21,17.87-.19,26.54-.24,5.18-1.42,8.25-5.93,10.53Z"/>
    <path class="cls-1" d="m336.49,265.41c-.99-.17-1.72-1.04-1.72-2.04v-35.32c.01-1.77.9-2.62,2.68-2.55,6.87.29,19-1.67,21.35,7.56,1.3,5.07-.66,8.95-5.88,11.63-.35.17-.48.6-.31.95.05.1.13.19.22.25,5.98,4.34,5.97,11.69,7.3,18.34.06.29-.09.59-.36.71-5.17,2.34-5.95-1.46-6.5-5.53-.49-3.57-1.85-6.68-4.08-9.33-2.16-2.55-8.16-4.9-8.31.99-.09,3.38,1.46,15.36-4.39,14.34Zm6.58-21.44c1.89.47,3.89.07,5.98-1.19,9.17-5.51,1.71-17.12-7.37-13.25-.56.24-.93.82-.93,1.46l-.03,9.88c0,1.68.78,2.71,2.35,3.1Z"/>
    <path class="cls-1" d="m396.27,265.39c-1.31-.17-1.96-.9-1.95-2.19l.2-34.46c.01-1.9.99-2.9,2.92-2.99,4.85-.24,9.91-.22,15.18.05,1.61.08,3.05.55,2.52,2.47-.08.28-.36.47-.67.47l-11.66.05c-1.7,0-2.55.84-2.54,2.51l.04,9.4c0,1.55.82,2.36,2.45,2.42l10.58.36c.34.01.64.16.83.41,1.32,1.75-.43,2.08-1.69,2.14-3.21.15-6.29.25-9.26.28-1.97.02-2.95,1.01-2.95,2.96v9.5c0,2.49,1.23,3.59,3.72,3.31,3.81-.43,7.51-.02,11.08,1.22.33.12.34.27.05.44-4.84,2.92-13.56,2.34-18.85,1.65Z"/>
    <path class="cls-1" d="m461.7,249.8c-5.24-2.85-9.43-5.3-12.47-10.16-2.48-3.98-3.05-8.45.59-11.7,3.43-3.07,11.84-2.73,16.12-2.38,1.86.15,2.61,1.15,3.56,2.56.2.3.24.64.12.9-.42.89-1.7.93-2.55.53-4.04-1.86-7.85-1.62-11.42.73-1.61,1.06-2.1,2.5-1.47,4.31,3.3,9.53,17.15,7.61,18.37,19.65,1.2,11.89-12.84,12.71-20.74,11.46-3.06-.48-4.92-1.7-3.53-5.07.11-.26.4-.4.68-.33,3.85,1.02,9.43,2.87,12.95,1.86,6.84-1.97,5.15-9.44-.21-12.36Z"/>
    <path class="cls-1" d="m703.41,265.34c-1.41-.17-2.12-.97-2.12-2.39v-35.13c0-2.28.88-3.05,2.65-2.3,1.76.75,2.94,2,3.02,4.07.39,9.97.44,19.94.15,29.91-.05,1.66.75,2.49,2.38,2.49l11.69.03c.34,0,.64.16.8.41.44.67.49,1.21.15,1.62-.73.89-1.66,1.37-2.81,1.45-6.17.43-11.48.37-15.91-.16Z"/>
    <path class="cls-1" d="m883.51,265.04c-1.69-1.18-2.53-2.86-2.54-5.05-.02-9.89.01-19.78.09-29.68.02-2.58.99-4.12,2.9-4.63,2.17-.57,3.25.26,3.26,2.5.05,10.94.05,21.86,0,32.75,0,1.97-.94,3.37-2.81,4.19-.29.13-.63.1-.89-.08Z"/>
    <path class="cls-1" d="m59.04,265.4c-2.34-.19-3.51-1.45-3.51-3.78v-32.82c0-1.96.98-2.97,2.95-3.02,5.43-.16,11.16-.07,17.19.28,1.06.06,1.56.67,1.49,1.83-.02.28-.26.51-.56.51l-12.28.42c-1.72.05-2.58.92-2.58,2.61v8.26c.01,2.04,1.03,3.13,3.07,3.27l9.74.67c.34.02.63.2.75.46.29.6.26,1.18-.07,1.73-.15.25-.45.41-.8.41-4.03.02-12.68-1.92-12.85,4.02-.33,11.17.4,11.78,11.43,11.78,4.33-.01,4.66,3.27-.08,3.51-4.96.24-9.59.19-13.89-.14Z"/>
    <path class="cls-1" d="m113.53,265.34c-1.67-.48-2.51-1.59-2.51-3.33v-34.7c0-1.89.97-2.38,2.92-1.48,1.81.83,2.89,2.14,2.92,4.29.19,10.93.18,21.87-.05,32.81-.05,2.22-1.14,3.02-3.28,2.41Z"/>
    <path class="cls-1" d="m221.31,228.82l-6.19-.41c-.25-.02-.44-.21-.43-.44,0-.04,0-.08.02-.12,1.11-3.15,20.07-1.85,23.12-1.27,7.81,1.48-4.1,2.22-4.59,2.22-2.15-.03-3.23,1.03-3.23,3.18v31.47c.01.34-.1.66-.31.88-1.64,1.75-3.32,1.83-5.04.24-.24-.22-.37-.53-.37-.86l-.03-31.9c0-1.87-.98-2.86-2.95-2.99Z"/>
    <path class="cls-1" d="m524.93,265.42c-1.63-.18-2.44-1.09-2.44-2.73l.03-33.89c0-1.97,1-2.98,2.97-3.03,4.65-.09,9.59-.06,14.84.1,1.88.05,2.81.81,2.78,2.27,0,.28-.25.51-.55.51l-11.33.08c-1.86.01-2.83.92-2.92,2.73-.15,3.29-1.63,12.07,3.68,11.79,3.12-.17,6.21-.05,9.28.36.36.05.67.19.86.4.47.54.57,1.14.3,1.79-.11.27-.4.44-.73.44l-10.49.04c-1.93.01-2.89.94-2.88,2.77l.04,10.22c.01,1.86.99,2.77,2.94,2.72.9-.02,14.65-.94,12.34,2.2-.58.79-1.48,1.27-2.45,1.33-6.42.42-11.84.39-16.27-.1Z"/>
    <path class="cls-1" d="m1014.34,256.57c-1.28,13.43-25.25,13.94-26.27-.52-.64-9.01-.7-18.06-.19-27.13.02-.37.14-.69.34-.9l1.74-1.88c.2-.22.54-.28.82-.14,1.91.93,2.84,2.43,2.81,4.5-.15,9.47-.09,17.44.19,23.91.22,4.97,1.97,9.07,7.46,8.84,4.97-.22,7.44-2.97,7.42-8.26-.03-7.91.01-15.83.13-23.75.03-2.51.93-4.25,2.7-5.22.28-.15.62-.13.84.07l1.71,1.53c.22.2.35.51.37.87.65,11.45.62,20.81-.07,28.08Z"/>
    <path class="cls-1" d="m1053.01,265.38c-1.33-.16-2-.91-2-2.25l.02-34.33c0-2.03,1.01-3.04,3.02-3.03h15.83c.34,0,.66.11.91.3,5.05,3.96-11.1,2.72-11.71,2.74-1.51.05-2.27.79-2.26,2.24l.04,9.63c0,1.55.86,2.36,2.57,2.44l10.85.49c.34.02.63.19.78.46.6,1.05-.08,1.91-1.24,1.99-3.93.25-12.98-1.64-13.08,4.19-.08,4.78-1.55,12.21,4.01,11.76,2.81-.23,6.33-.1,10.54.39.35.05.65.19.85.41.71.79.45,1.45-.77,1.96-1.02.43-2.08.68-3.17.75-5.84.42-10.9.37-15.19-.14Z"/>
    <path class="cls-1" d="m177.03,255.74s.03-.08.14-.25c.1-.16.16-.34.16-.53.2-8.03.25-16.08.15-24.14-.07-5.8,4.6-6.29,4.75-.36.23,9.44.25,18.88.05,28.33-.07,3.4-.57,8.59-5.5,5.86-4.15-2.31-13.02-23.06-15.81-28.88-.36-.75-1.26-1.06-2.01-.7,0,0-.01,0-.02,0-.6.3.35,24.3-.66,27.37-2.19,6.61-4.31-.47-4.31-2.66.03-10.09.05-20.17.04-30.23,0-2.13,1.06-3.35,3.17-3.64,1.93-.27,4.56,1.72,5.58,3.68,4.13,7.91,8.46,16.46,12.98,25.66.23.47.79.69,1.29.48Z"/>
  </g>
</svg>