<?xml version="1.0" encoding="UTF-8"?>
<svg id="Layer_2" data-name="Layer 2" xmlns="http://www.w3.org/2000/svg" viewBox="0 0 718.25 469.16">
  <defs>
    <style>
      .cls-1 {
        fill: #fff;
      }
    </style>
  </defs>
  <g id="Layer_1-2" data-name="Layer 1">
    <g>
      <path class="cls-1" d="m145.34,291.18c2.13,1.52,9.68.26,12.59.21.36,0,.67.14.83.38.99,1.56-6.02,4.08-8.23,4.97-3.94,1.6-5.38,3.02-4.76,7.35,3.93,27.28,8.09,51.39,12.46,72.33.21.96,1.35,3.73-.83,2.97-.26-.09-.48-.35-.58-.68-.39-1.35-1.23-2.15-2.51-2.41-.29-.06-.51-.29-.54-.57-.97-8.28-2.64-16.41-5.01-24.38-4.63-15.52-8.27-30.99-10.69-47.03-.33-2.15-1.55-2.99-3.67-2.5-12.88,2.96-25.81,11.39-35.34,17.77-2.55,1.71-5.61,4.16-9.2,7.37-5.89,5.26-12.58,10.36-17.71,17.23-6.23,8.35-12.54,16.69-17.03,25.16-12.43,23.43-25.05,49.46-37.86,78.09-4.58,10.22-6.83,15.78-15.06,21.04-1.97,1.26-2.61.77-1.94-1.47,5.29-17.57,11.31-34.61,19.08-51.65,44.46-97.45,74.16-199.21,92.63-304.6,2.87-16.33,4.87-33.28,7.12-49.94,2.62-19.42,4.23-38.87,5.13-58.28.08-1.65.94-2.49,2.59-2.53,2.66-.07,5.26.23,7.81.9.31.08.55.31.62.61.37,1.49.46,3.56.27,6.21-1.06,14.23-2.48,28.77-2.98,42.67-1.98,54.97-2.27,108.5,3.31,162.82,2.6,25.38,3.98,51.35,8.54,76.46.12.6.46,1.14.96,1.5Zm-24.93-157.66c-.65.79-1.06,1.65-1.25,2.59-2.05,10.11-3.79,20.89-5.88,30.36-8.2,37.25-15.81,67.9-22.84,91.95-4.17,14.28-11.72,36.82-22.65,67.61-.78,2.19-1.3,4.59-1.93,6.88-.26.93.01,1.13.82.6,2.63-1.74,5.2-4.89,6.77-6.36,15.92-14.9,38.12-27.96,59.14-33.08,2.93-.71,4.22-2.43,3.87-5.16-3.28-25.17-6.42-50.36-9.41-75.57-3.12-26.23-4.04-53.07-5.68-79.51-.06-.91-.38-1.02-.96-.31Z"/>
      <path class="cls-1" d="m251.18,295c-1.84.11-3.49,1.28-4.98,2.05-8.31,4.28-16.49,8.82-24.53,13.61-1.45.86-1.92,2.09-1.39,3.7,3.55,10.79,5.9,19.05-3.23,28.19-8.96,8.98-32.17,25.26-43.57,11.05-4.68-5.84-.51-12.28,3.82-16.79,8.33-8.67,17.4-16.75,27.21-24.23,1.61-1.23,1.88-2.69.79-4.39-6.55-10.26-17.96-27.54-9.84-39.73,2.07-3.11,17.81-6.63,21.86-5.85,11.95,2.28,8.7,22.77-1.92,22.84-2.08.02-2.9-1.16-2.46-3.54l1.54-8.36c.28-1.5-.36-2.29-1.91-2.36-9.81-.48-10.33,6.9-8.42,14.29,1.63,6.31,4.62,12.08,8.96,17.3.54.66,1.49.81,2.22.35,12.63-7.96,23.74-14.91,38.55-18.21,4.13-.92,6.64-4.1,8.92-7.34,2.86-4.07,9.17-2.25,6.69,3.67-5.31,12.7-9.75,21.09-8.45,34.98.87,9.2,14.12,4.01,18.06,1.37,12.65-8.45,19.66-15.63,28.82-24.94,6.01-6.11,8.85-12.05,10.79-20.03,2.44-10.08,7.61-20.16,11.69-29.7,1.21-2.83,2.22-6.34-2.95-5.31-10.99,2.19-22,4.36-33.01,6.49-2.52.49-4.61,1.11-6.26,1.86-5.51,2.49-12.45,8.98-18.78,6.93-2.55-.82-3.92-3.05-3.07-5.64.73-2.17,4.46-4.6,6.27-6.1,2.65-2.2,2.95-5.5,6.73-6.69,5.65-1.79,11.26-3.67,16.85-5.66.3-.1.64-.13.97-.06,2.93.57,5.11.72,6.52.45,12.12-2.31,24.07-4.47,35.86-6.46,1.42-.24,2.48-.99,3.17-2.24,5.16-9.25,9.81-18.29,13.95-27.1.85-1.79,2.26-2.78,4.23-2.95,6.27-.55,6.59,3.94,4.71,8.45-2.53,6.07-5.51,11.91-8.96,17.52-1.42,2.31-.75,3.47,2.01,3.5,1.75.02,3.49-.05,5.2-.2,18.83-1.65,37.66-3.4,56.48-5.23,4.42-.44,10.81-.02,14.4-.78,8.4-1.78,16.32-.86,24.47-1.42,8.86-.61,17.68.26,26.36-.49,8.96-.77,14.59.32,22.1.38,3.74.03,8.3-1.29,12.02-1.05,9.25.61,18.49.55,27.72-.19,3.97-.32,7.82-.4,11.55-.25,13.68.57,28.6-.55,40.96-.5,12.43.05,24.85-.17,37.26-.66,2.12-.08,4.64.81,7.56,2.67.26.16.58.15.81-.03,6.23-4.67,12.31-4.45,18.23.68.41.36,1.02.33,1.37-.06l2.26-2.51c.21-.24.53-.32.77-.2l4.46,2.32c.66.34,1.46.13,1.78-.48.03-.05.05-.11.07-.16.27-.79.76-1.22,1.47-1.31.28-.04.56.15.69.45,1.07,2.55,2.6,2.8,4.61.75.22-.22.54-.28.79-.13,1.11.67,1.63,1.51,1.54,2.51-.05.47-.43.84-.9.87-10.85.67-21.67,1.26-32.5,2.13-7.08.57-14.15.41-21.21-.46-2.9-.36-5.26-.33-7.08.1-3.29.77-5.55,2.49-8.98,2.56-8.93.2-17.88.49-26.79.23-2.67-.07-5.3.19-7.89.79-3.28.77-5.48-.78-8.54-.43-9.24,1.04-15.33,1.58-18.27,1.62-22.65.34-45.29.84-67.93,1.5-7.16.21-14.47.67-21.43.83-37.71.86-65.16,4.14-111.44,8.6-2.03.19-3.46,1.05-4.29,2.58-11.75,21.45-24.26,49.61-24.32,74.91-.05,20.32,18.59,11.71,28.44,5.87,8.16-4.83,16.13-9.96,23.91-15.38,8.27-5.76,15.36-15.29,20.9-23.63.45-.67.77-.6.98.23l.76,3.04c.05.21.28.33.5.27.04-.01.08-.03.11-.05,4.46-2.64,8.86-5.35,13.2-8.12,11.52-7.36,16.85.81,26.62,4.29,4.41,1.57,4.61,4.35,2.75,8.09-2.74,5.49-12.52,28.94.16,28.14,7.35-.47,17.15-11.08,21.98-16.39,5.35-5.89,10.98-11.51,16.89-16.86.16-.15.42-.13.56.03.02.02.04.05.06.08,1.69,3.04-2.27,10.48-4.32,13.72-5.93,9.37-18.82,25.56-29.41,29.41-6.73,2.45-14.67,1.42-19.61-4.25-.79-.91-2.57-3.78-5.32-8.59-.13-.22-.41-.3-.63-.18,0,0-.02.01-.03.02-11.59,8.16-40.68,32.05-48.9,5.05-.09-.3-.4-.46-.7-.37-.03,0-.05.02-.08.03-6.34,3.02-12.01,8.43-18.18,12.07-12.59,7.4-22.28,11.47-35.05,2.33-5.91-4.23-7.12-14.77-5.9-21.77,1.09-6.33-6.93,3.75-7.08,3.91-11.42,12.11-30.56,28.14-48.01,17.42-5.12-3.15-7.04-10.25-7.56-15.81-.48-5.28,1.43-11.28,2.76-16.72.08-.32-.12-.65-.44-.72-.06-.01-.12-.02-.18-.02Zm134.65,22.62c.37.24.81.33,1.24.26,12.74-2.02,36.46-20.77,38.5-34.04.61-4-3.07-8.82-7.63-6.7-14,6.49-31.09,19.56-33.76,36.01-.32,1.98-.01,3.41,1.65,4.47Zm-201.67,32.21c7.08,2.42,16.07-4.14,21.8-8.85,6.25-5.13,8.55-11.49,6.9-19.08-.07-.32-.24-.61-.48-.8-2.24-1.8-3.38-.38-5.09,1.13-6.56,5.79-12.82,11.91-19.36,17.7-2.25,1.99-3.93,4.4-5.02,7.22-.51,1.33-.09,2.22,1.25,2.68Z"/>
      <path class="cls-1" d="m704.36,213.41c-.96-.16-1.25-.66-.86-1.49.13-.29.43-.46.74-.41l6.18.92c1.2.17,2.17-.1,2.9-.81,1.07-1.03,2.42-1.43,4.07-1.2.32.04.59.25.7.54,1.79,4.89-11.83,2.77-13.73,2.45Z"/>
      <path class="cls-1" d="m348.46,397.62c-1.27-.92-2.25-2.08-2.94-3.49-6.32-12.94,3.88-25.64,17.89-21.13.3.1.53.35.6.65.25,1.08.18,2.13-.19,3.15-.08.23-.36.35-.61.26-.01,0-.03-.01-.04-.02-10.98-5.03-19.97,7.68-12.71,16.39,3.16,3.78,7.42,4.65,12.78,2.61.27-.1.57.03.67.29.4,1.01.45,2.03.15,3.07-.09.3-.32.54-.63.64-5.4,1.71-10.39.9-14.97-2.42Z"/>
      <path class="cls-1" d="m456.04,399.91c-11.77,3.98-22.53-4.46-19.63-17.07,2.07-9.01,10.88-12.68,19.25-9.85.31.11.55.35.63.65.29,1.09.24,2.13-.16,3.13-.09.24-.38.36-.63.26,0,0-.02,0-.03-.01-19-8.52-21.01,26.68.25,18.93.21-.08.45.01.53.21.01.03.02.07.02.1l.26,2.97c.02.29-.18.57-.49.68Z"/>
      <path class="cls-1" d="m373.23,396.61l9.9.06c.31,0,.57.19.65.47.27.93.27,1.85,0,2.75-.08.29-.35.49-.65.49l-13.88-.09c-.28,0-.51-.23-.51-.51h0l-.02-26.42c0-.3.21-.56.5-.62,1.05-.21,2.04-.19,2.96.06.28.08.48.34.48.65l.06,22.64c0,.28.23.51.51.52Z"/>
      <rect class="cls-1" x="387.91" y="372.66" width="4.26" height="27.76" rx=".6" ry=".6"/>
      <path class="cls-1" d="m402.93,378.65c-.48.07-.27,18.96-.3,20.97,0,.31-.19.57-.47.65-1.01.28-2,.28-2.99,0-.29-.08-.49-.34-.49-.65l.03-26.29c0-.31.23-.56.51-.57l4.56-.02c.28,0,.56.2.73.51l10.51,19.59c.63,1.19.95,1.1.95-.25l-.04-19.13c0-.31.19-.58.48-.66,1.01-.28,2.01-.28,3,0,.29.08.49.34.49.65v26.17c0,.33-.22.6-.49.61l-4.09.1c-.28.01-.57-.19-.74-.51l-11.05-20.73c-.15-.29-.4-.47-.6-.44Z"/>
      <rect class="cls-1" x="426.66" y="372.66" width="4" height="27.76" rx=".6" ry=".6"/>
      <path class="cls-1" d="m199.91,376.14c1.21.82,2.12,1.89,2.74,3.21,1.48,3.17,1.94,6.67,1.39,10.5-1.75,12.13-13.09,11.55-23.04,10.94-.29-.02-.51-.24-.51-.52v-25.95c0-.28.21-.52.5-.55,6.18-.68,13.48-1.3,18.92,2.37Zm-13.27,19.65c15.43,4.8,16.6-21.62,0-17.3-.27.07-.46.32-.46.6v16.02c-.01.32.18.59.45.68Z"/>
      <path class="cls-1" d="m252.14,389.6c.21-2.97.3-7.38.26-13.23-.02-2.44,1.3-3.24,3.96-2.41.29.09.48.36.48.66l.05,24.74c0,.31-.17.6-.45.74-2.61,1.31-4.69.73-6.22-1.73-.97-1.56-9.11-15.34-9.91-14.94-.24.12-.39.42-.39.79l-.02,15.42c0,.31-.18.58-.46.69-1.33.49-2.68.55-4.03.18-.28-.08-.48-.34-.48-.64v-24.88c0-.31.17-.6.44-.75,2.73-1.51,4.9-.95,6.49,1.7,3.25,5.37,7.49,13.3,9.76,14.02.21.07.44-.05.5-.27,0-.03.01-.06.02-.09Z"/>
      <path class="cls-1" d="m262.03,377.34c-.79-1.07-.91-2.22-.37-3.47.12-.27.4-.44.72-.45,5.95-.1,11.88-.04,17.77.19,1.88.07,4.62,1.97,2.3,3.65-1.61,1.16-4.49.91-6.47,1.02-.29.02-.51.24-.51.52l-.04,20.57c0,.69-.48,1.25-1.08,1.25,0,0,0,0,0,0l-4.11-.06c-.28,0-.51-.25-.51-.56h0l-.04-20.54c0-.67-.55-1.23-1.26-1.28l-5.58-.39c-.32-.03-.61-.19-.81-.45Z"/>
      <path class="cls-1" d="m301.59,399.91c-1.75-7.54-13.05-8.23-14.81.01-.07.34-.31.58-.59.6l-3.25.2c-1.4.09-1.81-.64-1.24-2.18,2.65-7.11,5.28-14.05,7.87-20.82,1.82-4.76,6.6-6.75,8.79-1.04,2.97,7.73,5.87,15.48,8.72,23.25.08.22,0,.47-.2.55-.04.02-.08.02-.12.02h-4.57c-.27.01-.52-.24-.6-.59Zm-10.84-10.65c-.12.36.07.75.43.87.07.02.15.04.23.04h5.44c.38-.01.69-.32.69-.7,0-.07-.01-.15-.04-.22l-2.74-8.08c-.13-.36-.53-.54-.88-.41-.19.07-.35.23-.42.42l-2.71,8.08Z"/>
      <path class="cls-1" d="m319.51,396.39c2.22-.25,12.67-1.73,9.59,3.81-.15.27-.45.44-.77.44l-16.83-.09c-.28,0-.5-.23-.5-.52h0l-.03-25.69c0-.32.22-.58.49-.58,0,0,0,0,0,0l4.19.06c.27,0,.49.29.49.63l.02,18.96c0,2.24,1.11,3.23,3.34,2.98Z"/>
      <path class="cls-1" d="m215.1,395.06c.28.64.91,1.06,1.61,1.07,3.14.03,6.3.04,9.47.03,2.71-.01,3.65,1.24,2.84,3.76-.09.28-.36.47-.67.47h-17.44c-.65.01-1.2-.5-1.25-1.16-.67-8.19-.73-16.36-.18-24.52.03-.44.39-.79.83-.79h18.06c.3,0,.57.19.66.48.31,1.03.32,2.04.03,3.02-.08.28-.36.48-.67.48l-12.18.03c-.31,0-.58.18-.69.46-.65,1.59-.89,2.89-.7,3.88.29,1.61,1.26,2.41,2.89,2.39,2-.01,10.53-1.04,10.41,1.92-.05,1.39-1.2,2.09-3.45,2.1l-7.64.05c-1.26,0-2.01.66-2.25,1.96-.31,1.69-.21,3.15.32,4.37Z"/>
    </g>
  </g>
</svg>