<?xml version="1.0" encoding="UTF-8"?>
<svg id="Layer_2" data-name="Layer 2" xmlns="http://www.w3.org/2000/svg" viewBox="0 0 1127.79 260.94">
  <defs>
    <style>
      .cls-1 {
        fill: #fff;
      }
    </style>
  </defs>
  <g id="Layer_1-2" data-name="Layer 1">
    <path class="cls-1" d="m892.76,174.79c-.09-1.19-.48-1.3-1.17-.33-17.23,24.08-45.51,31.31-73.59,25.97-22.79-4.33-38.67-18.48-49.55-38.4-.2-.36-.65-.5-1.02-.3-.09.05-.17.12-.23.2-15.77,20.48-38.64,32.45-64.42,33.06-29.76.71-53.84-11.23-72.23-35.82-.31-.42-.9-.51-1.31-.2-.06.05-.12.1-.17.16-14.38,17.2-31.92,29.23-54.56,29.88-14.99.44-34.18-4.2-46.31-13.2-16.94-12.59-21.81-32.87-20.02-53.32.67-7.67,1.39-13.15,2.14-16.44,1.55-6.79,6.96-8.72,13.76-10.2,12.51-2.7,25-5.46,37.48-8.28.28-.06.49-.31.5-.6.53-20.83,1.03-41.63,1.5-62.42.18-8.03,4.41-12.43,12.69-13.19,16.84-1.53,33.67-3,50.5-4.39,5.78-.48,13.49,1.36,17.73,5.46,6.26,6.06,4.99,11.99,4.44,22.11-.21,3.87-.4,7.73-.57,11.58-.02.49.17.6.58.34,5.32-3.37,11.34-7.34,17.53-8.68,10.35-2.24,13-12.58,12.97-21.79-.01-2.25.23-3.6.72-4.07.45-.43.71-.07.74.38.58,6.85,1.32,13.67,2.22,20.48.03.21.22.36.42.33.04,0,.07-.01.11-.03,6.88-3.06,9.85-11.15,13.14-17.21.93-1.71,1.34-1.59,1.23.36l-.81,14.29c-.03.53.37.99.91,1.02,0,0,.01,0,.02,0,22.48,1.03,43.29,8.35,59.97,23.69.19.18.48.17.66-.01,0,0,.02-.02.02-.03.69-.85,1.32-1.7,1.91-2.56,4.46-6.65,11.04-5.49,18.8-4.66,12.27,1.31,24.5,2.98,36.67,5.02,4.69.79,8.45,1.02,11.28.71,5.05-.56,10.89-2.72,14.81-3.57,6.66-1.44,13.06-2.82,20.09-3.23,37.66-2.2,72.65-11.37,108.85-18.29,1.93-.37,3.03-1.52,3.31-3.46,1.12-7.76,6.64-9.83,14.1-10.82,49.79-6.64,85.92-11.35,108.4-14.12,8.69-1.07,18.15,1.8,22.16,10.15.85,1.77,1.6,4.94,2.24,9.5,1.65,11.75,3.52,23.47,5.61,35.16,5.2,29.12-16.68,25.55-37.07,25.47-.25,0-.45.2-.45.44,0,.01,0,.03,0,.04,1.79,24.43,3.71,48.85,5.78,73.25,1.25,14.67-7.69,19.22-20.27,20.38-8.36.77-16.72,1.47-25.09,2.12-12.16.93-20.55-1.23-23.13-14.49-4.45-22.86-8.76-45.94-12.91-69.23-.39-2.2-1.7-3.16-3.93-2.89-3.44.41-7.45-.57-10.55.27-3.46.94-13.81,8.64-13.87,12.43-.07,4.38,4.3,5.1,7.47,6.08,6.29,1.92,10.77,6.82,11.51,13.35,2.54,22.23,4.04,35.99,4.49,41.28,1.49,17.57-10.03,19.1-24.99,21.86-21.73,4.01-43.49,7.93-65.27,11.76-5.55.97-9.57,1.2-12.06.68-11.28-2.37-13.21-13.08-13.91-23.03Zm-126.96-32.91c12.72,36.05,42.98,54.56,80.97,46.68,23.39-4.84,38.37-21.93,44.56-44.42.07-.27.31-.45.54-.4.03,0,.06.02.08.03.7.37,4.32,28.24,4.76,31.34,1.55,10.82,6.14,12.2,16.61,10.3,40.29-7.3,65.13-11.74,74.5-13.32,11.99-2.02,10.42-9.19,9.37-19.5-1.02-10.04-2.09-20.08-3.2-30.11-.78-7.09-2.58-12.35-10.44-12.31-2.34.01-5.4.95-8.22,1.16-.26.02-.48-.18-.5-.44,0-.01,0-.02,0-.03l-.03-18.32c0-1.67.84-2.68,2.51-3.01,4.32-.87,6.54-5.11,7.94-9.75.09-.28.34-.48.64-.49l25.87-1.36c1.83-.1,3.08.69,3.73,2.38.52,1.35.92,2.81,1.19,4.4,4.03,23.04,8.22,46.05,12.59,69.03,1.19,6.28,3.28,11.86,10.99,11.47,9.35-.47,20.62-1.39,33.79-2.78,7.47-.78,10.88-5.09,10.21-12.93-2.23-26.41-4.32-52.82-6.26-79.25-.02-.28.19-.53.47-.55,0,0,.01,0,.02,0,8.53-.32,17.07-.71,25.6-1.16,8.33-.43,14.07-2.79,12.66-12.3-2.05-13.85-4.18-27.69-6.37-41.52-1.19-7.47-4.14-12.82-12.39-11.75-36.17,4.67-72.34,9.38-108.51,14.15-9.34,1.24-11.53,3.57-12.91,12.72-.06.43-.38.77-.81.86-22.06,4.47-44.1,9.03-66.22,13.15-9.68,1.8-20.87,6.58-30.6,4.1-1.09-.27-2.18-.32-3.28-.15-12.54,1.96-25.18,4.03-37.91,6.21-9.23,1.58-9.04,8.93-6.89,16.55,4.38,15.6,5.48,28.35,4.52,43.64-.6,9.56-12.62,6.07-14.18-1.22-3.03-14.08-.53-29.28,2.65-43.98,1.76-8.08-.96-12.11-9.32-13.37-13.36-2-26.76-3.75-40.2-5.24-3.86-.42-6.29-.89-8.9,1.3-4.48,3.76-7.2,12.62,1.17,14.34.26.06.52-.11.58-.37,0,0,0-.01,0-.02l1.71-8.71c.05-.27.31-.46.6-.43l47.27,6.11c.71.09,1.2.74,1.11,1.45,0,.04-.01.08-.02.11-3.36,14.89-10.49,47.05,1.56,59.38,4.27,4.37,12.48,5.5,17.99,1.39,13.16-9.84,2.28-49.29-1.7-62.64-.14-.48.14-.99.62-1.13.03,0,.07-.02.1-.02l42.35-6.91c.64-.11,1.26.28,1.44.91,8.61,30.03,11.78,61.91,3.05,92.33-6.3,21.94-27.27,35.29-49.34,36.47-21.8,1.16-41.07-8.96-53.11-26.81-7.07-10.48-10.25-23.19-13.27-35.18-.34-1.35-.85-1.41-1.53-.2-1.05,1.87-1.93,3.81-2.22,6.1-4.79,38-44.42,52.82-77.86,50.95-19.3-1.08-34.57-8.75-44.06-25.99-2.57-4.66-5.83-6.68-11.06-6.32-.16,0-.28.15-.27.32,0,.05.02.11.05.15,14.41,22.25,34.46,34.21,60.17,35.88,32.79,2.14,57.47-13.39,74.06-41.07.4-.66.73-.63.98.1Zm-129.47-80.45c.54-13.4,1.14-26.8,1.8-40.2.39-7.89-3.24-11.64-10.87-11.26-5.37.27-20.21,1.45-44.52,3.56-9.56.82-15.83.89-16.11,11.89-.52,20.61-.98,41.22-1.38,61.83-.03,1.85-.96,2.96-2.77,3.32-13.09,2.64-26.22,5.45-39.39,8.43-5.23,1.19-9.12,3.19-10.05,8.49-3.13,17.84-3.54,38.61,9.67,52.69,8.07,8.61,22.66,14.66,34.55,16.29,29.15,4.01,50.94-9.27,66.4-33.48.18-.27.17-.63-.03-.9-1.14-1.56-2.65-2.87-4.54-3.94-.23-.13-.54-.04-.68.21-13.73,24.57-39.47,37.61-67.35,29.84-28.21-7.87-37.11-27.75-32.2-55.65.57-3.27,1.6-5.81,4.89-6.57,14.05-3.25,28.35-6.37,42.9-9.38.25-.05.5.11.56.37.01.07.01.15,0,.22-2.24,8.45-5.2,16.93-3.2,25.81.08.31.39.5.7.43.06-.02.12-.04.18-.08,4.09-2.74,6.22-6.67,6.41-11.8,1.07-29.43,1.56-59.3,1.47-89.61,0-.45.34-.82.79-.85l57.19-4.64c.53-.05.99.35,1.04.88,0,.05,0,.09,0,.14l-3.86,64.06c-.03.55.34,1.06.88,1.19,4,.97,5.91-1.66,7.31-5.19,5.07-12.75,13.69-22.43,25.88-29.06,4.82-2.62,7.64-3.55,11.22-7.97,1.57-1.93-.71-2.23-1.95-1.82-14.17,4.63-24.05,12.71-34.59,22.9-.24.23-.35.18-.34-.15Zm59.43-21.41c16.5,3.01,27.89,4.54,40.47,15.45,5.16,4.47,9.27,6.19,15.78,4.6.2-.05.33-.25.28-.44,0-.04-.02-.07-.04-.11-.95-1.58-2.26-3.12-3.94-4.62-13.65-12.15-29.49-18.91-47.52-20.29-3.56-.27-6.14.93-5.48,4.95.04.23.22.42.45.46Zm-48.57,79.03c2.99,2.2,3.77,3.96,2.93,7.84-5.07,23.47,2.77,42.85,28.96,46.08,21.77,2.68,41.5-1.74,59.19-13.27,13.27-8.64,19.94-18.83,15.07-34.79-1.89-6.17-5.45-11.1-8.68-16.36-1.25-2.01-1.18-3.98.21-5.9,2.7-3.77,2.83-9.17,1.58-13.86-3.55-13.31-13.97-28.83-27.84-32.05-14.41-3.34-21.13,6.68-28.74,17.07-.19.25-.54.32-.8.15-12.62-8.13-26.35-15.31-37.73-1.57-6.35,7.68-8.39,20.79-9.56,30.46-.82,6.74.05,12.25,5.41,16.2Zm185.55-23.11c0-.34-.27-.61-.61-.61h-.02c-.34,0-.61.27-.61.61h0v18.44c0,.34.27.61.61.61h.02c.34,0,.61-.27.61-.61v-18.44Z"/>
    <path class="cls-1" d="m92.43,139.79c-.18-.3-.57-.39-.87-.21-.08.05-.14.11-.19.19-4.97,7.62-10.11,15.17-15.42,22.66-5.65,7.98-14.16,9.77-23.44,7.52-10.6-2.57-21.16-5.3-31.67-8.19-6.47-1.78-10.88-3.57-13.22-5.36-9.94-7.62-9.07-22.53-3.6-32.9C23.22,87.14,42.43,50.77,61.65,14.41c7.27-13.76,26.42-16.87,36.28-4.1,8.15,10.55,16.18,21.18,24.11,31.91.33.45.96.55,1.41.21.06-.04.11-.09.16-.14,8.14-9.21,16.73-18.05,24.43-27.58,5.23-6.49,12.44-8.7,21.62-6.63,14.17,3.18,16.02,11.24,20.42,25.29,3.09,9.87,6.22,19.74,9.39,29.6.13.43.34.47.63.12,29.49-36.4,77.5-41.91,117.33-19.67.49.28,1.12.11,1.41-.39.04-.07.07-.14.09-.22,4.67-15.54,19.21-22.05,33.74-15.19,13.19,6.23,26.31,12.6,39.38,19.11.59.29.83.11.74-.54-1.54-10.92-1.56-22.41,9.22-27.96,2.64-1.36,7.08-2.33,13.33-2.91,12.66-1.16,25.34-1.97,38.04-2.43,10.63-.38,15.22,3.41,17.05,13.59,6.74,37.47,10.98,75.73,15.74,113.51.72,5.69.76,9.9.11,12.61-2.33,9.79-12.67,16.75-22.81,15.2-2-.31-5.45-1.54-10.34-3.7-12.35-5.45-24.59-10.81-36.72-16.08-.95-.41-1.35-.11-1.2.92,1.88,13.1-1.44,24.52-15.96,27.56-4.62.97-17.93,2.46-39.93,4.48-10.31.94-14.91-.73-21.69-8.14-.53-.57-1.42-.62-1.99-.09-.03.02-.05.05-.07.07-13.9,14.65-31.34,23.48-52.32,26.48-26.85,3.85-49.66-4.87-70.29-21.56-1.44-1.16-3.07-1.56-4.88-1.19-11.27,2.31-22.69,4.58-34.26,6.8-12.95,2.49-21.07-4.61-25.44-15.66-2.74-6.95-5.7-13.81-8.65-20.67-.35-.79-.77-.84-1.27-.13-3.6,5.05-7.05,9.67-12.87,12.32-16.58,7.53-25.81-7.37-33.16-19.42Zm250.53-8.81c1.07,8.03,2.15,16.12,3.24,24.26,1.27,9.55,7.45,11.98,16.25,11.16,12.16-1.14,24.3-2.46,36.43-3.97,10.06-1.26,12.69-6.59,11.54-16.51-.63-5.49-1.39-11.18-2.26-17.08-.16-1.07.26-1.39,1.25-.95,17.07,7.49,34.44,15.11,52.12,22.88,4.21,1.85,6.98,2.72,8.3,2.61,12.87-1.05,12.52-9.91,11.17-20.6-7.43-59.15-12.02-94.25-13.75-105.29-1.23-7.89-5.98-11.63-14.24-11.24-12.67.61-22.22,1.11-28.64,1.49-8.83.52-16.63.03-19.2,8.34-.73,2.35-.71,6.94.04,13.77.64,5.74,1.29,11.41,1.95,17.01.09.71-.19.91-.84.6-18.82-8.99-37.59-18.06-56.32-27.21-9.6-4.69-20.01,1.05-18.51,11.99,1.26,9.24,2.41,18.41,3.45,27.51.11.97-.12,1.05-.68.26-19.94-28.19-51.27-41.72-85.42-34.05-25.56,5.74-43.55,22.27-54.67,45.72-.39.84-.73.82-1.01-.07-6.16-19.82-12.37-39.7-18.64-59.63-1.27-4.02-2.93-7.75-6.77-9.75-7.37-3.85-12.35.02-17.54,5.82-10.21,11.42-20.43,22.84-30.65,34.27-.29.32-.78.35-1.1.06-.04-.04-.08-.08-.11-.12-8.77-11.69-17.57-23.38-26.38-35.06-3.73-4.94-6.42-8.02-8.09-9.23-8.22-5.96-14.97.3-18.85,7.61C35.88,70.61,15.99,108.29,5.36,128.63c-5,9.58,1.48,15.7,10.21,18.05,9.55,2.57,19.09,5.15,28.64,7.72,8.85,2.38,15.2,3.72,20.19-3.55,7.37-10.72,14.69-21.48,21.96-32.29.32-.48.97-.61,1.46-.29.12.08.23.19.3.31,4.53,7.12,9.25,14.25,14.14,21.4,2.17,3.17,4.91,5.29,8.2,6.35,1.81.59,3.57.48,5.28-.33,3.39-1.58,6.19-3.88,8.4-6.89,4.08-5.56,8.11-10.95,12.1-16.17.35-.46.64-.42.86.11,5.09,12.38,10.11,24.62,15.05,36.73,2.47,6.07,6.82,10.55,13.91,9.29,13.05-2.32,26.06-4.88,39.02-7.67,2.61-.57,4.72-.1,6.32,1.41,36.36,34.16,92.36,29.49,120.59-12.1,3.91-5.77,7.22-13.13,10.4-19.82.29-.61.48-.58.57.09Z"/>
    <path class="cls-1" d="m1020.18,70.82l-34.91,1.48c-.8.03-1.48-.58-1.51-1.38,0-.02,0-.04,0-.06l.02-43.41c0-1.85.92-2.9,2.77-3.14,37.21-4.8,74.41-9.62,111.6-14.45,4.62-.6,4.08-1.26,4.84,3.31,2.62,15.89,5.15,31.78,7.58,47.67.04.25-.13.48-.37.51-.02,0-.04,0-.06,0l-39.12,1.66c-.29.01-.52.25-.51.54,0,.01,0,.02,0,.03l7.14,90.9c.02.28-.18.52-.45.54,0,0,0,0,0,0l-39.55,3.48c-.28.03-.53-.17-.58-.45l-16.29-86.77c-.05-.28-.31-.48-.6-.47Z"/>
    <path class="cls-1" d="m138.53,105.78l-25.54,34.22c-.18.25-.54.3-.78.12-.05-.04-.1-.09-.14-.15l-24.24-37.15c-.17-.27-.53-.35-.8-.18-.07.04-.12.1-.17.17-6.87,10.25-13.77,20.46-20.7,30.65-4.44,6.51-7.44,17.03-17.71,13.82-11.29-3.52-23.25-6.85-35.87-10-1.37-.34-1.72-1.13-1.06-2.37L76.56,11.79c.12-.25.43-.35.67-.22.07.04.13.09.18.15l40.26,53.61c.3.39.85.47,1.25.17.04-.03.09-.07.12-.11l43.97-49.08c.41-.46.71-.4.9.19l42.5,135.36c.12.39-.1.79-.49.91-.02,0-.05.01-.07.02l-43.1,8.45c-.42.09-.84-.14-1-.54l-22.63-54.85c-.15-.37-.35-.39-.59-.07Z"/>
    <path class="cls-1" d="m398.35,113.78c-.45-.2-.65-.05-.59.44l5.02,38.78c.04.35-.21.67-.55.71,0,0,0,0,0,0l-46.49,4.97c-.26.03-.5-.16-.53-.42l-16.18-123.46c-.05-.41.11-.53.48-.35l76.97,37.36c.6.29.86.11.79-.56l-4.8-43.51c-.05-.5.31-.95.8-1,.02,0,.03,0,.05,0l43.82-2.35c.66-.03,1.24.44,1.33,1.1l15.81,121.01c.06.47-.12.61-.55.42l-75.37-33.14Zm-5.99-6.83c-.07-.53.14-.68.62-.47l74.75,33.1c.81.36,1.17.1,1.06-.78-4.29-35.07-8.8-70.01-13.55-104.81-.48-3.48-2.48-5.13-6.11-4.94-9.87.53-20.21,1.22-31.02,2.09-.45.03-.79.42-.76.88,0,.01,0,.03,0,.04l5.2,46.58c.08.75-.22.96-.89.63l-75.64-36.72c-.2-.09-.44,0-.53.19-.02.05-.04.11-.04.17.03,3.86-.1,7.58.4,11.41,4.08,31.25,8.1,62.5,12.06,93.77.23,1.81.64,3.28,1.25,4.42.46.87,1.38,1.37,2.33,1.26l36-4.21c.27-.03.46-.29.43-.58l-5.56-42.03Z"/>
    <path class="cls-1" d="m943.09,125.11c.23.33.64.49,1.04.4l41.7-8.99c.24-.05.48.11.53.35,0,.02,0,.03,0,.05l5.15,46.67c.05.44-.25.85-.7.93l-86.01,15.43c-.29.05-.57-.14-.63-.44,0,0,0-.02,0-.02l-16.63-123.06c-.08-.58.31-1.12.88-1.24l88.2-17.74c.28-.06.54.12.6.4,0,.03,0,.07,0,.1v44.15c0,.24-.17.44-.41.48l-35.9,6.24c-.36.07-.63.28-.7.54-.05.23-.01.42.12.58.16.2.51.28.9.21l25.29-4.7c.45-.08.87.21.96.66,0,.05.01.1.01.15l-.08,31.12c0,.3-.2.55-.49.62l-22.94,5.1c-.36.08-.65.25-.82.48-.39.54-.42,1.05-.09,1.53Zm-34.64,49.95c.58.38,1.29.52,1.98.39,20.88-3.88,41.85-7.63,62.91-11.24,5.33-.91,15.04.21,14.05-8.24-1.33-11.24-2.66-22.74-4.01-34.49-.05-.46-.46-.78-.92-.73-.03,0-.06,0-.09.01l-40.83,8.89c-.29.06-.58-.08-.7-.35-.9-1.99-1.43-4.1-1.6-6.34-.11-1.6.6-2.57,2.14-2.91l19.65-4.26c2.14-.46,3.21-1.76,3.21-3.91v-21.79c0-.34-.27-.61-.62-.61-.04,0-.08,0-.12.01-7.39,1.51-14.81,2.95-22.25,4.3-3.27.6-4.99-.38-5.17-2.95-.19-2.7-.03-4.85,3.11-5.39,8.43-1.46,16.87-2.91,25.3-4.36,5.35-.92,9.68-1.19,9.71-7.15.07-10.46.08-20.57.03-30.34,0-1.36-.68-1.91-2.01-1.64l-78.05,15.68c-1.85.37-2.65,1.49-2.4,3.36,4.99,37.05,9.94,74.11,14.87,111.17.16,1.25.76,2.21,1.81,2.89Z"/>
    <path class="cls-1" d="m336.13,109.54c.07,37.26-30.91,67.52-69.19,67.59-38.28.07-69.36-30.09-69.43-67.35h0c-.07-37.26,30.91-67.52,69.19-67.59,38.28-.07,69.36,30.09,69.43,67.35h0Zm-3.73.48c.18-35.05-29.01-63.61-65.21-63.8h0c-36.2-.19-65.69,28.07-65.87,63.12-.18,35.05,29.01,63.61,65.21,63.8,36.2.19,65.69-28.07,65.87-63.12Z"/>
    <path class="cls-1" d="m719.33,109.39c-5.08.95-10.87-7.27-12.95-18.36s.36-20.85,5.43-21.8c5.08-.95,10.87,7.27,12.95,18.36,2.08,11.09-.36,20.85-5.43,21.8Zm-9.44-23.68c.27,1.66,4.45,3.98,5.46,4.59.27.16.6.12.77-.11l4.72-6.46c.17-.24.17-.58-.02-.86l-5.81-8.7c-.18-.26-.48-.39-.78-.33l-2.9.59c-.3.06-.55.29-.65.6-1.13,3.52-1.39,7.08-.79,10.68Z"/>
    <path class="cls-1" d="m677.78,113.2c-3.02,8.41-10.05,3.58-12.8-1.47-4.06-7.47-5.75-15.49-5.07-24.05.41-5.12,3.56-13.63,10.53-8.87,5.66,3.86,8.69,15.26,9.43,21.58.52,4.38-.62,8.72-2.09,12.81Zm-10.5-15.57c1.21,1.19,2.48,1.27,3.81.23,1.16-.91,2-2.38,2.53-4.41,1.33-5.14-2.13-9.53-6.87-11.24-.42-.15-.88-.04-1.18.29-4.27,4.73-3.7,9.78,1.71,15.13Z"/>
    <path class="cls-1" d="m295.53,111.72c.14,15.61-12.77,28.37-28.83,28.51h0c-16.06.14-29.19-12.4-29.33-28.01-.14-15.61,12.77-28.37,28.83-28.51h0c16.06-.14,29.19,12.4,29.33,28.01Zm-3.97.38c.07-13.41-11.13-24.35-25.01-24.42h0c-13.88-.07-25.2,10.74-25.27,24.16h0c-.07,13.41,11.13,24.35,25.01,24.42h0c13.88.07,25.2-10.74,25.27-24.16,0,0,0,0,0,0Z"/>
    <path class="cls-1" d="m283.12,111.55c.22,8.81-7.07,16.14-16.27,16.36-9.2.22-16.83-6.74-17.04-15.55-.22-8.81,7.07-16.14,16.27-16.36,9.2-.22,16.83,6.74,17.04,15.55Zm-19.79,7.31c-.15,3.15,5.61,5.77,8.26,4.67,2.76-1.15,4.91-3.07,6.46-5.74.93-1.59.76-3.07-.49-4.42-5.16-5.55-13.84-2.19-14.23,5.49Z"/>
    <path class="cls-1" d="m702.62,116.71c-6.14,7.79-18.26,1.03-14.97-8.96.14-.41.58-.63.99-.49.09.03.17.07.24.13,4.53,3.67,8.66,1.32,12.31-2.05.21-.19.53-.19.74,0,3.55,3.23,3.62,7.67.69,11.37Z"/>
    <path class="cls-1" d="m703.53,152.02c-14.3,1.8-27.14-5.82-27.63-21.16-.01-.37.24-.69.6-.77l44.29-9.3c.28-.06.56.13.62.41,2.92,13.38-2.62,28.9-17.88,30.82Z"/>
    <path class="cls-1" d="m609.81,238.88c-5.22-6.4.45-13.55,7.18-15.22,3.59-.88,13.92,1.33,14.43,5.27.04.28-.17.55-.46.59-5.85.85-12.84-5.73-17.33-.05-7.47,9.47,12.9,10.83,17.22,14.66,3.31,2.95,3.84,6.65,1.58,11.12-3.9,7.71-19.06,6.45-24.17.84-3.27-3.6,3.22-2.22,4.55-1.8,6.01,1.9,15.19,5.87,16.48-3.05.42-2.89-1.71-4.65-4.32-5.66-4.98-1.91-11.57-2.3-15.16-6.7Z"/>
    <path class="cls-1" d="m236.07,258.54c-12.34,6.82-27.2-1.72-27.53-15.81-.21-8.71,4.89-16.12,13.26-18.49,5.65-1.59,15.69-.64,17.99,6.03.35,1.02.03,1.32-.96.9-1.85-.77-3.7-1.55-5.55-2.33-14.75-6.19-25.65,10.02-17.59,22.22,5.54,8.38,15.59,6.59,22.86,1.72.71-.48,1.02-.29.91.56-.27,2.1-1.43,4.12-3.39,5.2Z"/>
    <path class="cls-1" d="m341.76,250.8c-7.41.98-15.84-3.28-18.65,6.85-.09.33-.27.62-.5.81-4.14,3.51-2.83-2.13-2.18-3.64,3.74-8.64,7.58-17.23,11.53-25.76,1.03-2.21,1.48-3.77,3.57-5.28,1.54-1.11,2.77-.69,3.69,1.26,4.83,10.22,9.48,20.52,13.95,30.91.65,1.5,1.52,4.21-1.09,4.1-.3-.01-.6-.17-.8-.44-2.97-3.89-3.09-9.66-9.52-8.81Zm-13.42-4.29c-.08.18,0,.38.18.46.04.02.09.03.14.03l15.78-.03c.19,0,.35-.16.35-.35,0-.05-.01-.1-.03-.14l-7.92-18.13c-.08-.18-.29-.25-.46-.17-.08.04-.14.1-.18.18l-7.86,18.15Z"/>
    <path class="cls-1" d="m678.37,241.01c.65,10.27-7.32,19.13-17.79,19.79-10.47.66-19.49-7.13-20.13-17.4h0c-.65-10.27,7.32-19.13,17.79-19.79,10.47-.66,19.49,7.13,20.13,17.4Zm-17.48,15.98c7.85-.77,13.56-8.04,12.76-16.23-.8-8.2-7.82-14.21-15.67-13.45-7.85.77-13.56,8.04-12.76,16.23.8,8.2,7.82,14.21,15.67,13.45Z"/>
    <path class="cls-1" d="m740.49,259.98c-1.45-.46-2.48-1.38-3.11-2.76-4.19-9.31-8.19-18.61-12-27.9-.33-.8-.3-2.25.08-4.34.04-.21.24-.36.44-.32.03,0,.07.02.1.03,1.73.81,2.96,2.09,3.69,3.86,3.65,8.75,7.17,17.46,10.54,26.14.33.83.67.83,1.02.02,4.28-9.82,7.71-20.15,12.65-29.64.81-1.56,2-1.55,3.05-.24.44.56.36,1.59-.25,3.1-4.04,10.01-8.24,19.96-12.6,29.84-.86,1.95-2.06,2.69-3.61,2.21Z"/>
    <path class="cls-1" d="m897.59,240.79c-2.42-1.82-3.64-4-3.67-6.55-.15-12.61,20.03-13.79,24.19-4.4.14.3.04.41-.3.32-3.76-1-13.79-3.53-16.99-1.23-2.8,2-2.96,5.32-.53,7.81,5.63,5.77,18.99,2.24,19.18,13.66.23,14.51-17.51,9.08-24.75,6.28-.85-.33-1.48-1.07-1.66-1.97-.29-1.43.14-1.91,1.29-1.44,4,1.64,13.34,4.83,17.27,2.48,4.8-2.87,5.05-8.1-.85-10.15-3.85-1.35-7.4-2.52-10.65-3.51-.92-.29-1.76-.72-2.53-1.3Z"/>
    <path class="cls-1" d="m430.94,257.8c-6.95-4.82-5.42-23.36-5.09-31,.05-1.04.54-1.87,1.48-2.48,1.11-.72,1.84-.1,2.02,1.06,1.47,9.15-4.14,36.17,15.06,31.09,6.03-1.59,8.02-7.81,7.55-13.48-.28-3.34-.95-19.72,2.37-18.99.3.07.58.27.79.56,2.52,3.64.95,21.2.53,24.85-1.38,11.81-16.47,14.11-24.71,8.39Z"/>
    <path class="cls-1" d="m269.3,245.96c-.32.12-.49.47-.37.8.02.06.06.12.1.17,2.73,3.45,5.38,6.95,7.95,10.5.82,1.13.74,2.39-.91,2.5-1.4.09-2.63-.52-3.68-1.83-4.71-5.9-8.15-13.26-17.4-11.36-.77.16-1.36.78-1.49,1.56-.39,2.26-.56,4.55-.53,6.87.03,2.45-2.02,7.54-3.96,1.07-.43-1.43-.54-3.83-.33-7.18.45-7.29.32-14.46.03-21.75-.07-1.83.6-2.8,2.02-2.89,5.59-.38,11.16-.3,16.71.23,13.36,1.29,13.43,16.96,1.86,21.31Zm3.89-9.2c1.95-10.38-12-8.92-17.65-8.74-1.65.06-2.46,1.16-2.45,3.31l.08,11.15c0,.28.25.51.54.51,7.95.06,17.93,2.05,19.48-6.23Z"/>
    <path class="cls-1" d="m355.42,226.89c-.33-.61-.36-1.23-.09-1.88.12-.28.41-.46.74-.47,8.88-.41,17.78-.43,26.7-.08.34.01.64.17.78.42.3.53.36,1.12.19,1.76-.07.29-.32.52-.65.6-4.79,1.19-12.13-1.73-11.85,5.99.31,8.34.33,15.5.04,21.48-.07,1.43-1.05,7.94-3.4,2.88-.3-.65-.48-1.41-.54-2.27-.55-8.16-.59-15.44-.12-21.84.57-7.9-6.25-5.3-11.05-6.1-.33-.06-.61-.24-.75-.49Z"/>
    <path class="cls-1" d="m396.3,255.67c3.46,2.08,12.76,1.07,17.03,1.08,5.18.01,5.95,3.34.39,3.28-5.96-.07-12.22-.36-18.14.15-3.4.3-4.11-1.94-4.1-4.89.02-9.4.03-18.59.03-27.58,0-2.31,1.16-3.47,3.47-3.47l19.77.04c.9,0,1.78.31,2.5.87.48.38.49.92.03,1.63-.42.64-1.68.96-3.78.96l-15.46.04c-1.51,0-2.27.74-2.26,2.23l.04,8.28c0,1.24.61,1.87,1.84,1.88l16.53.21c.34,0,.64.17.76.42.22.45.25.85.1,1.21-.38.94-1.24,1.55-2.18,1.56l-13.89.13c-2.05.01-3.11,1.01-3.18,2.99l-.28,7.47c-.03.63.27,1.21.78,1.51Z"/>
    <path class="cls-1" d="m486.3,246.81c2.68,3.4,6.96,7.69,7.36,12.19.02.18-.12.34-.31.36-.05,0-.1,0-.14-.02-9.84-3.29-7.92-16.04-22.07-12.06-.3.09-.51.34-.53.64l-.84,11.08c-.03.37-.15.69-.34.88-.61.61-1.34.57-2.21-.13-.81-.65-1.21-1.82-1.21-3.51,0-9.09-.01-18.18-.01-27.27,0-3.3.9-4.62,4.26-4.66,8.85-.12,23.85-2.28,24.75,10.16.44,6.04-3.5,9.32-8.5,11.52-.27.11-.4.43-.28.7.02.04.04.08.07.12Zm1.68-17.14c-.78-.61-1.66-.98-2.65-1.12-4.03-.58-8.12-.75-12.27-.51-.33.02-.64.17-.84.41l-1.57,1.84c-.21.26-.33.57-.33.88l.03,11.21c0,.28.23.51.52.52,8.4.27,21.3,2.54,19.4-9.63-.21-1.38-.98-2.58-2.29-3.6Z"/>
    <path class="cls-1" d="m519.95,259.56c-.99-.68-1.5-1.62-1.52-2.82-.13-8.81-.17-17.62-.13-26.43,0-2.11.69-3.69,2.05-4.74,3.45-2.69,15.15-1.1,18.64-.05,16.34,4.94,15.12,28.69-1.14,33.65-4.56,1.39-10.51.68-15.66,1-.8.05-1.59-.16-2.24-.61Zm4.35-3.19c.68.45,1.49.67,2.31.63,2.55-.11,5.28-.46,8.18-1.07,17.05-3.58,14.66-27.66-3.52-28.07-1.78-.04-3.63-.08-5.54-.13-2.07-.05-3.14.96-3.19,3.03-.09,3.69-1.11,23.75,1.76,25.61Z"/>
    <path class="cls-1" d="m564.42,245.14c-1.19,2.77-1.32,5.87-.39,9.3.41,1.51,1.39,2.27,2.96,2.28l17.75.03c.33,0,.62.17.76.43,1.21,2.24-1.31,2.75-2.93,2.77-6.26.05-12.53.07-18.8.04-2.8-.02-4.16-.86-4.21-3.76-.17-9.41-.11-18.82.16-28.24.07-2.25.99-3.42,2.77-3.51,6.71-.34,13.41-.37,20.1-.09,2.79.12,6.89,3.06-.62,3.23-5.37.12-10.76.16-16.17.12-1.56,0-2.32.91-2.29,2.76l.16,9.88c0,.28.22.51.48.52,5.71.13,11.4.14,17.06.05,1.22-.02,2.28.65,1.53,1.89-.15.25-.44.42-.79.47-4.96.72-9.95.82-14.96.31-1.23-.13-2.08.38-2.57,1.52Z"/>
    <path class="cls-1" d="m770.18,245.03c-.93,3.32-1.12,6.23-.59,8.72.42,2.01,1.65,3,3.7,2.99,4.57-.02,9.07-.01,13.52.03,1.27.02,7.65.46,2.89,2.82-2.83,1.41-16.64.41-21.27.47-1.45.02-2.44-.64-2.99-1.99-.77-1.91-.19-5.31-.19-6.76.02-6.99.23-14.07-.23-21.04-.1-1.45.05-2.84.45-4.15.38-1.24,1.22-1.86,2.52-1.87,6.81-.03,13.63-.03,20.44.02,1.23.01,2.05.73,2.44,2.16.08.27-.08.55-.36.64-4.06,1.26-13.8,1.15-16.24.67-6.08-1.19-5,4.74-5.02,8.29-.02,3.36,1.1,4.6,4.51,4.21,2.88-.32,7.36-.17,13.45.45.36.04.67.18.86.4.65.7.72,1.49.22,2.37-.14.25-.44.39-.78.37-5.61-.38-11.18-.16-16.7.65-.3.04-.55.26-.63.55Z"/>
    <path class="cls-1" d="m805.44,232.43c-.43-.19-.94,0-1.14.45-.05.11-.07.23-.07.35.06,7.13.05,14.26-.04,21.39-.02,1.51-1.59,8.41-3.56,2.33-.23-.73-.35-1.55-.36-2.47-.03-6.45-1.61-24.88,1.65-29.65.17-.25.48-.35.76-.24,2.02.78,3.33,1.55,3.92,2.31,6.25,8.08,12.54,16.12,18.88,24.13.22.28.51.47.79.52.66.12.99-.15.99-.8-.02-8.49-.02-16.97,0-25.45,0-.36.16-.67.4-.81.63-.35,1.4-.18,2.3.51.86.65,1.29,1.52,1.29,2.6,0,9.91,0,19.68-.02,29.32,0,.61-.45,1.43-1.36,2.46-.21.23-.53.34-.84.27-1.63-.39-2.87-1.12-3.72-2.21-6.23-8.02-12.49-16.02-18.76-24-.42-.53-.79-.86-1.11-1.01Z"/>
    <path class="cls-1" d="m858.94,260.05c-1.24-1.14-1.87-2.58-1.88-4.32-.05-8.86-.06-17.74-.05-26.64.01-4.88,2.42-4.83,6.31-4.83,8.26,0,20.85-1.88,22.48,9.48.99,6.89-3.02,9.46-8.13,12.41-.27.15-.36.5-.2.77,0,.02.02.03.03.05l8,11.1c.2.28.26.61.17.89-.16.49-.47.85-.94,1.08-.26.13-.61.11-.92-.06-8.48-4.48-8.6-16.8-21.53-12.62-.29.09-.49.35-.52.66l-1.02,11.46c-.12,1.37-.72,1.56-1.8.57Zm19.85-30.47c-1.45-.97-2.91-1.45-4.39-1.46l-12.03-.02c-.29,0-.53.23-.53.51l-.05,13.83c0,.28.22.51.5.52,7.53.11,17.81,1.92,19.27-6.21.5-2.76-.45-5.61-2.77-7.17Z"/>
    <path class="cls-1" d="m291.32,240.68c5.27.07,10.54.09,15.8.07.77-.01,3.59-.27,3.24,1.09-.31,1.27-1.13,1.9-2.45,1.91l-13.94.04c-1.53,0-2.49.76-2.9,2.25-.67,2.44-.77,4.94-.3,7.51.43,2.35,1.83,3.43,4.21,3.26,5.53-.4,11.05-.29,16.54.33.34.04.63.19.82.43,1.45,1.89-1.37,2.35-2.65,2.37-6.99.08-13.62.09-19.91.03-2.15-.02-3.24-1.11-3.26-3.27-.07-8.99-.05-17.92.06-26.77.04-3.5,1.21-5.41,5.01-5.43,6.19-.04,12.36-.03,18.51.04,1.23.02,2.69.59,2.5,1.97-.04.28-.29.5-.61.55-5.66.81-11.32,1-16.97.58-6.19-.47-4.29,8.81-4.22,12.54,0,.28.24.5.52.5Z"/>
    <path class="cls-1" d="m698.65,260.55c-11.47-1.42-12.03-10.53-12.13-19.63-.03-3.29-.8-11.8.55-14.5,2.45-4.9,3.53,2.16,3.48,3.74-.36,10.4-1.99,24.89,9.35,26.69,15.89,2.52,13.06-18.11,12.72-26.86-.07-1.74.55-3.34,1.86-4.81.29-.32.78-.35,1.1-.06.08.07.14.16.19.26,2.29,5.05.91,13.07.97,18.6.11,11.35-5.7,18.1-18.09,16.57Z"/>
    <ellipse class="cls-1" cx="844.15" cy="242.14" rx="17.59" ry="2.37" transform="translate(599.07 1085.45) rotate(-89.8)"/>
  </g>
</svg>