<?xml version="1.0" encoding="UTF-8"?>
<svg id="Layer_2" data-name="Layer 2" xmlns="http://www.w3.org/2000/svg" viewBox="0 0 1137.7 245.36">
  <defs>
    <style>
      .cls-1 {
        fill: #fff;
      }
    </style>
  </defs>
  <g id="Layer_1-2" data-name="Layer 1">
    <path class="cls-1" d="m1109.49,10.86c-.25-.01-.38.1-.38.35.11,7.55.12,15.09.03,22.64,0,.87-.48,1.66-1.24,2.08-3.2,1.79-5.22-.34-5.22-3.61,0-10.19.01-20.27.02-30.23,0-.59.36-1.13.92-1.35,3.03-1.19,5.81-.95,8.34.73.25.17.45.44.57.76l6.63,18.23c.35.95.7.95,1.07,0,2.51-6.52,5.28-12.57,8.31-18.16.85-1.57,2.15-2.19,3.9-1.87,3.49.64,5.23,2.8,5.24,6.48,0,8.55.01,17.1.02,25.65,0,3.7-2.39,6.12-5.71,3.17-.25-.22-.39-.53-.39-.85l-.03-23.66c0-.22-.14-.41-.32-.43-.05,0-.1,0-.15.03-.74.37-5.32,12.65-6.01,14.36-2.16,5.35-6.15,6.31-8.71.52-2.11-4.8-4.23-9.59-6.34-14.37-.12-.27-.33-.45-.55-.47Z"/>
    <path class="cls-1" d="m56.04,242.06C18.82,231.2.09,207.01.03,168.15-.06,109.99.08,66.82.44,38.65.76,13.63,22.63-1.69,46.51.63c24.33,2.36,36.06,20.25,36.26,43.77.39,47.64.46,95.28.19,142.92-.13,21.81,5.28,39.88,19.55,56.74.45.53.32.79-.37.8-14.92.14-31.54,1.45-46.1-2.8Z"/>
    <path class="cls-1" d="m311.12,66.98c-15.01-6.5-38.06-5.33-50.23,6.77-9.31,9.26-11.99,23.78-11.94,36.65.16,46.17.08,78.51-.24,97-.05,2.81-.85,6.54-2.4,11.21-6.4,19.22-23.75,28.18-43.1,26.17-25.65-2.67-36.39-21.42-36.43-45.88-.08-48.73.05-83.07.39-103,.07-4.09.6-8.89,1.59-14.4C176.91,36.16,208.77,10.75,253.35,3.46c26.64-4.35,53.09-4.12,79.34.7,51.47,9.45,82.34,46.12,82.44,98.5.08,41.72.07,74.24-.03,97.56-.05,11.54-1.77,21.69-8.91,30.61-11.52,14.4-33.85,17.87-50.44,10.4-18.18-8.17-22.54-25.04-22.54-43.83.01-30.98,0-61.96-.06-92.93-.02-14.7-7.52-31.2-22.03-37.49Z"/>
    <path class="cls-1" d="m573.68,242.19c-55.79-8.74-88.46-44.84-88.61-102.04-.12-48.31,0-82.39.38-102.25.09-4.34,1.31-9.36,3.66-15.06,7.98-19.32,29.47-25.65,48.33-21.15,23.18,5.52,29.77,23.61,29.75,45.46-.03,28.37-.02,56.75.03,85.13.02,11.52.76,20.35,5.21,29.61,9.42,19.56,35.29,23.4,54.09,17.13,17.85-5.96,24.4-24.53,24.38-41.88-.04-29.55.06-59.1.3-88.66.07-9.34.65-15.95,1.73-19.84,4.21-15.25,16.45-25.39,32.05-27.64,30.05-4.34,48.49,13.71,48.67,43.15.21,33.15.32,66.29.33,99.44,0,10.67,6.46,24.22,15.38,30.6,14.5,10.38,40.42,10.38,54.28-1.21,10.76-9,13.87-24.59,13.86-38.08-.05-31.14-.06-62.28-.03-93.43,0-4.42.82-9.07,2.43-13.95,6.66-20.19,24.62-29.28,45.37-26.62,26.08,3.35,35.05,23.44,35.05,47.25,0,27.77-.07,55.54-.21,83.31-.05,10.77-.17,17.43-.35,19.99-4.3,59.81-50.01,90.18-106.33,92.8-34.28,1.58-67.51-.35-97.99-17.81-2.1-1.21-4.64-1.28-6.58-.14-34.06,19.87-77.22,21.85-115.18,15.89Z"/>
    <path class="cls-1" d="m1064.93,213.37c-11.55,47.63-80.95,40.08-81.3-9.48-.37-51.15-.34-102.32.09-153.49.16-18.71-7.72-34.72-19.71-49.11-.29-.34-.21-.52.24-.55,10.53-.63,21.03-.41,31.49.68,16.92,1.77,30.72,6.49,44.21,16.25,19.39,14.04,26.19,34.57,26.36,57.98.29,40.22.28,80.44-.01,120.67-.05,7.84-.51,13.52-1.37,17.05Z"/>
    <path class="cls-1" d="m1068.19,6.49c-.55-.01-1.04-.42-1.2-1-1.64-5.9,1.56-4.83,5.12-4.83,6.99,0,14.52-.01,22.57-.04.59,0,1.12.37,1.32.92.71,1.97.42,3.59-.85,4.84-.21.2-.51.31-.86.31l-7.78-.02c-1.24,0-1.86.66-1.87,1.97v26.47c-.01.34-.14.65-.37.85-1.17,1.02-2.69,1.23-4.57.62-.9-.29-1.51-1.12-1.51-2.07V8.95c-.01-1.52-.81-2.29-2.41-2.32l-7.59-.14Z"/>
  </g>
</svg>