<?xml version="1.0" encoding="UTF-8"?>
<svg id="Layer_2" data-name="Layer 2" xmlns="http://www.w3.org/2000/svg" viewBox="0 0 708.01 278">
  <defs>
    <style>
      .cls-1 {
        fill: #fff;
      }
    </style>
  </defs>
  <g id="Layer_2-2" data-name="Layer 2">
    <g id="PRINT">
      <g>
        <polygon class="cls-1" points="48 29.75 0 11.99 0 0 48 0 48 29.75"/>
        <polygon class="cls-1" points="144 65.2 96 47.45 96 0 144 0 144 65.2"/>
        <g>
          <polygon class="cls-1" points="241 0 241 100.66 193 82.91 193 0 241 0"/>
          <path class="cls-1" d="m193,91.52l48,17.57v108.9H64c-17.86,0-32.81-6.38-45.33-19.43C6.11,185.57,0,169.9,0,151.24V21.14l48,17.57v112.81c0,4.52,1.34,8.57,4.54,11.71,3.2,3.43,6.93,5.05,11.46,4.76h32V55.49l48,17.7v94.81h49v-76.48Z"/>
          <polygon class="cls-1" points="269 118.91 317 136.61 317 217 272.49 218 269 218 269 118.91"/>
          <path class="cls-1" d="m396.19,137.46c-.53,1.82-1.34,3.74-2.92,4.8-2.16,1.87-4.55,1.58-6.71.34-3.45-1.97-6.95-4.08-10.16-6.24-2.16-1.01-4.02-2.4-5.89-3.69-.53-.29-1.05-.58-1.34.48,6.18,4.32,12.31,8.59,18.73,12.86-1.05,4.32-4.26,6.19-8.05,4.61-1.05-.29-2.11-1.1-3.16-1.68-3.5-2.4-6.99-4.8-10.73-7.48-.53-.24-1.34-.82-2.16-1.3-.77,1.06,0,1.58.81,1.82,3.5,2.69,6.95,5.09,10.44,7.82,1.05.82,2.16,1.58,3.21,2.4-.81,1.58-1.87,2.97-3.21,3.98-1.34,1.1-2.92,1.1-4.26.29-2.68-1.87-5.65-3.69-8.29-5.57-.29-.29-.81-.82-.81-1.39-.29-3.21-2.16-5.09-5.37-5.66,1.34-2.4,1.34-4.56-.24-6.96-1.34-2.11-3.21-3.21-5.89-2.11-.53-2.4-.81-4.27-3.21-5.37-2.16-1.1-4.31-.82-6.42,1.1-.53-.82-.81-1.39-1.34-1.92-1.87-1.87-3.74-2.11-5.89-.48-1.87,1.01-3.21,2.4-4.79,3.69l-.29.29c-2.49-.82-5.08-1.73-7.62-2.59l-.34-.14-51.31-18.9V0h48v93.03c0,.53.05,1.06.14,1.54.29,1.2.96,1.92,2.3,2.73,3.74,1.82,7.47,3.98,11.21,6.09,1.63.82,2.68.82,4.31,0,5.32-3.17,10.68-6.09,16-9.36,3.78-2.16,7.52-1.82,11.26.29.29.29.53.29.81.82-1.87.48-3.5,1.3-5.08,1.58-4.02.82-6.99,2.97-9.39,6.19-1.58,2.64-3.74,5.04-5.89,7.72-2.11,3.21-1.29,5.9,2.16,7.29,4.84,1.87,10.68.48,14.18-3.55.53-.53.81-1.06,1.34-1.54l.24-.29c1.63-1.92,3.78-2.21,5.65-2.21.53,0,1.34.58,1.87,1.1.81,1.1,1.34,2.16,2.16,2.93.24.58.53.86.77,1.15,6.18,7.2,13.37,13.05,21.65,17.9.57.24,1.1.53,1.92.77,1.58.86,2.11,1.63,1.58,3.26l.02.02Z"/>
        </g>
      </g>
      <g>
        <path class="cls-1" d="m344.82,153.13c-.37-.11-1.06-.24-1.69-.52-2.53-1.1-3.24-3.35-1.72-5.68.67-1.03,1.51-1.96,2.34-2.88,1.55-1.73,3.13-3.43,4.71-5.13.37-.4.75-.79,1.17-1.12,1.52-1.21,2.96-1.47,4.02-.74,1.55,1.06,2.42,3.29,1.49,4.92-1.87,3.29-3.92,6.48-6.06,9.6-.87,1.28-2.41,1.6-4.27,1.54h.01Z"/>
        <path class="cls-1" d="m348.32,133.54c-.41.94-.59,1.72-1.02,2.31-2.05,2.81-4.11,5.61-6.28,8.32-1.34,1.68-2.53,1.62-4.08.05-2.23-2.25-2.38-3.41-.61-6.04,1.74-2.58,3.88-4.8,6.47-6.56,1.39-.95,2.79-.95,4.08,0,.61.45.97,1.25,1.44,1.9h0Z"/>
        <path class="cls-1" d="m354.48,156.47c-2.08-.34-3.25-1.36-3.9-2.63-.34-.66.03-2.03.56-2.71,1.22-1.56,2.62-3.04,4.17-4.27,1.33-1.06,2.44-.82,3.56.22,1.15,1.06,1.52,2.41.81,3.75-.72,1.36-1.47,2.76-2.49,3.88-.77.85-1.99,1.31-2.7,1.75h-.01Z"/>
        <path class="cls-1" d="m338.89,132.21c-.19,1.67-3.2,5.1-4.9,5.49-.4.09-.93,0-1.28-.2-2.68-1.54-2.97-3.21-.83-5.47.93-.98,2.05-1.9,3.26-2.48,1.78-.86,3.96.79,3.75,2.66h0Z"/>
        <path class="cls-1" d="m359.53,156.87c.56-1.42,1.09-2.75,1.75-4.42,2.11,1.41,4.05,2.71,5.98,4-1.65,2.71-4,2.85-7.74.41h0Z"/>
        <path class="cls-1" d="m456,.18v75.27l-48,17.62V.71c1.19-.62,31.28-.76,48-.53Z"/>
        <path class="cls-1" d="m456,83.67v133.33l-31.03,1h-17.97v-87.14c-.78,0-1.6,0-2.13.24-1.89.29-4.07.58-5.96,1.39-1.89.53-3.78,0-5.43-1.1-7.85-4.56-14.88-10.18-21.08-16.9-.15-.14-.24-.19-.29-.24-.05-.1-.15-.14-.24-.29-1.65-2.11-2.47-3.98-1.89-6.39,0-.29.05-.58.1-.82.05-.53.24-1.06.44-1.58.53-.86.53-1.92.53-3.26-1.07,1.58-1.89,3.5-3.25,4.8-1.36,1.63-3.54,1.87-5.43,2.16-.53-1.01-1.07-1.87-1.6-2.93-.78,1.97-1.74,3.5-2.76,5.18-.05.14-.15.29-.24.43-2.42,4.27-7.03,6.19-11.87,4.8-.34-.14-.68-.29-1.07-.43-.29-.1-.58-.19-.82-.29-1.11-.86-1.36-1.68-.58-2.98.58-1.1,1.36-1.92,2.18-2.69,1.89-2.69,3.78-5.09,5.67-7.49,1.11-1.39,2.42-2.4,4.07-2.98,4.07-1.1,8.09-2.11,12.17-3.22,3.54-1.06,6.79-.58,9.5,1.63,1.94,1.44,3.93,2.69,5.91,4.13.19.14.39.29.58.43,1.89,1.01,3.78,2.4,5.38,3.7.58.53,1.36.53,1.65.53.48.34.97.38,1.45.29h.05c.34-.1.63-.19.92-.29,1.02-.38,2.04-.77,3-1.15l.48-.19.1-.05,59.47-21.65v.02Z"/>
        <path class="cls-1" d="m683.41.81l-136.46,50.19h96.03c.29,0,.81.24,1.34.24s1.05.29,1.58.29c3.2.81,6.17,2.68,8.85,5.88,2.92,2.97,4.26,6.41,4.26,10.19v83.8c0,4.59-1.63,8.56-4.83,11.81-.29.33-.62.67-.96,1-.19.19-.33.33-.53.48-2.68,2.44-5.88,3.49-9.71,3.3h-112.98V56.4l-48,17.8v143.8h161.58c11.83,0,22.35-2.78,31.78-8.4,1.35-.82,2.64-1.68,3.94-2.64.87-.62,1.68-1.2,2.55-1.87,2.55-2.02,5-4.27,7.36-6.72,12.64-13.05,18.8-28.88,18.8-47.69V1l-24.59-.19h0Zm-24.16-.81l-16.31,1h-160.93v64.85L660.92,0h-1.68.01Z"/>
      </g>
      <g>
        <path class="cls-1" d="m474.59,274.18l8.71-34.57c.13-.49.39-.88.77-1.17s.8-.44,1.28-.44l13.12-.16c.51,0,.97.16,1.36.47.39.31.64.72.75,1.2l8.23,34.81c.17.66.03,1.27-.41,1.83s-.99.84-1.64.84h-9.14c-.5,0-.95-.16-1.34-.49s-.63-.74-.73-1.26l-.35-1.95c-.07-.21-.19-.31-.35-.31l-6.09-.05c-.23,0-.34.1-.34.3l-.34,2.02c-.07.49-.28.91-.65,1.23-.37.33-.82.49-1.33.49l-9.44-.1c-.72-.07-1.26-.37-1.64-.89-.41-.56-.55-1.16-.41-1.83l-.02.03Zm18.39-12.72l-1.19-6.38c-.07-.21-.19-.32-.36-.32-.21.07-.33.18-.36.32l-.93,6.43c0,.15.04.25.1.32.07.07.16.11.26.11l2.13-.05c.14,0,.24-.03.31-.11.03-.07.05-.17.05-.32h-.01Z"/>
        <path class="cls-1" d="m544.81,249.02l-7.52,2.43c-.59.18-1.13.13-1.63-.13s-.86-.66-1.06-1.19c-.42-1.09-1.12-1.64-2.13-1.64-.62,0-1.27.22-1.94.66-.68.44-1.28,1.1-1.81,1.98-.54.88-.97,1.97-1.3,3.27s-.46,2.8-.39,4.49c.03.99.15,1.94.36,2.87.21.94.49,1.76.84,2.48.35.72.77,1.32,1.28,1.79s1.09.75,1.75.82c1.08.11,1.93-.07,2.56-.53.62-.46,1.1-1.02,1.41-1.69.31-.66.49-1.35.55-2.06.05-.7.08-1.23.08-1.58,0-.1-.04-.19-.11-.26s-.15-.11-.26-.11l-.93.05c-.59.07-1.11-.08-1.55-.45s-.71-.85-.78-1.45l-.11-.79c-.07-.67.11-1.23.52-1.69.42-.49.95-.74,1.61-.74l10.63-.21c.59-.04,1.09.14,1.5.53.42.39.64.88.68,1.48.03.35.06.74.08,1.16s.03.88.03,1.37c0,1.06-.06,2.21-.18,3.48s-.36,2.54-.73,3.83-.86,2.53-1.5,3.75c-.64,1.21-1.47,2.3-2.49,3.27s-2.25,1.76-3.71,2.38-3.16.96-5.13,1.03c-3.53.18-6.44-.28-8.73-1.37-2.3-1.09-4.13-2.56-5.49-4.41-1.37-1.85-2.35-3.93-2.96-6.25-.6-2.32-.96-4.62-1.06-6.91-.14-3.59.29-6.77,1.29-9.55s2.35-5.12,4.05-7.02c1.7-1.9,3.65-3.34,5.84-4.33s4.39-1.48,6.6-1.48c1.38,0,2.74.2,4.07.61,1.33.4,2.57,1.01,3.73,1.82,1.16.81,2.2,1.83,3.14,3.06.93,1.23,1.69,2.69,2.28,4.38.21.56.17,1.14-.1,1.74-.28.53-.69.9-1.24,1.11h-.04Z"/>
        <path class="cls-1" d="m557.7,238.25c.4-.43.89-.64,1.48-.64l21.6-.43c.62,0,1.14.21,1.55.64.45.46.67.98.67,1.55v6.88c0,.59-.2,1.09-.59,1.5s-.89.64-1.47.67l-8.57.47c-.24,0-.36.12-.36.36v2.38c0,.2.17.37.37.37h3.14c.62,0,1.14.22,1.55.67.41.41.62.93.62,1.56l-.36,5.75c-.04.59-.25,1.07-.65,1.45s-.89.57-1.47.57h-3.6c-.24,0-.36.13-.36.37l-.1,2.84s.03.13.1.27c.14.07.24.11.31.11l9.17-.32c.62,0,1.14.21,1.55.64.45.43.67.96.67,1.61l-.21,8.29c0,.61-.22,1.12-.65,1.55-.43.43-.94.64-1.53.64l-21.44-.16c-.59,0-1.09-.22-1.5-.67-.42-.45-.62-.97-.62-1.58l.1-35.79c0-.61.2-1.12.6-1.55h0Z"/>
        <path class="cls-1" d="m593,274.42l.53-35.26c0-.68.27-1.25.83-1.71.39-.32.9-.46,1.4-.46h9.77c.46,0,.86.11,1.21.34s.61.55.79.98l5.74,13.67c.1.18.24.26.42.26.21-.07.32-.19.32-.37v-12.56c0-.45.19-1.13.47-1.48.45-.56,1.01-.84,1.68-.84h8.84c.6,0,1.11.23,1.53.68.42.39.63.91.63,1.58l-1.16,35.63c-.04.6-.26,1.09-.66,1.47-.4.39-.9.6-1.5.63l-9.47.11c-1.02.07-1.72-.39-2.1-1.37l-4.63-11.53c-.07-.21-.21-.28-.42-.21-.18,0-.26.11-.26.32l-.31,10.47c0,.6-.21,1.11-.63,1.53-.49.39-1.02.58-1.58.58l-9.32-.26c-.6-.04-1.1-.26-1.5-.68s-.61-.93-.61-1.53h-.01Z"/>
        <path class="cls-1" d="m665.39,248.75l-7.1,2.96c-.52.21-1.03.23-1.53.05s-.89-.51-1.17-1c-.83-1.48-1.85-2.22-3.06-2.22-.55,0-1.09.18-1.61.53-.52.35-.99.86-1.4,1.53-.42.67-.75,1.51-1.01,2.53s-.39,2.18-.39,3.48c0,.28,0,.58.03.9s.04.63.08.95c.1,1.09.32,2.05.65,2.87.33.83.73,1.53,1.19,2.08.47.56.98,1,1.53,1.29.55.3,1.1.45,1.66.45.59,0,1.13-.16,1.63-.5.5-.33.93-.85,1.27-1.56.24-.49.6-.85,1.09-1.08.48-.22.97-.25,1.45-.08l7.31,2.32c.59.14,1.02.51,1.3,1.11.28.53.31,1.11.11,1.74-.45,1.23-1.07,2.45-1.87,3.67-.8,1.21-1.75,2.31-2.88,3.3-1.12.99-2.4,1.8-3.84,2.45-1.44.65-3.03,1.01-4.8,1.08-3.01.18-5.61-.28-7.8-1.37s-4.03-2.56-5.49-4.41c-1.47-1.85-2.59-3.98-3.37-6.39-.78-2.41-1.22-4.86-1.32-7.36-.04-.28-.05-.55-.05-.79v-.79c0-2.57.34-5.07,1.01-7.49.67-2.43,1.7-4.59,3.08-6.49,1.38-1.9,3.13-3.43,5.24-4.59s4.58-1.78,7.41-1.85c1.42-.04,2.82.14,4.2.53s2.69.99,3.91,1.79c1.22.81,2.33,1.84,3.32,3.09s1.81,2.74,2.46,4.46c.21.56.19,1.11-.05,1.64s-.64.91-1.19,1.16h0Z"/>
        <path class="cls-1" d="m674.27,238c.45-.66,1.03-1,1.75-1l8.92-.05c.48,0,.91.14,1.29.42s.64.66.77,1.15l2.78,9.5c.07.17.19.26.36.26s.29-.09.36-.26l2.22-9.45c.14-.49.4-.9.8-1.23.4-.33.85-.48,1.37-.45l9.13.31c.75.07,1.34.4,1.75,1,.41.63.48,1.29.21,1.99l-9.02,23.67.77,10.81c.07.63-.1,1.17-.51,1.63-.45.45-.96.68-1.55.68l-10.52.16c-.62,0-1.13-.23-1.55-.68-.41-.42-.62-.96-.62-1.63l.41-10.6-9.33-24.25c-.28-.73-.21-1.4.21-1.99h0Z"/>
      </g>
    </g>
  </g>
</svg>