<?xml version="1.0" encoding="utf-8"?>
<!-- Generator: Adobe Illustrator 24.0.2, SVG Export Plug-In . SVG Version: 6.00 Build 0)  -->
<svg version="1.1" id="Layer_1" xmlns="http://www.w3.org/2000/svg" xmlns:xlink="http://www.w3.org/1999/xlink" x="0px" y="0px"
	 viewBox="0 0 1000 1000" style="enable-background:new 0 0 1000 1000;" xml:space="preserve">
<g>
	<path d="M817.77,261.45c-1.35,3.83-2.18,6.75-3.39,9.51c-6.53,14.86-13.37,29.59-19.54,44.6c-1.22,2.96-1.12,7.6,0.39,10.35
		c12.79,23.22,22.81,47.51,30.18,72.97c0.82,2.82,3.82,5.96,6.57,7.1c14.99,6.2,30.22,11.81,45.36,17.65
		c9.93,3.83,11.82,6.51,11.82,16.89c0.02,30.49-0.18,60.98,0.12,91.46c0.09,8.73-3.56,13.6-11.53,16.5
		c-15.01,5.45-29.81,11.49-44.8,17c-4.45,1.63-6.81,4.04-8.12,8.8c-6.87,25.06-16.92,48.82-29.42,71.62
		c-1.61,2.94-1.75,7.86-0.47,11c6.22,15.26,12.98,30.31,19.93,45.26c3.39,7.3,2.07,12.89-3.56,18.45
		c-22.04,21.78-43.96,43.7-65.73,65.75c-5.6,5.67-11.23,6.78-18.47,3.39c-14.47-6.76-29.24-12.88-43.69-19.69
		c-5.17-2.44-8.98-1.45-14.06,0.77c-23.17,10.15-46.74,19.38-70.01,29.31c-3.26,1.39-6.95,4.24-8.25,7.34
		c-6.28,14.96-11.99,30.16-17.53,45.41c-2.92,8.03-7.97,11.43-16.63,11.34c-30.47-0.31-60.95-0.3-91.43,0
		c-8.68,0.09-13.67-3.38-16.59-11.39c-5.65-15.48-11.54-30.89-17.84-46.11c-1.13-2.73-4.33-5.63-7.16-6.46
		c-25.19-7.35-49.4-16.97-72.11-30.14c-4.29-2.49-7.71-2.28-12-0.29c-14.73,6.8-29.71,13.07-44.42,19.91
		c-7.24,3.37-12.86,2.28-18.47-3.4c-21.77-22.06-43.66-43.99-65.74-65.74c-5.98-5.89-6.76-11.72-3.27-19.16
		c6.88-14.7,13.53-29.52,19.65-44.55c1.28-3.14,1.09-8.06-0.52-11.02c-12.57-23.05-22.51-47.1-29.89-72.29
		c-0.88-3.02-4.08-6.38-7.03-7.6c-15.22-6.31-30.66-12.08-46.11-17.82c-7.32-2.72-10.82-7.38-10.76-15.46
		c0.23-30.99,0.25-61.99-0.01-92.98c-0.07-8.43,3.57-13.13,11.2-15.93c15.23-5.59,30.44-11.28,45.4-17.55
		c3.12-1.31,6.44-4.92,7.4-8.14c7.42-24.91,16.95-48.89,29.94-71.41c2.47-4.27,2.49-7.67,0.49-11.99
		c-6.71-14.5-12.86-29.26-19.67-43.71c-3.64-7.73-2.74-13.69,3.48-19.79c21.93-21.53,43.65-43.29,65.2-65.19
		c5.84-5.94,11.61-6.97,19.11-3.45c14.46,6.79,29.23,12.9,43.71,19.64c4.55,2.11,8.11,2.29,12.66-0.36
		c22.46-13.09,46.49-22.51,71.39-29.9c3.03-0.9,6.47-3.97,7.68-6.88c6.33-15.21,12.14-30.65,17.83-46.12
		c2.83-7.7,7.72-11.08,16.07-11.01c30.73,0.27,61.46,0.27,92.19,0c8.34-0.07,13.26,3.27,16.09,10.97
		c5.7,15.47,11.5,30.91,17.83,46.12c1.21,2.91,4.67,5.97,7.71,6.87c25.16,7.45,49.34,17.15,72.07,30.28
		c4.05,2.34,7.26,2.19,11.28,0.35c14.98-6.86,30.16-13.3,45.12-20.22c6.95-3.22,12.45-2.23,17.84,3.21
		c22.16,22.38,44.55,44.54,66.69,66.94C814.48,255.02,815.97,258.61,817.77,261.45z M290.85,207.2c-1.23,0.98-2.69,1.94-3.9,3.15
		c-17.09,17.04-34.06,34.18-51.27,51.1c-2.89,2.84-3.03,5.12-1.45,8.56c6.55,14.29,12.7,28.77,19.35,43.01
		c3.09,6.62,2.73,12.31-1.11,18.62c-15.28,25.08-26.43,51.99-33.39,80.5c-1.85,7.57-5.89,11.75-12.95,14.32
		c-14.3,5.19-28.38,10.97-42.66,16.2c-4.1,1.5-5.93,3.31-5.88,8.08c0.29,23.62,0.24,47.25,0.03,70.87c-0.04,4.26,1.26,6.23,5.28,7.7
		c14.76,5.39,29.32,11.35,44.07,16.78c6.56,2.41,10.25,6.46,11.94,13.38c7.03,28.78,18.23,55.92,33.63,81.22
		c3.86,6.35,4.04,12.04,0.97,18.62c-6.53,14.02-12.46,28.32-19.06,42.31c-1.99,4.22-1.29,6.65,1.89,9.77
		c16.67,16.37,33.23,32.87,49.54,49.59c3.45,3.54,6.11,3.79,10.43,1.76c13.76-6.48,27.86-12.24,41.6-18.76
		c6.92-3.28,12.8-2.83,19.31,1.13c25.29,15.42,52.48,26.45,81.22,33.56c6.23,1.54,10.17,4.81,12.42,10.93
		c5.52,14.99,11.58,29.78,17.12,44.76c1.43,3.87,3.17,5.53,7.56,5.49c23.87-0.23,47.74-0.19,71.61-0.03
		c3.88,0.03,5.77-1.13,7.16-4.92c5.38-14.77,11.34-29.33,16.76-44.09c2.5-6.81,6.68-10.61,13.91-12.38
		c28.51-6.98,55.44-18.05,80.5-33.36c6.61-4.04,12.49-4.22,19.31-1.03c14.01,6.55,28.28,12.53,42.28,19.08
		c3.89,1.82,6.17,1.31,9.15-1.73c16.54-16.86,33.22-33.59,50.1-50.11c3.34-3.27,3.49-5.79,1.62-9.8
		c-6.62-14.26-12.69-28.77-19.3-43.04c-2.84-6.13-2.51-11.46,1-17.23c15.54-25.53,26.86-52.89,33.97-81.9
		c1.7-6.96,5.54-10.89,12.06-13.29c14.51-5.34,28.84-11.16,43.36-16.49c4.1-1.5,5.94-3.3,5.88-8.07
		c-0.29-23.62-0.24-47.25-0.03-70.87c0.04-4.25-1.25-6.24-5.27-7.71c-14.76-5.39-29.32-11.35-44.06-16.78
		c-6.55-2.41-10.26-6.46-11.95-13.38c-7.04-28.77-18.21-55.93-33.63-81.23c-3.86-6.34-4.06-12.03-0.99-18.62
		c6.65-14.25,12.77-28.73,19.36-43.01c1.64-3.55,1.2-5.76-1.61-8.53c-17.01-16.75-33.91-33.62-50.61-50.67
		c-3.07-3.13-5.4-3.28-9.18-1.52c-14.25,6.62-28.74,12.74-43.01,19.33c-6.35,2.93-11.85,2.61-17.92-1.08
		c-25.3-15.4-52.4-26.68-81.18-33.68c-7.27-1.77-11.33-5.72-13.81-12.5c-5.32-14.52-11.16-28.86-16.49-43.37
		c-1.41-3.85-3.12-5.57-7.53-5.52c-23.87,0.23-47.74,0.19-71.61,0.04c-3.86-0.02-5.78,1.09-7.17,4.9
		c-5.6,15.23-11.76,30.25-17.41,45.46c-2.15,5.8-5.83,9.19-11.78,10.64c-29.53,7.2-57.3,18.74-83.28,34.51
		c-5.51,3.34-10.7,3.52-16.56,0.81c-14.27-6.59-28.7-12.83-43.07-19.2C294.49,208.76,292.86,208.07,290.85,207.2z"/>
	<path d="M485.31,536.83c0,24.51,0.01,48.62,0,72.72c-0.01,14.1-3.59,17.76-17.39,17.79c-28.87,0.07-45.15-16.27-45.18-45.34
		c-0.01-15.95,0-31.9,0-47.91c-6.81-1.04-13.12-1.5-19.17-3.02c-31.75-7.98-51.22-36.68-47.79-70.02
		c3.08-29.93,29.62-54.11,61.17-55.42c10.14-0.42,20.37-0.88,30.44,0c24.41,2.14,46.89-4.38,68.16-15.1
		c25.56-12.88,50.6-26.81,75.71-40.58c8.23-4.51,16.45-6.52,25.48-3.36c11.47,4.02,18.26,13.62,18.48,26.97
		c0.26,16.25,0.21,32.5,0.01,48.75c-0.05,4.36,1.13,6.6,5.46,8.45c17.03,7.28,26.3,20.51,26.37,39.11
		c0.07,18.59-9.03,31.94-26.05,39.3c-4.58,1.98-5.88,4.33-5.79,9.02c0.27,14.21-0.05,28.44,0.14,42.66
		c0.15,11.85-3.72,21.5-14.46,27.35c-10.66,5.8-20.85,4.05-30.87-2.31c-29.81-18.9-60.13-36.84-94.3-47
		c-2.67-0.79-5.36-1.53-8.05-2.24C487.23,536.53,486.69,536.71,485.31,536.83z M568.51,542.85c0-50.05,0-100.34,0-150.92
		c-1.23,0.33-2,0.38-2.61,0.72c-24.67,13.58-49.81,26.05-76.98,34.03c-1.65,0.49-3.42,3.98-3.44,6.09
		c-0.24,24.1-0.08,48.2-0.23,72.3c-0.03,4.17,0.86,6.28,5.47,7.22c7.17,1.45,14.35,3.4,21.1,6.18
		C530.71,526.27,549.39,534.59,568.51,542.85z M460.54,508.74c0-26.57,0-52.3,0-77.97c-16.51,0-32.79-1.48-48.69,0.37
		c-20.11,2.35-33.14,20.37-32.06,40.6c1.05,19.76,16.58,35.85,36.7,36.85C430.87,509.32,445.32,508.74,460.54,508.74z
		 M610.34,566.36c0.2-2.92,0.57-5.9,0.57-8.88c0.03-59.39,0.03-118.78,0.02-178.16c0-2.03,0.41-4.25-0.27-6.03
		c-0.56-1.46-2.47-3.41-3.79-3.42c-6.22-0.05-13.49,7.84-13.49,14.13c-0.01,55.83-0.01,111.67,0,167.5
		C593.38,560.24,600.33,566.55,610.34,566.36z M447.22,533.53c0,18.72-0.25,36.7,0.11,54.67c0.16,8.01,5.76,12.92,13.15,13.08
		c0-22.48,0-44.96,0-67.74C456.08,533.53,452.11,533.53,447.22,533.53z M635.96,483.4c9.13-8.22,9.06-18.8,0-26.63
		C635.96,465.74,635.96,474.28,635.96,483.4z"/>
	<path d="M380.3,688.49c0.5,2.81,1.11,4.74,1.15,6.68c0.12,6.34-2.88,10.77-8.99,12.53c-6.24,1.79-11.82-0.51-13.77-6.38
		c-4.86-14.66-9.08-29.56-12.84-44.54c-1.59-6.34,3.69-12.78,10.66-13.25c14.43-0.98,28.9-1.47,43.36-1.62
		c7.14-0.07,12.18,5.51,12.19,12.07c0.01,6.6-4.78,11.41-12.13,12.12c-1.76,0.17-3.53,0.18-7.42,0.37c3.29,2.34,5.07,3.77,7.01,4.95
		c130.54,79.25,301.85-0.44,325.3-151.27c7.73-49.69-0.86-96.45-25.13-140.38c-2.91-5.26-4.81-10.95-0.39-15.47
		c2.76-2.81,8.16-5.09,11.79-4.43c3.7,0.68,7.8,4.63,9.83,8.22c22.94,40.56,33.65,84.34,30.66,130.78
		c-4.85,75.27-36.86,137.41-98.39,180.97c-84.98,60.17-174.52,62.86-265.71,12.81C385.32,691.45,383.21,690.17,380.3,688.49z"/>
	<path d="M642.14,283.11c-0.45-2.45-1.12-4.4-1.12-6.35c-0.01-6.34,3.08-10.69,9.22-12.36c5.92-1.61,11.46,0.49,13.3,5.99
		c4.98,14.88,9.4,30,13.08,45.25c1.72,7.11-4.64,12.87-13.19,13.28c-12.68,0.61-25.37,1.08-38.05,1.41
		c-8.87,0.23-14.63-4.42-14.96-11.67c-0.33-7.31,4.9-12.06,13.92-12.66c1.24-0.08,2.47-0.2,4.87-0.39c-1.95-1.68-3.05-2.9-4.39-3.75
		c-129.12-81.35-303.82-1.43-327.11,149.55c-7.71,49.97,0.69,96.97,25.15,141.14c2.92,5.27,4.77,11.08,0.19,15.42
		c-3,2.84-8.72,4.92-12.57,4.13c-3.63-0.74-7.32-5.16-9.39-8.86c-22.68-40.42-33.29-84.01-30.14-130.16
		c5.5-80.71,41.53-145.35,109.81-188.66c82.96-52.62,168.74-52.52,254.49-4.74c1.77,0.99,3.48,2.1,5.22,3.13
		C640.66,282.93,640.94,282.9,642.14,283.11z"/>
</g>
</svg>
