<?xml version="1.0" encoding="UTF-8"?>
<svg id="Calque_1" data-name="Calque 1" xmlns="http://www.w3.org/2000/svg" xmlns:xlink="http://www.w3.org/1999/xlink" viewBox="0 0 109.72 19.57">
  <defs>
    <style>
      .cls-1 {
        fill: #fff;
        fill-rule: evenodd;
        stroke-width: 0px;
      }

      .cls-2 {
        mask: url(#mask);
      }
    </style>
    <mask id="mask" x="0" y="0" width="28.57" height="19.57" maskUnits="userSpaceOnUse">
      <g id="gm8r49hmdb">
        <path id="sga9nm5xya" class="cls-1" d="M4.98,0c-.05,0-.11,0-.16,0C4.17,0,3.52.33,3.13.85,1.11,3.39,0,6.54,0,9.79c0,3.24,1.11,6.41,3.13,8.94.39.52,1.04.78,1.7.84h.13c.59,0,1.17-.26,1.7-.84l5.28-5.25c1.3-1.3,3.4-1.3,4.7,0l5.28,5.25c.52.52,1.17.78,1.83.71.65,0,1.3-.32,1.7-.84,2.02-2.46,3.13-5.63,3.13-8.87s-1.11-6.35-3.13-8.87c-.39-.52-1.04-.78-1.7-.84-.72,0-1.37.26-1.83.71l-5.28,5.24c-1.3,1.29-3.4,1.29-4.7,0L6.65.72c-.46-.45-1.02-.71-1.59-.72h-.08ZM18,7.33l5.28-5.25c.13-.06.2-.06.26-.06s.13.06.2.13c1.76,2.2,2.74,4.86,2.74,7.64s-.98,5.5-2.74,7.64c-.06.13-.13.13-.2.13s-.2,0-.26-.06l-5.28-5.25c-2.09-2.07-5.48-2.07-7.57,0l-5.28,5.25c-.13.06-.2.06-.26.06s-.13-.06-.2-.13c-1.76-2.2-2.74-4.86-2.74-7.64s.98-5.5,2.74-7.64c.06-.13.2-.13.26-.13,0,0,.13,0,.2.06l5.28,5.25c1.01,1,2.37,1.56,3.78,1.55,1.42,0,2.78-.56,3.78-1.55h0Z"/>
      </g>
    </mask>
  </defs>
  <g class="cls-2">
    <g>
      <path id="o03g07tz3d" class="cls-1" d="M4.98,0c-.05,0-.11,0-.16,0C4.17,0,3.52.33,3.13.85,1.11,3.39,0,6.54,0,9.79c0,3.24,1.11,6.41,3.13,8.94.39.52,1.04.78,1.7.84h.13c.59,0,1.17-.26,1.7-.84l5.28-5.25c1.3-1.3,3.4-1.3,4.7,0l5.28,5.25c.52.52,1.17.78,1.83.71.65,0,1.3-.32,1.7-.84,2.02-2.46,3.13-5.63,3.13-8.87s-1.11-6.35-3.13-8.87c-.39-.52-1.04-.78-1.7-.84-.72,0-1.37.26-1.83.71l-5.28,5.24c-1.3,1.29-3.4,1.29-4.7,0L6.65.72c-.46-.45-1.02-.71-1.59-.72h-.08ZM18,7.33l5.28-5.25c.13-.06.2-.06.26-.06s.13.06.2.13c1.76,2.2,2.74,4.86,2.74,7.64s-.98,5.5-2.74,7.64c-.06.13-.13.13-.2.13s-.2,0-.26-.06l-5.28-5.25c-2.09-2.07-5.48-2.07-7.57,0l-5.28,5.25c-.13.06-.2.06-.26.06s-.13-.06-.2-.13c-1.76-2.2-2.74-4.86-2.74-7.64s.98-5.5,2.74-7.64c.06-.13.2-.13.26-.13,0,0,.13,0,.2.06l5.28,5.25c1.01,1,2.37,1.56,3.78,1.55,1.42,0,2.78-.56,3.78-1.55h0Z"/>
      <path id="o03g07tz3d-2" data-name="o03g07tz3d" class="cls-1" d="M4.98,0c-.05,0-.11,0-.16,0C4.17,0,3.52.33,3.13.85,1.11,3.39,0,6.54,0,9.79c0,3.24,1.11,6.41,3.13,8.94.39.52,1.04.78,1.7.84h.13c.59,0,1.17-.26,1.7-.84l5.28-5.25c1.3-1.3,3.4-1.3,4.7,0l5.28,5.25c.52.52,1.17.78,1.83.71.65,0,1.3-.32,1.7-.84,2.02-2.46,3.13-5.63,3.13-8.87s-1.11-6.35-3.13-8.87c-.39-.52-1.04-.78-1.7-.84-.72,0-1.37.26-1.83.71l-5.28,5.24c-1.3,1.29-3.4,1.29-4.7,0L6.65.72c-.46-.45-1.02-.71-1.59-.72h-.08ZM18,7.33l5.28-5.25c.13-.06.2-.06.26-.06s.13.06.2.13c1.76,2.2,2.74,4.86,2.74,7.64s-.98,5.5-2.74,7.64c-.06.13-.13.13-.2.13s-.2,0-.26-.06l-5.28-5.25c-2.09-2.07-5.48-2.07-7.57,0l-5.28,5.25c-.13.06-.2.06-.26.06s-.13-.06-.2-.13c-1.76-2.2-2.74-4.86-2.74-7.64s.98-5.5,2.74-7.64c.06-.13.2-.13.26-.13,0,0,.13,0,.2.06l5.28,5.25c1.01,1,2.37,1.56,3.78,1.55,1.42,0,2.78-.56,3.78-1.55h0Z"/>
    </g>
  </g>
  <path class="cls-1" d="M74.56,8.11l-4.5-4.4h-1.63v1.55l4.5,4.47-4.5,4.4v1.68h1.5l4.63-4.53,4.63,4.53h1.5v-1.68l-4.5-4.4,4.5-4.47v-1.55h-1.63l-4.5,4.4ZM50.49,12.96c-.39.39-.91.65-1.5.65h-1.76c-.59,0-1.04-.19-1.5-.65-.39-.39-.65-.91-.65-1.49s.2-1.1.65-1.49c.39-.39.91-.58,1.5-.58h1.76c.59,0,1.04.19,1.5.58.39.39.65.91.65,1.49s-.2,1.1-.65,1.49M51.21,7.72c-.65-.39-1.44-.58-2.22-.58h-1.76c-.78,0-1.5.19-2.22.58-.65.39-1.24.91-1.57,1.55-.39.65-.59,1.42-.59,2.2s.2,1.49.59,2.2c.39.65.91,1.23,1.57,1.55.65.39,1.44.58,2.22.58h1.76c.78,0,1.5-.19,2.22-.58.65-.39,1.24-.91,1.57-1.55.39-.65.59-1.42.59-2.2s-.2-1.49-.59-2.2c-.33-.65-.85-1.17-1.57-1.55M107.18,9.01c-.2.32-.46.58-.78.78-.33.19-.72.26-1.04.26h-5.61v-4.08h5.61c.39,0,.72.06,1.04.26.33.19.59.39.78.71.2.32.33.65.33.97,0,.39-.13.78-.33,1.1M109.13,5.84c-.38-.64-.92-1.18-1.57-1.55-.65-.39-1.4-.59-2.15-.58h-7.89v12.11h2.28v-3.56h5.61c.78,0,1.5-.19,2.15-.58.64-.38,1.18-.91,1.57-1.55.39-.65.59-1.42.59-2.14,0-.75-.2-1.49-.59-2.14M92.7,9.01c-.2.32-.46.58-.78.78s-.65.26-1.04.26h-5.67v-4.08h5.61c.39,0,.72.06,1.04.26.33.19.59.39.78.71.2.32.33.65.33.97.07.39-.06.78-.26,1.1M94.59,10.11c.39-.65.59-1.42.59-2.14,0-.75-.2-1.49-.59-2.14-.38-.64-.92-1.17-1.57-1.55-.65-.39-1.4-.59-2.15-.58h-7.89v12.11h2.28v-3.56h4.04l3.65,3.56h2.28v-.91l-2.94-2.91c.26-.06.52-.19.78-.32.61-.4,1.12-.93,1.5-1.55M63.99,7.72c-.65-.39-1.44-.58-2.22-.58h-1.76c-.78,0-1.5.19-2.09.52v-.52h-2.28v8.68h2.28v-4.34c0-.58.2-1.04.59-1.49.39-.39.91-.58,1.5-.58h1.76c.59,0,1.11.19,1.5.58.39.39.59.91.59,1.49v4.34h2.28v-4.34c0-.78-.2-1.49-.59-2.2-.33-.65-.91-1.17-1.57-1.55"/>
</svg>