<?xml version="1.0" encoding="utf-8"?>
<!-- Generator: Adobe Illustrator 24.0.2, SVG Export Plug-In . SVG Version: 6.00 Build 0)  -->
<svg version="1.1" id="Layer_1" xmlns="http://www.w3.org/2000/svg" xmlns:xlink="http://www.w3.org/1999/xlink" x="0px" y="0px"
	 viewBox="0 0 1000 1000" style="enable-background:new 0 0 1000 1000;" xml:space="preserve">
<path d="M187.7,240.3c0.1-8.4,6.6-14.5,15-14.3c8,0.2,14.2,6.5,14.3,14.4c0,8.1-6.7,14.9-14.8,14.9
	C194.1,255.3,187.6,248.5,187.7,240.3z"/>
<path d="M277.3,240.9c-0.2,8.2-7,14.7-15.1,14.4c-7.8-0.3-14.2-7-14.2-14.7c0-8.1,6.7-14.6,15-14.6
	C271.3,226,277.5,232.5,277.3,240.9z"/>
<g>
	<path d="M837.9,766.5c-9.1-7.1-18.3-14.3-27.4-21.4c-9.3-7.3-18.7-14.6-28-21.9c-48.4-37.9-96.8-75.9-145.2-113.9
		c-4.4-3.4-9-4.9-14.1-2.1c-4.5,2.5-6.2,6.8-5.3,13.3c4.9,34.2,9.9,68.5,14.8,102.7c1.1,7.3,2.1,14.6,3.2,21.9
		c6.1,42.7,12.3,85.3,18.5,128c0.9,6.6,4.3,10.5,9.6,11.4c5.3,0.8,9.5-1.6,12.5-7.4c15.7-29.9,31.4-59.7,47-89.7
		c1.3-2.6,2.8-3.4,5.7-3.3c20.7,0.9,41.3,1.6,62,2.4c13.2,0.5,26.4,1,39.6,1.5c6.7,0.2,11.1-2.7,12.9-9.4
		C844.8,773.9,842.3,769.9,837.9,766.5z M797.2,764.1c-9-0.3-17.9-0.6-26.9-0.9c-16.3-0.6-32.6-1.1-48.9-2c-7-0.4-11.1,2.7-14.2,8.7
		c-11.1,21.5-22.4,42.8-33.6,64.2c-0.4,0.8-0.9,1.5-1.8,3.1c-4.4-30.8-8.9-61.4-13.3-92.1c-1.1-7.3-2.1-14.6-3.2-21.9
		c-3.8-26.6-7.7-53.3-11.6-80.2c34.4,26.9,68.4,53.6,102.3,80.2c9.3,7.3,18.6,14.6,28,21.9c7.8,6.1,15.6,12.2,23.4,18.3
		C797.4,763.6,797.3,763.8,797.2,764.1z"/>
</g>
<g>
	<path d="M463.5,513.9h-50.1l-8.5,20.7h-21l45.2-108.7h18.9l45.2,108.7h-21.1L463.5,513.9z M420.4,496.8h36l-17.3-41.9l-0.6-2.8
		h-0.1l-0.6,2.8L420.4,496.8z"/>
	<path d="M520,425.9h42.2c8.3,0,15.9,1.2,22.9,3.6c7,2.4,13.1,5.9,18.2,10.5c5.1,4.6,9.1,10.3,12,17c2.9,6.7,4.4,14.5,4.4,23.2
		c0,8.1-1.3,15.5-3.8,22.2c-2.5,6.7-6.2,12.4-11.1,17.2c-4.9,4.8-10.9,8.5-18,11.1s-15.2,4-24.4,4H520V425.9z M561.8,517.4
		c6.1,0,11.5-0.8,16.2-2.5c4.7-1.7,8.7-4.1,11.9-7.3c3.2-3.2,5.7-7,7.3-11.6c1.7-4.6,2.5-9.7,2.5-15.5c0-5.6-0.8-10.7-2.3-15.3
		c-1.5-4.6-3.9-8.5-7-11.8c-3.1-3.3-7.1-5.8-11.8-7.6c-4.7-1.8-10.3-2.7-16.7-2.7h-21.9v74.3H561.8z"/>
</g>
<path d="M878.6,578V363.4c0-45.5,0.1-91,0-136.5c0-19.6-10.5-33.8-29-40.1c-1.1-0.4-2.1-1-3.1-1.5c-227.8,0-455.6,0-683.5,0
	c-16.3,5.1-26.9,15.9-32.1,32.1v35.4c0,0,0,0,0,0c0,153.3,0,306.7,0,460c7.2,20.3,20.4,32.2,43.1,32.2c154-0.1,307.9-0.1,461.9-0.1
	h22.7c-1.1-7.3-2.1-14.6-3.2-21.9H388.9c-71.5,0-143.1,0-214.6,0c-14.5,0-21.4-7-21.5-21.5c0-1.7,0-3.4,0-5.1
	c0-101.6,0-203.2,0-304.7c0-0.8,0-1.5,0-2.3c0-3.9,0-7.8,0-11.7c0-27.1,0-54.2,0-81.3h703.8v281.7c-0.1,1.5,0,3,0,4.6v116.3
	c0,18-6.1,24.2-23.9,24.2h-86.7c9.3,7.3,18.6,14.6,28,21.9h61.3c18.3,0,31.8-7.9,38.5-21.4c3.2-2.4,4.7-7.3,4.7-14.9v-39
	c0-18.6,0-37.2,0-55.8v-32.8C878.6,580.1,878.6,579,878.6,578z M856.7,273.3H152.9c0-2,0-4,0-6v-6.7c0-0.7,0-1.5,0-2.2
	c-0.1-11.5-0.1-22.8,0.2-34c0.2-9.4,7.4-16.3,16.8-17.1c2.6-0.2,5.3-0.1,8-0.1h654.1c19,0,24.8,5.8,24.8,24.7V273.3z"/>
</svg>
