<?xml version="1.0" encoding="UTF-8"?>
<svg id="Calque_1" data-name="Calque 1" xmlns="http://www.w3.org/2000/svg" viewBox="0 0 71.85 27.3">
  <defs>
    <style>
      .cls-1 {
        fill: #fff;
        stroke-width: 0px;
      }
    </style>
  </defs>
  <path class="cls-1" d="M3.81,20.76c-.55.39-1.1.78-1.65,1.16-.44.31-.8.69-1.11,1.14-.88,1.29-.3,3.14.98,3.81.55.29,1.14.4,1.76.43.74.04,1.44-.09,2.1-.43.83-.44,1.44-1.12,1.88-1.94.21-.4.38-.83.56-1.25.09-.21.06-.21.22-.2.03,0,.06,0,.1,0,.15,0,.29,0,.44,0,2.51,0,5.02,0,7.54,0,2.59,0,5.19,0,7.78.01,2.57,0,5.13,0,7.7,0,3.01,0,6.02,0,9.04,0,2.14,0,4.27,0,6.41,0,2.59,0,5.18,0,7.76.01,2.68,0,5.35,0,8.03,0,2.35,0,4.7,0,7.05,0,.49,0,.98,0,1.47,0v-.03c-.1-.23-.19-.47-.29-.7-.11-.26-.04-.22-.32-.22-21.13,0-42.25,0-63.38,0-.03,0-.07,0-.1,0-.1-.01-.16.02-.18.13-.04.17-.1.33-.15.5-.2.66-.48,1.28-.91,1.83-.84,1.09-1.96,1.45-3.28,1.2-.46-.09-.89-.28-1.22-.65-.56-.64-.69-1.6-.31-2.36.25-.5.64-.89,1.03-1.27.31-.3.62-.61.92-.92.09-.09.15-.2.23-.3l-.03-.02s-.05.03-.07.04"/>
  <path class="cls-1" d="M35.44,0c-.04.07-.08.13-.11.2-.18.51-.37,1.02-.54,1.53-.08.25-.1.51-.03.77.04.14.11.28.16.39-.17.09-.35.15-.5.26-.27.21-.28.54-.03.78.17.17.37.23.6.25.11,0,.21.01.34.02-.06.42-.09.82-.19,1.2-.19.78-.62,1.45-1.12,2.08-.72.9-1.61,1.53-2.75,1.78-2.11.48-4.25.66-6.41.6-1.3-.04-2.6-.14-3.9-.32-1.65-.22-3.3-.48-4.93-.84-1.11-.25-2.23-.49-3.33-.77-1.16-.29-2.32-.61-3.52-.75-.95-.11-1.89-.16-2.85-.06-1.15.12-2.11.61-2.92,1.4-.34.34-.65.7-.82,1.16-.24.65-.37,1.32-.23,2.01.05.25.1.5.15.75.01,0,.03,0,.04,0,.02-.08.05-.16.07-.24.22-.78.51-1.53.96-2.22.36-.56.83-1,1.44-1.28.65-.3,1.34-.41,2.04-.44,1.17-.06,2.34,0,3.49.2,1.4.23,2.8.51,4.19.78.94.18,1.88.39,2.83.54.72.12,1.45.19,2.18.27.8.08,1.61.15,2.42.22.71.06,1.43.1,2.15.14.85.05,1.71.05,2.56-.03.7-.06,1.4-.15,2.1-.24.81-.1,1.61-.27,2.38-.52,1.03-.33,1.97-.83,2.71-1.64.87-.95,1.42-2.04,1.47-3.34,0-.15.03-.3.04-.4.25-.06.47-.09.68-.16.23-.08.39-.25.4-.5,0-.24-.14-.4-.35-.51-.07-.04-.14-.06-.21-.09-.05-.02-.11-.04-.15-.06,0-.03,0-.04,0-.05.26-.4.24-.81.08-1.25-.2-.53-.38-1.07-.57-1.61h-.06Z"/>
  <path class="cls-1" d="M4.47,6.47c-.85.13-1.64.44-2.34.94C.42,8.63-.21,10.32.06,12.37c.1.79.43,1.51.89,2.15.6.85,1.24,1.68,1.88,2.5.33.43.7.82,1.01,1.26.45.63.68,1.34.64,2.13-.03.58-.2,1.1-.62,1.51-.24.24-.49.48-.73.72-.25.24-.48.48-.62.81-.33.76-.03,1.61.68,1.89.57.22,1.14.2,1.68-.11.66-.38,1.15-.92,1.47-1.61.28-.59.39-1.23.49-1.87.08-.49.08-.98-.02-1.47-.16-.8-.52-1.51-1.04-2.13-.6-.73-1.25-1.43-1.88-2.14-.53-.6-1.09-1.17-1.52-1.85-.5-.78-.87-1.61-.97-2.55-.12-1.16.22-2.19.92-3.11.65-.85,1.52-1.38,2.5-1.74.29-.11.59-.19.88-.28,0-.01,0-.02,0-.03-.17-.01-.34-.02-.51-.02-.24,0-.48.01-.72.05"/>
  <path class="cls-1" d="M38.45,3.47c-.26.2-.33.54-.16.82.05.08.11.15.17.22.04.05.06.09.02.16-.12.21-.23.43-.36.64-.24.36-.51.69-.89.91-.3.17-.58.15-.84-.08-.13-.12-.23-.27-.34-.41-.06-.07-.1-.15-.16-.24-.03.08-.06.12-.08.17-.18.43-.35.86-.55,1.29-.32.68-.72,1.32-1.33,1.79-.62.48-1.22.98-1.98,1.24,0,0-.01.01-.03.04h8.58c.32,0,.34-.03.44-.34.17-.54.34-1.09.54-1.62.24-.67.53-1.33.97-1.89.32-.41.69-.78,1.04-1.17.11-.12.23-.23.34-.35.03-.04.05-.11.04-.16,0-.02-.09-.05-.13-.04-.15.02-.3.04-.45.08-.68.21-1.26.59-1.77,1.07-.09.08-.17.12-.29.07-.12-.05-.25-.08-.37-.11-.27-.06-.55-.09-.82-.01-.12.04-.23.09-.27.24.08.06.15.12.23.18.3.22.48.52.55.87.04.17.02.33-.11.48-.21-.04-.39-.14-.54-.28-.45-.38-.71-.87-.86-1.43-.06-.23-.08-.47-.1-.71-.01-.12.04-.22.13-.3.09-.08.18-.17.26-.27.2-.26.17-.61-.06-.85-.11-.11-.25-.16-.4-.16-.14,0-.27.05-.39.14"/>
  <path class="cls-1" d="M53.33,11.63v9.85h.91v-8.53s.03,0,.05-.01c.08.12.17.25.25.37,1.74,2.63,3.47,5.26,5.21,7.89.2.3.2.3.57.3h.71c.01-.44.03-.85.03-1.26,0-2.52-.01-5.03-.02-7.55,0-.3,0-.6-.02-.9,0-.05-.05-.13-.07-.13-.27,0-.54,0-.83,0v6.67c0,.32,0,.64,0,.96,0,.31.01.62-.03.93-.1-.1-.17-.2-.24-.3-.31-.46-.61-.92-.92-1.39-1.14-1.72-2.27-3.43-3.41-5.15-.35-.53-.69-1.05-1.05-1.57-.05-.07-.14-.16-.22-.16-.14,0-.27-.01-.41-.01-.16,0-.33,0-.5,0"/>
  <path class="cls-1" d="M34.75,11.64h-1.12c-.06,0-.12,0-.18.01v9.83h.9v-4.25c0-.2,0-.21.2-.21,1.06,0,2.11,0,3.16,0,.37,0,.72.09,1.04.29.34.22.46.56.5.94.08.73.15,1.47.24,2.2.03.26.07.53.13.79.06.24.1.26.34.26.25,0,.5,0,.79,0-.18-.26-.29-.51-.31-.78-.04-.47-.08-.93-.1-1.4-.02-.54-.04-1.07-.2-1.59-.14-.46-.39-.82-.85-1.01-.05-.02-.1-.06-.17-.1.13-.07.24-.13.35-.2.53-.3.92-.72,1.08-1.32.13-.51.15-1.03.05-1.55-.16-.8-.62-1.33-1.37-1.63-.5-.2-1.03-.29-1.56-.29-.74,0-1.48,0-2.22,0-.23,0-.46,0-.69,0M35.31,12.42c.73,0,1.47,0,2.2,0,.45,0,.89.08,1.3.26.55.23.84.66.89,1.24.02.26.02.52-.02.78-.11.7-.56,1.1-1.2,1.33-.41.15-.83.2-1.27.2-.86,0-1.73,0-2.59,0-.09,0-.17-.01-.26-.02v-3.78c.09,0,.17-.01.24-.01.08,0,.16,0,.23,0,.16,0,.31,0,.47,0"/>
  <path class="cls-1" d="M46.2,11.41c-1.34.14-2.39.78-3.1,1.93-.61.98-.87,2.06-.85,3.21,0,1.25.25,2.25.8,3.16.52.87,1.24,1.52,2.23,1.83.73.23,1.48.29,2.24.2.72-.09,1.39-.3,1.99-.72.76-.54,1.25-1.28,1.58-2.14.24-.63.32-1.28.37-1.94.09-1.19-.11-2.31-.68-3.37-.49-.91-1.21-1.58-2.21-1.92-.56-.19-1.13-.28-1.71-.28-.22,0-.44.01-.66.04M45.22,20.65c-.72-.33-1.19-.89-1.53-1.59-.37-.78-.53-1.53-.53-2.46,0-1.02.22-1.98.74-2.87.55-.92,1.36-1.42,2.42-1.54.67-.08,1.32-.01,1.96.22.85.31,1.46.89,1.79,1.72.63,1.61.65,3.23-.03,4.84-.33.77-.85,1.37-1.63,1.72-.45.2-.93.28-1.43.29-.05,0-.1,0-.16,0-.56,0-1.09-.1-1.61-.33"/>
  <path class="cls-1" d="M60.84,7.32c-.88.17-1.76.4-2.63.62-1.53.38-3.06.77-4.62,1.03-1.09.18-2.17.37-3.27.52-.95.13-1.91.22-2.87.29-.69.06-1.38.07-2.07.09-1.02.03-2.03.01-3.04-.11-.24-.03-.49-.05-.74-.07v.03c.07.03.14.07.22.1,1.02.36,2.06.56,3.14.6.99.04,1.98-.03,2.96-.1,1.02-.08,2.04-.15,3.05-.25.83-.08,1.65-.17,2.47-.32,1.37-.24,2.72-.55,4.09-.81.93-.18,1.87-.34,2.81-.47.62-.09,1.24-.12,1.87-.18.8-.07,1.61-.08,2.41.05.94.15,1.75.57,2.4,1.28.59.65.95,1.43,1.26,2.24.04.12.06.24.08.36.01.06.02.11.03.17.07-.26.11-.53.15-.79.11-.73.01-1.43-.33-2.09-.33-.65-.85-1.14-1.42-1.57-.8-.61-1.74-.82-2.72-.88-.22-.01-.44-.02-.65-.02-.87,0-1.73.09-2.59.26"/>
  <path class="cls-1" d="M67.16,11.63c-.21.01-.42,0-.64,0-.25,0-.26,0-.35.23-.66,1.67-1.34,3.33-1.99,5.01-.57,1.46-1.12,2.93-1.67,4.39-.03.07-.04.14-.07.24.25,0,.47,0,.69,0,.25,0,.2,0,.27-.19.36-.96.72-1.92,1.09-2.88h4.53c.02.06.04.11.06.16.34.92.68,1.83,1.01,2.75.05.13.1.19.25.18.22-.01.44,0,.67,0,.03,0,.06,0,.1-.01-.03-.08-.05-.14-.07-.2-.75-1.96-1.51-3.92-2.26-5.88-.47-1.22-.94-2.43-1.4-3.65-.04-.11-.09-.15-.2-.15,0,0-.02,0-.02,0M66.72,12.49s.04,0,.05,0c.64,1.7,1.27,3.4,1.91,5.12h-3.88c.64-1.71,1.28-3.41,1.91-5.11"/>
  <path class="cls-1" d="M11.61,11.8c-1.18,3-2.36,6.01-3.54,9.01-.09.23-.18.46-.28.71.28,0,.54,0,.8,0,.12,0,.17-.03.21-.14.22-.62.46-1.23.69-1.85.14-.37.28-.74.42-1.1h4.53c.17.45.33.91.5,1.36.2.53.39,1.06.59,1.59.02.06.02.14.13.14.28,0,.56,0,.88,0-.04-.1-.06-.15-.08-.21-.5-1.31-1.01-2.62-1.51-3.93-.72-1.86-1.43-3.73-2.14-5.59-.04-.11-.09-.15-.21-.15-.25,0-.5.01-.75,0,0,0-.01,0-.02,0-.12,0-.17.05-.21.16M12.15,12.5s.03,0,.05,0c.23.55.43,1.12.64,1.68.21.57.43,1.14.64,1.71.21.57.42,1.14.64,1.72h-3.87c.64-1.71,1.27-3.4,1.91-5.1"/>
  <path class="cls-1" d="M28.16,11.64c-.25.01-.5.01-.75,0-.13,0-.18.04-.22.15-1.25,3.18-2.5,6.36-3.75,9.54-.02.05-.03.1-.05.16.29,0,.55,0,.81,0,.1,0,.15-.03.19-.13.18-.49.37-.99.56-1.48.18-.49.37-.97.55-1.46h4.53c.06.16.11.31.17.46.31.83.61,1.66.92,2.49.04.1.08.16.2.14.06,0,.12,0,.18,0h.62c-.03-.09-.05-.15-.07-.2-.71-1.86-1.43-3.73-2.14-5.59-.5-1.31-1.01-2.62-1.51-3.94-.04-.11-.09-.15-.2-.15,0,0-.01,0-.02,0M27.72,12.49s.04,0,.05,0c.64,1.7,1.27,3.4,1.91,5.12h-3.88c.64-1.71,1.28-3.41,1.91-5.11"/>
  <path class="cls-1" d="M22.88,11.79c-.84,2.49-1.68,4.98-2.52,7.48-.12.36-.24.72-.37,1.07h-.04s-.04-.09-.06-.14c-.92-2.71-1.84-5.42-2.77-8.13-.05-.14-.07-.32-.17-.39-.07-.05-.18-.04-.29-.03-.05,0-.09,0-.13,0-.16,0-.32,0-.5,0,.05.15.08.27.12.38.8,2.31,1.6,4.61,2.4,6.92.28.8.56,1.6.83,2.4.04.12.1.18.23.16.08,0,.16,0,.24,0,.05,0,.1,0,.15,0,.04,0,.08,0,.13,0,.11,0,.22.02.29-.03.1-.07.14-.25.18-.39,1.02-2.94,2.04-5.88,3.05-8.83.07-.2.13-.41.2-.64-.27,0-.52,0-.76,0,0,0-.01,0-.02,0-.11,0-.15.05-.19.15"/>
  <path class="cls-1" d="M31.54,3.71c-.13.31-.04.64.26.82.16.1.23.22.21.4-.01.1-.02.19-.03.29-.1.84-.48,1.51-1.18,1.99-.09.06-.19.08-.29.13-.1-.18-.14-.34-.1-.52.08-.34.24-.63.52-.84.1-.07.19-.16.31-.25-.22-.15-.43-.22-.67-.23-.32-.01-.61.08-.91.17-.1.03-.15.01-.22-.06-.57-.55-1.23-.96-2.01-1.16-.13-.03-.25-.04-.39.04.04.05.08.1.12.14.27.29.52.6.8.88.55.56.96,1.22,1.25,1.94.21.51.41,1.03.62,1.54.04.1.08.15.2.13.17-.03.35-.04.52-.07,1.66-.3,2.91-1.18,3.75-2.65.02-.03.03-.07.05-.13-.34.09-.62-.02-.87-.22-.49-.38-.79-.89-1.02-1.45-.02-.04.01-.11.04-.15.05-.09.13-.17.17-.27.14-.32-.02-.67-.35-.82-.08-.04-.16-.05-.24-.05-.22,0-.43.14-.53.38"/>
</svg>