<?xml version="1.0" encoding="utf-8"?>
<!-- Generator: Adobe Illustrator 24.0.2, SVG Export Plug-In . SVG Version: 6.00 Build 0)  -->
<svg version="1.1" id="Layer_1" xmlns="http://www.w3.org/2000/svg" xmlns:xlink="http://www.w3.org/1999/xlink" x="0px" y="0px"
	 viewBox="0 0 1000 1000" style="enable-background:new 0 0 1000 1000;" xml:space="preserve">
<g>
	<path d="M539.54,382.93c0,3.63,0,6.23,0,8.83c-0.03,26.68,0.11,53.37-0.25,80.04c-0.07,4.9-1.4,10.16-3.55,14.56
		c-3.64,7.48-10.22,11.38-18.77,11.41c-4.27,0.02-8.55,0-12.82-0.03c-16.02-0.11-25.29-9.13-25.9-25.19
		c-0.42-10.98-0.53-21.99-1.37-32.94c-1.36-17.71-4.41-35.1-10.66-51.87c-1.7-4.57-4.06-6.31-8.98-6c-13.53,0.84-26.4-1.4-37.6-9.76
		c-13.02-9.71-20.63-22.64-20.97-38.89c-0.49-23.21-0.47-46.44-0.01-69.65c0.52-26.22,23-48,49.6-48.41
		c20.36-0.31,40.73,0.18,61.09-0.15c46.32-0.75,92.27-5.11,137.43-15.85c23.64-5.62,46.59-13.18,67.84-25.32
		c3.67-2.1,5.49-4.41,5.87-8.91c1.67-19.56,18.56-34.85,38.19-35.14c20.29-0.3,38.04,14.08,39.72,33.94
		c1.3,15.37,0.5,30.92,0.61,46.39c0.03,4.64,0.01,9.27,0.01,14.17c21.26,2.99,38.32,12.42,51.13,28.97
		c9.49,12.26,14.56,26.32,15.22,41.79c0.83,19.56-5.17,36.95-17.86,51.87c-12.53,14.73-28.76,22.92-48.39,25.79
		c0,2.58,0,4.77,0,6.96c0,15.68,0.11,31.37-0.03,47.05c-0.17,19.09-11.76,34.51-29.1,39.05c-24.07,6.31-47.35-9.76-49.6-34.51
		c-0.34-3.75-1.76-5.81-4.85-7.6c-19-11.02-39.56-18.03-60.59-23.87c-30.45-8.45-61.63-12.35-93.01-15.06
		C554.88,383.98,547.79,383.54,539.54,382.93z M507.52,365.23c15.63,0.82,30.7,1.12,45.66,2.53c20.84,1.96,41.67,4.27,62.37,7.35
		c13.19,1.96,26.1,5.75,39.2,8.42c21.09,4.29,41.02,11.72,60.2,21.36c1.39,0.7,2.89,1.17,4.87,1.96c0-72.55,0-144.49,0-216.93
		c-67.23,32.89-139.32,38.54-212.3,41.52C507.52,276.02,507.52,320.33,507.52,365.23z M736.22,297.85c-0.03,0-0.05,0-0.08,0
		c0,28.93-0.01,57.85,0,86.78c0.01,14.46-0.1,28.93,0.13,43.39c0.2,12.79,10.43,22.71,23.12,22.86
		c13.53,0.16,23.54-10.32,23.55-24.91c0.03-70.07,0.01-140.15,0.01-210.22c0-15.69,0.19-31.37-0.07-47.06
		c-0.18-11.31-8.04-20.29-18.89-22.44c-10.75-2.12-21.55,3.37-25.8,13.82c-1.48,3.63-1.88,7.91-1.89,11.9
		C736.17,213.92,736.22,255.89,736.22,297.85z M414.84,308.7c8.05,0,15.54-0.01,23.03,0c7.53,0.01,15.06-0.12,22.59,0.11
		c4.43,0.14,7.43,3.18,7.76,7.13c0.3,3.63-1.98,7.04-5.9,8.26c-1.7,0.53-3.59,0.57-5.4,0.58c-11.81,0.05-23.62,0.01-35.43,0.03
		c-2.16,0-4.33,0.18-6.38,0.27c-2.66,20.8,10.73,38.75,30.51,40.03c14.59,0.95,29.29,0.16,43.94,0.11c0.32,0,0.63-0.47,1.1-0.84
		c0-44.18,0-88.48,0-133.42c-13.45,0-26.43-0.07-39.41,0.05c-3.23,0.03-6.54,0.29-9.66,1.05c-21.38,5.18-29.92,26.6-26.02,40.05
		c1.99,0,4.19,0,6.39,0c12.42,0,24.84-0.08,37.26,0.02c5.88,0.05,9.37,3.46,9.02,8.36c-0.33,4.59-3.73,7.5-9.36,7.56
		c-9.98,0.11-19.95,0.01-29.93,0.01c-4.61,0-9.23,0-14.13,0C414.84,295.19,414.84,301.43,414.84,308.7z M799.34,355.36
		c21.53-0.78,51.43-23.29,49.88-59.4c-1.22-28.36-26.65-56-49.88-54.29C799.34,279.4,799.34,317.17,799.34,355.36z M481.68,381.89
		c1.89,6.53,3.61,11.93,5.01,17.41c5.71,22.42,7.42,45.31,7.66,68.35c0.03,2.63,0.18,5.3,0.7,7.86c0.82,4.05,3.17,6.4,7.7,6.16
		c4.06-0.21,8.14-0.02,12.21-0.1c5.07-0.1,7.46-2.1,8.26-7.01c0.29-1.79,0.2-3.65,0.21-5.48c0.01-26.66,0.01-53.31,0.01-79.97
		c0-2.16,0-4.32,0-7.23c-8.13,0-15.42,0-22.71,0C494.65,381.89,488.58,381.89,481.68,381.89z"/>
	<path d="M298.41,501.2c-2.36-0.18-4.82,0.01-7.06-0.6c-6.04-1.65-11.08,0.12-16.14,3.37c-3.31,2.12-5.84,4.52-7.23,8.2
		c-1.05,2.76-2.42,5.39-3.54,8.13c-4.19,10.2-11.87,15.47-22.78,15.85c-5.9,0.2-11.84,0.22-17.72-0.26
		c-8.95-0.75-15.44-5.45-19.39-13.55c-1.12-2.3-2.34-4.61-3.05-7.04c-2.05-7.06-7.11-11.2-13.46-13.91
		c-2.21-0.94-4.9-1.17-7.34-1.08c-4.32,0.15-8.62,1.02-12.95,1.17c-8.43,0.29-15.63-2.73-20.45-9.72
		c-3.9-5.65-7.36-11.68-10.36-17.86c-3.92-8.09-2.91-16.1,2.1-23.56c1.32-1.96,2.5-4.1,4.15-5.74c5.75-5.72,6.44-12.86,5.73-20.25
		c-0.2-2.12-1.66-4.26-2.94-6.11c-4.23-6.15-8.87-12-10.6-19.55c-1.12-4.89-0.63-9.28,1.89-13.63c3.05-5.26,5.55-10.86,8.79-16
		c5.43-8.61,13.44-12.42,23.64-11.39c1.76,0.18,3.56,0.23,5.28,0.63c12.51,2.93,23.48-3.96,27.11-15.82
		c0.91-2.97,2.38-5.86,4.04-8.5c3.74-5.99,9.12-10.05,16.27-10.48c7.84-0.47,15.78-0.78,23.58-0.04
		c8.21,0.78,13.99,5.91,17.57,13.32c1.29,2.66,2.55,5.35,3.51,8.14c1.77,5.12,5.08,8.5,9.82,11.19c4.03,2.29,7.93,3.2,12.38,2.64
		c3.32-0.42,6.65-0.81,9.99-1.09c9.22-0.76,16.76,2.56,21.9,10.2c3.72,5.53,7.02,11.41,9.94,17.41c3.95,8.12,2.82,16.12-2.12,23.56
		c-2.07,3.12-4.27,6.16-6.63,9.06c-2.37,2.91-3.02,6.12-3.34,9.8c-0.59,6.95,1.7,12.39,6.19,17.62
		c9.91,11.53,10.65,20.16,3.55,33.56c-2.03,3.82-4.33,7.51-6.67,11.15C316.54,498.62,308.6,502.33,298.41,501.2z M234.68,520.68
		c8.8,1.81,14.9-1.98,17.58-11.32c0.32-1.12,1.01-2.14,1.39-3.25c2.22-6.42,6.4-11.07,12.12-14.75c8.82-5.68,18.01-8.81,28.55-6.19
		c1.14,0.28,2.36,0.2,3.52,0.41c5.85,1.1,9.94-1.2,12.66-6.35c0.73-1.39,1.59-2.73,2.5-4.01c5.46-7.66,6.5-15.05-1.15-22.04
		c-0.85-0.78-1.35-1.93-2.05-2.88c-9.09-12.47-8.92-29.31,0.08-41.87c9.29-12.96,11.51-10.14,1.1-27.93
		c-3.43-5.86-7.68-8.44-14.59-6.87c-11.55,2.62-22.48,0.91-31.74-6.84c-3.67-3.07-6.85-6.93-9.53-10.92
		c-2.27-3.39-3.53-7.46-5.15-11.27c-1.63-3.84-4.4-5.93-8.62-6.04c-2.17-0.05-4.35-0.03-6.5-0.29c-9.9-1.17-16.59,2-19.52,12.39
		c-1.63,5.8-4.65,11.31-9.97,15.01c-9.13,6.35-18.64,11.15-30.31,8.37c-2.1-0.5-4.3-0.53-6.45-0.8c-3.84-0.48-7.04,0.53-9.17,3.97
		c-2.37,3.83-4.37,7.95-7.13,11.47c-3.52,4.49-2.35,8.36,0.46,12.37c1.25,1.78,2.81,3.36,3.83,5.25c2.96,5.46,7.49,10.04,7.98,16.86
		c0.84,11.67-0.74,22.42-9.15,31.31c-1.21,1.28-2.15,2.82-3.17,4.27c-2.13,3-2.43,6.17-0.76,9.48c1.07,2.11,2.12,4.23,3.28,6.29
		c6.81,12.04,7.37,12.05,21.13,10.52c5.16-0.57,10.94-0.81,15.66,0.92c10.96,4.02,20.45,10.36,24.03,22.62
		c0.49,1.69,1.49,3.23,2.06,4.9c1.68,5,5.32,7.1,10.36,7.22C229.99,520.72,231.96,520.68,234.68,520.68z"/>
	<path d="M651.93,695.16c5.25-8.03,12.07-14.8,20.71-19.7c23.93-13.58,53.67-8.61,72.21,12.2c18.05,20.26,19.65,50.9,3.48,72.67
		c-4.22,5.69-9,11.06-14.07,16.01c-22.56,22.01-45.33,43.8-68.02,65.69c-2.76,2.67-5.46,5.4-8.21,8.08
		c-3.74,3.66-8.72,3.78-12.45,0.21c-25.99-24.83-52.09-49.55-77.84-74.62c-6.07-5.91-11.86-12.49-16.2-19.71
		c-22.1-36.76,1.32-83.44,43.98-87.65c20.59-2.03,37.84,5.32,51.15,21.38c1.42,1.72,2.75,3.51,4.14,5.25
		C650.91,695.08,651.2,695.04,651.93,695.16z M651.13,833.84c13.16-12.54,26.15-24.81,39.01-37.22
		c12.87-12.42,25.77-24.82,38.36-37.52c8.98-9.06,14.86-19.65,14.7-33.04c-0.27-22.9-16.93-40.32-40.6-42
		c-20.44-1.46-39.88,14.97-42.95,36.23c-0.29,1.99-0.65,4.06-1.5,5.85c-1.54,3.24-4.39,4.81-7.96,4.38c-3.29-0.4-5.6-2.3-6.47-5.62
		c-0.36-1.37-0.58-2.79-0.79-4.19c-2.58-17.64-15.04-31.6-31.72-35.51c-17.34-4.06-34.79,2.75-44.84,17.49
		c-9.63,14.13-9.64,33.13,0.63,47.53c4.22,5.91,9.3,11.31,14.52,16.39C604.51,789.03,627.7,811.24,651.13,833.84z"/>
	<path d="M333.57,776.54c0-12.4-0.09-22.93,0.06-33.46c0.04-2.95,0.26-6.11,1.36-8.78c2.38-5.77,7.61-6.12,13.07-6.11
		c49.75,0.08,99.5,0.06,149.25,0.06c3.28,0,6.56-0.08,9.84-0.02c8.57,0.16,13.35,4.24,13.18,11.16
		c-0.16,6.59-4.77,10.41-12.99,10.42c-31.98,0.02-63.96-0.05-95.95-0.07c-18.29-0.01-36.58,0-55.73,0
		c-0.2,4.26-0.51,7.98-0.53,11.71c-0.07,9.57,0.03,19.13-0.01,28.7c-0.03,7.57-3.25,13.37-10.48,16c-7.14,2.6-13.31,0.43-18.51-5.13
		c-14.2-15.16-28.58-30.15-42.71-45.37c-3.48-3.75-7.08-5.92-12.4-6.76c-38.53-6.1-65.35-37.37-65.58-76.34
		c-0.21-35.26-0.04-70.52-0.02-105.79c0-1.91-0.12-3.87,0.26-5.72c1.05-5.16,5.33-8.42,10.65-8.39c5.23,0.03,9.4,3.42,10.29,8.73
		c0.4,2.4,0.26,4.91,0.26,7.36c0.03,33.89-0.04,67.79,0.07,101.68c0.11,32.68,22,55.9,54.6,57.73c5.28,0.29,8.56,2.96,11.79,6.38
		c11.63,12.32,23.25,24.64,34.9,36.95C329.5,772.79,330.86,773.97,333.57,776.54z"/>
	<path d="M423.91,523.83c34.45,0,68.9-0.01,103.35,0.02c1.9,0,3.9-0.03,5.69,0.51c4.97,1.52,7.85,4.97,7.81,10.26
		c-0.04,5.17-2.45,9.05-7.69,10.25c-2.88,0.66-5.96,0.6-8.95,0.61c-66.72,0.03-133.43,0.03-200.15,0.03c-1.64,0-3.28,0.05-4.92-0.03
		c-8.22-0.38-12.8-4.23-12.84-10.76c-0.03-6.39,4.9-10.74,12.73-10.88c8.2-0.14,16.4-0.01,24.59-0.01
		C370.32,523.83,397.11,523.83,423.91,523.83z"/>
	<path d="M423.36,646.14c33.05,0,66.09,0,99.14,0c2.46,0,4.93-0.11,7.37,0.08c6.81,0.52,10.96,4.7,10.9,10.81
		c-0.05,6.19-4.11,10.47-11.05,10.67c-10.64,0.3-21.3,0.11-31.95,0.11c-58.17,0-116.34,0-174.51-0.02c-2.73,0-5.51,0.16-8.17-0.32
		c-5.3-0.94-8.81-5.21-8.91-10.26c-0.11-5.29,3.73-9.9,9.26-10.79c2.14-0.35,4.36-0.22,6.54-0.23c33.79-0.01,67.58-0.01,101.37-0.01
		C423.36,646.17,423.36,646.15,423.36,646.14z"/>
	<path d="M422.97,608.21c-33.56,0-67.12,0-100.68-0.01c-2.45,0-4.96,0.16-7.35-0.28c-5.35-1-9.07-6.02-8.71-11.28
		c0.35-5.08,4.07-9.1,9.33-9.8c2.15-0.29,4.36-0.2,6.54-0.2c67.45,0,134.89,0,202.34,0.01c2.18,0,4.38-0.1,6.55,0.14
		c5.84,0.63,9.64,4.62,9.83,10.1c0.2,5.76-3.77,10.44-9.72,11.2c-2.15,0.27-4.36,0.13-6.55,0.13
		C490.69,608.22,456.83,608.22,422.97,608.21z"/>
	<path d="M641.71,580.41c0,19.94,0.01,39.88,0,59.82c0,2.18,0.14,4.41-0.22,6.54c-0.91,5.38-5.83,9.34-10.97,9.11
		c-5.01-0.23-9.28-3.95-10.06-9.12c-0.36-2.41-0.21-4.91-0.21-7.36c-0.01-36.87,0.09-73.74-0.04-110.62
		c-0.1-31.56-11.84-48.43-41.14-59.74c-6.87-2.65-9.71-7.8-7.75-14.02c1.83-5.79,7.75-8.42,14.66-6.51c0.26,0.07,0.51,0.2,0.77,0.28
		c31.81,9.48,54.31,38.64,54.9,71.79C641.99,540.52,641.7,560.47,641.71,580.41z"/>
	<path d="M397.8,467.1c-12.27,0-24.54,0.06-36.81-0.02c-7.16-0.05-12.26-4.23-12.56-10.02c-0.34-6.46,4.51-11.31,12.09-11.34
		c25.36-0.12,50.72-0.1,76.08,0.05c7.49,0.05,11.72,4.28,11.61,10.79c-0.1,6.33-4.55,10.5-11.96,10.6
		c-12.81,0.16-25.63,0.05-38.45,0.05C397.8,467.17,397.8,467.14,397.8,467.1z"/>
	<path d="M286.34,429.7c0.16,28.44-23.26,52.04-51.73,52.12c-29.48,0.08-52.88-22.99-52.9-52.17c-0.02-29.3,23.06-52.3,52.66-52.46
		C262.97,377.02,286.18,400.46,286.34,429.7z M234.58,392.87c-20.46-0.26-37.13,15.95-37.26,36.26
		c-0.14,20.31,16.25,37.03,36.49,37.23c19.84,0.19,36.73-16.33,36.96-36.15C271.01,409.68,254.97,393.13,234.58,392.87z"/>
</g>
</svg>
