<?xml version="1.0" encoding="utf-8"?>
<!-- Generator: Adobe Illustrator 24.0.2, SVG Export Plug-In . SVG Version: 6.00 Build 0)  -->
<svg version="1.1" id="Layer_1" xmlns="http://www.w3.org/2000/svg" xmlns:xlink="http://www.w3.org/1999/xlink" x="0px" y="0px"
	 viewBox="0 0 1000 1000" style="enable-background:new 0 0 1000 1000;" xml:space="preserve">
<style type="text/css">
	.st0{stroke:#000000;stroke-miterlimit:10;}
	.st1{fill:none;stroke:#000000;stroke-miterlimit:10;}
</style>
<g>
	<path class="st0" d="M542.4,372.7c0,4,0,6.9,0,9.8c0,29.7,0.1,59.4-0.3,89.1c-0.1,5.5-1.6,11.3-3.9,16.2
		c-4.1,8.3-11.4,12.7-20.9,12.7c-4.8,0-9.5,0-14.3,0c-17.8-0.1-28.1-10.2-28.8-28c-0.5-12.2-0.6-24.5-1.5-36.7
		c-1.5-19.7-4.9-39.1-11.9-57.7c-1.9-5.1-4.5-7-10-6.7c-15.1,0.9-29.4-1.6-41.8-10.9c-14.5-10.8-23-25.2-23.3-43.3
		c-0.5-25.8-0.5-51.7,0-77.5c0.6-29.2,25.6-53.4,55.2-53.9c22.7-0.3,45.3,0.2,68-0.2c51.5-0.8,102.7-5.7,152.9-17.6
		c26.3-6.3,51.8-14.7,75.5-28.2c4.1-2.3,6.1-4.9,6.5-9.9c1.9-21.8,20.7-38.8,42.5-39.1c22.6-0.3,42.3,15.7,44.2,37.8
		c1.4,17.1,0.6,34.4,0.7,51.6c0,5.2,0,10.3,0,15.8c23.7,3.3,42.6,13.8,56.9,32.2c10.6,13.6,16.2,29.3,16.9,46.5
		c0.9,21.8-5.8,41.1-19.9,57.7c-13.9,16.4-32,25.5-53.8,28.7c0,2.9,0,5.3,0,7.7c0,17.4,0.1,34.9,0,52.4
		c-0.2,21.2-13.1,38.4-32.4,43.4c-26.8,7-52.7-10.9-55.2-38.4c-0.4-4.2-2-6.5-5.4-8.5c-21.1-12.3-44-20.1-67.4-26.6
		c-33.9-9.4-68.6-13.7-103.5-16.8C559.5,373.9,551.6,373.4,542.4,372.7z M506.8,353c17.4,0.9,34.2,1.2,50.8,2.8
		c23.2,2.2,46.4,4.8,69.4,8.2c14.7,2.2,29,6.4,43.6,9.4c23.5,4.8,45.6,13,67,23.8c1.5,0.8,3.2,1.3,5.4,2.2c0-80.7,0-160.8,0-241.4
		c-74.8,36.6-155,42.9-236.2,46.2C506.8,253.8,506.8,303.1,506.8,353z M761.3,278.1C761.2,278.1,761.2,278.1,761.3,278.1
		c-0.1,32.2-0.1,64.4-0.1,96.6c0,16.1-0.1,32.2,0.1,48.3c0.2,14.2,11.6,25.3,25.7,25.4c15.1,0.2,26.2-11.5,26.2-27.7
		c0-78,0-155.9,0-233.9c0-17.5,0.2-34.9-0.1-52.4c-0.2-12.6-8.9-22.6-21-25c-12-2.4-24,3.7-28.7,15.4c-1.6,4-2.1,8.8-2.1,13.2
		C761.2,184.7,761.3,231.4,761.3,278.1z M403.7,290.1c9,0,17.3,0,25.6,0c8.4,0,16.8-0.1,25.1,0.1c4.9,0.2,8.3,3.5,8.6,7.9
		c0.3,4-2.2,7.8-6.6,9.2c-1.9,0.6-4,0.6-6,0.6c-13.1,0.1-26.3,0-39.4,0c-2.4,0-4.8,0.2-7.1,0.3c-3,23.1,11.9,43.1,33.9,44.5
		c16.2,1.1,32.6,0.2,48.9,0.1c0.4,0,0.7-0.5,1.2-0.9c0-49.2,0-98.4,0-148.4c-15,0-29.4-0.1-43.8,0.1c-3.6,0-7.3,0.3-10.7,1.2
		c-23.8,5.8-33.3,29.6-29,44.6c2.2,0,4.7,0,7.1,0c13.8,0,27.6-0.1,41.5,0c6.5,0.1,10.4,3.8,10,9.3c-0.4,5.1-4.2,8.3-10.4,8.4
		c-11.1,0.1-22.2,0-33.3,0c-5.1,0-10.3,0-15.7,0C403.7,275.1,403.7,282.1,403.7,290.1z M831.5,342.1c24-0.9,57.2-25.9,55.5-66.1
		c-1.4-31.6-29.7-62.3-55.5-60.4C831.5,257.5,831.5,299.6,831.5,342.1z M478.1,371.6c2.1,7.3,4,13.3,5.6,19.4
		c6.4,24.9,8.3,50.4,8.5,76c0,2.9,0.2,5.9,0.8,8.7c0.9,4.5,3.5,7.1,8.6,6.9c4.5-0.2,9.1,0,13.6-0.1c5.6-0.1,8.3-2.3,9.2-7.8
		c0.3-2,0.2-4.1,0.2-6.1c0-29.7,0-59.3,0-89c0-2.4,0-4.8,0-8c-9,0-17.2,0-25.3,0C492.5,371.6,485.7,371.6,478.1,371.6z"/>
	<path class="st0" d="M274.1,504.3c-2.6-0.2-5.4,0-7.9-0.7c-6.7-1.8-12.3,0.1-18,3.7c-3.7,2.4-6.5,5-8,9.1c-1.2,3.1-2.7,6-3.9,9
		c-4.7,11.3-13.2,17.2-25.3,17.6c-6.6,0.2-13.2,0.2-19.7-0.3c-10-0.8-17.2-6.1-21.6-15.1c-1.2-2.6-2.6-5.1-3.4-7.8
		c-2.3-7.9-7.9-12.5-15-15.5c-2.5-1-5.5-1.3-8.2-1.2c-4.8,0.2-9.6,1.1-14.4,1.3c-9.4,0.3-17.4-3-22.8-10.8
		c-4.3-6.3-8.2-13-11.5-19.9c-4.4-9-3.2-17.9,2.3-26.2c1.5-2.2,2.8-4.6,4.6-6.4c6.4-6.4,7.2-14.3,6.4-22.5c-0.2-2.4-1.8-4.7-3.3-6.8
		c-4.7-6.8-9.9-13.4-11.8-21.8c-1.2-5.4-0.7-10.3,2.1-15.2c3.4-5.9,6.2-12.1,9.8-17.8c6-9.6,15-13.8,26.3-12.7c2,0.2,4,0.3,5.9,0.7
		c13.9,3.3,26.1-4.4,30.2-17.6c1-3.3,2.6-6.5,4.5-9.5c4.2-6.7,10.1-11.2,18.1-11.7c8.7-0.5,17.6-0.9,26.2,0
		c9.1,0.9,15.6,6.6,19.5,14.8c1.4,3,2.8,6,3.9,9.1c2,5.7,5.7,9.5,10.9,12.5c4.5,2.5,8.8,3.6,13.8,2.9c3.7-0.5,7.4-0.9,11.1-1.2
		c10.3-0.8,18.6,2.8,24.4,11.3c4.1,6.2,7.8,12.7,11.1,19.4c4.4,9,3.1,17.9-2.4,26.2c-2.3,3.5-4.8,6.9-7.4,10.1
		c-2.6,3.2-3.4,6.8-3.7,10.9c-0.7,7.7,1.9,13.8,6.9,19.6c11,12.8,11.8,22.4,3.9,37.3c-2.3,4.3-4.8,8.4-7.4,12.4
		C294.3,501.5,285.5,505.6,274.1,504.3z M203.2,526c9.8,2,16.6-2.2,19.6-12.6c0.4-1.2,1.1-2.4,1.5-3.6c2.5-7.1,7.1-12.3,13.5-16.4
		c9.8-6.3,20-9.8,31.8-6.9c1.3,0.3,2.6,0.2,3.9,0.5c6.5,1.2,11.1-1.3,14.1-7.1c0.8-1.5,1.8-3,2.8-4.5c6.1-8.5,7.2-16.7-1.3-24.5
		c-0.9-0.9-1.5-2.1-2.3-3.2c-10.1-13.9-9.9-32.6,0.1-46.6c10.3-14.4,12.8-11.3,1.2-31.1c-3.8-6.5-8.5-9.4-16.2-7.6
		c-12.9,2.9-25,1-35.3-7.6c-4.1-3.4-7.6-7.7-10.6-12.2c-2.5-3.8-3.9-8.3-5.7-12.5c-1.8-4.3-4.9-6.6-9.6-6.7c-2.4-0.1-4.8,0-7.2-0.3
		c-11-1.3-18.5,2.2-21.7,13.8c-1.8,6.5-5.2,12.6-11.1,16.7c-10.2,7.1-20.7,12.4-33.7,9.3c-2.3-0.6-4.8-0.6-7.2-0.9
		c-4.3-0.5-7.8,0.6-10.2,4.4c-2.6,4.3-4.9,8.8-7.9,12.8c-3.9,5-2.6,9.3,0.5,13.8c1.4,2,3.1,3.7,4.3,5.8c3.3,6.1,8.3,11.2,8.9,18.8
		c0.9,13-0.8,24.9-10.2,34.8c-1.3,1.4-2.4,3.1-3.5,4.8c-2.4,3.3-2.7,6.9-0.8,10.5c1.2,2.3,2.4,4.7,3.6,7
		c7.6,13.4,8.2,13.4,23.5,11.7c5.7-0.6,12.2-0.9,17.4,1c12.2,4.5,22.8,11.5,26.7,25.2c0.5,1.9,1.7,3.6,2.3,5.5
		c1.9,5.6,5.9,7.9,11.5,8C198,526,200.2,526,203.2,526z"/>
	<path class="st0" d="M667.5,720.1c5.8-8.9,13.4-16.5,23-21.9c26.6-15.1,59.7-9.6,80.3,13.6c20.1,22.5,21.9,56.6,3.9,80.9
		c-4.7,6.3-10,12.3-15.7,17.8c-25.1,24.5-50.4,48.7-75.7,73.1c-3.1,3-6.1,6-9.1,9c-4.2,4.1-9.7,4.2-13.9,0.2
		c-28.9-27.6-58-55.1-86.6-83c-6.8-6.6-13.2-13.9-18-21.9c-24.6-40.9,1.5-92.8,48.9-97.5c22.9-2.3,42.1,5.9,56.9,23.8
		c1.6,1.9,3.1,3.9,4.6,5.8C666.4,720,666.7,720,667.5,720.1z M666.6,874.4c14.6-14,29.1-27.6,43.4-41.4
		c14.3-13.8,28.7-27.6,42.7-41.7c10-10.1,16.5-21.9,16.4-36.8c-0.3-25.5-18.8-44.9-45.2-46.7c-22.7-1.6-44.4,16.7-47.8,40.3
		c-0.3,2.2-0.7,4.5-1.7,6.5c-1.7,3.6-4.9,5.4-8.9,4.9c-3.7-0.4-6.2-2.6-7.2-6.3c-0.4-1.5-0.6-3.1-0.9-4.7
		c-2.9-19.6-16.7-35.2-35.3-39.5c-19.3-4.5-38.7,3.1-49.9,19.5c-10.7,15.7-10.7,36.9,0.7,52.9c4.7,6.6,10.3,12.6,16.2,18.2
		C614.7,824.6,640.5,849.3,666.6,874.4z"/>
	<path class="st0" d="M313.3,810.7c0-13.8-0.1-25.5,0.1-37.2c0-3.3,0.3-6.8,1.5-9.8c2.6-6.4,8.5-6.8,14.5-6.8
		c55.4,0.1,110.7,0.1,166.1,0.1c3.6,0,7.3-0.1,10.9,0c9.5,0.2,14.9,4.7,14.7,12.4c-0.2,7.3-5.3,11.6-14.5,11.6
		c-35.6,0-71.2-0.1-106.8-0.1c-20.4,0-40.7,0-62,0c-0.2,4.7-0.6,8.9-0.6,13c-0.1,10.6,0,21.3,0,31.9c0,8.4-3.6,14.9-11.7,17.8
		c-7.9,2.9-14.8,0.5-20.6-5.7c-15.8-16.9-31.8-33.5-47.5-50.5c-3.9-4.2-7.9-6.6-13.8-7.5c-42.9-6.8-72.7-41.6-73-84.9
		c-0.2-39.2,0-78.5,0-117.7c0-2.1-0.1-4.3,0.3-6.4c1.2-5.7,5.9-9.4,11.8-9.3c5.8,0,10.5,3.8,11.4,9.7c0.4,2.7,0.3,5.5,0.3,8.2
		c0,37.7,0,75.4,0.1,113.1c0.1,36.4,24.5,62.2,60.8,64.2c5.9,0.3,9.5,3.3,13.1,7.1c12.9,13.7,25.9,27.4,38.8,41.1
		C308.7,806.5,310.3,807.8,313.3,810.7z"/>
	<path class="st0" d="M413.8,529.5c38.3,0,76.7,0,115,0c2.1,0,4.3,0,6.3,0.6c5.5,1.7,8.7,5.5,8.7,11.4c0,5.8-2.7,10.1-8.6,11.4
		c-3.2,0.7-6.6,0.7-10,0.7c-74.2,0-148.5,0-222.7,0c-1.8,0-3.6,0.1-5.5,0c-9.1-0.4-14.2-4.7-14.3-12c0-7.1,5.5-11.9,14.2-12.1
		c9.1-0.2,18.2,0,27.4,0C354.2,529.5,384,529.5,413.8,529.5z"/>
	<path class="st0" d="M413.2,665.6c36.8,0,73.5,0,110.3,0c2.7,0,5.5-0.1,8.2,0.1c7.6,0.6,12.2,5.2,12.1,12
		c-0.1,6.9-4.6,11.6-12.3,11.9c-11.8,0.3-23.7,0.1-35.5,0.1c-64.7,0-129.4,0-194.2,0c-3,0-6.1,0.2-9.1-0.4c-5.9-1-9.8-5.8-9.9-11.4
		c-0.1-5.9,4.2-11,10.3-12c2.4-0.4,4.9-0.2,7.3-0.3C338,665.6,375.6,665.6,413.2,665.6C413.2,665.6,413.2,665.6,413.2,665.6z"/>
	<path class="st0" d="M412.7,623.4c-37.3,0-74.7,0-112,0c-2.7,0-5.5,0.2-8.2-0.3c-6-1.1-10.1-6.7-9.7-12.6
		c0.4-5.7,4.5-10.1,10.4-10.9c2.4-0.3,4.9-0.2,7.3-0.2c75,0,150.1,0,225.1,0c2.4,0,4.9-0.1,7.3,0.2c6.5,0.7,10.7,5.1,10.9,11.2
		c0.2,6.4-4.2,11.6-10.8,12.5c-2.4,0.3-4.9,0.1-7.3,0.1C488.1,623.4,450.4,623.4,412.7,623.4z"/>
	<path class="st0" d="M656.1,592.5c0,22.2,0,44.4,0,66.6c0,2.4,0.2,4.9-0.2,7.3c-1,6-6.5,10.4-12.2,10.1
		c-5.6-0.3-10.3-4.4-11.2-10.1c-0.4-2.7-0.2-5.5-0.2-8.2c0-41,0.1-82,0-123.1c-0.1-35.1-13.2-53.9-45.8-66.5
		c-7.6-2.9-10.8-8.7-8.6-15.6c2-6.4,8.6-9.4,16.3-7.2c0.3,0.1,0.6,0.2,0.9,0.3c35.4,10.5,60.4,43,61.1,79.9
		C656.4,548.1,656.1,570.3,656.1,592.5z"/>
	<path class="st0" d="M384.7,466.4c-13.7,0-27.3,0.1-41,0c-8-0.1-13.6-4.7-14-11.1c-0.4-7.2,5-12.6,13.5-12.6
		c28.2-0.1,56.4-0.1,84.7,0.1c8.3,0.1,13,4.8,12.9,12c-0.1,7-5.1,11.7-13.3,11.8c-14.3,0.2-28.5,0.1-42.8,0.1
		C384.7,466.5,384.7,466.4,384.7,466.4z"/>
	<path class="st0" d="M260.7,424.8c0.2,31.6-25.9,57.9-57.6,58c-32.8,0.1-58.8-25.6-58.9-58c0-32.6,25.7-58.2,58.6-58.4
		C234.7,366.2,260.5,392.2,260.7,424.8z M203.1,383.8c-22.8-0.3-41.3,17.7-41.5,40.3c-0.2,22.6,18.1,41.2,40.6,41.4
		c22.1,0.2,40.9-18.2,41.1-40.2C243.7,402.5,225.8,384.1,203.1,383.8z"/>
</g>
</svg>
