<?xml version="1.0" encoding="utf-8"?>
<!-- Generator: Adobe Illustrator 24.0.2, SVG Export Plug-In . SVG Version: 6.00 Build 0)  -->
<svg version="1.1" id="Layer_1" xmlns="http://www.w3.org/2000/svg" xmlns:xlink="http://www.w3.org/1999/xlink" x="0px" y="0px"
	 viewBox="0 0 1000 1000" style="enable-background:new 0 0 1000 1000;" xml:space="preserve">
<style type="text/css">
	.st0{stroke:#000000;stroke-miterlimit:10;}
	.st1{fill:none;stroke:#000000;stroke-miterlimit:10;}
</style>
<g>
	<path d="M877,296.8c-0.7-7.7-7.4-12-15.6-9.8c-2.9,0.8-5.5,2.2-8.2,3.4c-48.3,21.5-96.5,43-144.7,64.4c-2.3,1-4.8,1.9-8,3.2v-9.8
		c0-17.2,0.1-34.3,0-51.5c-0.1-8.1-4.2-11.9-13-12.4c-1.9-0.1-3.8,0-5.8,0h-63.9c-0.3-0.6-0.6-1.1-0.9-1.7c1.9-1.4,3.9-2.6,5.6-4.1
		c11-9.7,19-21.1,23.8-34.4c5.1-14.1,6.5-28.6,5.1-43.4c-3.7-37.7-30.2-67.3-70.3-78c-6.8-1.8-13.8-3-20.7-4.5H534
		c-1.8,0.5-3.5,1.1-5.3,1.5c-35.5,6.1-62.2,22.6-77.1,53.2c-0.4,0.8-1,1.6-1.7,2.7c-5-4.3-9.3-8.9-14.5-12.3
		c-29.5-19.9-61.7-23.2-95.7-10.9c-20.8,7.5-36.6,20.6-44.4,39.8c-13,32.2-9.8,62.5,16.7,88.9c0.7,0.7,1.3,1.5,2.9,3.4h-9.1
		c-13.2,0-26.4,0-39.5,0c-14.4,0-17.6,2.9-17.6,15.6c0,25.1,0,50.2,0,75.3v8.3c-3.2,0.7-5.9,1.2-8.5,1.8
		c-28.7,6.4-52.8,19.4-70.5,41.1c-15.6,19-22.9,40.7-23,64.1c-0.3,44.7-0.2,89.5,0,134.2c0,5.7,0.7,11.4,1.7,17
		c4.9,28.3,19.4,51.6,44.9,68.7c31.6,21.3,67.5,27.3,105.5,20.5c45.7-8.2,77.8-32,92.8-72.8c3.9-10.7,5.8-21.7,5.9-33
		c0.1-21.6,0.1-43.2,0.1-64.9V552h11c91.8,0,183.5,0,275.3,0c13,0,16.7-3.4,16.8-15c0-16.7,0-33.3,0-50v-8.8
		c3.4,1.5,5.9,2.5,8.3,3.5c49,21.8,98,43.6,147,65.3c13.8,6.1,21.2,2,21.3-11.6V302.1C877.1,300.3,877.1,298.6,877,296.8z
		 M496.2,154.7c31.4-21.8,81.1-19.6,109.3,4.8c16.3,14.1,22.7,31.8,22.7,51.7c0.6,50.4-44.5,74.7-87.5,71.7
		c-15.7-1.1-30.1-5.3-42.9-13.7c-22.3-14.7-31-35.3-30.6-59.5C467.6,187.5,476.2,168.6,496.2,154.7z M449.7,273.6
		c2.7-3.4,5.1-7,7.9-10.9c6.9,7.1,13.2,13.8,20.4,21.2c-6.6,0.9-12.6,0.4-18.6,0.5c-6,0.1-11.9,0-19.5,0
		C443.8,280.1,447,277,449.7,273.6z M312.2,218.8c3.2-34.6,33-51.7,66.2-52.1c24.2,1,45.1,8.9,57.4,30.1
		c13.4,23.1,9.9,60.7-20.9,77.1c-24.8,13.3-50.3,13.4-74.8,0C317.3,261.4,310.1,241.6,312.2,218.8z M373.9,618.8
		c0,11.2-1.3,22.4-5.1,33.1c-8,22.7-23.7,39.7-47.6,49.9c-36.7,15.6-73,14.4-107.8-4.6c-24.6-13.4-37.8-34.1-42.1-59.5
		c-1.1-6.1-1.3-12.3-2-19.6h9.6c23.1,0,46.1,0,69.2,0c2.5,0,5,0.1,7.4-0.4c5.7-1.2,9.3-6,8.9-11.1c-0.4-4.9-4.2-8.8-9.9-9.5
		c-2.7-0.4-5.5-0.3-8.2-0.3c-22.3,0-44.5,0-66.8,0h-9.3v-28h9.3c22.8,0,45.6,0,68.4,0c3,0,6.1-0.2,8.9-1c5.1-1.5,7.9-5.7,7.6-10.4
		c-0.3-4.7-3.6-8.5-8.9-9.5c-2.9-0.6-6-0.6-9-0.7c-22.3,0-44.5,0-66.8,0h-9.5v-27.9h9.2c22.5,0,45.1,0,67.6,0c2.7,0,5.5,0,8.2-0.5
		c5.6-1.1,9.1-5.3,9.2-10.1c0-4.8-3.4-9.1-9-10.3c-2.9-0.6-6-0.6-9-0.7c-22.3,0-44.5,0-66.8,0h-9.7c-0.8-10.6,0.8-20.4,3.6-29.9
		c7.2-24.4,23.3-42.9,48.5-53.5c40.7-17.1,80.1-14.5,116.5,10c19.7,13.3,29.9,32.1,33.5,53.7c1.2,7.1,1.5,14.4,1.6,21.6
		C374,539.2,373.9,579,373.9,618.8z M676.3,529.8h-279c0-3.1,0.1-6,0-8.9c-0.5-15.1,0.4-30.4-1.8-45.4
		c-6.5-45.7-42.3-80.2-92.2-90.1c-9.9-2-20-2.7-30.8-4.1v-74.8h403.7V529.8z M853.2,521.8c-5.1-2.2-9.8-4.1-14.4-6.1
		c-4.7-2-9.3-4.2-14-6.3V486c0-28.3,0-56.6,0-85c0-2.5,0.1-5-0.3-7.4c-0.8-5.3-5.4-9.1-11-9.4c-5.5-0.2-10.7,3.3-11.9,8.5
		c-0.6,2.4-0.4,4.9-0.4,7.4c0,29.8,0,59.6,0,89.5v9.4c-34.2-15.2-67.1-29.9-100.3-44.7v-72.2c50.3-22.4,100.8-44.9,152.3-67.8
		L853.2,521.8L853.2,521.8z"/>
	<path d="M877,296.8c-0.7-7.7-7.4-12-15.6-9.8c-2.9,0.8-5.5,2.2-8.2,3.4c-48.3,21.5-96.5,43-144.7,64.4c-2.3,1-4.8,1.9-8,3.2v-9.8
		c0-17.2,0.1-34.3,0-51.5c-0.1-8.1-4.2-11.9-13-12.4c-1.9-0.1-3.8,0-5.8,0h-63.9c-0.3-0.6-0.6-1.1-0.9-1.7c1.9-1.4,3.9-2.6,5.6-4.1
		c11-9.7,19-21.1,23.8-34.4c5.1-14.1,6.5-28.6,5.1-43.4c-3.7-37.7-30.2-67.3-70.3-78c-6.8-1.8-13.8-3-20.7-4.5H534
		c-1.8,0.5-3.5,1.1-5.3,1.5c-35.5,6.1-62.2,22.6-77.1,53.2c-0.4,0.8-1,1.6-1.7,2.7c-5-4.3-9.3-8.9-14.5-12.3
		c-29.5-19.9-61.7-23.2-95.7-10.9c-20.8,7.5-36.6,20.6-44.4,39.8c-13,32.2-9.8,62.5,16.7,88.9c0.7,0.7,1.3,1.5,2.9,3.4h-9.1
		c-13.2,0-26.4,0-39.5,0c-14.4,0-17.6,2.9-17.6,15.6c0,25.1,0,50.2,0,75.3v8.3c-3.2,0.7-5.9,1.2-8.5,1.8
		c-28.7,6.4-52.8,19.4-70.5,41.1c-15.6,19-22.9,40.7-23,64.1c-0.3,44.7-0.2,89.5,0,134.2c0,5.7,0.7,11.4,1.7,17
		c4.9,28.3,19.4,51.6,44.9,68.7c31.6,21.3,67.5,27.3,105.5,20.5c45.7-8.2,77.8-32,92.8-72.8c3.9-10.7,5.8-21.7,5.9-33
		c0.1-21.6,0.1-43.2,0.1-64.9V552h11c91.8,0,183.5,0,275.3,0c13,0,16.7-3.4,16.8-15c0-16.7,0-33.3,0-50v-8.8
		c3.4,1.5,5.9,2.5,8.3,3.5c49,21.8,98,43.6,147,65.3c13.8,6.1,21.2,2,21.3-11.6V302.1C877.1,300.3,877.1,298.6,877,296.8z
		 M496.2,154.7c31.4-21.8,81.1-19.6,109.3,4.8c16.3,14.1,22.7,31.8,22.7,51.7c0.6,50.4-44.5,74.7-87.5,71.7
		c-15.7-1.1-30.1-5.3-42.9-13.7c-22.3-14.7-31-35.3-30.6-59.5C467.6,187.5,476.2,168.6,496.2,154.7z M602.1,290.9h-11.6
		c3.2-1.3,6.3-2.7,9.3-4.3L602.1,290.9z M449.7,273.6c2.7-3.4,5.1-7,7.9-10.9c6.9,7.1,13.2,13.8,20.4,21.2
		c-6.6,0.9-12.6,0.4-18.6,0.5c-6,0.1-11.9,0-19.5,0C443.8,280.1,447,277,449.7,273.6z M312.2,218.8c3.2-34.6,33-51.7,66.2-52.1
		c24.2,1,45.1,8.9,57.4,30.1c13.4,23.1,9.9,60.7-20.9,77.1c-24.8,13.3-50.3,13.4-74.8,0C317.3,261.4,310.1,241.6,312.2,218.8z
		 M373.9,618.8c0,11.2-1.3,22.4-5.1,33.1c-8,22.7-23.7,39.7-47.6,49.9c-36.7,15.6-73,14.4-107.8-4.6c-24.6-13.4-37.8-34.1-42.1-59.5
		c-1.1-6.1-1.3-12.3-2-19.6h9.6c23.1,0,46.1,0,69.2,0c2.5,0,5,0.1,7.4-0.4c5.7-1.2,9.3-6,8.9-11.1c-0.4-4.9-4.2-8.8-9.9-9.5
		c-2.7-0.4-5.5-0.3-8.2-0.3c-22.3,0-44.5,0-66.8,0h-9.3v-28h9.3c22.8,0,45.6,0,68.4,0c3,0,6.1-0.2,8.9-1c5.1-1.5,7.9-5.7,7.6-10.4
		c-0.3-4.7-3.6-8.5-8.9-9.5c-2.9-0.6-6-0.6-9-0.7c-22.3,0-44.5,0-66.8,0h-9.5v-27.9h9.2c22.5,0,45.1,0,67.6,0c2.7,0,5.5,0,8.2-0.5
		c5.6-1.1,9.1-5.3,9.2-10.1c0-4.8-3.4-9.1-9-10.3c-2.9-0.6-6-0.6-9-0.7c-22.3,0-44.5,0-66.8,0h-9.7c-0.8-10.6,0.8-20.4,3.6-29.9
		c7.2-24.4,23.3-42.9,48.5-53.5c40.7-17.1,80.1-14.5,116.5,10c19.7,13.3,29.9,32.1,33.5,53.7c1.2,7.1,1.5,14.4,1.6,21.6
		C374,539.2,373.9,579,373.9,618.8z M676.3,529.8h-279c0-3.1,0.1-6,0-8.9c-0.5-15.1,0.4-30.4-1.8-45.4
		c-6.5-45.7-42.3-80.2-92.2-90.1c-9.9-2-20-2.7-30.8-4.1v-74.8h403.7V529.8z M853.2,521.8c-5.1-2.2-9.8-4.1-14.4-6.1
		c-4.7-2-9.3-4.2-14-6.3V486c0-28.3,0-56.6,0-85c0-2.5,0.1-5-0.3-7.4c-0.8-5.3-5.4-9.1-11-9.4c-5.5-0.2-10.7,3.3-11.9,8.5
		c-0.6,2.4-0.4,4.9-0.4,7.4c0,29.8,0,59.6,0,89.5v9.4c-34.2-15.2-67.1-29.9-100.3-44.7v-72.2c50.3-22.4,100.8-44.9,152.3-67.8
		L853.2,521.8L853.2,521.8z"/>
	<path d="M877.4,661c0.4-23.5-16.5-40.3-43.3-38.7c-15.6,1-31.3,0.2-47,0.2c-1.6,0-3.3,0-4.9,0c-9-0.3-13.6-4.4-14-12.5
		c-0.1-2.7,0-5.5-0.1-8.2c-0.4-18.1-15.4-32.5-35.4-32.7c-34.1-0.4-68.1-0.4-102.2,0c-17.8,0.2-31.9,11.7-34.9,27.5
		c-0.7,3.6-0.5,7.4-0.6,11.2c-0.2,10.9-4.4,14.7-16.4,14.8c-17.9,0-35.7,0-53.6,0c-3.3,0-6.6,0-9.8,0.6c-17,3.2-28.7,16-29.1,31.8
		c0,0.7,0,1.5,0,2.2c0,63.6,0,127.3,0,190.9c0,17,11.3,29.9,29,33.3c3.7,0.7,7.6,0.7,11.5,0.7c51.4,0,102.7,0,154.1,0
		c51.9,0,103.8,0,155.7,0c3.6,0,7.2,0.1,10.7-0.5c17.4-2.9,29.4-15.9,29.9-32c0-2,0-4,0-6C877.1,782.8,876.4,721.9,877.4,661z
		 M853.5,849.6c-0.8,6.4-5,10.4-12.2,11.2c-2.7,0.3-5.5,0.2-8.2,0.2c-50.8,0-101.6,0-152.4,0h-150c-2.2,0-4.4,0.1-6.6,0
		c-9.5-0.5-14-4.5-14.5-13c-0.1-1.2,0-2.5,0-3.7V660.7c0-1,0-2,0-3c0.3-9.8,4.8-13.8,15.9-14c5.2-0.1,10.4,0,15.7,0
		c13.4,0,26.9,0.1,40.4,0c21.8-0.2,36.5-13.5,37.1-33.3c0.1-3-0.1-6,0.2-8.9c0.8-6.7,4.9-10.2,12.3-10.9c2.2-0.2,4.4-0.2,6.6-0.2
		c29.4,0,58.8,0,88.2,0c1.9,0,3.8,0,5.8,0.1c8.1,0.7,12.3,4.5,13,11.9c0.2,2.5,0.2,5,0.1,7.4c-0.9,19.2,17.1,34.5,37.3,33.9
		c17.3-0.5,34.6-0.1,51.9-0.1c2.2,0,4.4-0.1,6.6,0.1c7.9,0.6,12.5,4.8,13.1,11.9c0.2,1.7,0.1,3.5,0.1,5.2v182.7
		C853.7,845.6,853.8,847.6,853.5,849.6z"/>
	<path d="M654.8,845.3c3.7,0.8,7.5,1.4,11.4,1.9c5.5,0.7,11,1.1,16.5,1.1c9.3,0,18.6-1,27.6-3L654.8,845.3L654.8,845.3z
		 M654.8,845.3c3.7,0.8,7.5,1.4,11.4,1.9c5.5,0.7,11,1.1,16.5,1.1c9.3,0,18.6-1,27.6-3L654.8,845.3L654.8,845.3z M654.8,845.3
		c3.7,0.8,7.5,1.4,11.4,1.9c5.5,0.7,11,1.1,16.5,1.1c9.3,0,18.6-1,27.6-3L654.8,845.3L654.8,845.3z M654.8,845.3
		c3.7,0.8,7.5,1.4,11.4,1.9c5.5,0.7,11,1.1,16.5,1.1c9.3,0,18.6-1,27.6-3L654.8,845.3L654.8,845.3z M654.8,845.3
		c3.7,0.8,7.5,1.4,11.4,1.9c5.5,0.7,11,1.1,16.5,1.1c9.3,0,18.6-1,27.6-3L654.8,845.3L654.8,845.3z M654.8,845.3
		c3.7,0.8,7.5,1.4,11.4,1.9c5.5,0.7,11,1.1,16.5,1.1c9.3,0,18.6-1,27.6-3L654.8,845.3L654.8,845.3z M654.8,845.3
		c3.7,0.8,7.5,1.4,11.4,1.9c5.5,0.7,11,1.1,16.5,1.1c9.3,0,18.6-1,27.6-3L654.8,845.3L654.8,845.3z M654.8,845.3
		c3.7,0.8,7.5,1.4,11.4,1.9c5.5,0.7,11,1.1,16.5,1.1c9.3,0,18.6-1,27.6-3L654.8,845.3L654.8,845.3z M654.8,845.3
		c3.7,0.8,7.5,1.4,11.4,1.9c5.5,0.7,11,1.1,16.5,1.1c9.3,0,18.6-1,27.6-3L654.8,845.3L654.8,845.3z M654.8,845.3
		c3.7,0.8,7.5,1.4,11.4,1.9c5.5,0.7,11,1.1,16.5,1.1c9.3,0,18.6-1,27.6-3L654.8,845.3L654.8,845.3z M654.8,845.3
		c3.7,0.8,7.5,1.4,11.4,1.9c5.5,0.7,11,1.1,16.5,1.1c9.3,0,18.6-1,27.6-3L654.8,845.3L654.8,845.3z M654.8,845.3
		c3.7,0.8,7.5,1.4,11.4,1.9c5.5,0.7,11,1.1,16.5,1.1c9.3,0,18.6-1,27.6-3L654.8,845.3L654.8,845.3z M654.8,845.3
		c3.7,0.8,7.5,1.4,11.4,1.9c5.5,0.7,11,1.1,16.5,1.1c9.3,0,18.6-1,27.6-3L654.8,845.3L654.8,845.3z M654.8,845.3
		c3.7,0.8,7.5,1.4,11.4,1.9c5.5,0.7,11,1.1,16.5,1.1c9.3,0,18.6-1,27.6-3L654.8,845.3L654.8,845.3z M877.4,661
		c0.4-23.5-16.5-40.3-43.3-38.7c-15.6,1-31.3,0.2-47,0.2c-1.6,0-3.3,0-4.9,0c-9-0.3-13.6-4.4-14-12.5c-0.1-2.7,0-5.5-0.1-8.2
		c-0.4-18.1-15.4-32.5-35.4-32.7c-34.1-0.4-68.1-0.4-102.2,0c-17.8,0.2-31.9,11.7-34.9,27.5c-0.7,3.6-0.5,7.4-0.6,11.2
		c-0.2,10.9-4.4,14.7-16.4,14.8c-17.9,0-35.7,0-53.6,0c-3.3,0-6.6,0-9.8,0.6c-17,3.2-28.7,16-29.1,31.8c0,0.7,0,1.5,0,2.2
		c0,63.6,0,127.3,0,190.9c0,17,11.3,29.9,29,33.3c3.7,0.7,7.6,0.7,11.5,0.7c51.4,0,102.7,0,154.1,0c51.9,0,103.8,0,155.7,0
		c3.6,0,7.2,0.1,10.7-0.5c17.4-2.9,29.4-15.9,29.9-32c0-2,0-4,0-6C877.1,782.8,876.4,721.9,877.4,661z M853.5,849.6
		c-0.8,6.4-5,10.4-12.2,11.2c-2.7,0.3-5.5,0.2-8.2,0.2c-50.8,0-101.6,0-152.4,0h-150c-2.2,0-4.4,0.1-6.6,0c-9.5-0.5-14-4.5-14.5-13
		c-0.1-1.2,0-2.5,0-3.7V660.7c0-1,0-2,0-3c0.3-9.8,4.8-13.8,15.9-14c5.2-0.1,10.4,0,15.7,0c13.4,0,26.9,0.1,40.4,0
		c21.8-0.2,36.5-13.5,37.1-33.3c0.1-3-0.1-6,0.2-8.9c0.8-6.7,4.9-10.2,12.3-10.9c2.2-0.2,4.4-0.2,6.6-0.2c29.4,0,58.8,0,88.2,0
		c1.9,0,3.8,0,5.8,0.1c8.1,0.7,12.3,4.5,13,11.9c0.2,2.5,0.2,5,0.1,7.4c-0.9,19.2,17.1,34.5,37.3,33.9c17.3-0.5,34.6-0.1,51.9-0.1
		c2.2,0,4.4-0.1,6.6,0.1c7.9,0.6,12.5,4.8,13.1,11.9c0.2,1.7,0.1,3.5,0.1,5.2v182.7C853.7,845.6,853.8,847.6,853.5,849.6z
		 M666.2,847.2c5.5,0.7,11,1.1,16.5,1.1c9.3,0,18.6-1,27.6-3h-55.4C658.5,846.1,662.3,846.7,666.2,847.2z M654.8,845.3
		c3.7,0.8,7.5,1.4,11.4,1.9c5.5,0.7,11,1.1,16.5,1.1c9.3,0,18.6-1,27.6-3L654.8,845.3L654.8,845.3z M654.8,845.3
		c3.7,0.8,7.5,1.4,11.4,1.9c5.5,0.7,11,1.1,16.5,1.1c9.3,0,18.6-1,27.6-3L654.8,845.3L654.8,845.3z M654.8,845.3
		c3.7,0.8,7.5,1.4,11.4,1.9c5.5,0.7,11,1.1,16.5,1.1c9.3,0,18.6-1,27.6-3L654.8,845.3L654.8,845.3z M654.8,845.3
		c3.7,0.8,7.5,1.4,11.4,1.9c5.5,0.7,11,1.1,16.5,1.1c9.3,0,18.6-1,27.6-3L654.8,845.3L654.8,845.3z M654.8,845.3
		c3.7,0.8,7.5,1.4,11.4,1.9c5.5,0.7,11,1.1,16.5,1.1c9.3,0,18.6-1,27.6-3L654.8,845.3L654.8,845.3z M654.8,845.3
		c3.7,0.8,7.5,1.4,11.4,1.9c5.5,0.7,11,1.1,16.5,1.1c9.3,0,18.6-1,27.6-3L654.8,845.3L654.8,845.3z M654.8,845.3
		c3.7,0.8,7.5,1.4,11.4,1.9c5.5,0.7,11,1.1,16.5,1.1c9.3,0,18.6-1,27.6-3L654.8,845.3L654.8,845.3z M654.8,845.3
		c3.7,0.8,7.5,1.4,11.4,1.9c5.5,0.7,11,1.1,16.5,1.1c9.3,0,18.6-1,27.6-3L654.8,845.3L654.8,845.3z M654.8,845.3
		c3.7,0.8,7.5,1.4,11.4,1.9c5.5,0.7,11,1.1,16.5,1.1c9.3,0,18.6-1,27.6-3L654.8,845.3L654.8,845.3z M654.8,845.3
		c3.7,0.8,7.5,1.4,11.4,1.9c5.5,0.7,11,1.1,16.5,1.1c9.3,0,18.6-1,27.6-3L654.8,845.3L654.8,845.3z M654.8,845.3
		c3.7,0.8,7.5,1.4,11.4,1.9c5.5,0.7,11,1.1,16.5,1.1c9.3,0,18.6-1,27.6-3L654.8,845.3L654.8,845.3z M654.8,845.3
		c3.7,0.8,7.5,1.4,11.4,1.9c5.5,0.7,11,1.1,16.5,1.1c9.3,0,18.6-1,27.6-3L654.8,845.3L654.8,845.3z M654.8,845.3
		c3.7,0.8,7.5,1.4,11.4,1.9c5.5,0.7,11,1.1,16.5,1.1c9.3,0,18.6-1,27.6-3L654.8,845.3L654.8,845.3z M654.8,845.3
		c3.7,0.8,7.5,1.4,11.4,1.9c5.5,0.7,11,1.1,16.5,1.1c9.3,0,18.6-1,27.6-3L654.8,845.3L654.8,845.3z"/>
	<path d="M464.8,624.7c0.3,17.8-2.5,35.3-9,52c-26.3,67.3-78.5,107.2-156,120c-5.1,0.8-10.3,1.1-15.8,1.7v62
		c2.4,0.2,4.8,0.4,7.1,0.4c14.8,0,29.7,0,44.5,0c2.2,0,4.4-0.1,6.6,0.2c6,0.7,10.1,4.7,10.4,9.8c0.3,5.1-3.6,9.8-9.2,10.9
		c-2.4,0.4-4.9,0.3-7.4,0.3c-42.9,0-85.7,0-128.6,0c-1.7,0-3.3,0.1-4.9-0.1c-6.8-0.6-11.4-5-11.4-10.7c0-5.8,4.5-10.2,11.5-10.4
		c12.6-0.3,25.3-0.1,37.9-0.1c6.3,0,12.5,0,19.2,0v-62.3c-7-0.9-14-1.7-20.9-2.8C159.2,783.5,96,726.8,82,654.9
		c-2-10.2-2.6-20.7-3.1-31.1c-0.3-6.3,4.7-10.4,11.3-10.4c6.7-0.1,11.1,3.6,11.9,10c0.2,1.7,0.1,3.5,0.2,5.2
		c1.5,29.8,10.5,57.4,29.7,81.6c37.5,47.3,88.6,70.2,153,66.2c76.9-4.8,140.5-57.3,153.4-125.8c1.6-8.6,2.1-17.3,2.9-25.9
		c0.6-6.5,3.8-10.4,9.8-11.2C459,612.4,464.7,616.9,464.8,624.7z"/>
	<path d="M451.2,613.4c-5.9,0.8-9.1,4.6-9.8,11.2c-0.8,8.7-1.3,17.4-2.9,25.9c-13,68.5-76.5,121.1-153.4,125.8
		c-64.4,4-115.5-18.9-153-66.2c-19.3-24.2-28.3-51.9-29.7-81.6c-0.1-1.7,0-3.5-0.2-5.2c-0.7-6.4-5.2-10.1-11.9-10
		c-6.6,0.1-11.6,4.1-11.3,10.4c0.5,10.4,1.1,20.9,3.1,31.1c14,72,77.2,128.7,156.7,140.9c6.9,1.1,13.9,1.9,20.9,2.8v62.3
		c-6.7,0-12.9,0-19.2,0c-12.6,0-25.3-0.2-37.9,0.1c-7,0.2-11.5,4.6-11.5,10.4c0,5.7,4.6,10.1,11.4,10.7c1.6,0.2,3.3,0.1,4.9,0.1
		c42.9,0,85.7,0,128.6,0c2.5,0,5,0.1,7.4-0.3c5.7-1.1,9.5-5.8,9.2-10.9c-0.3-5.2-4.4-9.2-10.4-9.8c-2.2-0.3-4.4-0.2-6.6-0.2
		c-14.8,0-29.7,0-44.5,0c-2.4,0-4.7-0.3-7.1-0.4v-62c5.5-0.6,10.7-0.8,15.8-1.7c77.5-12.8,129.7-52.7,156-120
		c6.5-16.7,9.3-34.2,9-52C464.7,616.9,459,612.4,451.2,613.4z"/>
	<path d="M581.6,406c-33.4-16.5-66.1-34.2-99.1-51.5c-2.1-1.1-4.3-2.3-6.6-2.9c-6.3-1.8-13.1,1.8-14.4,7.7c-0.5,2.4-0.4,4.9-0.4,7.4
		c0,17.1,0,34.2,0,51.4c0,17.6,0.6,35.3-0.2,52.9c-0.6,11.6,10,18.4,21,11.2c0.4-0.3,0.9-0.5,1.4-0.8c32.7-17.1,65.2-34.7,98.4-51.1
		C595.3,423.5,595,412.7,581.6,406z M485.1,455.7v-75c23.6,12.3,46.9,24.5,71.8,37.5C532.3,431.1,509.2,443.2,485.1,455.7z"/>
	<path d="M745.8,716.3c-13.4-23.1-36.1-32.1-62.8-33.1c-4.5,0.2-8.1,0.2-11.6,0.6c-27.4,3.2-51.8,18-58.9,45
		c-2.1,8.1-2.9,16.8-2.2,25.1c1.6,20.5,11.5,37.3,31.8,47.7c26.2,13.3,53.1,13.4,79.2,0C758,782.7,759.6,740,745.8,716.3z
		 M712.7,788c-20.8,10.7-41.2,10.7-62.3-0.1c-14.2-7.2-21.8-18.7-23.1-35.1c-0.5-6.9,0.1-13.9,1.8-20.4c6.9-26,33.3-31.9,44.4-33.2
		c1.6-0.2,3.5-0.3,5.8-0.3c1.2,0,2.3-0.1,3.6-0.1c23.2,1.1,38.3,8.9,47.5,24.8C740.6,741,740.1,773.9,712.7,788z M745.8,716.3
		c-13.4-23.1-36.1-32.1-62.8-33.1c-4.5,0.2-8.1,0.2-11.6,0.6c-27.4,3.2-51.8,18-58.9,45c-2.1,8.1-2.9,16.8-2.2,25.1
		c1.6,20.5,11.5,37.3,31.8,47.7c26.2,13.3,53.1,13.4,79.2,0C758,782.7,759.6,740,745.8,716.3z M712.7,788
		c-20.8,10.7-41.2,10.7-62.3-0.1c-14.2-7.2-21.8-18.7-23.1-35.1c-0.5-6.9,0.1-13.9,1.8-20.4c6.9-26,33.3-31.9,44.4-33.2
		c1.6-0.2,3.5-0.3,5.8-0.3c1.2,0,2.3-0.1,3.6-0.1c23.2,1.1,38.3,8.9,47.5,24.8C740.6,741,740.1,773.9,712.7,788z M745.8,716.3
		c-13.4-23.1-36.1-32.1-62.8-33.1c-4.5,0.2-8.1,0.2-11.6,0.6c-27.4,3.2-51.8,18-58.9,45c-2.1,8.1-2.9,16.8-2.2,25.1
		c1.6,20.5,11.5,37.3,31.8,47.7c26.2,13.3,53.1,13.4,79.2,0C758,782.7,759.6,740,745.8,716.3z M712.7,788
		c-20.8,10.7-41.2,10.7-62.3-0.1c-14.2-7.2-21.8-18.7-23.1-35.1c-0.5-6.9,0.1-13.9,1.8-20.4c6.9-26,33.3-31.9,44.4-33.2
		c1.6-0.2,3.5-0.3,5.8-0.3c1.2,0,2.3-0.1,3.6-0.1c23.2,1.1,38.3,8.9,47.5,24.8C740.6,741,740.1,773.9,712.7,788z M745.8,716.3
		c-13.4-23.1-36.1-32.1-62.8-33.1c-4.5,0.2-8.1,0.2-11.6,0.6c-27.4,3.2-51.8,18-58.9,45c-2.1,8.1-2.9,16.8-2.2,25.1
		c1.6,20.5,11.5,37.3,31.8,47.7c26.2,13.3,53.1,13.4,79.2,0C758,782.7,759.6,740,745.8,716.3z M712.7,788
		c-20.8,10.7-41.2,10.7-62.3-0.1c-14.2-7.2-21.8-18.7-23.1-35.1c-0.5-6.9,0.1-13.9,1.8-20.4c6.9-26,33.3-31.9,44.4-33.2
		c1.6-0.2,3.5-0.3,5.8-0.3c1.2,0,2.3-0.1,3.6-0.1c23.2,1.1,38.3,8.9,47.5,24.8C740.6,741,740.1,773.9,712.7,788z M745.8,716.3
		c-13.4-23.1-36.1-32.1-62.8-33.1c-4.5,0.2-8.1,0.2-11.6,0.6c-27.4,3.2-51.8,18-58.9,45c-2.1,8.1-2.9,16.8-2.2,25.1
		c1.6,20.5,11.5,37.3,31.8,47.7c26.2,13.3,53.1,13.4,79.2,0C758,782.7,759.6,740,745.8,716.3z M712.7,788
		c-20.8,10.7-41.2,10.7-62.3-0.1c-14.2-7.2-21.8-18.7-23.1-35.1c-0.5-6.9,0.1-13.9,1.8-20.4c6.9-26,33.3-31.9,44.4-33.2
		c1.6-0.2,3.5-0.3,5.8-0.3c1.2,0,2.3-0.1,3.6-0.1c23.2,1.1,38.3,8.9,47.5,24.8C740.6,741,740.1,773.9,712.7,788z M745.8,716.3
		c-13.4-23.1-36.1-32.1-62.8-33.1c-4.5,0.2-8.1,0.2-11.6,0.6c-27.4,3.2-51.8,18-58.9,45c-2.1,8.1-2.9,16.8-2.2,25.1
		c1.6,20.5,11.5,37.3,31.8,47.7c26.2,13.3,53.1,13.4,79.2,0C758,782.7,759.6,740,745.8,716.3z M712.7,788
		c-20.8,10.7-41.2,10.7-62.3-0.1c-14.2-7.2-21.8-18.7-23.1-35.1c-0.5-6.9,0.1-13.9,1.8-20.4c6.9-26,33.3-31.9,44.4-33.2
		c1.6-0.2,3.5-0.3,5.8-0.3c1.2,0,2.3-0.1,3.6-0.1c23.2,1.1,38.3,8.9,47.5,24.8C740.6,741,740.1,773.9,712.7,788z M745.8,716.3
		c-13.4-23.1-36.1-32.1-62.8-33.1c-4.5,0.2-8.1,0.2-11.6,0.6c-27.4,3.2-51.8,18-58.9,45c-2.1,8.1-2.9,16.8-2.2,25.1
		c1.6,20.5,11.5,37.3,31.8,47.7c26.2,13.3,53.1,13.4,79.2,0C758,782.7,759.6,740,745.8,716.3z M712.7,788
		c-20.8,10.7-41.2,10.7-62.3-0.1c-14.2-7.2-21.8-18.7-23.1-35.1c-0.5-6.9,0.1-13.9,1.8-20.4c6.9-26,33.3-31.9,44.4-33.2
		c1.6-0.2,3.5-0.3,5.8-0.3c1.2,0,2.3-0.1,3.6-0.1c23.2,1.1,38.3,8.9,47.5,24.8C740.6,741,740.1,773.9,712.7,788z M745.8,716.3
		c-13.4-23.1-36.1-32.1-62.8-33.1c-4.5,0.2-8.1,0.2-11.6,0.6c-27.4,3.2-51.8,18-58.9,45c-2.1,8.1-2.9,16.8-2.2,25.1
		c1.6,20.5,11.5,37.3,31.8,47.7c26.2,13.3,53.1,13.4,79.2,0C758,782.7,759.6,740,745.8,716.3z M712.7,788
		c-20.8,10.7-41.2,10.7-62.3-0.1c-14.2-7.2-21.8-18.7-23.1-35.1c-0.5-6.9,0.1-13.9,1.8-20.4c6.9-26,33.3-31.9,44.4-33.2
		c1.6-0.2,3.5-0.3,5.8-0.3c1.2,0,2.3-0.1,3.6-0.1c23.2,1.1,38.3,8.9,47.5,24.8C740.6,741,740.1,773.9,712.7,788z M745.8,716.3
		c-13.4-23.1-36.1-32.1-62.8-33.1c-4.5,0.2-8.1,0.2-11.6,0.6c-27.4,3.2-51.8,18-58.9,45c-2.1,8.1-2.9,16.8-2.2,25.1
		c1.6,20.5,11.5,37.3,31.8,47.7c26.2,13.3,53.1,13.4,79.2,0C758,782.7,759.6,740,745.8,716.3z M712.7,788
		c-20.8,10.7-41.2,10.7-62.3-0.1c-14.2-7.2-21.8-18.7-23.1-35.1c-0.5-6.9,0.1-13.9,1.8-20.4c6.9-26,33.3-31.9,44.4-33.2
		c1.6-0.2,3.5-0.3,5.8-0.3c1.2,0,2.3-0.1,3.6-0.1c23.2,1.1,38.3,8.9,47.5,24.8C740.6,741,740.1,773.9,712.7,788z M745.8,716.3
		c-13.4-23.1-36.1-32.1-62.8-33.1c-4.5,0.2-8.1,0.2-11.6,0.6c-27.4,3.2-51.8,18-58.9,45c-2.1,8.1-2.9,16.8-2.2,25.1
		c1.6,20.5,11.5,37.3,31.8,47.7c26.2,13.3,53.1,13.4,79.2,0C758,782.7,759.6,740,745.8,716.3z M712.7,788
		c-20.8,10.7-41.2,10.7-62.3-0.1c-14.2-7.2-21.8-18.7-23.1-35.1c-0.5-6.9,0.1-13.9,1.8-20.4c6.9-26,33.3-31.9,44.4-33.2
		c1.6-0.2,3.5-0.3,5.8-0.3c1.2,0,2.3-0.1,3.6-0.1c23.2,1.1,38.3,8.9,47.5,24.8C740.6,741,740.1,773.9,712.7,788z M745.8,716.3
		c-13.4-23.1-36.1-32.1-62.8-33.1c-4.5,0.2-8.1,0.2-11.6,0.6c-27.4,3.2-51.8,18-58.9,45c-2.1,8.1-2.9,16.8-2.2,25.1
		c1.6,20.5,11.5,37.3,31.8,47.7c26.2,13.3,53.1,13.4,79.2,0C758,782.7,759.6,740,745.8,716.3z M712.7,788
		c-20.8,10.7-41.2,10.7-62.3-0.1c-14.2-7.2-21.8-18.7-23.1-35.1c-0.5-6.9,0.1-13.9,1.8-20.4c6.9-26,33.3-31.9,44.4-33.2
		c1.6-0.2,3.5-0.3,5.8-0.3c1.2,0,2.3-0.1,3.6-0.1c23.2,1.1,38.3,8.9,47.5,24.8C740.6,741,740.1,773.9,712.7,788z M745.8,716.3
		c-13.4-23.1-36.1-32.1-62.8-33.1c-4.5,0.2-8.1,0.2-11.6,0.6c-27.4,3.2-51.8,18-58.9,45c-2.1,8.1-2.9,16.8-2.2,25.1
		c1.6,20.5,11.5,37.3,31.8,47.7c26.2,13.3,53.1,13.4,79.2,0C758,782.7,759.6,740,745.8,716.3z M712.7,788
		c-20.8,10.7-41.2,10.7-62.3-0.1c-14.2-7.2-21.8-18.7-23.1-35.1c-0.5-6.9,0.1-13.9,1.8-20.4c6.9-26,33.3-31.9,44.4-33.2
		c1.6-0.2,3.5-0.3,5.8-0.3c1.2,0,2.3-0.1,3.6-0.1c23.2,1.1,38.3,8.9,47.5,24.8C740.6,741,740.1,773.9,712.7,788z M759.7,672.7
		c-17.5-14.4-39.4-23.1-65.2-25.9c-32.5-3.5-66.1,6-89.9,25.2c-16.4,13.3-36,37.5-35.7,77.4c-0.2,12.4,2.5,25.3,7.5,36.4
		c14.4,31.7,40.7,51.7,78.3,59.4c3.7,0.8,7.5,1.4,11.4,1.9c5.5,0.7,11,1.1,16.5,1.1c9.3,0,18.6-1,27.6-3c17.2-3.8,33.3-11,46.7-21.2
		c16.5-12.6,36.5-35.7,37.4-73.9C795.1,718.3,783.4,692.3,759.7,672.7z M668.7,831.8c-35.8-4.8-62.3-20.9-76.3-51.8
		c-4.7-10.5-6.4-21.5-6.2-30.5c-0.5-64.2,58.1-92.3,106.3-87.2c21.1,2.2,39.9,8.9,55.6,21.9c21.3,17.6,29.6,40,29,65.6
		C775.6,811.5,715.6,838,668.7,831.8z M682.9,683.1c-4.5,0.2-8.1,0.2-11.6,0.6c-27.4,3.2-51.8,18-58.9,45
		c-2.1,8.1-2.9,16.8-2.2,25.1c1.6,20.5,11.5,37.3,31.8,47.7c26.2,13.3,53.1,13.4,79.2,0c36.8-18.8,38.3-61.5,24.5-85.3
		C732.3,693.2,709.7,684.2,682.9,683.1z M712.7,788c-20.8,10.7-41.2,10.7-62.3-0.1c-14.2-7.2-21.8-18.7-23.1-35.1
		c-0.5-6.9,0.1-13.9,1.8-20.4c6.9-26,33.3-31.9,44.4-33.2c1.6-0.2,3.5-0.3,5.8-0.3c1.2,0,2.3-0.1,3.6-0.1
		c23.2,1.1,38.3,8.9,47.5,24.8C740.6,741,740.1,773.9,712.7,788z M745.8,716.3c-13.4-23.1-36.1-32.1-62.8-33.1
		c-4.5,0.2-8.1,0.2-11.6,0.6c-27.4,3.2-51.8,18-58.9,45c-2.1,8.1-2.9,16.8-2.2,25.1c1.6,20.5,11.5,37.3,31.8,47.7
		c26.2,13.3,53.1,13.4,79.2,0C758,782.7,759.6,740,745.8,716.3z M712.7,788c-20.8,10.7-41.2,10.7-62.3-0.1
		c-14.2-7.2-21.8-18.7-23.1-35.1c-0.5-6.9,0.1-13.9,1.8-20.4c6.9-26,33.3-31.9,44.4-33.2c1.6-0.2,3.5-0.3,5.8-0.3
		c1.2,0,2.3-0.1,3.6-0.1c23.2,1.1,38.3,8.9,47.5,24.8C740.6,741,740.1,773.9,712.7,788z M745.8,716.3
		c-13.4-23.1-36.1-32.1-62.8-33.1c-4.5,0.2-8.1,0.2-11.6,0.6c-27.4,3.2-51.8,18-58.9,45c-2.1,8.1-2.9,16.8-2.2,25.1
		c1.6,20.5,11.5,37.3,31.8,47.7c26.2,13.3,53.1,13.4,79.2,0C758,782.7,759.6,740,745.8,716.3z M712.7,788
		c-20.8,10.7-41.2,10.7-62.3-0.1c-14.2-7.2-21.8-18.7-23.1-35.1c-0.5-6.9,0.1-13.9,1.8-20.4c6.9-26,33.3-31.9,44.4-33.2
		c1.6-0.2,3.5-0.3,5.8-0.3c1.2,0,2.3-0.1,3.6-0.1c23.2,1.1,38.3,8.9,47.5,24.8C740.6,741,740.1,773.9,712.7,788z M745.8,716.3
		c-13.4-23.1-36.1-32.1-62.8-33.1c-4.5,0.2-8.1,0.2-11.6,0.6c-27.4,3.2-51.8,18-58.9,45c-2.1,8.1-2.9,16.8-2.2,25.1
		c1.6,20.5,11.5,37.3,31.8,47.7c26.2,13.3,53.1,13.4,79.2,0C758,782.7,759.6,740,745.8,716.3z M712.7,788
		c-20.8,10.7-41.2,10.7-62.3-0.1c-14.2-7.2-21.8-18.7-23.1-35.1c-0.5-6.9,0.1-13.9,1.8-20.4c6.9-26,33.3-31.9,44.4-33.2
		c1.6-0.2,3.5-0.3,5.8-0.3c1.2,0,2.3-0.1,3.6-0.1c23.2,1.1,38.3,8.9,47.5,24.8C740.6,741,740.1,773.9,712.7,788z M745.8,716.3
		c-13.4-23.1-36.1-32.1-62.8-33.1c-4.5,0.2-8.1,0.2-11.6,0.6c-27.4,3.2-51.8,18-58.9,45c-2.1,8.1-2.9,16.8-2.2,25.1
		c1.6,20.5,11.5,37.3,31.8,47.7c26.2,13.3,53.1,13.4,79.2,0C758,782.7,759.6,740,745.8,716.3z M712.7,788
		c-20.8,10.7-41.2,10.7-62.3-0.1c-14.2-7.2-21.8-18.7-23.1-35.1c-0.5-6.9,0.1-13.9,1.8-20.4c6.9-26,33.3-31.9,44.4-33.2
		c1.6-0.2,3.5-0.3,5.8-0.3c1.2,0,2.3-0.1,3.6-0.1c23.2,1.1,38.3,8.9,47.5,24.8C740.6,741,740.1,773.9,712.7,788z M745.8,716.3
		c-13.4-23.1-36.1-32.1-62.8-33.1c-4.5,0.2-8.1,0.2-11.6,0.6c-27.4,3.2-51.8,18-58.9,45c-2.1,8.1-2.9,16.8-2.2,25.1
		c1.6,20.5,11.5,37.3,31.8,47.7c26.2,13.3,53.1,13.4,79.2,0C758,782.7,759.6,740,745.8,716.3z M712.7,788
		c-20.8,10.7-41.2,10.7-62.3-0.1c-14.2-7.2-21.8-18.7-23.1-35.1c-0.5-6.9,0.1-13.9,1.8-20.4c6.9-26,33.3-31.9,44.4-33.2
		c1.6-0.2,3.5-0.3,5.8-0.3c1.2,0,2.3-0.1,3.6-0.1c23.2,1.1,38.3,8.9,47.5,24.8C740.6,741,740.1,773.9,712.7,788z M745.8,716.3
		c-13.4-23.1-36.1-32.1-62.8-33.1c-4.5,0.2-8.1,0.2-11.6,0.6c-27.4,3.2-51.8,18-58.9,45c-2.1,8.1-2.9,16.8-2.2,25.1
		c1.6,20.5,11.5,37.3,31.8,47.7c26.2,13.3,53.1,13.4,79.2,0C758,782.7,759.6,740,745.8,716.3z M712.7,788
		c-20.8,10.7-41.2,10.7-62.3-0.1c-14.2-7.2-21.8-18.7-23.1-35.1c-0.5-6.9,0.1-13.9,1.8-20.4c6.9-26,33.3-31.9,44.4-33.2
		c1.6-0.2,3.5-0.3,5.8-0.3c1.2,0,2.3-0.1,3.6-0.1c23.2,1.1,38.3,8.9,47.5,24.8C740.6,741,740.1,773.9,712.7,788z M745.8,716.3
		c-13.4-23.1-36.1-32.1-62.8-33.1c-4.5,0.2-8.1,0.2-11.6,0.6c-27.4,3.2-51.8,18-58.9,45c-2.1,8.1-2.9,16.8-2.2,25.1
		c1.6,20.5,11.5,37.3,31.8,47.7c26.2,13.3,53.1,13.4,79.2,0C758,782.7,759.6,740,745.8,716.3z M712.7,788
		c-20.8,10.7-41.2,10.7-62.3-0.1c-14.2-7.2-21.8-18.7-23.1-35.1c-0.5-6.9,0.1-13.9,1.8-20.4c6.9-26,33.3-31.9,44.4-33.2
		c1.6-0.2,3.5-0.3,5.8-0.3c1.2,0,2.3-0.1,3.6-0.1c23.2,1.1,38.3,8.9,47.5,24.8C740.6,741,740.1,773.9,712.7,788z M745.8,716.3
		c-13.4-23.1-36.1-32.1-62.8-33.1c-4.5,0.2-8.1,0.2-11.6,0.6c-27.4,3.2-51.8,18-58.9,45c-2.1,8.1-2.9,16.8-2.2,25.1
		c1.6,20.5,11.5,37.3,31.8,47.7c26.2,13.3,53.1,13.4,79.2,0C758,782.7,759.6,740,745.8,716.3z M712.7,788
		c-20.8,10.7-41.2,10.7-62.3-0.1c-14.2-7.2-21.8-18.7-23.1-35.1c-0.5-6.9,0.1-13.9,1.8-20.4c6.9-26,33.3-31.9,44.4-33.2
		c1.6-0.2,3.5-0.3,5.8-0.3c1.2,0,2.3-0.1,3.6-0.1c23.2,1.1,38.3,8.9,47.5,24.8C740.6,741,740.1,773.9,712.7,788z M745.8,716.3
		c-13.4-23.1-36.1-32.1-62.8-33.1c-4.5,0.2-8.1,0.2-11.6,0.6c-27.4,3.2-51.8,18-58.9,45c-2.1,8.1-2.9,16.8-2.2,25.1
		c1.6,20.5,11.5,37.3,31.8,47.7c26.2,13.3,53.1,13.4,79.2,0C758,782.7,759.6,740,745.8,716.3z M712.7,788
		c-20.8,10.7-41.2,10.7-62.3-0.1c-14.2-7.2-21.8-18.7-23.1-35.1c-0.5-6.9,0.1-13.9,1.8-20.4c6.9-26,33.3-31.9,44.4-33.2
		c1.6-0.2,3.5-0.3,5.8-0.3c1.2,0,2.3-0.1,3.6-0.1c23.2,1.1,38.3,8.9,47.5,24.8C740.6,741,740.1,773.9,712.7,788z M745.8,716.3
		c-13.4-23.1-36.1-32.1-62.8-33.1c-4.5,0.2-8.1,0.2-11.6,0.6c-27.4,3.2-51.8,18-58.9,45c-2.1,8.1-2.9,16.8-2.2,25.1
		c1.6,20.5,11.5,37.3,31.8,47.7c26.2,13.3,53.1,13.4,79.2,0C758,782.7,759.6,740,745.8,716.3z M712.7,788
		c-20.8,10.7-41.2,10.7-62.3-0.1c-14.2-7.2-21.8-18.7-23.1-35.1c-0.5-6.9,0.1-13.9,1.8-20.4c6.9-26,33.3-31.9,44.4-33.2
		c1.6-0.2,3.5-0.3,5.8-0.3c1.2,0,2.3-0.1,3.6-0.1c23.2,1.1,38.3,8.9,47.5,24.8C740.6,741,740.1,773.9,712.7,788z M745.8,716.3
		c-13.4-23.1-36.1-32.1-62.8-33.1c-4.5,0.2-8.1,0.2-11.6,0.6c-27.4,3.2-51.8,18-58.9,45c-2.1,8.1-2.9,16.8-2.2,25.1
		c1.6,20.5,11.5,37.3,31.8,47.7c26.2,13.3,53.1,13.4,79.2,0C758,782.7,759.6,740,745.8,716.3z M712.7,788
		c-20.8,10.7-41.2,10.7-62.3-0.1c-14.2-7.2-21.8-18.7-23.1-35.1c-0.5-6.9,0.1-13.9,1.8-20.4c6.9-26,33.3-31.9,44.4-33.2
		c1.6-0.2,3.5-0.3,5.8-0.3c1.2,0,2.3-0.1,3.6-0.1c23.2,1.1,38.3,8.9,47.5,24.8C740.6,741,740.1,773.9,712.7,788z M745.8,716.3
		c-13.4-23.1-36.1-32.1-62.8-33.1c-4.5,0.2-8.1,0.2-11.6,0.6c-27.4,3.2-51.8,18-58.9,45c-2.1,8.1-2.9,16.8-2.2,25.1
		c1.6,20.5,11.5,37.3,31.8,47.7c26.2,13.3,53.1,13.4,79.2,0C758,782.7,759.6,740,745.8,716.3z M712.7,788
		c-20.8,10.7-41.2,10.7-62.3-0.1c-14.2-7.2-21.8-18.7-23.1-35.1c-0.5-6.9,0.1-13.9,1.8-20.4c6.9-26,33.3-31.9,44.4-33.2
		c1.6-0.2,3.5-0.3,5.8-0.3c1.2,0,2.3-0.1,3.6-0.1c23.2,1.1,38.3,8.9,47.5,24.8C740.6,741,740.1,773.9,712.7,788z"/>
</g>
</svg>
