<?xml version="1.0" encoding="utf-8"?>
<!-- Generator: Adobe Illustrator 24.0.2, SVG Export Plug-In . SVG Version: 6.00 Build 0)  -->
<svg version="1.1" id="Layer_1" xmlns="http://www.w3.org/2000/svg" xmlns:xlink="http://www.w3.org/1999/xlink" x="0px" y="0px"
	 viewBox="0 0 1000 1000" style="enable-background:new 0 0 1000 1000;" xml:space="preserve">
<style type="text/css">
	.st0{stroke:#000000;stroke-miterlimit:10;}
	.st1{fill:none;stroke:#000000;stroke-miterlimit:10;}
</style>
<g>
	<g>
		<path d="M822.7,116.5H178.7c-33.2,0-51.9,14.1-61.2,45.9c-0.2,0.7-0.6,1.3-1,2v533.2c0.1,0.2,0.2,0.5,0.2,0.7
			c6.8,30.9,31.3,48.2,66.3,47.6c71.3-1.2,142.7-0.4,214-0.4h9.2c3.4,18.6,1.1,35.8-7.2,51.9c-7,13.5-14.6,26.6-22,39.9
			c-12.3,22-9.3,33.4,12.1,46h221.7c4-2.8,8.5-5.1,11.9-8.5c8.4-8.6,9.7-20.1,3.7-31.1c-7.7-14.2-15.8-28.3-23.7-42.5
			c-9.6-17.1-12.7-35.4-9.3-55.8h8.9c73.4,0,146.8,0,220.2,0c37.5,0,60.9-23.3,60.9-60.6V177.3C883.5,139.9,860.1,116.5,822.7,116.5
			z M605.9,852.9c3.4,6.1,2.2,8-4.8,8c-67.3,0.1-134.6,0.1-202,0c-7.4,0-8.3-1.9-4.6-8.6c6.4-11.6,12.6-23.2,19.4-34.5
			c12.4-21,18.5-43.4,15.9-67.9c-0.1-1.2,0-2.4,0-3.9h139.7c0.5,10.9-0.4,21.9,1.9,32.1c2.9,12.4,7.7,24.6,13.2,36.3
			C590.8,827.6,598.8,840,605.9,852.9z M861.4,667.8c0,0.1,0,0.3,0,0.4c0,1-0.1,1.9-0.1,2.9c-0.3,9.1,0,17.9-1.6,26.2
			c-2.9,15.2-16.2,25.3-31.7,25.9c-1.5,0.1-3,0-4.5,0h-17.6c-204.2,0-408.5,0-612.7,0h-16.6c-20.1,0-34.7-10.9-37-28.7
			c-0.7-5.6-0.6-11.3-0.4-17.2c-0.6-3.1-0.8-6.3-0.8-9.6V206.4c0.4-6.8,0.5-13.5,0.7-20.2c0.3-8.2,0.7-16.4,2.3-24.3
			c2.7-14.2,16.8-22.8,32.3-22.9c32.9-0.1,65.9,0,98.8,0h129.9v0.4h36.5c2.9-0.5,6.3-0.6,10.3-0.6c35.7,0.7,71.4,0.2,107.1,0.2
			c2.1,0,4,0.1,5.7,0.4h35.6c0-0.1,0-0.2,0-0.4h6.6c72.9,0,145.8,0,218.7,0c25,0,38.2,13.3,38.2,38.5V188c0.3,2.3,0.4,4.6,0.4,6.9
			L861.4,667.8L861.4,667.8z"/>
	</g>
	<g>
		<path d="M229,516.3c0.3-4.9,0.8-9.7,1.7-14.5C229.8,506.6,229.2,511.4,229,516.3z M346.9,405.7c11.4,0.1,22.4,1.8,32.7,5
			C368.9,407.2,357.9,405.6,346.9,405.7z"/>
		<path d="M722.8,523.2c-5.4-0.1-10.8,0-16.7,0v-6.6c0-21.4,0-42.8,0-64.1c0-11.8-7.5-19.2-19.4-19.3c-4.7,0-9.4,0-14.1,0
			c-13.5,0-20.5,7-20.5,20.4c0,21.2,0,42.4,0,63.6v5.8h-9V401.7c0-16.4-6.3-22.6-22.9-22.6H610c-14.2,0-21,6.8-21,21v122.8h-9v-6.5
			c0-30.4,0-60.8,0-91.2c0-11.5-7.5-19-19-19.1c-4.9-0.1-9.7,0-14.6,0c-13.4,0-20.4,7.1-20.4,20.5c0,30,0,60,0,90v6.1
			c-7.1-1.2-9-3.6-9-11.4c0-46.5,0-93,0-139.6c0-6.7-3.4-10.7-8.9-10.8c-5.5-0.1-9.1,3.9-9.1,10.5c0,47.5-0.1,94.9,0,142.4
			c0,15.4,11.7,27.1,27.2,27.1c65.5,0.1,131,0.1,196.4,0c6.5,0,10.6-3.7,10.5-9.2C732.9,526.8,729,523.3,722.8,523.2z M561.6,522.9
			h-17.3v-98.3h17.3V522.9z M624.6,522.9h-17.3V397.6h17.3V522.9z M687.7,522.8h-17.1v-71.5h17.1V522.8z"/>
		<path d="M674.3,262.1c-12.8,0-25.5,0-38.3,0c-7,0-11.1-3.6-11-9.3c0.2-5.4,4.2-8.7,10.9-8.7c25.7,0,51.4,0,77.1,0
			c6.9,0,11.1,3.6,11,9.2c-0.2,5.4-4.2,8.7-10.9,8.7C700.2,262.1,687.2,262.1,674.3,262.1z"/>
		<path d="M674.2,298.1c-12.8,0-25.5,0-38.3,0c-6.7,0-10.7-3.4-10.9-8.8c-0.1-5.6,4-9.2,11-9.2c25.7,0,51.4,0,77.1,0
			c6.7,0,10.7,3.4,10.9,8.8c0.1,5.6-4,9.2-11,9.2C700.1,298.1,687.2,298.1,674.2,298.1z"/>
		<path d="M674.6,334.1c-12.8,0-25.5,0-38.3,0c-7.1,0-11.2-3.4-11.2-9s4.1-9,11.2-9c25.5,0,51,0,76.5,0c7.1,0,11.2,3.4,11.2,9
			c0,5.6-4.1,9-11.2,9C700.1,334.1,687.3,334.1,674.6,334.1z"/>
		<path d="M616,253.3c-0.1,4.8-4.2,8.8-9,8.8c-5.1-0.1-9.2-4.4-8.9-9.5c0.3-4.8,4.5-8.7,9.3-8.5C612.2,244.3,616.1,248.4,616,253.3z
			"/>
		<path d="M616,289.3c-0.1,4.8-4.3,8.8-9.1,8.7c-5.1-0.1-9.1-4.5-8.9-9.5c0.3-4.8,4.5-8.7,9.3-8.4
			C612.2,280.3,616.1,284.5,616,289.3z"/>
		<path d="M606.9,316.1c4.8,0,8.9,3.9,9,8.8c0.1,4.8-3.8,9-8.6,9.2c-5,0.2-9.3-4-9.3-9C598.1,320.2,602.1,316.2,606.9,316.1z"/>
	</g>
	<path d="M805.9,723.2h-612c-0.2,0-0.5,0-0.7,0C397.4,723.2,601.6,723.2,805.9,723.2z"/>
	<path d="M438.9,451.9c-6-7.4-13.2-14.5-21.7-21c-12.2-9.5-24.8-16.1-37.6-20.2c-10.4-3.2-21.4-4.9-32.7-5c-0.4,0-0.7,0-1.1,0
		c-23.2,0-44.7,6.7-62.9,18.4c0,0-0.1,0-0.1,0c-7.1,4.6-13.7,9.9-19.7,15.9c0,0,0,0,0,0c-0.4,0.8-1,1.5-1.5,2.1
		c-13.4,14.5-22.7,30.3-27.9,47.3c-0.4,1.3-0.8,2.7-1.1,4c-0.5,1.9-0.9,3.8-1.3,5.7c-0.2,0.9-0.4,1.9-0.6,2.8
		c-0.8,4.7-1.4,9.6-1.7,14.5c-0.1,2-0.2,4-0.2,6v0.3c0,1.4,0,2.8,0.1,4.2c0,0.1,0,0.1,0,0.2c0.1,1.5,0.2,3,0.3,4.5
		c0.1,1.2,0.2,2.4,0.3,3.5c0.1,0.8,0.2,1.6,0.3,2.5c7.3,57.6,56.5,102.1,116,102.1c64.6,0,117-52.4,117-117
		C462.7,496,453.9,471.5,438.9,451.9z M355.2,425.4C393,426,440.1,460.9,444,514h-88.8V425.4z M255.1,561.6
		c-26.7-57.1,12.6-131,81.7-136.6v5.5c0,27.4-0.1,54.7,0.1,82.1c0,3.9-1.2,5.9-4.6,7.8c-24.3,12.9-48.5,26-72.7,39
		C258.1,560.2,256.6,560.9,255.1,561.6z M376.5,617.4c-41.9,13.8-91.3-3.4-112.9-39.7c27.8-15,55.4-29.8,82.9-44.6
		c0.9-0.5,2.1-0.9,3.2-0.9c31.3-0.1,62.6,0,93.8,0C446.6,563.8,414.1,605,376.5,617.4z"/>
	<path d="M261.5,442.1c-13.4,14.5-22.7,30.3-27.9,47.3c5.6-18.9,15.8-35.8,29.4-49.4C262.6,440.7,262.1,441.5,261.5,442.1z"/>
	<path d="M417.2,430.9c-12.2-9.5-24.8-16.1-37.6-20.2c23.9,7.2,44.6,21.8,59.3,41.3C432.9,444.4,425.7,437.4,417.2,430.9z"/>
	<path d="M569.9,268.6c-3.6-16.7-20.5-27.4-37.1-23.7c-17.5,3.9-28.2,20.5-23.9,37.8c0.9,3.7,0.1,5.6-2.7,7.9
		c-15,12.1-29.9,24.5-44.7,36.9c-2.5,2.1-4.3,2.5-7.4,1c-9.5-4.8-19.1-4.3-28.7,0.3c-1.5,0.7-4.2,1.1-5.3,0.2
		c-11.5-8.7-22.7-17.7-34.3-26.9c3.9-7.8,6.2-15.8,4.2-24.4c-4.2-17.6-21.3-28.1-38.6-23.6c-17.3,4.5-27.5,22.3-22.1,39.5
		c1.3,4,0.3,6-2.5,8.4c-12.7,11.1-25.3,22.4-37.9,33.5c-1.1,1-2.6,1.6-4,2.3c-0.2,0.1-0.4,0.2-0.6,0.3c-0.1-0.3-0.2-0.5-0.3-0.8
		c-4.4-2.2-9.3-3.5-14.5-3.5c-2.1,0-4.2,0.2-6.3,0.6c-0.6,0.5-1.4,0.8-2.5,1.1c-6.8,1.8-12.5,5.7-16.5,10.8
		c-0.3,0.4-0.5,0.7-0.8,1.1c-0.3,0.4-0.5,0.7-0.8,1.1c-0.7,1.1-1.3,2.2-1.9,3.4c-0.4,0.9-0.8,1.8-1.1,2.7c-0.2,0.5-0.4,1-0.5,1.5
		c-0.2,0.7-0.4,1.5-0.6,2.3s-0.3,1.6-0.4,2.3c-0.2,1.1-0.3,2.1-0.3,3.2c0,0.5,0,1,0,1.4v0.2c0,0.6,0,1.1,0,1.6
		c0,0.5,0.1,1.1,0.1,1.6c0,0.6,0.1,1.1,0.2,1.6c0.1,0.8,0.3,1.6,0.4,2.3c0.2,0.8,0.4,1.5,0.6,2.3c0.2,0.5,0.3,1,0.5,1.5
		c0.2,0.5,0.4,1,0.6,1.4c0.4,0.8,0.7,1.6,1.1,2.3c0.1,0.2,0.2,0.4,0.4,0.6c0.2,0.3,0.4,0.6,0.6,0.9c0.4,0.6,0.7,1.2,1.1,1.7
		c4.6,6.7,11.6,11.5,19.8,13.2h0c2.1,0.4,4.2,0.6,6.4,0.6c5.4,0,10.6-1.4,15-3.8c10-5.4,16.7-15.9,16.7-28c0-4.2-0.8-8.3-2.3-11.9
		c0.1-1.6,0.7-3.3,1.6-4.1c13.2-12,26.5-23.9,40-35.5c1.3-1.1,4.1-1.5,5.6-0.8c7.2,2.9,14.4,3.5,22,1.7c1.9-0.4,4.8,0.2,6.4,1.4
		c11.2,8.5,22.1,17.4,33.2,26c2.5,1.9,3,3.5,2.2,6.5c-3.3,13.6,1.7,26.5,12.8,34c10.9,7.2,24.7,7.1,35.4-0.3
		c10.9-7.5,15.6-20.7,12.5-34.2c-0.4-1.7-0.1-4.7,1-5.7c16.3-13.8,32.8-27.3,49.4-41.1c7.7,4.3,15.5,6.7,24.3,4.8
		C563,302.5,573.7,286.1,569.9,268.6z M269.3,379.1c-7.4,0-13.6-6.2-13.5-13.6c0-7.2,5.9-13.2,13.1-13.4c7.4-0.2,13.7,5.9,13.8,13.3
		C282.8,372.8,276.7,379.1,269.3,379.1z M359.5,298c-7.4,0.1-13.7-6-13.7-13.4c0-7.4,6.2-13.6,13.6-13.5c7.2,0,13.2,6,13.4,13.1
		C373,291.6,366.9,298,359.5,298z M440.6,370.1c-7.4,0.2-13.7-5.9-13.7-13.3c-0.1-7.4,6.1-13.6,13.5-13.6c7.4,0,13.5,6.2,13.5,13.6
		C453.8,363.9,447.8,370,440.6,370.1z M539.1,289c-7.4-0.2-13.4-6.6-13.1-14c0.3-7.2,6.4-13,13.5-13c7.4,0,13.5,6.3,13.4,13.7
		C552.8,283.2,546.5,289.2,539.1,289z"/>
	<path d="M263.2,334.4c-0.6,0.5-1.4,0.8-2.5,1.1c-6.8,1.8-12.5,5.7-16.5,10.8C248.8,340.3,255.5,336,263.2,334.4z"/>
	<path d="M284.9,337.8c-0.2,0.1-0.4,0.2-0.6,0.3c-0.1-0.3-0.2-0.5-0.3-0.8C284.3,337.5,284.6,337.6,284.9,337.8z"/>
</g>
</svg>
