<?xml version="1.0" encoding="utf-8"?>
<!-- Generator: Adobe Illustrator 24.0.2, SVG Export Plug-In . SVG Version: 6.00 Build 0)  -->
<svg version="1.1" id="Layer_1" xmlns="http://www.w3.org/2000/svg" xmlns:xlink="http://www.w3.org/1999/xlink" x="0px" y="0px"
	 viewBox="0 0 1000 1000" style="enable-background:new 0 0 1000 1000;" xml:space="preserve">
<style type="text/css">
	.st0{stroke:#000000;stroke-miterlimit:10;}
	.st1{fill:none;stroke:#000000;stroke-miterlimit:10;}
</style>
<g>
	<path d="M830.9,134.2c1,0.5,2,1.2,3.1,1.5c18.5,6.3,28.9,20.5,29,40.1c0.1,45.5,0,91,0,136.5c0,115.1,0,230.2,0,345.3
		c0,11.3-3.3,16.5-10.6,16.8c-7.6,0.3-11.3-5.2-11.3-16.8c0-134.3,0-268.6,0-402.9c0-2.9,0-5.8,0-9.3c-234.6,0-468.7,0-703.9,0
		c0,2.4,0,5,0,7.6c0,28.5-0.1,56.9,0.1,85.4c0,6.3-0.8,11.9-7.5,14.3c-6.8,2.4-11-1.5-14.5-6.7c0-59.9,0-119.7,0-179.6
		c5.2-16.2,15.8-27,32.1-32.1C375.2,134.2,603.1,134.2,830.9,134.2z M137.3,222.2c235,0,469.2,0,703.8,0c0-14.1,0-27.8,0-41.4
		c0-18.9-5.8-24.7-24.8-24.7c-218,0-436,0-654.1,0c-2.7,0-5.4-0.1-8,0.1c-9.3,0.9-16.5,7.7-16.8,17.1
		C137,189.4,137.3,205.5,137.3,222.2z"/>
	<path d="M115.3,389.8c3.6-5,7.8-9,14.6-6.5c6.7,2.5,7.4,8.1,7.4,14.3c-0.1,145.3,0,290.6,0,435.8c0,1.7,0,3.4,0,5.1
		c0.1,14.5,7,21.5,21.5,21.5c71.5,0,143.1,0,214.6,0c148,0,295.9,0,443.9,0c17.8,0,23.9-6.2,23.9-24.2c0-38.4,0-76.9,0-115.3
		c0-2.4-0.2-4.9,0.2-7.3c1.2-5.7,4.8-9.1,10.6-9.2c5.8,0,9.5,3.3,10.8,9c0.4,1.9,0.2,3.9,0.2,5.8c0,39.9,0,79.8,0,119.7
		c0,26.7-16.6,43.3-43.2,43.4c-220.5,0-440.9,0-661.4,0.1c-22.7,0-35.9-11.8-43.1-32.2C115.3,696.5,115.3,543.1,115.3,389.8z"/>
	<path d="M237.7,393c-26.8,12.7-50.3-1.5-57.8-20.8c-6.5-16.5-1.1-35.7,13-46.6c14.3-11.1,33.7-11.4,48.3-0.9
		c14.7,10.6,20.8,29,14.5,45.9c-2,5.4-1.4,8.5,2.8,12.5c15.8,15.2,31.2,30.7,46.5,46.5c4.1,4.2,8.2,6.3,14,5.6c2.6-0.3,5.4-0.4,8,0
		c21.6,3.7,37.9-4.2,52.3-20.4c12.2-13.7,26.8-25.3,41.6-39c-6.9-6.4-13.4-12.2-19.6-18.3c-8.9-8.7-8.7-13.9,0.4-22.5
		c70.1-65.5,186.3-32.1,211.5,61c3.3,12.3,4.3,25.3,6.5,38.9c14.8,0,30.5,0.1,46.2-0.2c1.8,0,3.8-1.9,5.3-3.4
		c16.6-16.5,32.9-33.2,49.7-49.4c3.7-3.6,3.5-6.4,1.9-10.7c-7.9-21.4,3.2-44.6,24.6-52c21.4-7.4,44.5,4.1,51.6,25.6
		c7.1,21.5-4.8,44.4-26.5,51.2c-10.8,3.4-21.1,1.9-31.8-3.2c-9.3,9.3-18.7,18.8-28.2,28.2c-10,10-19.6,20.3-30.1,29.8
		c-3.6,3.2-9.2,5.6-14,5.8c-16.5,0.7-33,0.3-49.9,0.3c0,31.2,0,61.7,0,92.8c2,0.2,3.9,0.5,5.8,0.5c30.4,0,60.8,0,91.3,0.1
		c4.2,0,6.3-1,8.1-5.2c8-18.2,26.6-27.6,45.4-23.7c18.3,3.9,31.8,20.4,32.1,39.3c0.3,19.1-13,35.6-32.1,39.9
		c-18.4,4.2-37-5.5-45.6-23.5c-1-2-3.3-4.8-5.1-4.8c-33.1-0.3-66.1-0.2-99.7-0.2c0,31,0,61.5,0,93.1c9.8,0,19.6,1.1,29.1-0.2
		c21-3,36.5,4.2,50,20.6c11.7,14.2,26,26.3,38.9,39.5c3,3,5.2,3.6,9.4,2c22.9-8.7,47.4,3.7,53.7,26.8c6.1,22.2-8.2,45.7-30.5,50.3
		c-23.9,4.9-46.6-11.5-48.7-36.1c-0.5-6.3,2.1-12.8,2.8-19.3c0.3-2.4,0-5.8-1.5-7.3c-16.8-17.2-33.9-34.2-51.1-51.2
		c-1.6-1.5-4-2.8-6.2-3c-5.3-0.4-10.6-0.1-16.8-0.1c0,6.7-0.3,13,0.2,19.1c0.1,1.5,2.3,3.6,3.9,4.2c12.6,4.8,18,14.1,18,27.1
		c0,12.9,0.1,25.8,0,38.7c-0.1,10-3.8,13.9-13.7,13.9c-101.5,0.1-203,0.1-304.5,0c-10.1,0-13.5-3.6-13.7-13.7
		c-0.1-11.2,0.4-22.4-0.2-33.6c-0.9-16.8,4.4-29.2,22.1-33.6c0-7.2,0-14,0-22.1c-7.1,0-14.4,0.9-21.4-0.2
		c-20.1-3-35.2,3.6-47.9,19.6c-9.3,11.8-20.9,21.7-31.8,32.1c-4.2,4-5.5,7.1-3.2,13c6.3,16.5,0.2,34.8-14.1,45.4
		c-14,10.4-33.8,10.4-47.7,0.1c-14.5-10.7-20.3-29.4-14.3-46.2c5.9-16.6,22-27.6,39.4-26.9c3.8,0.2,8.1,0.5,11.3,2.2
		c6,3.2,9.5,0.8,13.6-3.4c17-17.4,34.5-34.4,51.5-51.8c4.3-4.3,8.8-6.2,14.8-6.1c23.6,0.2,47.2,0.1,70.8,0.1c2.6,0,5.2,0,8.6,0
		c0-16.3,0.3-31.8-0.1-47.3c-0.4-15.9,1.9-30.9,10.7-45.5c-3.2-0.2-5.5-0.4-7.8-0.4c-43.8,0-87.6,0-131.4-0.1
		c-4.7,0-7.6,0.7-9.9,5.9c-7.6,17.4-26.6,26.7-44.4,22.8c-19.2-4.2-32.5-20.4-32.6-39.6c-0.1-18.7,13.3-35.5,31.7-39.6
		c18.4-4.2,37.4,4.9,45.3,22.5c2.2,4.8,4.6,6.3,9.7,6.2c51.8-0.2,103.7,0,155.5-0.3c3.8,0,8.1-1.6,11.2-3.8
		c16.3-11.7,22.7-27.8,20.6-48.8c-8.9,2.4-17.4,4.6-25.9,6.9c-15,4-30.1,7.9-45.1,12c-7.2,2-12.5,0.3-17-6
		c-8.4-11.9-17.4-23.4-26.2-35.1c-5.6-7.5-5.8-9-2.4-18.3c-7.5,0-14.6-0.3-21.7,0.1c-5.8,0.3-10.1-1.8-14.2-5.9
		C276.6,431.8,257.2,412.6,237.7,393z M421.4,347.4c6.7,6.4,13.1,12.3,19.3,18.5c8.7,8.6,8.6,13.6-0.4,21.9
		c-15.6,14.3-31.1,28.7-46.7,43c-12.8,11.8-25.6,23.7-38.7,35.8c6,8,11.8,15.5,17.3,23.2c2.3,3.3,4.7,4.1,8.6,2.9
		c12.6-3.6,25.3-6.8,38-10.3c22.3-6.3,44.1-13.9,68-4.5c12.1,4.8,27-2.5,33-14.2c3.5-6.8,4.4-15.1,5.5-22.9
		c1-6.8,4.6-11.5,10.7-11.6s10.6,4.3,11.4,11c3.9,36.4-29.1,66.6-64.8,59.5c-3.7-0.7-7.5-1.4-11.5-2.1c-0.5,7.5-0.5,14.3-1.6,21
		c-3.7,22-16.7,37.8-34.8,50c-16.2,11-23.8,26.3-23.1,46c0.4,10.2,0.1,20.4,0.1,30.7c0,6.5,0,13,0,19.6c61.9,0,122.8,0,184,0
		c0.2-2.2,0.4-3.8,0.4-5.5c0-75.7,0-151.4,0-227c0-18.1-4.1-35.1-12.3-51.3C553.3,321.1,472.5,303.7,421.4,347.4z M360.1,767.9
		c96.2,0,191.7,0,287.8,0c0-10-0.2-19.4,0.1-28.8c0.2-5.6-1.8-7.8-7.6-7.7c-16.5,0.3-33.1,0.1-49.6,0.1c-8.9,0-14.1-4.3-13.9-11.3
		c0.2-6.7,5.1-10.6,13.8-10.6c11.4-0.1,22.8,0,35,0c0-4.1,0-7.4,0-10.7c0-11.4,0-11.4-11.7-11.4c-71,0-142.1-0.1-213.1,0.1
		c-21.6,0.1-18.5-4.5-18.6,19.5c0,0.7,0.4,1.3,0.9,2.5c2.6,0,5.2,0,7.8,0c46.7,0,93.4,0,140.1,0c2.4,0,4.9-0.2,7.3,0.3
		c5.3,1.2,8.6,4.7,8.9,10.2c0.2,5.8-3,9.7-8.6,11.1c-2.3,0.6-4.8,0.4-7.3,0.4c-37,0-74,0-110.9,0c-17.8,0-35.5,0-53.3,0
		c-3.6,0-7.1,0-7.1,5C360.1,746.8,360.1,757.2,360.1,767.9z M214.1,579.6c10.2,0.4,18.8-7.7,19.2-17.9c0.4-9.8-7.6-18.3-17.5-18.8
		c-10.5-0.5-18.9,7-19.5,17.4C195.8,570.5,203.9,579.2,214.1,579.6z M779,561.2c0-10.4-8.1-18.4-18.6-18.3c-10,0.1-18.1,8-18.3,17.9
		c-0.2,10,8.2,18.7,18.3,18.8C770.6,579.7,778.9,571.5,779,561.2z M779,357.9c0.2-10.2-8.1-18.7-18.3-18.9
		c-10-0.1-18.7,8.5-18.7,18.5c0,9.7,8.2,18.2,18,18.5C770.1,376.5,778.8,368.1,779,357.9z M217.5,783.1c10.3,0.1,18.7-8.2,18.7-18.3
		c0-10-8.7-18.6-18.7-18.5c-9.8,0.1-18.1,8.3-18.3,18.1C199.1,774.7,207.2,783,217.5,783.1z M760.3,783.1
		c10.4,0.1,18.6-7.9,18.7-18.3c0-10.1-8.5-18.6-18.6-18.5c-9.7,0.1-18.1,8.3-18.4,18.1C741.8,774.4,750.1,782.9,760.3,783.1z
		 M199.3,357.3c-0.1,10.2,8.2,18.7,18.3,18.8c10,0.1,18.7-8.7,18.6-18.6c-0.1-9.8-8.3-18.1-18.1-18.4
		C208.1,338.7,199.4,347.1,199.3,357.3z"/>
	<path d="M172.1,189.2c0.1-8.4,6.6-14.5,15-14.3c8,0.2,14.2,6.5,14.3,14.4c0,8.1-6.7,14.9-14.8,14.9
		C178.5,204.1,172,197.4,172.1,189.2z"/>
	<path d="M293.1,189.6c-0.1-8.4,6.1-14.8,14.5-14.8c8.3,0,14.9,6.6,14.8,14.7c-0.1,7.7-6.7,14.4-14.4,14.6
		C299.9,204.4,293.2,197.9,293.1,189.6z"/>
	<path d="M261.8,189.8c-0.2,8.2-7,14.7-15.1,14.4c-7.8-0.3-14.2-7-14.2-14.7c0-8.1,6.7-14.6,15-14.6
		C255.7,174.9,262,181.4,261.8,189.8z"/>
</g>
<rect x="115.3" y="307.6" width="22" height="108.2"/>
<rect x="841" y="630.5" width="22" height="108.2"/>
</svg>
