<?xml version="1.0" encoding="utf-8"?>
<!-- Generator: Adobe Illustrator 24.0.2, SVG Export Plug-In . SVG Version: 6.00 Build 0)  -->
<svg version="1.1" id="Layer_1" xmlns="http://www.w3.org/2000/svg" xmlns:xlink="http://www.w3.org/1999/xlink" x="0px" y="0px"
	 viewBox="0 0 1000 1000" style="enable-background:new 0 0 1000 1000;" xml:space="preserve">
<style type="text/css">
	.st0{stroke:#000000;stroke-miterlimit:10;}
	.st1{fill:none;stroke:#000000;stroke-miterlimit:10;}
</style>
<g>
	<path d="M823.5,706.2c21.4,14.6,42.8,29.2,64.2,43.8c3.8,2.6,7.7,5,11.4,7.8c8.2,6.1,11.5,14.3,9,24.2s-9.9,14-19.6,15
		c-30.6,3-61.1,6.6-91.7,8.9c-12.1,0.9-20.4,4.3-27.3,15.4c-16.4,26.3-34.6,51.5-52,77.2c-5.4,7.9-12.1,12.9-22.2,10.8
		c-9.8-2.1-16.4-10-17.5-21.3c-5.7-56.1-11.4-112.3-17.1-168.4c-0.5-4.9-1.2-9.7-2-15.4c-26.6,0-52.6,0-78.6,0
		c-160.9,0-321.7,0.1-482.6,0c-22.7,0-36.2-13.5-36.2-36.2c-0.1-165.9-0.1-331.9,0-497.8c0-22,14-35.5,37-35.5
		c58.6-0.1,117.2-0.1,175.8-0.1c192.4,0,384.8,0,577.3,0.1c7,0,14.2,0.1,21,1.7c14.1,3.2,23,14.2,24.2,28.5
		c0.4,4.6,0.3,9.2,0.3,13.8c0,161.4,0,322.7,0,484.1c0,30.1-11.4,41.5-41.5,41.5c-10.4,0-20.9,0-31.3,0
		C823.9,704.8,823.7,705.5,823.5,706.2z M89.2,320.4c5.9,0,10.4,0,14.9,0c180.4,0,360.9,0,541.3,0c3.5,0,7.1,0,10.6,0.1
		c8.9,0.1,13.9,4.8,14.6,13.4c0.7,8.1-5.6,13.8-14.8,14.3c-3.5,0.2-7.1,0.1-10.6,0.1c-180.8,0-361.6,0-542.3,0c-4.1,0-8.3,0-12.9,0
		c-0.3,2.7-0.6,4.4-0.6,6.1c0,103.8,0,207.6-0.2,311.4c0,9,4.4,10.4,11.8,10.4c83.6-0.1,167.2,0.1,250.9,0.1
		c89.6,0,179.2-0.1,268.8-0.1c11.8,0,23.6,0,35.8,0c-1.5-15.4-2.7-28.7-4.1-42c-1.1-10-0.3-19.3,9.5-24.9c9.5-5.4,17.5-1.2,25.4,4.3
		c27.9,19.2,55.8,38.4,84.1,57c4.9,3.2,11.6,5.2,17.5,5.4c21.9,0.6,43.8,0.3,65.7,0.2c14.3,0,14.3-0.1,14.3-13.9c0-101,0-202,0-303
		c0-3.4-0.3-6.8-0.6-11c-4.5,0-8.4,0-12.2,0c-33.9,0-67.8,0-101.7,0c-12.1,0-18.6-4.9-18.9-13.8c-0.2-8.9,6.3-14,18.4-14
		c34.2-0.1,68.5,0,102.8,0c3.8,0,7.5,0,12.1,0c0-5.2,0-9.1,0-12.9c0-42,0.1-84,0-126.1c0-19.5,2.8-19-18.7-19
		c-248.2,0-496.4,0-744.7,0c-2.8,0-6.2-0.9-8.3,0.3c-3.1,1.7-7.6,5-7.6,7.6C89,219.8,89.2,269.2,89.2,320.4z M864.4,770.8
		c0.1-0.8,0.2-1.7,0.3-2.5c-60.5-41.1-120.9-82.2-183.4-124.7c7.6,75.7,15,148.7,22.6,224.2c3-4,4.3-5.6,5.4-7.3
		c15.4-22.8,30.9-45.5,46.2-68.4c4.8-7.2,10.5-11.6,19.7-12.1c12.7-0.7,25.3-2.6,37.9-3.9C830.3,774.4,847.4,772.6,864.4,770.8z"/>
	<path d="M491.5,521c0-21.2-0.1-42.4,0-63.5c0.1-13.4,5.2-19.3,18.2-19.2c18.6,0.2,37.8-1,55.8,2.6c42.2,8.3,68.7,45.4,65.6,88.3
		c-2.9,40-36.4,72.6-78.4,75.3c-14.8,1-29.6,0.6-44.5,0.4c-11.4-0.2-16.7-5.6-16.8-17.1C491.3,565.4,491.5,543.2,491.5,521z
		 M523.6,469.9c0,35.1,0,68.8,0,102.9c26.5,2,51.4,1.3,67.5-23.3c11.9-18.2,12-37.7,0-55.8C575,469.5,550.1,468.1,523.6,469.9z"/>
	<path d="M325.7,592.4c2.3-6.5,3.3-10.2,4.8-13.8c18.4-42.3,36.9-84.6,55.4-126.9c0.6-1.3,1.2-2.5,1.8-3.8c3.1-6.9,7.5-12.1,15.7-12
		s12.3,5.8,15.3,12.6c10,22.9,20.1,45.8,30.1,68.7c9.2,21,18.3,42,27.5,62.9c4.8,11,2.6,19.5-6.3,23.4c-9,4-17.1,0.4-22-10.1
		c-4.8-10.6-9-21.5-14.3-31.8c-1.5-2.9-6-5.9-9.2-6c-14.4-0.6-28.9-0.7-43.4,0.1c-3.5,0.2-8.2,3.5-9.8,6.6
		c-5.7,10.9-9.9,22.6-15.3,33.6c-3.4,7-10.1,11.2-17.5,8C333.4,601.7,329.6,596,325.7,592.4z M417.5,523.4
		c-4.7-10.9-9.1-21.1-14.7-33.9c-5.4,12.7-9.6,22.8-14.3,33.9C398.9,523.4,407.4,523.4,417.5,523.4z"/>
	<path d="M233,229.5c25.8,0,51.5-0.1,77.3,0c12.3,0,18.2,4.9,18,14.3c-0.2,8.9-6,13.5-17.8,13.5c-51.9,0.1-103.8,0.1-155.7,0
		c-11.5,0-17.2-4.8-17.4-13.9c-0.1-9.1,5.5-13.9,17.2-13.9C180.8,229.4,206.9,229.5,233,229.5z"/>
	<path d="M403.6,256.2c-6.7,0-13.5,0.5-20.1-0.1c-8-0.7-13.1-5.3-13-13.8c0-8.4,4.9-13.5,13-13.9c13.4-0.6,26.8-0.7,40.2,0
		c7.9,0.4,13,5.3,13,13.9c0.1,8.6-5,13.1-12.9,13.9C417.1,256.7,410.3,256.2,403.6,256.2C403.6,256.2,403.6,256.2,403.6,256.2z"/>
	<path d="M507.7,256.1c-6.3,0-12.7,0.3-19-0.1c-8.7-0.5-13.9-5.3-13.9-14c0-8.3,5.3-13.4,13.1-13.8c13.3-0.7,26.7-0.6,40,0
		c7.9,0.3,13.3,5.3,13.4,13.5c0.1,8.7-5.2,13.7-13.7,14.4C521.1,256.7,514.3,256.2,507.7,256.1C507.7,256.2,507.7,256.2,507.7,256.1
		z"/>
</g>
</svg>
