<?xml version="1.0" encoding="utf-8"?>
<!-- Generator: Adobe Illustrator 24.0.2, SVG Export Plug-In . SVG Version: 6.00 Build 0)  -->
<svg version="1.1" id="Layer_1" xmlns="http://www.w3.org/2000/svg" xmlns:xlink="http://www.w3.org/1999/xlink" x="0px" y="0px"
	 viewBox="0 0 1000 1000" style="enable-background:new 0 0 1000 1000;" xml:space="preserve">
<style type="text/css">
	.st0{stroke:#000000;stroke-miterlimit:10;}
	.st1{fill:none;stroke:#000000;stroke-miterlimit:10;}
</style>
<g>
	<path d="M811.2,273.9c-1.3,3.8-2.2,6.7-3.4,9.5c-6.5,14.8-13.3,29.5-19.5,44.5c-1.2,3-1.1,7.6,0.4,10.3
		c12.8,23.2,22.8,47.4,30.1,72.8c0.8,2.8,3.8,5.9,6.6,7.1c15,6.2,30.1,11.8,45.2,17.6c9.9,3.8,11.8,6.5,11.8,16.8
		c0,30.4-0.2,60.8,0.1,91.2c0.1,8.7-3.6,13.6-11.5,16.5c-15,5.4-29.7,11.5-44.7,17c-4.4,1.6-6.8,4-8.1,8.8
		c-6.9,25-16.9,48.7-29.3,71.4c-1.6,2.9-1.7,7.8-0.5,11c6.2,15.2,12.9,30.2,19.9,45.1c3.4,7.3,2.1,12.9-3.6,18.4
		c-22,21.7-43.8,43.6-65.6,65.6c-5.6,5.7-11.2,6.8-18.4,3.4c-14.4-6.7-29.2-12.8-43.6-19.6c-5.2-2.4-9-1.4-14,0.8
		c-23.1,10.1-46.6,19.3-69.8,29.2c-3.3,1.4-6.9,4.2-8.2,7.3c-6.3,14.9-12,30.1-17.5,45.3c-2.9,8-7.9,11.4-16.6,11.3
		c-30.4-0.3-60.8-0.3-91.2,0c-8.7,0.1-13.6-3.4-16.5-11.4c-5.6-15.4-11.5-30.8-17.8-46c-1.1-2.7-4.3-5.6-7.1-6.4
		c-25.1-7.3-49.3-16.9-71.9-30.1c-4.3-2.5-7.7-2.3-12-0.3c-14.7,6.8-29.6,13-44.3,19.9c-7.2,3.4-12.8,2.3-18.4-3.4
		c-21.7-22-43.5-43.9-65.6-65.6c-6-5.9-6.7-11.7-3.3-19.1c6.9-14.7,13.5-29.4,19.6-44.4c1.3-3.1,1.1-8-0.5-11
		c-12.5-23-22.5-47-29.8-72.1c-0.9-3-4.1-6.4-7-7.6c-15.2-6.3-30.6-12-46-17.8c-7.3-2.7-10.8-7.4-10.7-15.4
		c0.2-30.9,0.2-61.8,0-92.7c-0.1-8.4,3.6-13.1,11.2-15.9c15.2-5.6,30.4-11.3,45.3-17.5c3.1-1.3,6.4-4.9,7.4-8.1
		c7.4-24.8,16.9-48.8,29.9-71.2c2.5-4.3,2.5-7.7,0.5-12c-6.7-14.5-12.8-29.2-19.6-43.6c-3.6-7.7-2.7-13.7,3.5-19.7
		c21.9-21.5,43.5-43.2,65-65c5.8-5.9,11.6-7,19.1-3.4c14.4,6.8,29.2,12.9,43.6,19.6c4.5,2.1,8.1,2.3,12.6-0.4
		c22.4-13.1,46.4-22.5,71.2-29.8c3-0.9,6.5-4,7.7-6.9c6.3-15.2,12.1-30.6,17.8-46c2.8-7.7,7.7-11.1,16-11c30.7,0.3,61.3,0.3,92,0
		c8.3-0.1,13.2,3.3,16,10.9c5.7,15.4,11.5,30.8,17.8,46c1.2,2.9,4.7,6,7.7,6.9c25.1,7.4,49.2,17.1,71.9,30.2c4,2.3,7.2,2.2,11.3,0.3
		c14.9-6.8,30.1-13.3,45-20.2c6.9-3.2,12.4-2.2,17.8,3.2c22.1,22.3,44.4,44.4,66.5,66.8C807.9,267.5,809.4,271.1,811.2,273.9z
		 M285.6,219.8c-1.2,1-2.7,1.9-3.9,3.1c-17,17-34,34.1-51.1,51c-2.9,2.8-3,5.1-1.4,8.5c6.5,14.3,12.7,28.7,19.3,42.9
		c3.1,6.6,2.7,12.3-1.1,18.6c-15.2,25-26.4,51.9-33.3,80.3c-1.8,7.6-5.9,11.7-12.9,14.3c-14.3,5.2-28.3,10.9-42.6,16.2
		c-4.1,1.5-5.9,3.3-5.9,8.1c0.3,23.6,0.2,47.1,0,70.7c0,4.2,1.3,6.2,5.3,7.7c14.7,5.4,29.2,11.3,44,16.7c6.5,2.4,10.2,6.4,11.9,13.3
		c7,28.7,18.2,55.8,33.5,81c3.9,6.3,4,12,1,18.6c-6.5,14-12.4,28.2-19,42.2c-2,4.2-1.3,6.6,1.9,9.7c16.6,16.3,33.1,32.8,49.4,49.5
		c3.4,3.5,6.1,3.8,10.4,1.8c13.7-6.5,27.8-12.2,41.5-18.7c6.9-3.3,12.8-2.8,19.3,1.1c25.2,15.4,52.3,26.4,81,33.5
		c6.2,1.5,10.1,4.8,12.4,10.9c5.5,15,11.6,29.7,17.1,44.6c1.4,3.9,3.2,5.5,7.5,5.5c23.8-0.2,47.6-0.2,71.4,0c3.9,0,5.8-1.1,7.1-4.9
		c5.4-14.7,11.3-29.3,16.7-44c2.5-6.8,6.7-10.6,13.9-12.3c28.4-7,55.3-18,80.3-33.3c6.6-4,12.5-4.2,19.3-1c14,6.5,28.2,12.5,42.2,19
		c3.9,1.8,6.2,1.3,9.1-1.7c16.5-16.8,33.1-33.5,50-50c3.3-3.3,3.5-5.8,1.6-9.8c-6.6-14.2-12.7-28.7-19.3-42.9
		c-2.8-6.1-2.5-11.4,1-17.2c15.5-25.5,26.8-52.8,33.9-81.7c1.7-6.9,5.5-10.9,12-13.3c14.5-5.3,28.8-11.1,43.2-16.4
		c4.1-1.5,5.9-3.3,5.9-8c-0.3-23.6-0.2-47.1,0-70.7c0-4.2-1.2-6.2-5.3-7.7c-14.7-5.4-29.2-11.3-43.9-16.7
		c-6.5-2.4-10.2-6.4-11.9-13.3c-7-28.7-18.2-55.8-33.5-81c-3.9-6.3-4-12-1-18.6c6.6-14.2,12.7-28.7,19.3-42.9
		c1.6-3.5,1.2-5.7-1.6-8.5c-17-16.7-33.8-33.5-50.5-50.5c-3.1-3.1-5.4-3.3-9.2-1.5c-14.2,6.6-28.7,12.7-42.9,19.3
		c-6.3,2.9-11.8,2.6-17.9-1.1c-25.2-15.4-52.3-26.6-81-33.6c-7.3-1.8-11.3-5.7-13.8-12.5c-5.3-14.5-11.1-28.8-16.4-43.3
		c-1.4-3.8-3.1-5.6-7.5-5.5c-23.8,0.2-47.6,0.2-71.4,0c-3.9,0-5.8,1.1-7.2,4.9c-5.6,15.2-11.7,30.2-17.4,45.3
		c-2.1,5.8-5.8,9.2-11.8,10.6c-29.5,7.2-57.2,18.7-83.1,34.4c-5.5,3.3-10.7,3.5-16.5,0.8c-14.2-6.6-28.6-12.8-43-19.2
		C289.2,221.4,287.6,220.7,285.6,219.8z"/>
	<path d="M479.5,548.6c0,24.4,0,48.5,0,72.5c0,14.1-3.6,17.7-17.3,17.7c-28.8,0.1-45-16.2-45.1-45.2c0-15.9,0-31.8,0-47.8
		c-6.8-1-13.1-1.5-19.1-3c-31.7-8-51.1-36.6-47.7-69.8c3.1-29.9,29.5-54,61-55.3c10.1-0.4,20.3-0.9,30.4,0
		c24.3,2.1,46.8-4.4,68-15.1c25.5-12.8,50.5-26.7,75.5-40.5c8.2-4.5,16.4-6.5,25.4-3.4c11.4,4,18.2,13.6,18.4,26.9
		c0.3,16.2,0.2,32.4,0,48.6c0,4.3,1.1,6.6,5.4,8.4c17,7.3,26.2,20.5,26.3,39c0.1,18.5-9,31.9-26,39.2c-4.6,2-5.9,4.3-5.8,9
		c0.3,14.2,0,28.4,0.1,42.6c0.1,11.8-3.7,21.4-14.4,27.3c-10.6,5.8-20.8,4-30.8-2.3c-29.7-18.9-60-36.7-94.1-46.9
		c-2.7-0.8-5.3-1.5-8-2.2C481.5,548.3,480.9,548.5,479.5,548.6z M562.5,554.6c0-49.9,0-100.1,0-150.5c-1.2,0.3-2,0.4-2.6,0.7
		c-24.6,13.5-49.7,26-76.8,33.9c-1.6,0.5-3.4,4-3.4,6.1c-0.2,24-0.1,48.1-0.2,72.1c0,4.2,0.9,6.3,5.5,7.2c7.2,1.4,14.3,3.4,21,6.2
		C524.8,538.1,543.5,546.4,562.5,554.6z M454.8,520.6c0-26.5,0-52.2,0-77.8c-16.5,0-32.7-1.5-48.6,0.4c-20.1,2.3-33.1,20.3-32,40.5
		c1,19.7,16.5,35.8,36.6,36.8C425.2,521.2,439.7,520.6,454.8,520.6z M604.3,578.1c0.2-2.9,0.6-5.9,0.6-8.9c0-59.2,0-118.5,0-177.7
		c0-2,0.4-4.2-0.3-6c-0.6-1.5-2.5-3.4-3.8-3.4c-6.2,0-13.5,7.8-13.5,14.1c0,55.7,0,111.4,0,167.1C587.3,572,594.3,578.3,604.3,578.1
		z M441.5,545.3c0,18.7-0.2,36.6,0.1,54.5c0.2,8,5.7,12.9,13.1,13c0-22.4,0-44.8,0-67.6C450.4,545.3,446.4,545.3,441.5,545.3z
		 M629.8,495.3c9.1-8.2,9-18.8,0-26.6C629.8,477.7,629.8,486.2,629.8,495.3z"/>
	<path d="M374.8,699.9c0.5,2.8,1.1,4.7,1.1,6.7c0.1,6.3-2.9,10.7-9,12.5c-6.2,1.8-11.8-0.5-13.7-6.4c-4.8-14.6-9.1-29.5-12.8-44.4
		c-1.6-6.3,3.7-12.7,10.6-13.2c14.4-1,28.8-1.5,43.2-1.6c7.1-0.1,12.1,5.5,12.2,12c0,6.6-4.8,11.4-12.1,12.1
		c-1.8,0.2-3.5,0.2-7.4,0.4c3.3,2.3,5.1,3.8,7,4.9c130.2,79,301.1-0.4,324.5-150.9c7.7-49.6-0.9-96.2-25.1-140
		c-2.9-5.2-4.8-10.9-0.4-15.4c2.8-2.8,8.1-5.1,11.8-4.4c3.7,0.7,7.8,4.6,9.8,8.2c22.9,40.5,33.6,84.1,30.6,130.4
		c-4.8,75.1-36.8,137.1-98.1,180.5c-84.8,60-174.1,62.7-265,12.8C379.8,702.8,377.7,701.6,374.8,699.9z"/>
	<path d="M636,295.5c-0.4-2.4-1.1-4.4-1.1-6.3c0-6.3,3.1-10.7,9.2-12.3c5.9-1.6,11.4,0.5,13.3,6c5,14.8,9.4,29.9,13,45.1
		c1.7,7.1-4.6,12.8-13.2,13.2c-12.6,0.6-25.3,1.1-38,1.4c-8.8,0.2-14.6-4.4-14.9-11.6c-0.3-7.3,4.9-12,13.9-12.6
		c1.2-0.1,2.5-0.2,4.9-0.4c-1.9-1.7-3-2.9-4.4-3.7c-128.8-81.1-303-1.4-326.3,149.2c-7.7,49.8,0.7,96.7,25.1,140.8
		c2.9,5.3,4.8,11.1,0.2,15.4c-3,2.8-8.7,4.9-12.5,4.1c-3.6-0.7-7.3-5.1-9.4-8.8c-22.6-40.3-33.2-83.8-30.1-129.8
		c5.5-80.5,41.4-145,109.5-188.2c82.7-52.5,168.3-52.4,253.8-4.7c1.8,1,3.5,2.1,5.2,3.1C634.5,295.4,634.8,295.3,636,295.5z"/>
</g>
</svg>
