<?xml version="1.0" encoding="UTF-8"?>
<svg id="Calque_1" data-name="Calque 1" xmlns="http://www.w3.org/2000/svg" xmlns:xlink="http://www.w3.org/1999/xlink" viewBox="0 0 29.74 29.74">
  <defs>
    <style>
      .cls-1 {
        fill: none;
      }

      .cls-1, .cls-2 {
        stroke-width: 0px;
      }

      .cls-2 {
        fill: #fff;
      }

      .cls-3 {
        clip-path: url(#clippath);
      }
    </style>
    <clipPath id="clippath">
      <rect class="cls-1" width="29.74" height="29.74"/>
    </clipPath>
  </defs>
  <g class="cls-3">
    <path class="cls-2" d="M24.12,12.53h2.62c-.34-1.56-.98-3.03-1.9-4.33-.92-1.31-2.08-2.42-3.43-3.27l.23-.43c1.43.9,2.66,2.07,3.62,3.45.96,1.38,1.63,2.94,1.98,4.58h2.02c-.56-3.37-2.3-6.44-4.92-8.65C21.71,1.67,18.39.45,14.95.45c-3.44,0-6.76,1.21-9.39,3.41C2.94,6.07,1.19,9.13.62,12.5h2.05c.36-1.69,1.06-3.29,2.07-4.69,1.01-1.41,2.3-2.59,3.79-3.47l.24.43c-1.42.84-2.64,1.96-3.61,3.29-.96,1.33-1.64,2.84-2,4.45h2.59c.4-1.52,1.17-2.92,2.25-4.07,1.08-1.15,2.43-2.01,3.94-2.51,1.5-.5,3.1-.61,4.66-.33,1.56.28,3.02.94,4.26,1.92,1.6,1.28,2.74,3.04,3.25,5.01ZM6.86,13.2h2.33v.78h-.75v3.41h-.82v-3.41h-.76v-.78ZM16.09,13.94l-.57.53c-.16-.19-.36-.34-.58-.44-.22-.1-.47-.16-.71-.16-.19,0-.38.03-.55.1s-.33.18-.47.31c-.14.13-.24.29-.32.46s-.11.36-.1.55c0,.26.06.52.18.74.12.22.3.39.52.51.23.13.49.19.75.19.22,0,.44-.04.64-.13.24-.12.46-.28.64-.47l.54.57c-.25.26-.55.48-.89.63-.3.12-.62.18-.95.18-.3.01-.59-.04-.86-.15-.27-.11-.52-.27-.73-.48-.21-.21-.37-.46-.48-.73-.11-.27-.16-.57-.15-.86,0-.4.09-.79.29-1.14.21-.33.51-.59.86-.77.35-.2.74-.31,1.14-.32.35,0,.69.08,1.01.22s.6.36.83.62l-.04.02ZM16.77,13.2h.81v2.71c0,.17.01.34.06.5.04.1.11.18.21.23.1.06.22.09.34.09.13,0,.26-.03.37-.1.1-.06.17-.14.21-.24.05-.18.07-.38.06-.57v-2.61h.8v2.5c.01.3-.01.59-.07.88-.05.18-.15.34-.27.47-.13.15-.29.26-.47.34-.19.08-.4.12-.61.11-.28,0-.56-.07-.8-.21-.21-.12-.38-.3-.49-.52-.12-.34-.17-.71-.15-1.07v-2.51ZM20.56,13.2h.86c.34-.02.67.02.99.13.2.08.37.23.49.41.12.21.18.44.18.68.02.26-.05.52-.21.73-.16.2-.38.34-.63.4-.28.05-.57.08-.85.06v1.78h-.81l-.02-4.19ZM21.36,14.85h.26c.14,0,.29,0,.42-.05.08-.03.14-.08.19-.14.05-.07.07-.15.07-.24,0-.07-.01-.14-.05-.21-.03-.06-.09-.12-.15-.15-.16-.07-.34-.1-.51-.09h-.23v.87ZM9.78,15.49h1.46v.72h-1.46v-.72ZM29.73,15.05h-5.95v-.45h5.95v.45ZM5.8,14.64H0v.39h5.82l-.02-.39ZM21.65,2.92l.27.12-1.3,2.95-.77-.34.57-1.31-.92.38-.06-.03-.34-.93-.57,1.31-.81-.34,1.3-2.95.28.13.57,1.78,1.78-.77ZM14.71,2.55l-.35.86h.74l-.39-.86ZM15.38,4.08h-1.27l-.18.41-.78.06v-.14l1.35-3.16h.36l1.53,3.1v.12h-.81l-.2-.39ZM9.89,4.37l.22.5.61-.27c.3-.14.07-.63-.23-.5l-.6.27ZM9.4,3.27l.21.47.47-.21c.05-.03.09-.09.11-.15.02-.06.01-.13-.01-.18-.03-.06-.07-.1-.13-.13-.06-.03-.12-.03-.19-.01l-.47.21ZM10.95,3.47c.14,0,.27.05.38.13.11.08.2.19.24.31.06.12.1.25.11.38,0,.13-.01.27-.06.39-.05.13-.12.24-.22.34-.1.1-.21.17-.34.22l-1.38.61-1.31-2.93,1.26-.57c.12-.06.25-.09.38-.09.13,0,.26.02.38.06.12.05.24.11.33.2.1.09.17.2.23.32.05.1.07.21.07.32,0,.11-.03.22-.07.31ZM27.12,21.25l-.5.74-1.14-.76-.57.87,1.14.77-.5.74-2.86-1.9c.16-.24.33-.49.5-.74l1.03.69.57-.87-1.03-.69c.17-.24.33-.49.5-.74l2.85,1.9ZM20.97,24.73l.14.97.67-.4-.81-.56ZM22.41,25.78l-1.14.7.05.47-.74.44-.07-.11-.42-3.64.33-.19,3.06,2.04.07.11-.73.44-.39-.26ZM15.12,28.54l-.37-3.41.89-.1.14,1.28h.06c.87-.09.76-.74.69-1.38l.9-.09c.07.69.16,1.33-.47,1.83l1.09,1.39v.14l-.97.11-.89-1.23c-.11,0-.22.04-.33.06l.15,1.28-.89.12ZM11.29,25.83l-.65.73.75.24-.1-.98ZM11.43,27.61l-1.28-.42-.33.35-.83-.25.04-.12,2.51-2.72.35.12.43,3.64-.04.12-.81-.27-.05-.44ZM6.89,22.49l.5-.6,1.96,1.61-.5.6-.65-.53-1.69,2.06-.67-.57,1.68-2.02-.63-.55ZM5.82,19.48c.2.33.26.72.18,1.09-.08.37-.3.71-.61.93l-.39-.77c.11-.11.17-.26.19-.41.02-.15-.01-.31-.09-.44-.06-.11-.13-.2-.23-.28-.09-.08-.2-.13-.32-.16-.12-.03-.24-.04-.36-.01-.12.02-.23.07-.33.13-.11.05-.2.12-.28.2-.08.08-.14.18-.18.29-.04.11-.06.22-.05.34,0,.12.03.23.08.33.07.16.19.29.34.37.15.08.33.1.5.06l.39.76c-.37.14-.78.13-1.14-.02-.36-.15-.65-.44-.8-.8-.11-.2-.18-.42-.21-.65-.03-.23,0-.46.06-.68.07-.22.18-.42.32-.6.15-.18.33-.32.53-.43.2-.11.43-.18.66-.21.23-.02.47,0,.69.07.22.07.43.19.6.34.18.15.32.34.42.55v-.03ZM29.51,12.99h-5.57c-.05,0-.1-.02-.14-.05-.04-.03-.07-.08-.08-.13-.46-1.95-1.57-3.69-3.14-4.94-1.6-1.27-3.59-1.97-5.64-1.97s-4.04.69-5.64,1.97c-1.57,1.25-2.68,2.99-3.14,4.94-.01.05-.04.09-.08.12-.04.03-.09.05-.14.05H.36l-.17-.08-.06-.18c.53-3.53,2.31-6.75,5.03-9.08C7.88,1.32,11.35.04,14.93.04c3.59,0,7.05,1.28,9.77,3.61,2.72,2.33,4.5,5.55,5.03,9.08l-.05.18-.16.08ZM.62,17.2c.56,3.37,2.3,6.44,4.92,8.66,2.62,2.21,5.95,3.43,9.39,3.43s6.77-1.22,9.39-3.43c2.62-2.21,4.37-5.28,4.92-8.66h-5.14c-.52,2.02-1.71,3.82-3.37,5.1-1.66,1.28-3.7,1.97-5.81,1.97s-4.14-.69-5.81-1.97c-1.66-1.28-2.85-3.07-3.37-5.1H.62ZM14.91,29.74c-3.59,0-7.06-1.29-9.77-3.63C2.43,23.78.65,20.54.13,17.01l.05-.18.17-.07h5.58c.05,0,.1.02.14.05.04.03.07.08.08.13.47,1.95,1.57,3.68,3.14,4.94,1.6,1.27,3.59,1.97,5.64,1.97s4.04-.69,5.64-1.97c1.57-1.25,2.68-2.99,3.14-4.93.01-.05.04-.09.08-.13.04-.03.09-.05.14-.05h5.58l.17.07.04.22c-.53,3.53-2.31,6.75-5.03,9.08-2.72,2.33-6.19,3.61-9.77,3.61h-.01Z"/>
  </g>
</svg>