<?xml version="1.0" encoding="utf-8"?>
<!-- Generator: Adobe Illustrator 24.0.2, SVG Export Plug-In . SVG Version: 6.00 Build 0)  -->
<svg version="1.1" id="Layer_1" xmlns="http://www.w3.org/2000/svg" xmlns:xlink="http://www.w3.org/1999/xlink" x="0px" y="0px"
	 viewBox="0 0 1000 1000" style="enable-background:new 0 0 1000 1000;" xml:space="preserve">
<g>
	<g>
		<path d="M811.46,156.59H229.28c-30.03,0-46.94,12.72-55.28,41.51c-0.18,0.63-0.58,1.21-0.87,1.81v482.01
			c0.07,0.22,0.16,0.42,0.22,0.65c6.17,27.95,28.27,43.56,59.94,43.01c64.47-1.12,128.95-0.34,193.43-0.34h8.36
			c3.11,16.79,1.03,32.32-6.55,46.94c-6.31,12.19-13.24,24.06-19.93,36.07c-11.11,19.9-8.41,30.19,10.94,41.57h200.4
			c3.62-2.53,7.72-4.59,10.76-7.69c7.6-7.74,8.77-18.16,3.38-28.07c-6.98-12.88-14.25-25.61-21.4-38.4
			c-8.66-15.5-11.5-32-8.43-50.41h8.01c66.35,0,132.69,0.02,199.02,0c33.86,0,55.06-21.07,55.06-54.77V211.51
			C866.35,177.66,845.28,156.59,811.46,156.59z M615.42,822.19c3.04,5.52,2.01,7.27-4.34,7.27c-60.87,0.05-121.71,0.05-182.58,0.02
			c-6.66-0.02-7.51-1.7-4.16-7.78c5.77-10.45,11.43-20.96,17.51-31.22c11.25-18.99,16.73-39.23,14.38-61.35
			c-0.11-1.07-0.02-2.13-0.02-3.55h126.31c0.47,9.88-0.38,19.77,1.74,28.98c2.6,11.25,6.95,22.28,11.9,32.78
			C601.82,799.31,609.02,810.56,615.42,822.19z M846.44,654.84c0,0.13,0,0.23-0.02,0.36c-0.04,0.89-0.07,1.75-0.09,2.62
			c-0.27,8.27-0.02,16.15-1.47,23.71c-2.64,13.78-14.6,22.86-28.61,23.37c-1.36,0.05-2.71,0.04-4.07,0.04h-15.95
			c-184.62,0-369.25,0-553.87-0.02h-15.05c-18.2,0-31.4-9.88-33.41-25.96c-0.63-5.06-0.52-10.22-0.36-15.57
			c-0.51-2.82-0.76-5.72-0.76-8.66V237.82c0.34-6.11,0.42-12.23,0.61-18.27c0.23-7.43,0.67-14.78,2.06-21.94
			c2.46-12.81,15.23-20.64,29.19-20.67c29.77-0.11,59.55-0.04,89.32-0.04h117.44v0.33h33.01c2.64-0.42,5.73-0.58,9.32-0.51
			c32.25,0.65,64.54,0.16,96.81,0.18c1.88,0,3.6,0.11,5.15,0.33h32.18c-0.02-0.11-0.02-0.22-0.02-0.33h5.99
			c65.89,0,131.79-0.02,197.68,0c22.56,0,34.49,12.03,34.51,34.76v9.51c0.27,2.04,0.4,4.14,0.4,6.26V654.84z"/>
	</g>
	<g>
		<path d="M274.74,517.97c0.24-4.44,0.75-8.81,1.5-13.09C275.46,509.16,274.96,513.54,274.74,517.97z M381.31,417.94
			c10.28,0.08,20.22,1.64,29.6,4.49C401.19,419.3,391.31,417.84,381.31,417.94z"/>
		<path d="M721.11,524.21c-4.87-0.08-9.74-0.02-15.09-0.02v-5.96c0-19.33,0.04-38.65-0.02-57.98c-0.04-10.71-6.77-17.37-17.52-17.44
			c-4.24-0.04-8.47-0.02-12.73-0.02c-12.18,0.04-18.55,6.34-18.57,18.44c-0.02,19.17,0,38.32,0,57.48v5.21h-8.14V414.37
			c0-14.81-5.68-20.42-20.67-20.42h-9.17c-12.85,0.02-19.01,6.16-19.01,19.01v110.99h-8.14v-5.86c0-27.48,0.04-54.95-0.02-82.41
			c-0.02-10.44-6.81-17.17-17.17-17.29c-4.42-0.06-8.81-0.04-13.23-0.02c-12.1,0.04-18.41,6.38-18.44,18.57
			c-0.02,27.13,0,54.26,0,81.38v5.54c-6.4-1.05-8.14-3.29-8.14-10.28c-0.02-42.04,0-84.1-0.02-126.16c0-6.02-3.11-9.66-8.02-9.72
			c-4.93-0.08-8.22,3.56-8.22,9.5c-0.04,42.91-0.1,85.8,0.02,128.69c0.04,13.94,10.59,24.49,24.55,24.51
			c59.19,0.1,118.37,0.06,177.56,0.02c5.92,0,9.58-3.35,9.46-8.3C730.29,527.4,726.75,524.31,721.11,524.21z M575.41,523.95h-15.68
			v-88.89h15.68V523.95z M632.4,523.95h-15.68v-113.3h15.68V523.95z M689.36,523.85h-15.48v-64.67h15.48V523.85z"/>
		<path d="M677.28,288.13c-11.53,0-23.06,0.03-34.59-0.01c-6.29-0.03-10.06-3.28-9.9-8.37c0.15-4.9,3.78-7.87,9.87-7.88
			c23.23-0.03,46.46-0.03,69.7,0c6.27,0.01,10.06,3.29,9.9,8.36c-0.15,4.88-3.81,7.87-9.87,7.89
			C700.68,288.16,688.98,288.13,677.28,288.13z"/>
		<path d="M677.2,320.69c-11.53,0-23.06,0.03-34.59-0.01c-6.07-0.03-9.7-3.03-9.82-7.93c-0.13-5.08,3.64-8.31,9.95-8.32
			c23.23-0.03,46.47-0.03,69.7,0c6.06,0.01,9.7,3.03,9.83,7.93c0.13,5.07-3.66,8.3-9.95,8.32
			C700.61,320.72,688.91,320.69,677.2,320.69z"/>
		<path d="M677.52,353.25c-11.53,0-23.06,0.03-34.59-0.01c-6.41-0.02-10.14-3.06-10.14-8.13c0-5.07,3.73-8.12,10.14-8.12
			c23.06-0.03,46.13-0.03,69.19,0c6.42,0.01,10.14,3.05,10.14,8.13c0,5.06-3.74,8.11-10.15,8.13
			C700.58,353.28,689.05,353.25,677.52,353.25z"/>
		<path d="M624.56,280.18c-0.11,4.37-3.81,7.96-8.17,7.91c-4.58-0.05-8.28-4-8.03-8.56c0.24-4.36,4.07-7.84,8.42-7.66
			C621.14,272.05,624.67,275.82,624.56,280.18z"/>
		<path d="M624.56,312.77c-0.13,4.37-3.85,7.95-8.2,7.88c-4.58-0.07-8.27-4.03-8-8.59c0.26-4.36,4.1-7.83,8.45-7.63
			C621.17,304.63,624.69,308.42,624.56,312.77z"/>
		<path d="M616.39,336.99c4.35-0.04,8.07,3.55,8.17,7.92c0.11,4.37-3.42,8.13-7.78,8.3c-4.56,0.18-8.45-3.6-8.43-8.17
			C608.38,340.67,612.01,337.03,616.39,336.99z"/>
	</g>
	<path d="M796.23,704.94H242.99c-0.22,0-0.42,0-0.63-0.02C426.98,704.94,611.6,704.94,796.23,704.94z"/>
	<path d="M464.52,459.72c-5.45-6.73-11.96-13.09-19.62-18.99c-11.07-8.55-22.41-14.59-33.98-18.3c-9.39-2.85-19.33-4.42-29.6-4.49
		c-0.34-0.02-0.65-0.02-0.99-0.02c-20.93,0-40.45,6.1-56.87,16.59c-0.02,0.02-0.06,0.04-0.08,0.04c-6.46,4.14-12.42,8.95-17.8,14.34
		c-0.02,0.02-0.02,0.02-0.04,0.04c-0.4,0.71-0.87,1.37-1.37,1.92c-12.1,13.07-20.55,27.35-25.23,42.77c-0.36,1.19-0.69,2.4-1.01,3.6
		c-0.44,1.68-0.83,3.39-1.19,5.11c-0.18,0.85-0.34,1.7-0.5,2.55c-0.75,4.28-1.27,8.65-1.5,13.09c-0.08,1.78-0.14,3.58-0.14,5.39
		v0.28c0,1.25,0.02,2.49,0.08,3.76c-0.02,0.06,0,0.12,0,0.18c0.06,1.37,0.14,2.73,0.24,4.1c0.06,1.07,0.16,2.14,0.28,3.19
		c0.08,0.75,0.16,1.49,0.26,2.24c6.61,52.04,51.03,92.25,104.87,92.25c58.39,0,105.72-47.33,105.72-105.72
		C486.04,499.62,478.04,477.46,464.52,459.72z M388.82,435.74c34.2,0.61,76.75,32.12,80.31,80.14h-80.31V435.74z M298.39,558.88
		c-24.16-51.62,11.43-118.39,73.84-123.44v4.97c0,24.73-0.08,49.46,0.08,74.2c0.02,3.52-1.07,5.37-4.2,7.03
		c-21.98,11.62-43.84,23.5-65.74,35.29C301.06,557.62,299.71,558.23,298.39,558.88z M408.11,609.32
		c-37.88,12.46-82.55-3.07-102.06-35.86c25.15-13.52,50.04-26.93,74.93-40.28c0.85-0.46,1.9-0.79,2.87-0.79
		c28.28-0.06,56.55-0.04,84.81-0.04C471.51,560.88,442.06,598.15,408.11,609.32z"/>
	<path d="M304.17,450.85c-12.1,13.07-20.55,27.35-25.23,42.77c5.03-17.11,14.3-32.39,26.59-44.69
		C305.14,449.64,304.66,450.29,304.17,450.85z"/>
	<path d="M444.9,440.73c-11.07-8.55-22.41-14.59-33.98-18.3c21.6,6.49,40.28,19.74,53.6,37.29
		C459.07,452.98,452.56,446.63,444.9,440.73z"/>
	<path d="M582.95,294.04c-3.29-15.09-18.49-24.81-33.54-21.42c-15.84,3.54-25.45,18.55-21.56,34.2c0.83,3.33,0.12,5.07-2.45,7.17
		c-13.58,10.97-27.03,22.12-40.41,33.33c-2.24,1.88-3.9,2.28-6.65,0.87c-8.59-4.38-17.27-3.9-25.92,0.28
		c-1.35,0.65-3.76,0.97-4.75,0.22c-10.38-7.9-20.55-16.04-31.03-24.34c3.56-7.07,5.64-14.24,3.78-22.08
		c-3.8-15.94-19.21-25.4-34.93-21.35c-15.6,4.04-24.83,20.16-19.94,35.66c1.15,3.66,0.26,5.41-2.3,7.62
		c-11.5,10.02-22.85,20.24-34.3,30.32c-1.03,0.89-2.38,1.43-3.62,2.04c-0.18,0.1-0.36,0.18-0.53,0.28
		c-0.08-0.24-0.16-0.48-0.26-0.69c-3.94-2.02-8.4-3.17-13.11-3.17c-1.94,0-3.84,0.2-5.68,0.57c-0.53,0.42-1.27,0.75-2.3,1.03
		c-6.16,1.64-11.27,5.15-14.87,9.76c-0.26,0.32-0.48,0.63-0.71,0.95c-0.24,0.34-0.48,0.67-0.69,1.03c-0.63,0.97-1.19,2-1.7,3.05
		c-0.38,0.81-0.71,1.62-1.03,2.48c-0.16,0.44-0.32,0.87-0.45,1.33c-0.2,0.67-0.4,1.37-0.55,2.06s-0.28,1.41-0.4,2.12
		c-0.16,0.95-0.26,1.92-0.3,2.89c-0.02,0.44-0.04,0.87-0.04,1.31v0.18c0,0.5,0.02,0.99,0.04,1.49c0.02,0.48,0.06,0.97,0.12,1.45
		c0.04,0.5,0.1,0.97,0.18,1.45c0.12,0.71,0.24,1.43,0.4,2.12s0.36,1.37,0.55,2.06c0.14,0.44,0.3,0.89,0.45,1.33
		c0.16,0.44,0.34,0.87,0.52,1.31c0.32,0.71,0.63,1.41,0.99,2.1c0.1,0.18,0.2,0.38,0.32,0.57c0.16,0.28,0.32,0.57,0.5,0.85
		c0.32,0.53,0.63,1.05,0.99,1.54c4.14,6.02,10.49,10.38,17.9,11.9h0.02c1.86,0.38,3.78,0.57,5.76,0.57c4.91,0,9.56-1.23,13.6-3.43
		c9.01-4.85,15.13-14.38,15.13-25.31c0-3.82-0.75-7.47-2.1-10.79c0.1-1.43,0.61-2.97,1.43-3.7c11.9-10.87,23.94-21.56,36.12-32.12
		c1.13-0.97,3.7-1.33,5.09-0.75c6.53,2.65,13.05,3.13,19.92,1.54c1.76-0.4,4.32,0.16,5.76,1.27c10.1,7.7,19.96,15.74,30.04,23.48
		c2.22,1.7,2.67,3.17,2.02,5.9c-2.99,12.26,1.56,23.98,11.6,30.69c9.82,6.55,22.32,6.46,32.04-0.28
		c9.86-6.81,14.1-18.75,11.29-30.95c-0.38-1.58-0.12-4.24,0.91-5.13c14.75-12.46,29.68-24.71,44.67-37.11
		c6.95,3.9,14.04,6.02,22,4.3C576.69,324.65,586.38,309.84,582.95,294.04z M311.22,393.92c-6.71,0-12.26-5.56-12.24-12.28
		c0.02-6.48,5.37-11.92,11.88-12.08c6.67-0.18,12.38,5.31,12.48,12C323.43,388.23,317.87,393.92,311.22,393.92z M392.74,320.65
		c-6.69,0.1-12.34-5.45-12.36-12.14c-0.02-6.69,5.56-12.26,12.26-12.22c6.48,0.02,11.94,5.39,12.1,11.88
		C404.92,314.85,399.41,320.57,392.74,320.65z M466.08,385.78c-6.69,0.14-12.36-5.37-12.42-12.06c-0.08-6.69,5.47-12.3,12.18-12.32
		c6.65,0,12.24,5.64,12.18,12.32C477.95,380.21,472.58,385.66,466.08,385.78z M555.09,312.51c-6.67-0.16-12.12-5.94-11.86-12.63
		c0.24-6.47,5.76-11.78,12.24-11.72c6.71,0.04,12.22,5.68,12.12,12.38C567.49,307.21,561.76,312.69,555.09,312.51z"/>
	<path d="M305.73,353.54c-0.53,0.42-1.27,0.75-2.3,1.03c-6.16,1.64-11.27,5.15-14.87,9.76
		C292.68,358.87,298.74,354.95,305.73,353.54z"/>
	<path d="M325.32,356.55c-0.18,0.1-0.36,0.18-0.53,0.28c-0.08-0.24-0.16-0.48-0.26-0.69C324.8,356.28,325.06,356.41,325.32,356.55z"
		/>
</g>
</svg>
