<svg xmlns="http://www.w3.org/2000/svg" xmlns:xlink="http://www.w3.org/1999/xlink" width="600" zoomAndPan="magnify" viewBox="0 0 450 187.499995" height="250" preserveAspectRatio="xMidYMid meet" version="1.0"><path fill="#ffffff" d="M 36.199219 25.410156 L 6.1875 14.347656 L 6.1875 6.878906 L 36.199219 6.878906 Z M 36.199219 25.410156 " fill-opacity="1" fill-rule="nonzero"/><path fill="#ffffff" d="M 96.222656 47.488281 L 66.210938 36.433594 L 66.210938 6.878906 L 96.222656 6.878906 Z M 96.222656 47.488281 " fill-opacity="1" fill-rule="nonzero"/><path fill="#ffffff" d="M 156.234375 6.878906 L 156.234375 69.574219 L 126.226562 58.519531 L 126.226562 6.878906 Z M 156.234375 6.878906 " fill-opacity="1" fill-rule="nonzero"/><path fill="#ffffff" d="M 126.230469 63.65625 L 156.234375 74.679688 L 156.234375 143.023438 L 46.199219 143.023438 C 35.035156 143.023438 25.664062 139.015625 17.863281 130.828125 C 10.066406 122.636719 6.1875 112.839844 6.1875 101.125 L 6.1875 19.492188 L 36.199219 30.515625 L 36.199219 101.304688 C 36.085938 104.046875 37.113281 106.703125 39.039062 108.65625 C 40.8125 110.734375 43.476562 111.847656 46.199219 111.644531 L 66.210938 111.644531 L 66.210938 41.570312 L 96.222656 52.601562 L 96.222656 111.644531 L 126.230469 111.644531 Z M 126.230469 63.65625 " fill-opacity="1" fill-rule="nonzero"/><path fill="#ffffff" d="M 173.917969 81.195312 L 203.929688 92.222656 L 203.929688 142.722656 L 176.035156 142.992188 L 173.917969 142.992188 Z M 173.917969 81.195312 " fill-opacity="1" fill-rule="nonzero"/><path fill="#ffffff" d="M 253.195312 92.878906 C 252.867188 94.011719 252.359375 95.207031 251.371094 95.867188 C 250.027344 97.03125 248.535156 96.851562 247.195312 96.078125 C 245.042969 94.835938 242.839844 93.539062 240.859375 92.195312 C 239.570312 91.53125 238.34375 90.761719 237.1875 89.890625 C 236.859375 89.714844 236.535156 89.535156 236.355469 90.1875 C 240.207031 92.878906 244.027344 95.539062 248.03125 98.199219 C 247.371094 100.886719 245.371094 102.050781 243.011719 101.070312 C 242.324219 100.789062 241.664062 100.441406 241.039062 100.023438 C 238.863281 98.527344 236.683594 97.03125 234.351562 95.355469 C 234.027344 95.207031 233.515625 94.851562 233.011719 94.554688 C 232.53125 95.175781 233.011719 95.539062 233.515625 95.6875 C 235.695312 97.363281 237.871094 98.859375 240.027344 100.558594 C 240.6875 101.070312 241.371094 101.546875 242.023438 102.050781 C 241.558594 103.023438 240.871094 103.878906 240.027344 104.542969 C 239.277344 105.199219 238.195312 105.273438 237.367188 104.722656 C 235.695312 103.558594 233.847656 102.425781 232.203125 101.261719 C 231.929688 101.042969 231.75 100.730469 231.691406 100.390625 C 231.519531 98.390625 230.355469 97.226562 228.351562 96.863281 C 229.214844 95.53125 229.152344 93.804688 228.199219 92.535156 C 227.367188 91.214844 226.203125 90.53125 224.527344 91.214844 C 224.199219 89.726562 224.019531 88.554688 222.53125 87.871094 C 221.1875 87.1875 219.84375 87.367188 218.527344 88.554688 C 218.292969 88.132812 218.011719 87.734375 217.6875 87.367188 C 216.523438 86.195312 215.363281 86.046875 214.015625 87.066406 C 212.945312 87.726562 211.945312 88.5 211.03125 89.367188 L 210.855469 89.546875 C 209.300781 89.035156 207.6875 88.46875 206.105469 87.933594 L 205.894531 87.839844 L 173.917969 76.070312 L 173.917969 7.265625 L 203.835938 7.265625 L 203.835938 65.1875 C 203.835938 65.511719 203.867188 65.828125 203.921875 66.148438 C 204.121094 66.902344 204.652344 67.523438 205.359375 67.847656 C 207.6875 68.988281 210.015625 70.339844 212.34375 71.648438 C 213.171875 72.152344 214.203125 72.152344 215.03125 71.648438 C 218.347656 69.671875 221.691406 67.847656 224.988281 65.816406 C 227.347656 64.472656 229.675781 64.683594 232.003906 65.996094 C 232.183594 66.179688 232.332031 66.179688 232.515625 66.503906 C 231.351562 66.800781 230.335938 67.3125 229.347656 67.492188 C 226.96875 67.972656 224.878906 69.355469 223.496094 71.347656 C 222.382812 73.027344 221.15625 74.636719 219.824219 76.15625 C 218.511719 78.160156 219.015625 79.832031 221.167969 80.695312 C 224.285156 81.859375 227.800781 80.984375 230.003906 78.484375 C 230.335938 78.160156 230.511719 77.832031 230.839844 77.53125 L 230.988281 77.351562 C 231.886719 76.375 233.1875 75.863281 234.511719 75.976562 C 234.964844 76.074219 235.371094 76.316406 235.675781 76.667969 C 236.074219 77.308594 236.523438 77.917969 237.019531 78.484375 C 237.136719 78.753906 237.300781 78.996094 237.5 79.207031 C 241.339844 83.65625 245.90625 87.421875 251 90.351562 C 251.382812 90.535156 251.78125 90.699219 252.191406 90.828125 C 253.195312 91.382812 253.523438 91.863281 253.195312 92.878906 Z M 253.195312 92.878906 " fill-opacity="1" fill-rule="nonzero"/><path fill="#ffffff" d="M 221.054688 102.5 C 220.703125 102.421875 220.347656 102.3125 220.003906 102.183594 C 218.429688 101.5 217.988281 100.097656 218.933594 98.644531 C 219.375 98.011719 219.859375 97.414062 220.390625 96.851562 C 221.355469 95.773438 222.339844 94.714844 223.320312 93.65625 C 223.550781 93.40625 223.792969 93.171875 224.054688 92.960938 C 225 92.207031 225.921875 92.050781 226.546875 92.5 C 227.511719 93.164062 228.050781 94.546875 227.480469 95.5625 C 226.316406 97.613281 225.03125 99.597656 223.707031 101.542969 C 223.171875 102.34375 222.214844 102.542969 221.054688 102.5 Z M 221.054688 102.5 " fill-opacity="1" fill-rule="nonzero"/><path fill="#ffffff" d="M 223.226562 90.304688 C 223.066406 90.804688 222.859375 91.285156 222.605469 91.746094 C 221.328125 93.496094 220.042969 95.238281 218.691406 96.925781 C 217.855469 97.972656 217.121094 97.9375 216.152344 96.964844 C 214.765625 95.5625 214.671875 94.839844 215.777344 93.226562 C 216.84375 91.613281 218.210938 90.230469 219.804688 89.140625 C 220.546875 88.542969 221.605469 88.542969 222.34375 89.140625 C 222.6875 89.492188 222.984375 89.882812 223.226562 90.304688 Z M 223.226562 90.304688 " fill-opacity="1" fill-rule="nonzero"/><path fill="#ffffff" d="M 227.0625 104.585938 C 226.035156 104.480469 225.121094 103.871094 224.632812 102.957031 C 224.484375 102.371094 224.617188 101.746094 224.984375 101.269531 C 225.742188 100.285156 226.613281 99.394531 227.570312 98.609375 C 228.164062 98.027344 229.117188 98.042969 229.695312 98.640625 C 229.726562 98.671875 229.757812 98.707031 229.789062 98.746094 C 230.496094 99.300781 230.707031 100.285156 230.292969 101.082031 C 229.882812 101.953125 229.359375 102.761719 228.742188 103.503906 C 228.238281 103.945312 227.671875 104.3125 227.0625 104.585938 Z M 227.0625 104.585938 " fill-opacity="1" fill-rule="nonzero"/><path fill="#ffffff" d="M 217.359375 89.476562 C 217.242188 90.519531 215.367188 92.652344 214.308594 92.898438 C 214.035156 92.945312 213.753906 92.902344 213.511719 92.773438 C 211.84375 91.8125 211.644531 90.765625 212.996094 89.367188 C 213.574219 88.738281 214.257812 88.214844 215.023438 87.820312 C 215.890625 87.464844 216.878906 87.878906 217.234375 88.742188 C 217.328125 88.980469 217.371094 89.230469 217.359375 89.476562 Z M 217.359375 89.476562 " fill-opacity="1" fill-rule="nonzero"/><path fill="#ffffff" d="M 230.203125 104.835938 C 230.558594 103.953125 230.890625 103.125 231.300781 102.082031 L 235.035156 104.574219 C 233.996094 106.238281 232.53125 106.355469 230.203125 104.835938 Z M 230.203125 104.835938 " fill-opacity="1" fill-rule="nonzero"/><path fill="#ffffff" d="M 290.039062 7.117188 L 290.039062 54.214844 L 260.035156 65.238281 L 260.035156 7.445312 C 260.78125 7.058594 279.589844 6.96875 290.039062 7.117188 Z M 290.039062 7.117188 " fill-opacity="1" fill-rule="nonzero"/><path fill="#ffffff" d="M 290.039062 59.320312 L 290.039062 142.722656 L 270.933594 142.933594 L 259.855469 142.933594 L 259.855469 88.691406 C 259.414062 88.660156 258.964844 88.710938 258.542969 88.84375 C 257.285156 88.972656 256.050781 89.265625 254.871094 89.714844 C 253.707031 89.996094 252.480469 89.746094 251.519531 89.023438 C 246.683594 86.1875 242.308594 82.644531 238.53125 78.503906 C 238.476562 78.453125 238.414062 78.402344 238.351562 78.355469 C 238.351562 78.296875 238.265625 78.265625 238.203125 78.179688 C 237.1875 76.867188 236.683594 75.6875 237.039062 74.199219 C 237.042969 74.03125 237.0625 73.863281 237.101562 73.695312 C 237.152344 73.359375 237.238281 73.027344 237.367188 72.710938 C 237.660156 72.078125 237.777344 71.371094 237.699219 70.675781 C 237.039062 71.664062 236.535156 72.859375 235.695312 73.664062 C 234.859375 74.679688 233.515625 74.828125 232.351562 75.011719 C 232.023438 74.386719 231.691406 73.84375 231.367188 73.183594 C 230.894531 74.3125 230.328125 75.390625 229.664062 76.417969 C 229.625 76.511719 229.578125 76.605469 229.515625 76.683594 C 228.121094 79.320312 225.039062 80.585938 222.203125 79.675781 C 221.988281 79.582031 221.785156 79.492188 221.542969 79.402344 C 221.296875 79.308594 221.1875 79.28125 221.039062 79.226562 C 220.441406 78.890625 220.222656 78.128906 220.558594 77.53125 C 220.589844 77.46875 220.632812 77.414062 220.675781 77.359375 C 221.03125 76.742188 221.484375 76.1875 222.019531 75.71875 C 223.183594 74.050781 224.347656 72.554688 225.511719 71.0625 C 226.148438 70.214844 227.011719 69.566406 228 69.191406 C 230.492188 68.507812 232.980469 67.878906 235.5 67.195312 C 237.492188 66.476562 239.714844 66.863281 241.351562 68.207031 C 242.546875 69.105469 243.773438 69.882812 244.992188 70.78125 L 245.351562 71.046875 C 246.523438 71.707031 247.632812 72.480469 248.664062 73.347656 C 248.949219 73.582031 249.316406 73.695312 249.683594 73.675781 C 249.941406 73.863281 250.265625 73.933594 250.574219 73.859375 L 250.648438 73.859375 C 250.863281 73.796875 251.042969 73.738281 251.214844 73.675781 L 253.082031 72.960938 L 253.382812 72.84375 L 253.4375 72.8125 Z M 290.039062 59.320312 " fill-opacity="1" fill-rule="nonzero"/><path fill="#ffffff" d="M 431.398438 7.296875 L 346.238281 38.644531 L 406.410156 38.644531 C 406.585938 38.644531 406.914062 38.792969 407.246094 38.792969 C 407.574219 38.792969 407.867188 38.972656 408.226562 38.972656 C 410.417969 39.570312 412.355469 40.859375 413.753906 42.648438 C 415.464844 44.316406 416.429688 46.617188 416.410156 49.011719 L 416.410156 101.367188 C 416.449219 104.132812 415.359375 106.785156 413.394531 108.730469 C 413.210938 108.933594 413.007812 109.144531 412.769531 109.351562 C 412.671875 109.457031 412.558594 109.558594 412.441406 109.652344 C 410.796875 111.152344 408.601562 111.898438 406.386719 111.710938 L 336.535156 111.710938 L 336.535156 42.230469 L 306.375 53.296875 L 306.375 142.722656 L 406.734375 142.722656 C 413.671875 142.835938 420.5 141.023438 426.476562 137.492188 C 427.308594 136.988281 428.117188 136.445312 428.921875 135.847656 C 429.457031 135.460938 429.96875 135.097656 430.503906 134.683594 C 432.121094 133.394531 433.644531 131.996094 435.070312 130.503906 C 442.925781 122.375 446.746094 112.507812 446.746094 100.800781 L 446.746094 7.414062 Z M 416.742188 7.210938 L 406.585938 7.148438 L 306.496094 7.148438 L 306.496094 48.148438 L 417.78125 7.210938 Z M 416.742188 7.210938 " fill-opacity="1" fill-rule="nonzero"/><path fill="#ffffff" d="M 301.777344 178.003906 L 307.261719 156.207031 C 307.335938 155.914062 307.507812 155.652344 307.746094 155.464844 C 307.96875 155.277344 308.257812 155.179688 308.546875 155.183594 L 316.640625 155.085938 C 316.949219 155.078125 317.253906 155.183594 317.5 155.382812 C 317.734375 155.570312 317.902344 155.839844 317.964844 156.136719 L 323.125 178 C 323.285156 178.746094 322.8125 179.480469 322.066406 179.644531 C 321.992188 179.660156 321.910156 179.667969 321.835938 179.675781 L 316.152344 179.675781 C 315.84375 179.675781 315.539062 179.5625 315.300781 179.363281 C 315.050781 179.15625 314.890625 178.871094 314.835938 178.554688 L 314.609375 177.308594 C 314.566406 177.175781 314.492188 177.109375 314.378906 177.109375 L 310.644531 177.109375 C 310.496094 177.109375 310.421875 177.171875 310.421875 177.308594 L 310.199219 178.652344 C 310.109375 179.320312 309.542969 179.8125 308.871094 179.804688 L 303.035156 179.738281 C 302.625 179.71875 302.246094 179.511719 302 179.175781 C 301.753906 178.839844 301.671875 178.410156 301.777344 178.003906 Z M 313.261719 169.984375 L 312.519531 166.027344 C 312.476562 165.898438 312.402344 165.828125 312.289062 165.828125 C 312.183594 165.855469 312.101562 165.929688 312.066406 166.027344 L 311.488281 170.03125 C 311.480469 170.109375 311.5 170.175781 311.546875 170.230469 C 311.59375 170.277344 311.648438 170.292969 311.710938 170.292969 L 313.035156 170.261719 C 313.105469 170.269531 313.171875 170.246094 313.230469 170.203125 C 313.253906 170.132812 313.261719 170.058594 313.261719 169.984375 Z M 313.261719 169.984375 " fill-opacity="1" fill-rule="nonzero"/><path fill="#ffffff" d="M 345.519531 162.230469 L 340.835938 163.738281 C 340.5 163.855469 340.132812 163.824219 339.824219 163.65625 C 339.519531 163.5 339.289062 163.238281 339.164062 162.921875 C 339.007812 162.316406 338.460938 161.894531 337.835938 161.898438 C 337.402344 161.917969 336.984375 162.0625 336.628906 162.308594 C 336.164062 162.632812 335.777344 163.058594 335.503906 163.554688 C 335.136719 164.191406 334.863281 164.875 334.695312 165.59375 C 334.476562 166.507812 334.394531 167.449219 334.453125 168.390625 C 334.476562 168.992188 334.550781 169.589844 334.683594 170.175781 C 334.792969 170.710938 334.96875 171.230469 335.199219 171.722656 C 335.390625 172.136719 335.660156 172.519531 335.996094 172.835938 C 336.289062 173.121094 336.671875 173.304688 337.085938 173.347656 C 337.636719 173.441406 338.203125 173.320312 338.671875 173.015625 C 339.050781 172.75 339.351562 172.386719 339.550781 171.96875 C 339.734375 171.566406 339.855469 171.128906 339.890625 170.6875 C 339.921875 170.25 339.941406 169.921875 339.941406 169.695312 C 339.941406 169.632812 339.917969 169.578125 339.871094 169.535156 C 339.828125 169.492188 339.773438 169.464844 339.710938 169.472656 L 339.132812 169.472656 C 338.785156 169.523438 338.429688 169.417969 338.160156 169.191406 C 337.886719 168.96875 337.714844 168.644531 337.683594 168.289062 L 337.613281 167.796875 C 337.5625 167.417969 337.683594 167.03125 337.9375 166.746094 C 338.179688 166.445312 338.554688 166.269531 338.9375 166.285156 L 345.546875 166.152344 C 345.898438 166.128906 346.234375 166.246094 346.488281 166.484375 C 346.742188 166.71875 346.894531 167.054688 346.90625 167.40625 C 346.90625 167.621094 346.941406 167.867188 346.957031 168.128906 C 346.96875 168.390625 346.957031 168.675781 346.957031 168.980469 C 346.957031 169.640625 346.917969 170.355469 346.84375 171.148438 C 346.761719 171.957031 346.613281 172.753906 346.394531 173.535156 C 346.164062 174.34375 345.847656 175.121094 345.457031 175.863281 C 344.621094 177.449219 343.257812 178.695312 341.601562 179.382812 C 340.589844 179.785156 339.503906 179.992188 338.410156 180.003906 C 336.554688 180.167969 334.6875 179.875 332.96875 179.152344 C 331.621094 178.535156 330.445312 177.59375 329.554688 176.40625 C 328.6875 175.238281 328.054688 173.917969 327.6875 172.511719 C 327.320312 171.105469 327.101562 169.660156 327.027344 168.207031 C 326.914062 166.191406 327.183594 164.171875 327.828125 162.253906 C 328.371094 160.652344 329.21875 159.171875 330.320312 157.894531 C 331.328125 156.75 332.566406 155.832031 333.953125 155.203125 C 335.242188 154.605469 336.644531 154.289062 338.0625 154.28125 C 338.921875 154.28125 339.773438 154.40625 340.59375 154.65625 C 341.421875 154.910156 342.207031 155.296875 342.917969 155.796875 C 343.667969 156.320312 344.328125 156.964844 344.871094 157.703125 C 345.480469 158.53125 345.960938 159.453125 346.289062 160.429688 C 346.421875 160.785156 346.394531 161.175781 346.226562 161.511719 C 346.082031 161.832031 345.828125 162.085938 345.519531 162.230469 Z M 345.519531 162.230469 " fill-opacity="1" fill-rule="nonzero"/><path fill="#ffffff" d="M 353.441406 155.550781 C 353.675781 155.296875 354.007812 155.152344 354.355469 155.160156 L 367.8125 154.898438 C 368.171875 154.886719 368.519531 155.03125 368.777344 155.292969 C 369.035156 155.539062 369.191406 155.882812 369.199219 156.242188 L 369.199219 160.15625 C 369.203125 160.511719 369.074219 160.851562 368.824219 161.109375 C 368.589844 161.363281 368.253906 161.519531 367.902344 161.539062 L 362.550781 161.832031 C 362.441406 161.816406 362.339844 161.898438 362.328125 162.015625 C 362.328125 162.03125 362.328125 162.046875 362.328125 162.0625 L 362.328125 163.574219 C 362.308594 163.679688 362.382812 163.785156 362.488281 163.804688 C 362.507812 163.8125 362.535156 163.8125 362.550781 163.804688 L 364.542969 163.804688 C 364.917969 163.796875 365.273438 163.953125 365.515625 164.234375 C 365.769531 164.496094 365.914062 164.851562 365.898438 165.21875 L 365.675781 168.867188 C 365.664062 169.210938 365.519531 169.542969 365.273438 169.785156 C 365.027344 170.027344 364.691406 170.15625 364.351562 170.144531 L 362.121094 170.144531 C 362.011719 170.132812 361.910156 170.214844 361.898438 170.332031 C 361.898438 170.34375 361.898438 170.363281 361.898438 170.375 L 361.835938 172.121094 C 361.847656 172.175781 361.867188 172.230469 361.898438 172.28125 C 361.953125 172.320312 362.023438 172.335938 362.089844 172.351562 L 367.804688 172.152344 C 368.164062 172.136719 368.519531 172.289062 368.769531 172.550781 C 369.042969 172.796875 369.199219 173.160156 369.191406 173.535156 L 369.0625 178.628906 C 369.066406 178.988281 368.917969 179.332031 368.65625 179.582031 C 368.410156 179.835938 368.058594 179.980469 367.703125 179.972656 L 354.347656 179.878906 C 353.996094 179.878906 353.652344 179.730469 353.414062 179.46875 C 353.160156 179.207031 353.023438 178.859375 353.03125 178.496094 L 353.089844 156.503906 C 353.078125 156.15625 353.203125 155.8125 353.441406 155.550781 Z M 353.441406 155.550781 " fill-opacity="1" fill-rule="nonzero"/><path fill="#ffffff" d="M 375.554688 177.96875 L 375.875 156.082031 C 375.871094 155.726562 376.007812 155.378906 376.261719 155.128906 C 376.503906 154.867188 376.839844 154.722656 377.195312 154.730469 L 383.214844 154.730469 C 383.476562 154.730469 383.738281 154.804688 383.957031 154.949219 C 384.171875 155.105469 384.339844 155.316406 384.433594 155.570312 L 387.957031 164.085938 C 388 164.183594 388.101562 164.253906 388.210938 164.253906 C 388.324219 164.234375 388.40625 164.136719 388.40625 164.023438 L 388.40625 155.980469 C 388.398438 155.621094 388.542969 155.273438 388.789062 155.011719 C 389.035156 154.742188 389.375 154.59375 389.730469 154.601562 L 395.144531 154.601562 C 395.507812 154.601562 395.847656 154.753906 396.085938 155.03125 C 396.347656 155.285156 396.488281 155.644531 396.472656 156.011719 L 395.761719 178.265625 C 395.75 178.617188 395.605469 178.945312 395.355469 179.1875 C 395.109375 179.425781 394.777344 179.5625 394.4375 179.582031 L 388.628906 179.648438 C 388.042969 179.71875 387.496094 179.355469 387.339844 178.789062 L 384.503906 171.589844 C 384.484375 171.492188 384.390625 171.429688 384.296875 171.441406 C 384.277344 171.445312 384.261719 171.445312 384.242188 171.460938 C 384.136719 171.460938 384.078125 171.527344 384.078125 171.660156 L 383.886719 178.199219 C 383.894531 178.554688 383.757812 178.902344 383.5 179.152344 C 383.234375 179.382812 382.890625 179.511719 382.535156 179.511719 L 376.824219 179.351562 C 376.46875 179.34375 376.136719 179.1875 375.90625 178.921875 C 375.664062 178.664062 375.539062 178.324219 375.554688 177.96875 Z M 375.554688 177.96875 " fill-opacity="1" fill-rule="nonzero"/><path fill="#ffffff" d="M 420.679688 162.0625 L 416.261719 163.929688 C 415.628906 164.191406 414.898438 163.921875 414.589844 163.308594 C 414.070312 162.386719 413.4375 161.925781 412.683594 161.925781 C 412.324219 161.929688 411.972656 162.042969 411.683594 162.253906 C 411.328125 162.507812 411.027344 162.832031 410.808594 163.207031 C 410.523438 163.699219 410.320312 164.226562 410.1875 164.78125 C 410.019531 165.492188 409.9375 166.226562 409.945312 166.957031 C 409.945312 167.128906 409.945312 167.316406 409.945312 167.511719 C 409.945312 167.703125 409.945312 167.910156 409.996094 168.132812 C 410.046875 168.75 410.175781 169.347656 410.394531 169.925781 C 410.574219 170.394531 410.824219 170.835938 411.140625 171.222656 C 411.402344 171.554688 411.726562 171.828125 412.09375 172.027344 C 412.402344 172.207031 412.757812 172.300781 413.121094 172.304688 C 413.488281 172.3125 413.839844 172.199219 414.140625 171.996094 C 414.496094 171.746094 414.78125 171.410156 414.957031 171.011719 C 415.097656 170.71875 415.339844 170.480469 415.632812 170.339844 C 415.914062 170.203125 416.242188 170.183594 416.535156 170.289062 L 421.085938 171.738281 C 421.445312 171.828125 421.746094 172.082031 421.890625 172.425781 C 422.0625 172.761719 422.085938 173.160156 421.957031 173.515625 C 421.660156 174.316406 421.265625 175.078125 420.792969 175.792969 C 420.289062 176.558594 419.691406 177.25 419 177.847656 C 418.285156 178.480469 417.480469 178.996094 416.617188 179.382812 C 415.671875 179.800781 414.65625 180.023438 413.628906 180.054688 C 411.960938 180.199219 410.292969 179.90625 408.773438 179.199219 C 407.445312 178.554688 406.28125 177.613281 405.359375 176.453125 C 404.425781 175.265625 403.710938 173.917969 403.261719 172.472656 C 402.777344 170.992188 402.5 169.453125 402.441406 167.898438 C 402.414062 167.734375 402.402344 167.566406 402.402344 167.398438 L 402.402344 166.90625 C 402.394531 165.332031 402.601562 163.761719 403.023438 162.242188 C 403.417969 160.789062 404.0625 159.421875 404.941406 158.199219 C 406.757812 155.664062 409.695312 154.171875 412.816406 154.195312 C 413.691406 154.171875 414.574219 154.28125 415.421875 154.519531 C 416.289062 154.761719 417.109375 155.140625 417.863281 155.640625 C 418.644531 156.167969 419.34375 156.816406 419.921875 157.5625 C 420.574219 158.40625 421.09375 159.34375 421.460938 160.34375 C 421.582031 160.671875 421.578125 161.039062 421.429688 161.355469 C 421.273438 161.679688 421.003906 161.929688 420.679688 162.0625 Z M 420.679688 162.0625 " fill-opacity="1" fill-rule="nonzero"/><path fill="#ffffff" d="M 426.039062 155.261719 C 426.265625 154.867188 426.6875 154.628906 427.136719 154.636719 L 432.738281 154.601562 C 433.023438 154.59375 433.308594 154.6875 433.539062 154.859375 C 433.777344 155.042969 433.949219 155.296875 434.023438 155.589844 L 435.765625 161.539062 C 435.816406 161.664062 435.953125 161.726562 436.078125 161.679688 C 436.148438 161.65625 436.195312 161.605469 436.222656 161.539062 L 437.601562 155.621094 C 437.691406 155.316406 437.863281 155.046875 438.109375 154.847656 C 438.335938 154.644531 438.648438 154.539062 438.960938 154.570312 L 444.671875 154.769531 C 445.117188 154.792969 445.519531 155.023438 445.769531 155.390625 C 446.023438 155.757812 446.066406 156.226562 445.898438 156.636719 L 440.253906 171.460938 L 440.734375 178.234375 C 440.785156 178.601562 440.671875 178.976562 440.417969 179.25 C 440.167969 179.523438 439.8125 179.679688 439.445312 179.679688 L 432.859375 179.78125 C 432.492188 179.785156 432.140625 179.628906 431.894531 179.351562 C 431.636719 179.078125 431.496094 178.710938 431.511719 178.328125 L 431.765625 171.691406 L 425.929688 156.503906 C 425.734375 156.101562 425.777344 155.628906 426.039062 155.261719 Z M 426.039062 155.261719 " fill-opacity="1" fill-rule="nonzero"/></svg>