<?xml version="1.0" standalone="no"?>
<!DOCTYPE svg PUBLIC "-//W3C//DTD SVG 1.1//EN" "http://www.w3.org/Graphics/SVG/1.1/DTD/svg11.dtd">
<svg xmlns="http://www.w3.org/2000/svg" xmlns:xlink="http://www.w3.org/1999/xlink" width="810" zoomAndPan="magnify" viewBox="0 0 810 419.999985" height="420" preserveAspectRatio="xMidYMid meet" version="1.0"><path fill="#ffffff" d="M 72.382812 129.449219 L 19.472656 109.960938 L 19.472656 96.808594 L 72.382812 96.808594 Z M 72.382812 129.449219 " fill-opacity="1" fill-rule="nonzero"/><path fill="#ffffff" d="M 178.203125 168.347656 L 125.292969 148.871094 L 125.292969 96.808594 L 178.203125 96.808594 Z M 178.203125 168.347656 " fill-opacity="1" fill-rule="nonzero"/><path fill="#ffffff" d="M 284.011719 96.808594 L 284.011719 207.257812 L 231.101562 187.78125 L 231.101562 96.808594 Z M 284.011719 96.808594 " fill-opacity="1" fill-rule="nonzero"/><path fill="#ffffff" d="M 231.113281 196.832031 L 284.011719 216.253906 L 284.011719 336.65625 L 90.015625 336.65625 C 70.332031 336.65625 53.808594 329.597656 40.058594 315.171875 C 26.308594 300.742188 19.472656 283.480469 19.472656 262.84375 L 19.472656 119.027344 L 72.382812 138.449219 L 72.382812 263.160156 C 72.335938 264.355469 72.40625 265.539062 72.601562 266.71875 C 72.796875 267.894531 73.109375 269.042969 73.539062 270.15625 C 73.96875 271.269531 74.507812 272.328125 75.15625 273.328125 C 75.804688 274.332031 76.546875 275.257812 77.386719 276.109375 C 78.160156 277.011719 79.023438 277.816406 79.984375 278.515625 C 80.945312 279.214844 81.976562 279.792969 83.070312 280.253906 C 84.167969 280.710938 85.304688 281.035156 86.476562 281.222656 C 87.652344 281.414062 88.832031 281.464844 90.015625 281.375 L 125.292969 281.375 L 125.292969 157.921875 L 178.203125 177.355469 L 178.203125 281.375 L 231.113281 281.375 Z M 231.113281 196.832031 " fill-opacity="1" fill-rule="nonzero"/><path fill="#ffffff" d="M 315.183594 227.730469 L 368.09375 247.164062 L 368.09375 336.128906 L 318.914062 336.601562 L 315.183594 336.601562 Z M 315.183594 227.730469 " fill-opacity="1" fill-rule="nonzero"/><path fill="#ffffff" d="M 454.949219 248.316406 C 454.371094 250.3125 453.480469 252.417969 451.734375 253.582031 C 449.367188 255.632812 446.734375 255.316406 444.375 253.953125 C 440.578125 251.761719 436.691406 249.476562 433.203125 247.109375 C 430.929688 245.941406 428.769531 244.585938 426.730469 243.046875 C 426.148438 242.742188 425.578125 242.421875 425.257812 243.574219 C 432.050781 248.316406 438.789062 253 445.84375 257.6875 C 444.679688 262.425781 441.160156 264.476562 437 262.742188 C 435.777344 262.25 434.617188 261.636719 433.523438 260.902344 C 429.679688 258.265625 425.839844 255.632812 421.726562 252.683594 C 421.15625 252.417969 420.257812 251.792969 419.367188 251.265625 C 418.523438 252.363281 419.367188 253 420.257812 253.261719 C 424.097656 256.214844 427.9375 258.847656 431.734375 261.84375 C 432.894531 262.742188 434.101562 263.589844 435.253906 264.476562 C 434.421875 266.210938 433.246094 267.675781 431.734375 268.867188 C 431.414062 269.144531 431.058594 269.367188 430.667969 269.53125 C 430.273438 269.691406 429.867188 269.789062 429.445312 269.816406 C 429.019531 269.84375 428.605469 269.804688 428.195312 269.699219 C 427.785156 269.589844 427.402344 269.417969 427.046875 269.183594 C 424.097656 267.132812 420.835938 265.136719 417.941406 263.085938 C 417.445312 262.6875 417.144531 262.175781 417.042969 261.546875 C 416.734375 258.027344 414.683594 255.972656 411.148438 255.335938 C 411.519531 254.765625 411.796875 254.148438 411.980469 253.492188 C 412.160156 252.835938 412.242188 252.164062 412.21875 251.484375 C 412.195312 250.800781 412.070312 250.136719 411.839844 249.496094 C 411.613281 248.851562 411.296875 248.257812 410.886719 247.710938 C 409.414062 245.386719 407.363281 244.179688 404.410156 245.386719 C 403.832031 242.761719 403.511719 240.699219 400.890625 239.492188 C 398.519531 238.285156 396.148438 238.605469 393.835938 240.699219 C 393.417969 239.949219 392.921875 239.25 392.351562 238.605469 C 390.300781 236.542969 388.25 236.277344 385.878906 238.078125 C 383.988281 239.25 382.230469 240.597656 380.613281 242.125 L 380.304688 242.445312 C 377.5625 241.546875 374.71875 240.546875 371.933594 239.601562 L 371.558594 239.4375 L 315.183594 218.699219 L 315.183594 97.488281 L 367.929688 97.488281 L 367.929688 199.53125 C 367.929688 200.097656 367.980469 200.664062 368.082031 201.222656 C 368.257812 201.882812 368.570312 202.480469 369.011719 203.003906 C 369.457031 203.527344 369.992188 203.933594 370.617188 204.214844 C 374.71875 206.222656 378.824219 208.605469 382.925781 210.910156 C 383.65625 211.355469 384.445312 211.578125 385.296875 211.578125 C 386.148438 211.578125 386.941406 211.355469 387.667969 210.910156 C 393.515625 207.429688 399.410156 204.214844 405.222656 200.640625 C 409.382812 198.269531 413.484375 198.644531 417.589844 200.957031 C 417.90625 201.277344 418.171875 201.277344 418.488281 201.847656 C 416.4375 202.375 414.648438 203.273438 412.90625 203.589844 C 410.8125 204.015625 408.871094 204.8125 407.089844 205.988281 C 405.304688 207.160156 403.804688 208.628906 402.589844 210.382812 C 400.621094 213.351562 398.460938 216.175781 396.117188 218.855469 C 393.800781 222.386719 394.691406 225.328125 398.488281 226.851562 C 399.15625 227.101562 399.835938 227.300781 400.535156 227.445312 C 401.230469 227.59375 401.9375 227.6875 402.648438 227.726562 C 403.359375 227.765625 404.070312 227.75 404.78125 227.683594 C 405.488281 227.617188 406.191406 227.496094 406.882812 227.324219 C 407.574219 227.152344 408.25 226.929688 408.90625 226.652344 C 409.5625 226.378906 410.195312 226.054688 410.804688 225.6875 C 411.414062 225.316406 411.992188 224.902344 412.539062 224.445312 C 413.085938 223.988281 413.597656 223.492188 414.066406 222.957031 C 414.648438 222.386719 414.957031 221.804688 415.539062 221.277344 L 415.800781 220.960938 C 416.59375 220.097656 417.535156 219.453125 418.625 219.027344 C 419.714844 218.601562 420.84375 218.4375 422.011719 218.535156 C 422.828125 218.71875 423.511719 219.121094 424.0625 219.753906 C 424.765625 220.886719 425.558594 221.953125 426.433594 222.957031 C 426.640625 223.433594 426.921875 223.855469 427.277344 224.230469 C 434.101562 232.117188 442.035156 238.660156 451.078125 243.859375 C 451.761719 244.191406 452.464844 244.472656 453.183594 244.707031 C 454.949219 245.683594 455.53125 246.527344 454.949219 248.316406 Z M 454.949219 248.316406 " fill-opacity="1" fill-rule="nonzero"/><path fill="#ffffff" d="M 398.289062 265.269531 C 397.660156 265.121094 397.039062 264.9375 396.433594 264.707031 C 393.660156 263.5 392.878906 261.03125 394.546875 258.476562 C 395.324219 257.359375 396.179688 256.304688 397.113281 255.316406 C 398.816406 253.417969 400.550781 251.550781 402.28125 249.6875 C 402.683594 249.246094 403.117188 248.835938 403.578125 248.457031 C 405.246094 247.128906 406.871094 246.855469 407.964844 247.644531 C 409.667969 248.820312 410.621094 251.253906 409.613281 253.042969 C 407.5625 256.652344 405.300781 260.15625 402.964844 263.578125 C 402.019531 264.992188 400.328125 265.34375 398.289062 265.269531 Z M 398.289062 265.269531 " fill-opacity="1" fill-rule="nonzero"/><path fill="#ffffff" d="M 402.117188 243.785156 C 401.832031 244.664062 401.46875 245.507812 401.019531 246.316406 C 398.773438 249.402344 396.5 252.472656 394.121094 255.445312 C 392.648438 257.289062 391.355469 257.226562 389.644531 255.511719 C 387.195312 253.042969 387.03125 251.769531 388.984375 248.929688 C 390.878906 246.066406 393.246094 243.664062 396.082031 241.730469 C 396.402344 241.476562 396.75 241.28125 397.136719 241.148438 C 397.519531 241.011719 397.914062 240.945312 398.320312 240.945312 C 398.730469 240.945312 399.125 241.011719 399.507812 241.148438 C 399.890625 241.28125 400.242188 241.476562 400.558594 241.730469 C 401.175781 242.34375 401.695312 243.027344 402.117188 243.785156 Z M 402.117188 243.785156 " fill-opacity="1" fill-rule="nonzero"/><path fill="#ffffff" d="M 408.878906 268.941406 C 407.96875 268.851562 407.136719 268.546875 406.378906 268.039062 C 405.621094 267.53125 405.027344 266.875 404.597656 266.070312 C 404.464844 265.550781 404.453125 265.03125 404.5625 264.511719 C 404.671875 263.988281 404.886719 263.515625 405.210938 263.09375 C 406.554688 261.359375 408.078125 259.796875 409.777344 258.410156 C 410.042969 258.148438 410.351562 257.957031 410.703125 257.824219 C 411.050781 257.695312 411.410156 257.644531 411.785156 257.667969 C 412.15625 257.6875 412.507812 257.785156 412.835938 257.957031 C 413.167969 258.128906 413.449219 258.359375 413.683594 258.652344 C 413.984375 258.886719 414.238281 259.167969 414.445312 259.496094 C 414.648438 259.820312 414.789062 260.171875 414.871094 260.546875 C 414.953125 260.921875 414.96875 261.300781 414.917969 261.683594 C 414.863281 262.0625 414.75 262.425781 414.570312 262.765625 C 413.839844 264.304688 412.929688 265.726562 411.839844 267.035156 C 410.945312 267.816406 409.957031 268.453125 408.878906 268.941406 Z M 408.878906 268.941406 " fill-opacity="1" fill-rule="nonzero"/><path fill="#ffffff" d="M 391.769531 242.324219 C 391.5625 244.15625 388.261719 247.921875 386.394531 248.347656 C 385.902344 248.433594 385.433594 248.363281 384.992188 248.128906 C 382.050781 246.4375 381.699219 244.59375 384.078125 242.125 C 385.109375 241.003906 386.300781 240.097656 387.65625 239.40625 C 387.890625 239.308594 388.128906 239.246094 388.378906 239.210938 C 388.628906 239.175781 388.878906 239.171875 389.128906 239.199219 C 389.378906 239.230469 389.621094 239.289062 389.855469 239.378906 C 390.09375 239.46875 390.3125 239.585938 390.519531 239.730469 C 390.722656 239.878906 390.90625 240.046875 391.070312 240.238281 C 391.230469 240.429688 391.367188 240.640625 391.476562 240.867188 C 391.585938 241.09375 391.667969 241.328125 391.71875 241.578125 C 391.765625 241.824219 391.785156 242.074219 391.769531 242.324219 Z M 391.769531 242.324219 " fill-opacity="1" fill-rule="nonzero"/><path fill="#ffffff" d="M 414.417969 269.382812 C 415.042969 267.824219 415.625 266.363281 416.351562 264.53125 L 422.933594 268.921875 C 421.101562 271.851562 418.523438 272.058594 414.417969 269.382812 Z M 414.417969 269.382812 " fill-opacity="1" fill-rule="nonzero"/><path fill="#ffffff" d="M 519.90625 97.222656 L 519.90625 180.199219 L 467.007812 199.617188 L 467.007812 97.804688 C 468.328125 97.125 501.484375 96.960938 519.90625 97.222656 Z M 519.90625 97.222656 " fill-opacity="1" fill-rule="nonzero"/><path fill="#ffffff" d="M 519.90625 189.195312 L 519.90625 336.128906 L 486.222656 336.5 L 466.691406 336.5 L 466.691406 240.941406 C 465.902344 240.882812 465.132812 240.96875 464.375 241.203125 C 462.152344 241.441406 459.996094 241.953125 457.902344 242.742188 C 456.878906 242.992188 455.847656 243.007812 454.8125 242.796875 C 453.78125 242.582031 452.84375 242.15625 452 241.523438 C 443.425781 236.503906 435.792969 230.328125 429.101562 222.992188 C 429 222.898438 428.890625 222.808594 428.78125 222.726562 C 428.78125 222.628906 428.628906 222.574219 428.519531 222.421875 C 426.730469 220.105469 425.839844 218.03125 426.464844 215.410156 C 426.472656 215.109375 426.507812 214.8125 426.574219 214.519531 C 426.660156 213.921875 426.816406 213.34375 427.046875 212.785156 C 427.574219 211.644531 427.769531 210.449219 427.628906 209.199219 C 426.464844 210.941406 425.578125 213.050781 424.097656 214.464844 C 422.625 216.253906 420.257812 216.515625 418.203125 216.835938 C 417.621094 215.738281 417.042969 214.78125 416.46875 213.621094 C 415.636719 215.609375 414.636719 217.503906 413.464844 219.316406 C 413.394531 219.484375 413.308594 219.640625 413.199219 219.785156 C 412.90625 220.34375 412.5625 220.875 412.175781 221.371094 C 411.789062 221.871094 411.363281 222.332031 410.894531 222.757812 C 410.425781 223.179688 409.925781 223.5625 409.390625 223.898438 C 408.855469 224.234375 408.296875 224.523438 407.710938 224.761719 C 407.125 225 406.523438 225.1875 405.90625 225.320312 C 405.289062 225.453125 404.667969 225.535156 404.035156 225.558594 C 403.402344 225.582031 402.777344 225.554688 402.148438 225.46875 C 401.523438 225.382812 400.910156 225.246094 400.308594 225.054688 C 399.933594 224.890625 399.574219 224.734375 399.144531 224.570312 C 398.71875 224.40625 398.519531 224.363281 398.257812 224.261719 C 397.972656 224.105469 397.738281 223.894531 397.550781 223.632812 C 397.359375 223.371094 397.234375 223.082031 397.175781 222.765625 C 397.113281 222.449219 397.121094 222.132812 397.199219 221.820312 C 397.277344 221.503906 397.417969 221.222656 397.621094 220.972656 C 398.246094 219.875 399.035156 218.914062 399.988281 218.085938 C 402.042969 215.144531 404.09375 212.511719 406.144531 209.878906 C 407.289062 208.351562 408.75 207.253906 410.535156 206.585938 C 414.921875 205.378906 419.3125 204.269531 423.757812 203.066406 C 424.621094 202.753906 425.507812 202.558594 426.421875 202.480469 C 427.335938 202.402344 428.246094 202.441406 429.148438 202.597656 C 430.054688 202.753906 430.921875 203.023438 431.757812 203.40625 C 432.589844 203.789062 433.363281 204.269531 434.070312 204.851562 C 436.175781 206.433594 438.339844 207.804688 440.488281 209.382812 L 441.125 209.855469 C 443.195312 211.027344 445.140625 212.378906 446.964844 213.90625 C 447.488281 214.332031 448.085938 214.527344 448.761719 214.488281 C 449.234375 214.839844 449.757812 214.945312 450.332031 214.804688 L 450.464844 214.804688 C 450.835938 214.695312 451.15625 214.597656 451.460938 214.488281 L 454.753906 213.226562 L 455.28125 213.015625 L 455.378906 212.960938 Z M 519.90625 189.195312 " fill-opacity="1" fill-rule="nonzero"/><path fill="#ffffff" d="M 769.125 97.542969 L 618.988281 152.765625 L 725.070312 152.765625 C 725.378906 152.765625 725.960938 153.03125 726.542969 153.03125 C 727.125 153.03125 727.640625 153.347656 728.277344 153.347656 C 730.207031 153.875 732.003906 154.6875 733.671875 155.796875 C 735.339844 156.902344 736.789062 158.246094 738.019531 159.820312 C 739.53125 161.292969 740.691406 163.003906 741.507812 164.949219 C 742.320312 166.898438 742.71875 168.925781 742.703125 171.035156 L 742.703125 263.269531 C 742.71875 264.476562 742.617188 265.667969 742.390625 266.851562 C 742.164062 268.035156 741.824219 269.183594 741.367188 270.296875 C 740.910156 271.410156 740.34375 272.46875 739.675781 273.46875 C 739.003906 274.46875 738.238281 275.394531 737.382812 276.238281 C 737.066406 276.601562 736.703125 276.976562 736.285156 277.335938 C 736.105469 277.527344 735.910156 277.703125 735.703125 277.863281 C 734.253906 279.1875 732.601562 280.164062 730.746094 280.792969 C 728.886719 281.425781 726.984375 281.660156 725.027344 281.496094 L 601.882812 281.496094 L 601.882812 159.085938 L 548.710938 178.585938 L 548.710938 336.128906 L 725.640625 336.128906 C 731.757812 336.226562 737.769531 335.492188 743.683594 333.925781 C 749.59375 332.359375 755.183594 330.023438 760.449219 326.910156 C 761.917969 326.023438 763.34375 325.066406 764.757812 324.015625 C 765.703125 323.335938 766.601562 322.699219 767.546875 321.960938 C 770.398438 319.691406 773.082031 317.238281 775.601562 314.601562 C 789.449219 300.28125 796.183594 282.898438 796.183594 262.273438 L 796.183594 97.75 Z M 743.285156 97.386719 L 725.378906 97.277344 L 548.917969 97.277344 L 548.917969 169.511719 L 745.117188 97.386719 Z M 743.285156 97.386719 " fill-opacity="1" fill-rule="nonzero"/></svg>