<?xml version="1.0" encoding="UTF-8"?>
<svg id="Calque_1" data-name="Calque 1" xmlns="http://www.w3.org/2000/svg" viewBox="0 0 74.64 23.52">
  <defs>
    <style>
      .cls-1 {
        fill: #fff;
        stroke-width: 0px;
      }
    </style>
  </defs>
  <path class="cls-1" d="M28.84,20.91h-3.74c-1.18-.02-2.24-.7-2.75-1.76-.86,1.11-2.18,1.76-3.59,1.76-2.39,0-4.32-1.93-4.32-4.32,0-2.39,1.93-4.32,4.32-4.32h0c1.4,0,2.73.65,3.59,1.76v-1.12c0-2.13-.8-4.54-2.13-4.54-.55,0-.55.88-.11,1.83.77,1.8-4.73,2.53-4.73.4,0-1.58,1.83-3.26,5.2-3.26,3.92,0,6.89,2.71,6.89,6.66v3.01c0,1.35.22,2.16,1.5,3.11.37.29.26.77-.14.77M22.18,16.56c0-1.29-.81-2.35-1.83-2.35s-1.8,1.06-1.8,2.35.81,2.35,1.8,2.35,1.83-1.07,1.83-2.35"/>
  <path class="cls-1" d="M43.94,20.91h-3.73c-1.18-.02-2.24-.7-2.75-1.76-.86,1.11-2.18,1.76-3.59,1.76-2.39,0-4.32-1.93-4.32-4.32,0-2.39,1.93-4.32,4.32-4.32h0c1.4,0,2.73.65,3.59,1.76v-1.12c0-2.13-.8-4.54-2.13-4.54-.55,0-.55.88-.11,1.83.77,1.8-4.73,2.53-4.73.4,0-1.58,1.83-3.26,5.2-3.26,3.92,0,6.89,2.71,6.89,6.66v3.01c0,1.35.22,2.16,1.5,3.11.36.29.26.77-.15.77M37.28,16.56c0-1.29-.8-2.35-1.83-2.35s-1.8,1.06-1.8,2.35.8,2.35,1.8,2.35,1.83-1.07,1.83-2.35"/>
  <path class="cls-1" d="M56.54,16.55c.33,2.05-2.34,4.25-5.53,4.32l-.07.04c-2.35.04-5.06-.7-5.86-2.45-1.28-2.82,4.91-3.37,4.66-.15-.18,2.02,1.5,1.83,1.76.62.73-3.11-6.15-3.38-6.56-7.04-.33-2.71,2.24-4.44,5.5-4.54h.07c2.31-.04,5.06.66,5.86,2.45,1.28,2.82-4.91,3.37-4.61.15.15-2.02-1.61-1.87-1.79-.62-.55,3.16,6.04,3.85,6.59,7.22"/>
  <path class="cls-1" d="M57.68,20.91c-.36,0-.51-.48-.14-.77,1.28-.95,1.5-1.76,1.5-3.11v-3.1c0-1.36-.22-2.16-1.5-3.16-.37-.29-.22-.73.14-.73,3.52,0,4.98-2.38,6.38-2.67.77-.15.4.44.33.92-.99,6.52-.55,10.66.81,11.69.4.29.4.92-.37.92l-7.15.02ZM57.97,4.94c.38-1.53,1.72-2.63,3.3-2.68,1.15-.05,2.12.84,2.17,1.99.01.23-.02.47-.09.69-.39,1.52-1.73,2.61-3.3,2.67-1.15.05-2.13-.85-2.17-2,0-.23.02-.45.08-.67"/>
  <path class="cls-1" d="M73.99,20.91h-7.26c-.36,0-.51-.48-.14-.77,1.28-.95,1.5-1.76,1.5-3.11v-8.22c0-1.36-.22-2.16-1.5-3.11-.37-.29-.22-.73.14-.73,3.52,0,5.12-2.42,6.49-2.68.77-.18.44.44.36.92-1.28,7-.55,15.8.81,16.82.36.29.4.92-.4.92"/>
  <path class="cls-1" d="M9.61,9.79c.47-1.02.88-2,1.34-2.93.72-1.59,1.72-3.03,2.95-4.27,1.46-1.39,3.34-2.26,5.35-2.49,1.51-.17,3.04-.13,4.55.1.2.03.29.1.24.32-.18.88-.36,1.76-.51,2.65-.04.24-.14.3-.38.27-1.37-.2-2.77-.1-4.1.31-1.63.61-3.01,1.76-3.89,3.26-1.07,1.8-1.99,3.68-2.75,5.63-.76,1.83-1.69,3.58-2.78,5.23-2.08,3.13-5.42,5.19-9.15,5.63-.25.04-.39,0-.39-.29,0-.98-.06-1.97-.08-2.96,0-.29.12-.41.42-.46.96-.17,1.89-.5,2.74-.98,1.59-.92,2.63-2.55,2.8-4.38.22-2.16,0-4.35-.66-6.42-.56-2.05-1.21-4.1-1.8-6.15-.11-.41-.19-.82-.26-1.23-.04-.2-.03-.37.27-.37,1.23,0,2.46.03,3.69,0,.3,0,.41.1.47.39.63,3.03,1.28,6.05,1.94,9.16"/>
</svg>